#VRML V2.0 utf8
# 3D model generated by easyeda2kicad.py (https://github.com/uPesy/easyeda2kicad.py)

Shape{
    appearance Appearance {
        material  Material 	{
            diffuseColor 0.7529411764705882 0.7529411764705882 0.7529411764705882
            specularColor 0.3764705882352941 0.3764705882352941 0.3764705882352941
            ambientIntensity 0.2
            transparency 0
            shininess 0.5
        }
    }
    geometry IndexedFaceSet {
        ccw TRUE
        solid FALSE
        coord DEF co Coordinate {
            point [
                -3.5433 0.0906 -1.1811, -3.5433 0.4362 -1.1811, -3.1988 0.4362 -1.1811, 1.9677 0.4362 -1.1811, 2.0054 0.4362 -1.1811, 1.991 0.4332 -1.1811, 2.0525 0.3963 -1.1811, 2.0475 0.4164 -1.1811, 2.0571 0.4362 -1.1811, 2.034 0.4306 -1.1811, 2.0164 0.4362 -1.1811, 2.0571 0.9055 -1.1811, 2.0137 0.4371 -1.1811, 1.9677 0.9055 -1.1811, 2.0102 0.4372 -1.1811, 1.9829 0.4282 -1.1811, 1.9783 0.4238 -1.1811, 1.9758 0.4207 -1.1811, 1.9677 0.0906 -1.1811, 1.9758 0.3709 -1.1811, 1.9909 0.3585 -1.1811, 2.0281 0.4248 -1.1811, 2.0403 0.4138 -1.1811, 2.0106 0.4291 -1.1811, 2.0454 0.3989 -1.1811, 2.0455 0.3957 -1.1811, 2.0414 0.3795 -1.1811, 2.0305 0.3681 -1.1811, 2.0151 0.3628 -1.1811, 1.982 0.3756 -1.1811, 1.982 0.416 -1.1811, 1.9946 0.3658 -1.1811, 1.9948 0.4259 -1.1811, 2.0101 0.3625 -1.1811, 2.0022 0.4283 -1.1811, 2.0074 0.429 -1.1811, 2.0571 0.0906 -1.1811, 2.0279 0.3576 -1.1811, 2.0356 0.3618 -1.1811, 2.0401 0.3655 -1.1811, 2.0426 0.3682 -1.1811, 2.0501 0.3813 -1.1811, 1.9999 0.3555 -1.1811, 2.0061 0.3546 -1.1811, 2.0101 0.3544 -1.1811, 1.9082 -0.1732 -1.1811, 1.8701 -0.1732 -1.1811, 1.8315 0.0906 -1.1811, 1.8701 -0.3701 -1.1811, 2.6575 -0.3701 -1.1811, 3.3465 -0.689 -1.1811, 2.9528 -0.689 -1.1811, 3.5433 0.0906 -1.1811, 3.5433 -0.9055 -1.1811, 3.3465 -0.9055 -1.1811, 2.0571 -0.3701 -1.1811, 2.0669 -0.3701 -1.1811, 2.9528 -0.9055 -1.1811, 2.8543 -0.3701 -1.1811, 2.8543 -0.1732 -1.1811, 2.6575 -0.1732 -1.1811, 2.0571 -0.9055 -1.1811, 1.9677 -0.9055 -1.1811, 1.9677 -0.3701 -1.1811, 1.9082 -0.9055 -1.1811, 1.9082 -0.3701 -1.1811, -3.3465 -0.9055 -1.1811, -3.5433 -0.9055 -1.1811, -3.3465 -0.689 -1.1811, -3.1988 -0.689 -1.1811, -3.1988 0.0906 -1.1811, -2.3622 -0.9055 -1.1811, -2.9528 -0.9055 -1.1811, -2.9528 -0.689 -1.1811, -2.3622 0.0906 -1.1811, -2.6575 -0.3701 -1.1811, -2.8543 -0.3701 -1.1811, -2.8543 -0.1732 -1.1811, -2.6575 -0.1732 -1.1811, -1.8701 -0.3701 -1.1811, -1.5748 -0.9055 -1.1811, -2.0669 -0.3701 -1.1811, -2.0669 -0.1732 -1.1811, -1.8701 -0.1732 -1.1811, -1.5748 0.0906 -1.1811, -1.0827 -0.3701 -1.1811, -0.7874 -0.9055 -1.1811, -1.2795 -0.3701 -1.1811, -1.2795 -0.1732 -1.1811, -1.0827 -0.1732 -1.1811, -0.7874 0.0906 -1.1811, -0.2953 -0.3701 -1.1811, -0.0 -0.9055 -1.1811, -0.4921 -0.3701 -1.1811, -0.4921 -0.1732 -1.1811, -0.2953 -0.1732 -1.1811, -0.0 0.0906 -1.1811, 0.4921 -0.3701 -1.1811, 0.4921 -0.1732 -1.1811, 1.0827 -0.1732 -1.1811, 1.0827 -0.3701 -1.1811, 1.2795 -0.3701 -1.1811, 1.5156 -0.9055 -1.1811, 0.2953 -0.3701 -1.1811, 0.2953 -0.1732 -1.1811, 1.5156 0.0906 -1.1811, 1.2795 -0.1732 -1.1811, -2.3622 0.4362 -1.1811, -1.5748 0.4362 -1.1811, -0.7874 0.4362 -1.1811, -0.0 0.4362 -1.1811, 1.5156 0.4362 -1.1811, 1.8315 -0.9055 -1.1811, 1.8187 0.3564 -1.1811, 1.8264 0.3564 -1.1811, 1.7881 0.4352 -1.1811, 1.8315 0.4362 -1.1811, 1.7891 0.4352 -1.1811, 1.7517 0.3564 -1.1811, 1.7594 0.3564 -1.1811, 1.771 0.3817 -1.1811, 1.8067 0.3817 -1.1811, 1.8602 0.4323 -1.1811, 1.846 0.4228 -1.1811, 1.8524 0.3619 -1.1811, 1.8682 0.3569 -1.1811, 1.8767 0.3564 -1.1811, 1.9082 0.0906 -1.1811, 1.9677 -0.1732 -1.1811, 2.0571 -0.1732 -1.1811, 2.0669 -0.1732 -1.1811, 1.9011 0.3564 -1.1811, 1.9011 0.4352 -1.1811, 1.9082 0.4362 -1.1811, 1.8852 0.4352 -1.1811, 1.8726 0.4347 -1.1811, 1.838 0.4072 -1.1811, 1.8365 0.3948 -1.1811, 1.841 0.375 -1.1811, 1.9153 0.4271 -1.1811, 1.9526 0.4271 -1.1811, 1.9526 0.4029 -1.1811, 1.9153 0.4029 -1.1811, 1.9153 0.3948 -1.1811, 1.9526 0.3948 -1.1811, 1.9526 0.3645 -1.1811, 1.9153 0.3645 -1.1811, 1.9153 0.3564 -1.1811, 1.9597 0.3564 -1.1811, 1.9597 0.4352 -1.1811, 1.9153 0.4352 -1.1811, 1.9082 0.9055 -1.1811, 1.8315 0.9055 -1.1811, 1.5156 0.9055 -1.1811, -0.0 0.9055 -1.1811, -0.7874 0.9055 -1.1811, -1.5748 0.9055 -1.1811, -2.3622 0.9055 -1.1811, -3.1988 0.9055 -1.1811, -3.5433 0.9055 -1.1811, 3.5433 0.4362 -1.1811, 2.099 0.3564 -1.1811, 2.099 0.4352 -1.1811, 2.0919 0.4352 -1.1811, 2.0919 0.3645 -1.1811, 2.0616 0.3645 -1.1811, 2.0616 0.3564 -1.1811, 3.5433 0.9055 -1.1811, -3.3268 -0.3661 1.1811, -3.5433 -0.3661 1.1811, -3.3268 -0.689 1.1811, -3.5433 -0.9055 1.1811, -2.3622 -0.689 1.1811, -2.3622 -0.9055 1.1811, -3.3268 -0.689 0.4724, -2.9528 -0.689 0.4724, -2.9528 -0.689 -0.4528, -2.3622 -0.689 -0.4528, 2.3622 -0.689 1.1811, 2.3622 -0.9055 1.1811, 3.3268 -0.689 1.1811, 3.5433 -0.9055 1.1811, 3.3268 -0.3661 1.1811, 3.5433 -0.3661 1.1811, 3.5433 0.9055 1.1811, 3.5433 0.0197 1.1811, 3.5433 0.0197 0.3346, 3.5433 -0.3661 0.3346, -3.5433 0.9055 1.1811, -3.5433 0.0197 1.1811, -3.5433 0.0197 0.3346, -3.5433 -0.3661 0.3346, -3.3465 -0.9055 0.4724, -2.9528 -0.9055 0.4724, -2.3622 -0.9055 -0.4528, -1.5748 -0.9055 -0.4528, -0.7874 -0.9055 -0.4528, 0.0 -0.9055 -0.4528, 0.7874 -0.9055 -0.4528, 1.5748 -0.9055 -0.4528, 3.3465 -0.9055 0.4724, 2.9528 -0.9055 0.4724, 2.3622 -0.9055 -0.4528, 3.3268 0.0197 1.1811, 3.3268 0.689 1.1811, -3.3268 0.689 1.1811, -3.3268 0.0197 1.1811, 3.3268 0.0197 0.3346, 3.3268 -0.689 0.4724, 3.3268 -0.3661 0.3346, 3.3268 0.689 -0.4528, 3.3268 0.2579 -0.4528, 3.3268 -0.689 -0.4528, 2.9528 -0.689 -0.4528, 2.3622 -0.689 -0.4528, 2.9528 -0.689 0.4724, -3.3268 -0.3661 0.3346, -3.3268 0.689 -0.4528, -3.3268 0.0197 0.3346, -3.3268 0.2579 -0.4528, -3.3268 -0.689 -0.4528, -3.0906 0.689 -0.4528, -2.3622 0.689 -0.4528, -1.5748 0.689 -0.4528, -0.7874 0.689 -0.4528, 0.0 0.689 -0.4528, 0.7874 0.689 -0.4528, 1.5748 0.689 -0.4528, 2.3622 0.689 -0.4528, 2.8543 -0.3701 -0.4528, 2.8543 -0.1732 -0.4528, 2.6575 -0.1732 -0.4528, 2.3622 0.2579 -0.4528, 2.6575 -0.3701 -0.4528, -3.0906 0.2579 -0.4528, -3.0906 -0.689 -0.4528, -2.8543 -0.3701 -0.4528, -2.6575 -0.3701 -0.4528, -2.6575 -0.1732 -0.4528, -2.3622 0.2579 -0.4528, -2.8543 -0.1732 -0.4528, 1.8701 -0.3701 -0.4528, 1.5748 0.2579 -0.4528, 1.8701 -0.1732 -0.4528, 2.0669 -0.1732 -0.4528, 2.0669 -0.3701 -0.4528, 1.0827 -0.1732 -0.4528, 0.7874 0.2579 -0.4528, 1.0827 -0.3701 -0.4528, 1.2795 -0.3701 -0.4528, 1.2795 -0.1732 -0.4528, 0.2953 -0.1732 -0.4528, -0.0 0.2579 -0.4528, 0.2953 -0.3701 -0.4528, 0.4921 -0.3701 -0.4528, 0.4921 -0.1732 -0.4528, -0.4921 -0.1732 -0.4528, -0.7874 0.2579 -0.4528, -0.4921 -0.3701 -0.4528, -0.2953 -0.3701 -0.4528, -0.2953 -0.1732 -0.4528, -1.2795 -0.1732 -0.4528, -1.5748 0.2579 -0.4528, -1.2795 -0.3701 -0.4528, -1.0827 -0.3701 -0.4528, -1.0827 -0.1732 -0.4528, -2.0669 -0.3701 -0.4528, -2.0669 -0.1732 -0.4528, -1.8701 -0.1732 -0.4528, -1.8701 -0.3701 -0.4528, -3.3465 -0.689 0.4724, 3.3465 -0.689 0.4724, 2.7165 -0.311 0.7874, 2.7953 -0.311 0.7874, 2.7165 -0.2323 0.7874, 2.7953 -0.2323 0.7874, 2.8543 -0.1732 0.7283, 2.6575 -0.1732 0.7283, 2.6575 -0.3701 0.7283, 2.8543 -0.3701 0.7283, 2.8543 -0.1732 -2.3031, 2.8543 -0.3701 -2.3031, 2.6575 -0.3701 -2.3031, 2.6575 -0.1732 -2.3031, 2.7953 -0.2323 -2.3622, 2.7953 -0.311 -2.3622, 2.7165 -0.2323 -2.3622, 2.7165 -0.311 -2.3622, 1.9291 -0.311 0.7874, 2.0079 -0.311 0.7874, 1.9291 -0.2323 0.7874, 2.0079 -0.2323 0.7874, 2.0669 -0.1732 0.7283, 1.8701 -0.1732 0.7283, 1.8701 -0.3701 0.7283, 2.0669 -0.3701 0.7283, 2.0669 -0.1732 -2.3031, 2.0669 -0.3701 -2.3031, 1.8701 -0.3701 -2.3031, 1.8701 -0.1732 -2.3031, 2.0079 -0.2323 -2.3622, 2.0079 -0.311 -2.3622, 1.9291 -0.2323 -2.3622, 1.9291 -0.311 -2.3622, 1.1417 -0.311 0.7874, 1.2205 -0.311 0.7874, 1.1417 -0.2323 0.7874, 1.2205 -0.2323 0.7874, 1.2795 -0.1732 0.7283, 1.0827 -0.1732 0.7283, 1.0827 -0.3701 0.7283, 1.2795 -0.3701 0.7283, 1.2795 -0.1732 -2.3031, 1.2795 -0.3701 -2.3031, 1.0827 -0.3701 -2.3031, 1.0827 -0.1732 -2.3031, 1.2205 -0.2323 -2.3622, 1.2205 -0.311 -2.3622, 1.1417 -0.2323 -2.3622, 1.1417 -0.311 -2.3622, 0.3543 -0.311 0.7874, 0.4331 -0.311 0.7874, 0.3543 -0.2323 0.7874, 0.4331 -0.2323 0.7874, 0.4921 -0.1732 0.7283, 0.2953 -0.1732 0.7283, 0.2953 -0.3701 0.7283, 0.4921 -0.3701 0.7283, 0.4921 -0.1732 -2.3031, 0.4921 -0.3701 -2.3031, 0.2953 -0.3701 -2.3031, 0.2953 -0.1732 -2.3031, 0.4331 -0.2323 -2.3622, 0.4331 -0.311 -2.3622, 0.3543 -0.2323 -2.3622, 0.3543 -0.311 -2.3622, -0.4331 -0.311 0.7874, -0.3543 -0.311 0.7874, -0.4331 -0.2323 0.7874, -0.3543 -0.2323 0.7874, -0.2953 -0.1732 0.7283, -0.4921 -0.1732 0.7283, -0.4921 -0.3701 0.7283, -0.2953 -0.3701 0.7283, -0.2953 -0.1732 -2.3031, -0.2953 -0.3701 -2.3031, -0.4921 -0.3701 -2.3031, -0.4921 -0.1732 -2.3031, -0.3543 -0.2323 -2.3622, -0.3543 -0.311 -2.3622, -0.4331 -0.2323 -2.3622, -0.4331 -0.311 -2.3622, -1.2205 -0.311 0.7874, -1.1417 -0.311 0.7874, -1.2205 -0.2323 0.7874, -1.1417 -0.2323 0.7874, -1.0827 -0.1732 0.7283, -1.2795 -0.1732 0.7283, -1.2795 -0.3701 0.7283, -1.0827 -0.3701 0.7283, -1.0827 -0.1732 -2.3031, -1.0827 -0.3701 -2.3031, -1.2795 -0.3701 -2.3031, -1.2795 -0.1732 -2.3031, -1.1417 -0.2323 -2.3622, -1.1417 -0.311 -2.3622, -1.2205 -0.2323 -2.3622, -1.2205 -0.311 -2.3622, -2.0079 -0.311 0.7874, -1.9291 -0.311 0.7874, -2.0079 -0.2323 0.7874, -1.9291 -0.2323 0.7874, -1.8701 -0.1732 0.7283, -2.0669 -0.1732 0.7283, -2.0669 -0.3701 0.7283, -1.8701 -0.3701 0.7283, -1.8701 -0.1732 -2.3031, -1.8701 -0.3701 -2.3031, -2.0669 -0.3701 -2.3031, -2.0669 -0.1732 -2.3031, -1.9291 -0.2323 -2.3622, -1.9291 -0.311 -2.3622, -2.0079 -0.2323 -2.3622, -2.0079 -0.311 -2.3622, -2.7953 -0.311 0.7874, -2.7165 -0.311 0.7874, -2.7953 -0.2323 0.7874, -2.7165 -0.2323 0.7874, -2.6575 -0.1732 0.7283, -2.8543 -0.1732 0.7283, -2.8543 -0.3701 0.7283, -2.6575 -0.3701 0.7283, -2.6575 -0.1732 -2.3031, -2.6575 -0.3701 -2.3031, -2.8543 -0.3701 -2.3031, -2.8543 -0.1732 -2.3031, -2.7165 -0.2323 -2.3622, -2.7165 -0.311 -2.3622, -2.7953 -0.2323 -2.3622, -2.7953 -0.311 -2.3622, 2.099 0.3564 -1.1417, 2.099 0.4352 -1.1417, 2.0919 0.4352 -1.1417, 2.0919 0.3645 -1.1417, 2.0616 0.3645 -1.1417, 2.0616 0.3564 -1.1417, 1.7891 0.4352 -1.1417, 1.7881 0.4352 -1.1417, 1.7517 0.3564 -1.1417, 1.7594 0.3564 -1.1417, 1.771 0.3817 -1.1417, 1.8067 0.3817 -1.1417, 1.8187 0.3564 -1.1417, 1.8264 0.3564 -1.1417, 1.7748 0.3898 -1.1417, 1.8029 0.3898 -1.1417, 1.7886 0.4198 -1.1417, 1.7748 0.3898 -1.1811, 1.7886 0.4198 -1.1811, 1.8029 0.3898 -1.1811, 1.8767 0.3564 -1.1417, 1.9011 0.3564 -1.1417, 1.9011 0.4352 -1.1417, 1.8852 0.4352 -1.1417, 1.8602 0.4323 -1.1417, 1.8726 0.4347 -1.1417, 1.8365 0.3948 -1.1417, 1.838 0.4072 -1.1417, 1.846 0.4228 -1.1417, 1.8682 0.3569 -1.1417, 1.8524 0.3619 -1.1417, 1.841 0.375 -1.1417, 1.8448 0.385 -1.1417, 1.8513 0.3735 -1.1417, 1.8625 0.3665 -1.1417, 1.8737 0.3648 -1.1417, 1.885 0.3645 -1.1417, 1.8941 0.3645 -1.1417, 1.8941 0.4271 -1.1417, 1.8885 0.4271 -1.1417, 1.8763 0.4267 -1.1417, 1.8643 0.4249 -1.1417, 1.8556 0.4207 -1.1417, 1.847 0.4106 -1.1417, 1.8436 0.3948 -1.1417, 1.8941 0.4271 -1.1811, 1.8941 0.3645 -1.1811, 1.8885 0.4271 -1.1811, 1.8763 0.4267 -1.1811, 1.8643 0.4249 -1.1811, 1.8556 0.4207 -1.1811, 1.847 0.4106 -1.1811, 1.8436 0.3948 -1.1811, 1.8448 0.385 -1.1811, 1.8513 0.3735 -1.1811, 1.8625 0.3665 -1.1811, 1.8737 0.3648 -1.1811, 1.885 0.3645 -1.1811, 1.9597 0.3564 -1.1417, 1.9597 0.4352 -1.1417, 1.9153 0.4352 -1.1417, 1.9153 0.4271 -1.1417, 1.9526 0.4271 -1.1417, 1.9526 0.4029 -1.1417, 1.9153 0.4029 -1.1417, 1.9153 0.3948 -1.1417, 1.9526 0.3948 -1.1417, 1.9526 0.3645 -1.1417, 1.9153 0.3645 -1.1417, 1.9153 0.3564 -1.1417, 2.0102 0.4372 -1.1417, 1.991 0.4332 -1.1417, 1.9829 0.4282 -1.1417, 1.9783 0.4238 -1.1417, 1.9758 0.4207 -1.1417, 1.982 0.416 -1.1417, 2.0106 0.4291 -1.1417, 2.0074 0.429 -1.1417, 2.0022 0.4283 -1.1417, 1.9948 0.4259 -1.1417, 2.0455 0.3957 -1.1417, 2.0454 0.3989 -1.1417, 2.0403 0.4138 -1.1417, 2.0281 0.4248 -1.1417, 2.0101 0.3625 -1.1417, 2.0151 0.3628 -1.1417, 2.0305 0.3681 -1.1417, 2.0414 0.3795 -1.1417, 1.982 0.3756 -1.1417, 1.9946 0.3658 -1.1417, 1.9758 0.3709 -1.1417, 2.0101 0.3544 -1.1417, 2.0061 0.3546 -1.1417, 1.9999 0.3555 -1.1417, 1.9909 0.3585 -1.1417, 2.0426 0.3682 -1.1417, 2.0401 0.3655 -1.1417, 2.0356 0.3618 -1.1417, 2.0279 0.3576 -1.1417, 2.0525 0.3963 -1.1417, 2.0501 0.3813 -1.1417, 2.0137 0.4371 -1.1417, 2.034 0.4306 -1.1417, 2.0475 0.4164 -1.1417, 2.0475 0.4164 -1.1417
            ]
        }
        coordIndex [
            0,1,2,-1,3,4,5,-1,6,7,8,-1,7,9,8,-1,8,9,10,-1,8,10,11,-1,11,10,12,-1,11,12,13,-1,13,12,14,-1,13,14,4,-1,5,15,3,-1,3,15,16,-1,3,16,17,-1,18,19,20,-1,21,22,23,-1,23,22,24,-1,23,24,25,-1,25,26,23,-1,23,26,27,-1,23,27,28,-1,18,3,19,-1,19,3,17,-1,19,17,29,-1,29,17,30,-1,29,30,31,-1,31,30,32,-1,31,32,33,-1,33,32,34,-1,33,34,28,-1,28,34,35,-1,28,35,23,-1,36,37,38,-1,38,39,36,-1,36,39,40,-1,36,40,41,-1,20,42,18,-1,18,42,43,-1,18,43,36,-1,36,43,44,-1,36,44,37,-1,45,46,47,-1,47,46,48,-1,49,50,51,-1,52,53,50,-1,50,53,54,-1,55,56,57,-1,49,58,50,-1,50,58,59,-1,50,59,52,-1,52,59,60,-1,57,61,55,-1,55,61,62,-1,55,62,63,-1,63,62,64,-1,63,64,65,-1,66,67,68,-1,68,67,0,-1,68,0,69,-1,69,0,70,-1,71,72,73,-1,74,71,75,-1,75,71,73,-1,75,73,76,-1,76,73,69,-1,76,69,77,-1,77,69,70,-1,77,70,78,-1,78,70,74,-1,78,74,75,-1,79,80,81,-1,81,80,71,-1,81,71,82,-1,82,71,74,-1,82,74,83,-1,83,74,84,-1,83,84,79,-1,79,84,80,-1,85,86,87,-1,87,86,80,-1,87,80,88,-1,88,80,84,-1,88,84,89,-1,89,84,90,-1,89,90,85,-1,85,90,86,-1,91,92,93,-1,93,92,86,-1,93,86,94,-1,94,86,90,-1,94,90,95,-1,95,90,96,-1,95,96,91,-1,91,96,92,-1,97,98,99,-1,100,101,102,-1,99,100,97,-1,97,100,102,-1,97,102,103,-1,103,102,92,-1,103,92,104,-1,104,92,96,-1,104,96,98,-1,98,96,105,-1,98,105,99,-1,99,105,106,-1,0,2,70,-1,70,2,107,-1,70,107,74,-1,74,107,108,-1,74,108,84,-1,84,108,109,-1,84,109,90,-1,90,109,110,-1,90,110,96,-1,96,110,111,-1,96,111,105,-1,65,64,48,-1,48,64,112,-1,48,112,47,-1,47,112,102,-1,47,102,105,-1,105,102,101,-1,105,101,106,-1,113,114,47,-1,115,111,116,-1,47,114,116,-1,116,114,117,-1,116,117,115,-1,111,115,105,-1,105,115,118,-1,105,118,47,-1,47,118,119,-1,47,119,113,-1,113,119,120,-1,113,120,121,-1,122,123,116,-1,47,124,125,-1,125,126,47,-1,47,126,127,-1,47,127,45,-1,45,127,18,-1,45,18,128,-1,128,18,36,-1,128,36,129,-1,129,36,130,-1,131,132,133,-1,133,132,134,-1,133,134,116,-1,116,134,135,-1,116,135,122,-1,123,136,116,-1,116,136,137,-1,116,137,47,-1,47,137,138,-1,47,138,124,-1,126,131,127,-1,127,131,133,-1,127,133,139,-1,140,141,139,-1,139,141,142,-1,139,142,127,-1,127,142,143,-1,144,145,143,-1,143,145,146,-1,143,146,127,-1,127,146,147,-1,127,147,18,-1,18,147,148,-1,18,148,3,-1,3,148,149,-1,3,149,133,-1,133,149,150,-1,133,150,139,-1,4,3,13,-1,13,3,133,-1,13,133,151,-1,151,133,116,-1,151,116,152,-1,152,116,111,-1,152,111,153,-1,153,111,110,-1,153,110,154,-1,154,110,109,-1,154,109,155,-1,155,109,108,-1,155,108,156,-1,156,108,107,-1,156,107,157,-1,157,107,2,-1,157,2,158,-1,158,2,1,-1,158,1,159,-1,160,52,161,-1,162,163,8,-1,8,163,164,-1,8,164,165,-1,41,6,36,-1,36,6,8,-1,36,8,166,-1,166,8,165,-1,51,57,49,-1,49,57,56,-1,49,56,60,-1,60,56,130,-1,60,130,52,-1,52,130,36,-1,52,36,161,-1,161,36,166,-1,11,167,8,-1,8,167,160,-1,8,160,162,-1,162,160,161,-1,168,169,170,-1,170,169,171,-1,170,171,172,-1,172,171,173,-1,174,170,175,-1,175,170,172,-1,175,172,176,-1,176,172,177,-1,178,179,180,-1,180,179,181,-1,180,181,182,-1,182,181,183,-1,184,185,167,-1,167,185,186,-1,167,186,160,-1,183,181,187,-1,187,181,53,-1,187,53,186,-1,186,53,52,-1,186,52,160,-1,184,167,11,-1,11,13,184,-1,184,13,151,-1,184,151,152,-1,152,153,184,-1,184,153,154,-1,184,154,188,-1,188,154,155,-1,188,155,156,-1,156,157,188,-1,188,157,158,-1,188,158,159,-1,189,188,190,-1,190,188,159,-1,171,169,67,-1,67,169,191,-1,67,191,0,-1,0,191,190,-1,0,190,1,-1,1,190,159,-1,171,67,192,-1,192,67,66,-1,171,192,173,-1,173,192,193,-1,173,193,194,-1,193,72,194,-1,194,72,71,-1,194,71,195,-1,195,71,80,-1,195,80,196,-1,196,80,86,-1,196,86,197,-1,197,86,92,-1,197,92,198,-1,198,92,102,-1,198,102,199,-1,199,102,112,-1,199,112,64,-1,54,53,200,-1,200,53,181,-1,200,181,201,-1,201,181,179,-1,201,179,57,-1,57,179,202,-1,57,202,61,-1,61,202,199,-1,61,199,62,-1,62,199,64,-1,203,185,204,-1,204,185,184,-1,204,184,205,-1,205,184,188,-1,205,188,206,-1,206,188,189,-1,207,203,204,-1,180,182,208,-1,208,182,209,-1,204,210,207,-1,207,210,211,-1,207,211,209,-1,209,211,212,-1,209,212,208,-1,213,214,215,-1,215,214,178,-1,215,178,208,-1,208,178,180,-1,170,174,168,-1,168,174,216,-1,205,206,217,-1,217,206,218,-1,217,218,219,-1,219,218,216,-1,219,216,220,-1,220,216,174,-1,217,221,205,-1,205,221,222,-1,222,223,205,-1,205,223,224,-1,205,224,204,-1,204,224,225,-1,204,225,226,-1,226,227,204,-1,204,227,228,-1,204,228,210,-1,214,213,229,-1,229,213,212,-1,229,212,230,-1,230,212,211,-1,230,211,231,-1,231,211,232,-1,231,232,233,-1,233,232,214,-1,233,214,229,-1,219,220,234,-1,234,220,235,-1,234,235,236,-1,236,235,176,-1,236,176,237,-1,237,176,177,-1,237,177,238,-1,238,177,239,-1,238,239,240,-1,240,239,234,-1,240,234,236,-1,202,214,199,-1,199,214,241,-1,199,241,242,-1,242,241,243,-1,242,243,232,-1,232,243,244,-1,232,244,214,-1,214,244,245,-1,214,245,241,-1,246,247,248,-1,248,247,198,-1,248,198,249,-1,249,198,199,-1,249,199,250,-1,250,199,242,-1,250,242,246,-1,246,242,247,-1,251,252,253,-1,253,252,197,-1,253,197,254,-1,254,197,198,-1,254,198,255,-1,255,198,247,-1,255,247,251,-1,251,247,252,-1,256,257,258,-1,258,257,196,-1,258,196,259,-1,259,196,197,-1,259,197,260,-1,260,197,252,-1,260,252,256,-1,256,252,257,-1,261,262,263,-1,263,262,195,-1,263,195,264,-1,264,195,196,-1,264,196,265,-1,265,196,257,-1,265,257,261,-1,261,257,262,-1,194,195,177,-1,177,195,266,-1,177,266,239,-1,239,266,267,-1,239,267,262,-1,262,267,268,-1,262,268,195,-1,195,268,269,-1,195,269,266,-1,211,210,232,-1,232,210,228,-1,232,228,242,-1,242,228,227,-1,242,227,247,-1,247,227,226,-1,247,226,252,-1,252,226,225,-1,252,225,257,-1,257,225,224,-1,257,224,262,-1,262,224,223,-1,262,223,239,-1,239,223,222,-1,239,222,234,-1,234,222,221,-1,234,221,219,-1,219,221,217,-1,191,216,190,-1,190,216,218,-1,190,218,189,-1,189,218,206,-1,169,168,191,-1,191,168,216,-1,187,209,183,-1,183,209,182,-1,185,203,186,-1,186,203,207,-1,186,207,187,-1,187,207,209,-1,173,194,172,-1,172,194,177,-1,202,179,214,-1,214,179,178,-1,73,176,69,-1,69,176,235,-1,69,235,68,-1,68,235,220,-1,68,220,270,-1,270,220,174,-1,192,66,270,-1,270,66,68,-1,175,193,174,-1,174,193,192,-1,174,192,270,-1,73,72,176,-1,176,72,193,-1,176,193,175,-1,271,208,212,-1,213,51,212,-1,212,51,50,-1,212,50,271,-1,215,201,213,-1,213,201,57,-1,213,57,51,-1,271,200,208,-1,208,200,201,-1,208,201,215,-1,54,200,50,-1,50,200,271,-1,272,273,274,-1,274,273,275,-1,276,230,277,-1,277,230,231,-1,277,231,278,-1,278,231,233,-1,278,233,279,-1,279,233,229,-1,279,229,276,-1,276,229,230,-1,280,59,281,-1,281,59,58,-1,281,58,282,-1,282,58,49,-1,282,49,283,-1,283,49,60,-1,283,60,280,-1,280,60,59,-1,284,285,286,-1,286,285,287,-1,282,287,281,-1,281,287,285,-1,283,286,282,-1,282,286,287,-1,284,280,285,-1,285,280,281,-1,280,284,283,-1,283,284,286,-1,276,275,279,-1,279,275,273,-1,277,274,276,-1,276,274,275,-1,272,278,273,-1,273,278,279,-1,278,272,277,-1,277,272,274,-1,288,289,290,-1,290,289,291,-1,292,244,293,-1,293,244,243,-1,293,243,294,-1,294,243,241,-1,294,241,295,-1,295,241,245,-1,295,245,292,-1,292,245,244,-1,296,130,297,-1,297,130,56,-1,65,48,298,-1,297,56,55,-1,297,55,298,-1,298,55,63,-1,298,63,65,-1,298,48,299,-1,299,48,46,-1,299,46,45,-1,130,296,129,-1,129,296,299,-1,129,299,128,-1,128,299,45,-1,300,301,302,-1,302,301,303,-1,304,305,306,-1,306,305,307,-1,308,250,309,-1,309,250,246,-1,309,246,310,-1,310,246,248,-1,310,248,311,-1,311,248,249,-1,311,249,308,-1,308,249,250,-1,312,106,313,-1,313,106,101,-1,313,101,314,-1,314,101,100,-1,314,100,315,-1,315,100,99,-1,315,99,312,-1,312,99,106,-1,316,317,318,-1,318,317,319,-1,320,321,322,-1,322,321,323,-1,324,255,325,-1,325,255,251,-1,325,251,326,-1,326,251,253,-1,326,253,327,-1,327,253,254,-1,327,254,324,-1,324,254,255,-1,328,98,329,-1,329,98,97,-1,329,97,330,-1,330,97,103,-1,330,103,331,-1,331,103,104,-1,331,104,328,-1,328,104,98,-1,332,333,334,-1,334,333,335,-1,336,337,338,-1,338,337,339,-1,340,260,341,-1,341,260,256,-1,341,256,342,-1,342,256,258,-1,342,258,343,-1,343,258,259,-1,343,259,340,-1,340,259,260,-1,344,95,345,-1,345,95,91,-1,345,91,346,-1,346,91,93,-1,346,93,347,-1,347,93,94,-1,347,94,344,-1,344,94,95,-1,348,349,350,-1,350,349,351,-1,352,353,354,-1,354,353,355,-1,356,265,357,-1,357,265,261,-1,357,261,358,-1,358,261,263,-1,358,263,359,-1,359,263,264,-1,359,264,356,-1,356,264,265,-1,360,89,361,-1,361,89,85,-1,361,85,362,-1,362,85,87,-1,362,87,363,-1,363,87,88,-1,363,88,360,-1,360,88,89,-1,364,365,366,-1,366,365,367,-1,368,369,370,-1,370,369,371,-1,372,268,373,-1,373,268,267,-1,373,267,374,-1,374,267,266,-1,374,266,375,-1,375,266,269,-1,375,269,372,-1,372,269,268,-1,376,83,377,-1,377,83,79,-1,377,79,378,-1,378,79,81,-1,378,81,379,-1,379,81,82,-1,379,82,376,-1,376,82,83,-1,380,381,382,-1,382,381,383,-1,384,385,386,-1,386,385,387,-1,388,238,389,-1,389,238,240,-1,389,240,390,-1,390,240,236,-1,390,236,391,-1,391,236,237,-1,391,237,388,-1,388,237,238,-1,392,78,393,-1,393,78,75,-1,393,75,394,-1,394,75,76,-1,394,76,395,-1,395,76,77,-1,395,77,392,-1,392,77,78,-1,396,397,398,-1,398,397,399,-1,298,303,297,-1,297,303,301,-1,299,302,298,-1,298,302,303,-1,300,296,301,-1,301,296,297,-1,296,300,299,-1,299,300,302,-1,292,291,295,-1,295,291,289,-1,293,290,292,-1,292,290,291,-1,288,294,289,-1,289,294,295,-1,294,288,293,-1,293,288,290,-1,314,319,313,-1,313,319,317,-1,315,318,314,-1,314,318,319,-1,316,312,317,-1,317,312,313,-1,312,316,315,-1,315,316,318,-1,308,307,311,-1,311,307,305,-1,309,306,308,-1,308,306,307,-1,304,310,305,-1,305,310,311,-1,310,304,309,-1,309,304,306,-1,330,335,329,-1,329,335,333,-1,331,334,330,-1,330,334,335,-1,332,328,333,-1,333,328,329,-1,328,332,331,-1,331,332,334,-1,324,323,327,-1,327,323,321,-1,325,322,324,-1,324,322,323,-1,320,326,321,-1,321,326,327,-1,326,320,325,-1,325,320,322,-1,346,351,345,-1,345,351,349,-1,347,350,346,-1,346,350,351,-1,348,344,349,-1,349,344,345,-1,344,348,347,-1,347,348,350,-1,340,339,343,-1,343,339,337,-1,341,338,340,-1,340,338,339,-1,336,342,337,-1,337,342,343,-1,342,336,341,-1,341,336,338,-1,362,367,361,-1,361,367,365,-1,363,366,362,-1,362,366,367,-1,364,360,365,-1,365,360,361,-1,360,364,363,-1,363,364,366,-1,356,355,359,-1,359,355,353,-1,357,354,356,-1,356,354,355,-1,352,358,353,-1,353,358,359,-1,358,352,357,-1,357,352,354,-1,378,383,377,-1,377,383,381,-1,379,382,378,-1,378,382,383,-1,380,376,381,-1,381,376,377,-1,376,380,379,-1,379,380,382,-1,372,371,375,-1,375,371,369,-1,373,370,372,-1,372,370,371,-1,368,374,369,-1,369,374,375,-1,374,368,373,-1,373,368,370,-1,394,399,393,-1,393,399,397,-1,395,398,394,-1,394,398,399,-1,396,392,397,-1,397,392,393,-1,392,396,395,-1,395,396,398,-1,388,387,391,-1,391,387,385,-1,389,386,388,-1,388,386,387,-1,384,390,385,-1,385,390,391,-1,390,384,389,-1,389,384,386,-1,400,401,161,-1,161,401,162,-1,401,402,162,-1,162,402,163,-1,402,403,163,-1,163,403,164,-1,403,404,164,-1,164,404,165,-1,404,405,165,-1,165,405,166,-1,405,400,166,-1,166,400,161,-1,402,401,403,-1,403,401,400,-1,403,400,404,-1,404,400,405,-1,406,407,117,-1,117,407,115,-1,407,408,115,-1,115,408,118,-1,408,409,118,-1,118,409,119,-1,409,410,119,-1,119,410,120,-1,410,411,120,-1,120,411,121,-1,411,412,121,-1,121,412,113,-1,412,413,113,-1,113,413,114,-1,413,406,114,-1,114,406,117,-1,414,408,407,-1,406,415,407,-1,407,415,416,-1,407,416,414,-1,413,412,411,-1,409,408,410,-1,410,408,414,-1,410,414,411,-1,411,414,415,-1,411,415,413,-1,413,415,406,-1,414,416,417,-1,417,416,418,-1,415,414,419,-1,419,414,417,-1,416,415,418,-1,418,415,419,-1,420,421,126,-1,126,421,131,-1,421,422,131,-1,131,422,132,-1,422,423,132,-1,132,423,134,-1,424,122,135,-1,424,135,425,-1,425,135,134,-1,425,134,423,-1,426,137,136,-1,426,136,427,-1,427,136,123,-1,427,123,428,-1,428,123,122,-1,428,122,424,-1,420,126,125,-1,420,125,429,-1,429,125,124,-1,429,124,430,-1,430,124,138,-1,430,138,431,-1,431,138,137,-1,431,137,426,-1,432,433,430,-1,430,433,434,-1,430,434,429,-1,429,434,435,-1,429,435,420,-1,420,435,436,-1,420,436,421,-1,421,436,437,-1,421,437,422,-1,422,437,438,-1,422,438,423,-1,423,438,439,-1,423,439,425,-1,425,439,440,-1,425,440,424,-1,424,440,441,-1,424,441,428,-1,428,441,442,-1,428,442,427,-1,427,442,443,-1,427,443,426,-1,426,443,444,-1,426,444,431,-1,431,444,432,-1,431,432,430,-1,438,437,445,-1,445,437,446,-1,439,438,447,-1,447,438,445,-1,439,447,448,-1,439,448,440,-1,440,448,449,-1,440,449,441,-1,441,449,450,-1,441,450,442,-1,442,450,451,-1,442,451,443,-1,443,451,452,-1,443,452,444,-1,444,452,453,-1,444,453,432,-1,432,453,454,-1,432,454,433,-1,433,454,455,-1,433,455,434,-1,434,455,456,-1,434,456,435,-1,435,456,457,-1,435,457,436,-1,437,436,446,-1,446,436,457,-1,458,459,148,-1,148,459,149,-1,459,460,149,-1,149,460,150,-1,460,461,150,-1,150,461,139,-1,461,462,139,-1,139,462,140,-1,462,463,140,-1,140,463,141,-1,463,464,141,-1,141,464,142,-1,464,465,142,-1,142,465,143,-1,465,466,143,-1,143,466,144,-1,466,467,144,-1,144,467,145,-1,467,468,145,-1,145,468,146,-1,468,469,146,-1,146,469,147,-1,469,458,147,-1,147,458,148,-1,458,469,468,-1,468,467,458,-1,458,467,466,-1,458,466,459,-1,461,460,462,-1,462,460,459,-1,462,459,463,-1,463,459,466,-1,463,466,464,-1,464,466,465,-1,14,470,4,-1,4,470,471,-1,4,471,5,-1,5,471,472,-1,5,472,15,-1,15,472,473,-1,15,473,16,-1,16,473,474,-1,16,474,17,-1,474,475,17,-1,17,475,30,-1,476,23,35,-1,476,35,477,-1,477,35,34,-1,477,34,478,-1,478,34,32,-1,478,32,479,-1,479,32,30,-1,479,30,475,-1,480,25,24,-1,480,24,481,-1,481,24,22,-1,481,22,482,-1,482,22,21,-1,482,21,483,-1,483,21,23,-1,483,23,476,-1,484,33,28,-1,484,28,485,-1,485,28,27,-1,485,27,486,-1,486,27,26,-1,486,26,487,-1,487,26,25,-1,487,25,480,-1,488,29,31,-1,488,31,489,-1,489,31,33,-1,489,33,484,-1,488,490,29,-1,29,490,19,-1,491,44,43,-1,491,43,492,-1,492,43,42,-1,492,42,493,-1,493,42,20,-1,493,20,494,-1,494,20,19,-1,494,19,490,-1,495,40,39,-1,495,39,496,-1,496,39,38,-1,496,38,497,-1,497,38,37,-1,497,37,498,-1,498,37,44,-1,498,44,491,-1,499,6,41,-1,499,41,500,-1,500,41,40,-1,500,40,495,-1,470,14,12,-1,470,12,501,-1,501,12,10,-1,501,10,502,-1,10,9,502,-1,502,9,7,-1,502,7,503,-1,503,7,6,-1,503,6,499,-1,490,488,494,-1,494,488,489,-1,499,500,487,-1,487,500,486,-1,486,500,495,-1,486,495,496,-1,475,474,473,-1,475,473,479,-1,479,473,472,-1,479,472,471,-1,496,497,486,-1,486,497,498,-1,486,498,485,-1,485,498,491,-1,485,491,484,-1,484,491,492,-1,484,492,489,-1,489,492,493,-1,489,493,494,-1,487,480,499,-1,499,480,481,-1,499,481,503,-1,503,481,482,-1,503,482,502,-1,502,482,483,-1,502,483,501,-1,501,483,476,-1,501,476,470,-1,470,476,477,-1,470,477,471,-1,471,477,478,-1,471,478,479,-1,418,419,417,-1,445,446,447,-1,447,446,457,-1,447,457,448,-1,448,457,456,-1,448,456,449,-1,455,454,456,-1,456,454,453,-1,456,453,452,-1,452,451,456,-1,456,451,450,-1,456,450,449,-1,
        ]
    }
}