#VRML V2.0 utf8
# 3D model generated by easyeda2kicad.py (https://github.com/uPesy/easyeda2kicad.py)

Shape{
    appearance Appearance {
        material  Material 	{
            diffuseColor 1.0 1.0 1.0
            specularColor 0.5019607843137255 0.5019607843137255 0.5019607843137255
            ambientIntensity 0.2
            transparency 0
            shininess 0.5
        }
    }
    geometry IndexedFaceSet {
        ccw TRUE
        solid FALSE
        coord DEF co Coordinate {
            point [
                2.3622 0.2007 1.4023, 2.3622 0.2007 1.3196, 2.3622 0.2379 1.3196, 2.3622 -0.8152 1.8701, 2.3622 -1.3189 1.8701, 2.3622 -1.3189 1.4031, 2.3622 0.3468 1.1601, 2.3622 0.3456 1.1599, 2.3622 0.3677 1.1599, 2.3622 0.327 1.1604, 2.3622 0.325 1.1611, 2.3622 0.325 1.1599, 2.3622 0.1069 1.2807, 2.3622 0.1504 1.2807, 2.3622 0.101 1.2954, 2.3622 0.1504 1.4031, 2.3622 0.0875 1.3142, 2.3622 0.0695 1.3295, 2.3622 0.033 1.3668, 2.3622 0.0464 1.3404, 2.3622 0.0497 1.3393, 2.3622 -0.0163 1.4114, 2.3622 -0.0043 1.4031, 2.3622 0.0106 1.3929, 2.3622 -0.0798 1.4274, 2.3622 -0.0494 1.4239, 2.3622 0.1504 2.0621, 2.3622 -0.1415 1.4124, 2.3622 -0.1108 1.4238, 2.3622 -0.5315 1.8701, 2.3622 -0.5315 2.0621, 2.3622 -0.5315 2.185, 2.3622 -0.8152 1.4031, 2.3622 -0.1568 1.4031, 2.3622 -0.1595 1.4015, 2.3622 -0.2963 1.3213, 2.3622 -0.2803 1.3417, 2.3622 -0.2301 1.3704, 2.3622 -0.204 1.3736, 2.3622 -0.1751 1.3881, 2.3622 -0.1963 1.3732, 2.3622 -0.1887 1.3723, 2.3622 -0.2759 1.346, 2.3622 -0.2547 1.3608, 2.3622 -0.2629 1.1759, 2.3622 -0.2837 1.1936, 2.3622 -0.8152 1.1599, 2.3622 -0.2389 1.1642, 2.3622 -0.2988 1.2153, 2.3622 -0.3083 1.24, 2.3622 -0.8152 1.2807, 2.3622 -0.3116 1.266, 2.3622 -0.3114 1.2724, 2.3622 -0.3099 1.2807, 2.3622 -0.3069 1.2973, 2.3622 -0.2305 1.1617, 2.3622 -0.2297 1.1599, 2.3622 -0.2239 1.1475, 2.3622 -0.214 1.1353, 2.3622 -0.1399 1.1229, 2.3622 -0.1513 1.1185, 2.3622 0.1504 0.8071, 2.3622 -0.1674 1.1166, 2.3622 -0.8152 0.8071, 2.3622 -0.17 1.1166, 2.3622 -0.1857 1.1191, 2.3622 -0.8152 1.1229, 2.3622 -0.1949 1.1229, 2.3622 -0.201 1.1255, 2.3622 -0.1052 1.1599, 2.3622 -0.1053 1.1597, 2.3622 0.1504 1.1229, 2.3622 -0.1131 1.1449, 2.3622 -0.1233 1.1334, 2.3622 -0.1365 1.1242, 2.3622 -0.0204 1.1991, 2.3622 -0.0158 1.2009, 2.3622 -0.008 1.2388, 2.3622 -0.1176 1.2275, 2.3622 -0.0286 1.274, 2.3622 -0.1292 1.2381, 2.3622 -0.1433 1.2456, 2.3622 -0.0245 1.1962, 2.3622 0.1008 1.2087, 2.3622 0.0876 1.1903, 2.3622 0.1504 1.1599, 2.3622 0.0707 1.2586, 2.3622 0.0676 1.2713, 2.3622 0.0625 1.2807, 2.3622 -0.2681 1.2807, 2.3622 0.1091 1.2751, 2.3622 0.1122 1.2534, 2.3622 0.1091 1.2297, 2.3622 -0.0107 1.2016, 2.3622 -0.01 1.2015, 2.3622 -0.008 1.2011, 2.3622 -0.2642 1.2408, 2.3622 -0.2562 1.2274, 2.3622 -0.2225 1.2205, 2.3622 -0.2443 1.2151, 2.3622 -0.2299 1.2062, 2.3622 -0.198 1.2425, 2.3622 -0.2115 1.2331, 2.3622 -0.2697 1.2673, 2.3622 -0.2689 1.2571, 2.3622 -0.1833 1.2481, 2.3622 -0.1674 1.2501, 2.3622 -0.1594 1.2496, 2.3622 0.0695 1.175, 2.3622 0.0493 1.1651, 2.3622 0.0272 1.1604, 2.3622 -0.0313 1.181, 2.3622 -0.0311 1.1836, 2.3622 -0.101 1.1896, 2.3622 -0.0298 1.1887, 2.3622 -0.0272 1.1932, 2.3622 0.0575 1.2176, 2.3622 0.0648 1.2279, 2.3622 0.0694 1.2398, 2.3622 0.071 1.2527, 2.3622 -0.012 1.1604, 2.3622 -0.0158 1.161, 2.3622 -0.0202 1.1627, 2.3622 -0.0245 1.1658, 2.3622 -0.026 1.1674, 2.3622 -0.0289 1.1715, 2.3622 -0.0306 1.176, 2.3622 -0.1014 1.1761, 2.3622 -0.101 1.183, 2.3622 -0.0067 1.2009, 2.3622 0.0232 1.2009, 2.3622 0.0351 1.2032, 2.3622 0.0468 1.2086, 2.3622 0.0567 1.2167, 2.3622 -0.0004 1.3444, 2.3622 -0.0154 1.3623, 2.3622 -0.1681 1.3238, 2.3622 -0.0171 1.3638, 2.3622 -0.0357 1.3768, 2.3622 -0.1579 1.3448, 2.3622 -0.1728 1.3264, 2.3622 -0.1877 1.3318, 2.3622 0.0614 1.2828, 2.3622 0.0537 1.2913, 2.3622 0.0192 1.3045, 2.3622 0.0434 1.2985, 2.3622 0.0318 1.303, 2.3622 0.0139 1.3045, 2.3622 0.0098 1.323, 2.3622 -0.2266 1.3295, 2.3622 -0.2414 1.3216, 2.3622 -0.2102 1.3334, 2.3622 -0.2528 1.3115, 2.3622 -0.262 1.2982, 2.3622 -0.1431 1.3626, 2.3622 -0.0566 1.3848, 2.3622 -0.1252 1.3756, 2.3622 -0.0791 1.3875, 2.3622 -0.1036 1.3844, 2.3622 -0.2033 1.3337, 2.3622 -0.2677 1.2834, 2.3622 0.5065 1.2807, 2.3622 0.4976 1.1714, 2.3622 0.5065 1.1599, 2.3622 0.4976 1.1607, 2.3622 0.4769 1.1599, 2.3622 0.4595 1.2028, 2.3622 0.4595 1.1714, 2.3622 0.4769 1.2028, 2.3622 0.4769 1.1714, 2.3622 0.4929 1.2028, 2.3622 0.4595 1.2434, 2.3622 0.4595 1.2135, 2.3622 0.4769 1.2434, 2.3622 0.4769 1.2135, 2.3622 0.4955 1.2434, 2.3622 0.4929 1.2135, 2.3622 0.4769 1.1607, 2.3622 0.4474 1.1607, 2.3622 0.4411 1.1599, 2.3622 0.4474 1.2541, 2.3622 0.2526 1.1893, 2.3622 0.2549 1.1926, 2.3622 0.2566 1.2114, 2.3622 0.2861 1.1642, 2.3622 0.2821 1.1615, 2.3622 0.292 1.1607, 2.3622 0.2777 1.1599, 2.3622 0.3037 1.1607, 2.3622 0.3196 1.1751, 2.3622 0.3037 1.2037, 2.3622 0.3196 1.1631, 2.3622 0.2598 1.1617, 2.3622 0.2459 1.1599, 2.3622 0.2643 1.16, 2.3622 0.2645 1.1599, 2.3622 0.2521 1.1693, 2.3622 0.2507 1.1733, 2.3622 0.2501 1.1786, 2.3622 0.2585 1.1957, 2.3622 0.2636 1.1982, 2.3622 0.2638 1.216, 2.3622 0.2723 1.2004, 2.3622 0.2825 1.219, 2.3622 0.2785 1.2195, 2.3622 0.2711 1.2186, 2.3622 0.292 1.171, 2.3622 0.2917 1.171, 2.3622 0.2898 1.1682, 2.3622 0.2559 1.1644, 2.3622 0.2546 1.1657, 2.3622 0.2459 1.2807, 2.3622 0.2502 1.1801, 2.3622 0.2509 1.1851, 2.3622 0.3241 1.1724, 2.3622 0.325 1.172, 2.3622 0.325 1.1968, 2.3622 0.2566 1.2228, 2.3622 0.2591 1.2242, 2.3622 0.2678 1.2275, 2.3622 0.3028 1.2125, 2.3622 0.3202 1.2049, 2.3622 0.3201 1.2136, 2.3622 0.3215 1.2174, 2.3622 0.2986 1.2216, 2.3622 0.2796 1.229, 2.3622 0.2867 1.2283, 2.3622 0.2916 1.2268, 2.3622 0.292 1.2031, 2.3622 0.2916 1.2083, 2.3622 0.2904 1.2125, 2.3622 0.289 1.2149, 2.3622 0.301 1.2178, 2.3622 0.3197 1.2094, 2.3622 0.3249 1.1969, 2.3622 0.323 1.1989, 2.3622 0.3215 1.2013, 2.3622 0.2873 1.2168, 2.3622 0.2852 1.2181, 2.3622 0.3308 1.1599, 2.3622 0.325 1.1229, 2.3622 0.3377 1.1591, 2.3622 0.3615 1.226, 2.3622 0.3615 1.2146, 2.3622 0.3641 1.1742, 2.3622 0.3627 1.1705, 2.3622 0.3605 1.1674, 2.3622 0.3237 1.2205, 2.3622 0.325 1.2217, 2.3622 0.325 1.2807, 2.3622 0.3272 1.2237, 2.3622 0.3308 1.2258, 2.3622 0.3372 1.2281, 2.3622 0.3456 1.229, 2.3622 0.3677 1.2807, 2.3622 0.3536 1.2283, 2.3622 0.3607 1.1899, 2.3622 0.3629 1.1867, 2.3622 0.3642 1.1832, 2.3622 0.3647 1.1789, 2.3622 0.3571 1.1644, 2.3622 0.3533 1.1622, 2.3622 0.3445 1.2195, 2.3622 0.341 1.2192, 2.3622 0.3317 1.2105, 2.3622 0.3379 1.2184, 2.3622 0.3353 1.217, 2.3622 0.3318 1.2089, 2.3622 0.3323 1.2071, 2.3622 0.3331 1.2055, 2.3622 0.3343 1.2043, 2.3622 0.3384 1.2017, 2.3622 0.3522 1.2186, 2.3622 0.3456 1.1985, 2.3622 0.3588 1.2161, 2.3622 0.3502 1.1967, 2.3622 0.3579 1.1924, 2.3622 0.3335 1.2154, 2.3622 0.3325 1.2139, 2.3622 0.3319 1.2124, 2.3622 0.3314 1.1696, 2.3622 0.3374 1.19, 2.3622 0.3304 1.1932, 2.3622 0.3388 1.1687, 2.3622 0.3394 1.1687, 2.3622 0.3451 1.1868, 2.3622 0.3454 1.1694, 2.3622 0.3526 1.1777, 2.3622 0.3525 1.1792, 2.3622 0.3484 1.1705, 2.3622 0.3494 1.1711, 2.3622 0.3508 1.1723, 2.3622 0.3518 1.1738, 2.3622 0.3524 1.1755, 2.3622 0.352 1.181, 2.3622 0.3511 1.1826, 2.3622 0.3496 1.1841, 2.3622 0.5407 1.3345, 2.3622 0.5065 1.3345, 2.3622 0.5503 1.3089, 2.3622 0.5636 1.3089, 2.3622 1.0827 1.2807, 2.3622 1.0827 1.4031, 2.3622 0.528 1.4023, 2.3622 0.5065 1.4031, 2.3622 0.5151 1.4023, 2.3622 0.5065 1.3796, 2.3622 0.4795 1.3089, 2.3622 0.4769 1.2807, 2.3622 0.4929 1.3089, 2.3622 0.5018 1.3345, 2.3622 0.3983 1.3089, 2.3622 0.3983 1.4023, 2.3622 0.3895 1.4031, 2.3622 0.4249 1.4023, 2.3622 0.4411 1.4031, 2.3622 0.4718 1.3399, 2.3622 0.4672 1.3303, 2.3622 0.4741 1.3509, 2.3622 0.4769 1.4031, 2.3622 0.4728 1.3696, 2.3622 0.4744 1.3568, 2.3622 0.4603 1.322, 2.3622 0.4505 1.315, 2.3622 0.4411 1.2807, 2.3622 0.4411 1.3113, 2.3622 0.4398 1.3108, 2.3622 0.4603 1.39, 2.3622 0.4636 1.3867, 2.3622 0.4694 1.3786, 2.3622 0.4392 1.4008, 2.3622 0.4411 1.4001, 2.3622 0.4505 1.3966, 2.3622 0.3677 1.4031, 2.3622 0.3785 1.4023, 2.3622 0.3677 1.4023, 2.3622 0.424 1.3089, 2.3622 0.3895 1.2807, 2.3622 0.3785 1.3916, 2.3622 0.3425 1.3916, 2.3622 0.3425 1.3617, 2.3622 0.3677 1.3916, 2.3622 0.3677 1.3617, 2.3622 0.3759 1.3617, 2.3622 0.3759 1.351, 2.3622 0.3425 1.351, 2.3622 0.3425 1.3196, 2.3622 0.3677 1.351, 2.3622 0.3677 1.3196, 2.3622 0.3806 1.3196, 2.3622 0.3806 1.3089, 2.3622 0.3677 1.3089, 2.3622 0.3304 1.4023, 2.3622 0.325 1.4031, 2.3622 0.3304 1.3089, 2.3622 -1.3189 2.6969, 2.3622 -1.3189 2.185, 2.3622 -0.8152 2.6969, 2.3622 -0.8152 2.185, 2.3622 0.1504 2.6969, 2.3622 0.3117 1.4001, 2.3622 0.3018 1.4029, 2.3622 0.2996 1.4031, 2.3622 0.3117 1.3875, 2.3622 0.2787 1.3078, 2.3622 0.2688 1.3101, 2.3622 0.3101 1.312, 2.3622 0.3001 1.3087, 2.3622 0.2897 1.393, 2.3622 0.2855 1.3928, 2.3622 0.2792 1.319, 2.3622 0.2858 1.3073, 2.3622 0.2876 1.3181, 2.3622 0.2937 1.3184, 2.3622 0.3107 1.388, 2.3622 0.304 1.3207, 2.3622 0.3117 1.3243, 2.3622 0.3117 1.3128, 2.3622 0.2661 1.3255, 2.3622 0.2546 1.3507, 2.3622 0.2636 1.3279, 2.3622 0.2561 1.3414, 2.3622 0.2592 1.334, 2.3622 0.3012 1.3916, 2.3622 0.2775 1.3912, 2.3622 0.2702 1.3876, 2.3622 0.2642 1.3827, 2.3622 0.2636 1.3819, 2.3622 0.2591 1.3754, 2.3622 0.2559 1.3673, 2.3622 0.2544 1.3546, 2.3622 0.2723 1.3214, 2.3622 0.2955 1.2246, 2.3622 0.2602 1.3146, 2.3622 0.2538 1.3201, 2.3622 0.253 1.321, 2.3622 0.2459 1.4031, 2.3622 0.2485 1.3813, 2.3622 0.2553 1.3902, 2.3622 0.2576 1.3924, 2.3622 0.2663 1.3985, 2.3622 0.2761 1.4023, 2.3622 0.2474 1.3289, 2.3622 0.2459 1.3327, 2.3622 0.2403 1.2807, 2.3622 0.2403 1.4031, 2.3622 0.2441 1.3709, 2.3622 0.2459 1.3754, 2.3622 0.2436 1.3387, 2.3622 0.2418 1.3539, 2.3622 0.2419 1.3587, 2.3622 0.2713 1.1591, 2.3622 0.2459 1.1229, 2.3622 0.2773 1.1598, 2.3622 0.4227 1.2274, 2.3622 0.4348 1.2274, 2.3622 0.4769 1.2541, 2.3622 0.4955 1.2541, 2.3622 0.4013 1.1773, 2.3622 0.4027 1.1718, 2.3622 0.403 1.1718, 2.3622 0.3895 1.2112, 2.3622 0.4044 1.1772, 2.3622 0.4035 1.1741, 2.3622 0.3895 1.1599, 2.3622 0.3895 1.1798, 2.3622 0.3707 1.2274, 2.3622 0.3838 1.2274, 2.3622 0.3969 1.1609, 2.3622 0.3965 1.1599, 2.3622 0.3918 1.1487, 2.3622 0.3677 1.1229, 2.3622 0.3732 1.1303, 2.3622 0.3732 1.1407, 2.3622 0.3873 1.1421, 2.3622 0.3895 1.1445, 2.3622 0.3895 1.1445, 2.3622 0.3755 1.1399, 2.3622 0.3798 1.1393, 2.3622 0.3895 1.1314, 2.3622 0.3854 1.1298, 2.3622 0.3895 1.1229, 2.3622 0.3807 1.1293, 2.3622 0.3781 1.1294, 2.3622 0.3827 1.1397, 2.3622 0.3852 1.1406, 2.3622 0.4045 1.1506, 2.3622 0.3992 1.1403, 2.3622 0.4411 1.1229, 2.3622 0.4082 1.1599, 2.3622 0.3949 1.1352, 2.3622 0.3941 1.1345, 2.3622 0.39 1.1316, 2.3622 0.2403 2.6969, 2.3622 0.2403 2.0621, 2.3622 0.2459 2.6969, 2.3622 0.2459 2.0621, 2.3622 0.325 2.6969, 2.3622 0.325 2.0621, 2.3622 0.3677 2.6969, 2.3622 0.3677 2.0621, 2.3622 0.3895 2.6969, 2.3622 0.3895 2.0621, 2.3622 0.4411 2.6969, 2.3622 0.4411 2.0621, 2.3622 0.4769 2.6969, 2.3622 0.4769 2.0621, 2.3622 0.5065 2.6969, 2.3622 0.5065 2.0621, 2.3622 1.0827 2.6969, 2.3622 1.0827 2.0621, 2.3622 0.2831 1.4031, 2.3622 0.2896 1.4039, 2.3622 0.1887 1.3089, 2.3622 0.1887 1.4023, 2.3622 0.2379 1.3089, 2.3622 0.6098 1.1607, 2.3622 0.5965 1.1607, 2.3622 0.6672 1.1607, 2.3622 0.6577 1.1863, 2.3622 0.6188 1.1863, 2.3622 0.6806 1.1607, 2.3622 1.0827 1.1599, 2.3622 0.645 1.2541, 2.3622 0.5888 1.1917, 2.3622 0.5911 1.2027, 2.3622 0.6321 1.2541, 2.3622 0.5913 1.2086, 2.3622 0.5898 1.2214, 2.3622 0.5842 1.1821, 2.3622 0.5772 1.1738, 2.3622 0.5674 1.1668, 2.3622 0.5153 1.2541, 2.3622 0.5153 1.1607, 2.3622 0.541 1.1607, 2.3622 0.5568 1.1626, 2.3622 0.5772 1.2418, 2.3622 0.5806 1.2385, 2.3622 0.5863 1.2304, 2.3622 0.5419 1.2541, 2.3622 0.5562 1.2526, 2.3622 0.5675 1.2484, 2.3622 0.2389 1.1714, 2.3622 0.2389 1.1607, 2.3622 0.2403 1.1599, 2.3622 0.1887 1.1607, 2.3622 0.1887 1.2541, 2.3622 0.2368 1.2541, 2.3622 0.2368 1.2434, 2.3622 0.2007 1.2434, 2.3622 0.2007 1.2135, 2.3622 0.2007 1.2028, 2.3622 0.2007 1.1714, 2.3622 0.2342 1.2028, 2.3622 0.2342 1.2135, 2.3622 0.4769 1.1229, 2.3622 0.5065 1.1229, 2.3622 1.0827 1.1229, 2.3622 0.2403 1.1229, 2.3622 0.2403 0.8071, 2.3622 0.2459 0.8071, 2.3622 0.325 0.8071, 2.3622 0.3677 0.8071, 2.3622 0.3895 0.8071, 2.3622 0.4411 0.8071, 2.3622 0.4769 0.8071, 2.3622 0.5065 0.8071, 2.3622 1.0827 0.8071, 2.3622 -1.3189 1.2807, 2.3622 -1.3189 1.1599, 2.3622 -1.3189 1.1229, 2.3622 -1.3189 0.8071, 1.8504 1.0039 0.8071, 1.8504 1.0827 0.8071, -0.8858 0.9843 0.8071, -0.689 0.9843 0.8071, -1.063 1.0039 0.8071, -0.8858 1.0039 0.8071, -0.0984 0.9843 0.8071, 0.0984 0.9843 0.8071, -1.8504 1.0039 0.8071, -1.6732 1.0039 0.8071, -1.6732 0.9843 0.8071, 1.2992 1.0039 0.8071, 1.4764 1.0039 0.8071, 1.4764 0.9843 0.8071, -1.4764 0.9843 0.8071, -1.4764 1.0039 0.8071, -1.2992 1.0039 0.8071, -1.2992 1.0827 0.8071, -1.063 1.0827 0.8071, -2.3622 -1.3189 0.8071, -2.3622 1.0827 0.8071, -1.8504 1.0827 0.8071, -0.5118 1.0827 0.8071, -0.2756 1.0827 0.8071, -0.5118 1.0039 0.8071, -0.2756 1.0039 0.8071, 0.8858 0.9843 0.8071, 0.8858 1.0039 0.8071, 1.063 1.0039 0.8071, 1.063 1.0827 0.8071, 1.2992 1.0827 0.8071, -0.689 1.0039 0.8071, -0.0984 1.0039 0.8071, 0.0984 1.0039 0.8071, 0.2756 1.0039 0.8071, 0.5118 1.0039 0.8071, 0.689 1.0039 0.8071, 0.689 0.9843 0.8071, 1.6732 0.9843 0.8071, 1.6732 1.0039 0.8071, 0.5118 1.0827 0.8071, 0.2756 1.0827 0.8071, 1.4764 1.0039 2.1013, 1.2992 1.0039 2.6969, 1.6535 1.0039 2.6969, 1.6535 1.0039 2.4803, 1.6732 1.0039 2.1013, 1.8504 1.0039 2.4803, 0.8858 1.0039 2.1013, 0.689 1.0039 2.1013, 0.5118 1.0039 2.6969, 1.063 1.0039 2.6969, 0.0984 1.0039 2.1013, -0.0984 1.0039 2.1013, -0.2756 1.0039 2.6969, 0.2756 1.0039 2.6969, -0.689 1.0039 2.1013, -0.8858 1.0039 2.1013, -1.063 1.0039 2.6969, -0.5118 1.0039 2.6969, -0.5118 1.0039 2.6969
            ]
        }
        coordIndex [
            0,1,2,-1,3,4,5,-1,6,7,8,-1,9,10,11,-1,12,13,14,-1,14,13,15,-1,14,15,16,-1,16,15,17,-1,18,19,15,-1,15,19,20,-1,15,20,17,-1,21,22,15,-1,15,22,23,-1,15,23,18,-1,24,25,26,-1,27,28,29,-1,28,24,29,-1,29,24,26,-1,29,26,30,-1,30,26,31,-1,29,3,32,-1,27,29,33,-1,33,29,32,-1,33,32,34,-1,32,35,36,-1,32,37,34,-1,34,37,38,-1,34,38,39,-1,39,38,40,-1,39,40,41,-1,36,42,32,-1,32,42,43,-1,32,43,37,-1,44,45,46,-1,44,46,47,-1,45,48,46,-1,46,48,49,-1,46,49,50,-1,50,49,51,-1,51,52,50,-1,50,52,53,-1,50,53,32,-1,32,53,54,-1,32,54,35,-1,55,47,56,-1,56,47,46,-1,56,46,57,-1,57,46,58,-1,59,60,61,-1,61,60,62,-1,61,62,63,-1,62,64,63,-1,63,64,65,-1,63,65,66,-1,66,65,67,-1,66,67,46,-1,46,67,68,-1,46,68,58,-1,69,70,71,-1,70,72,71,-1,71,72,73,-1,71,73,74,-1,75,76,77,-1,78,79,80,-1,80,79,81,-1,75,77,82,-1,83,84,85,-1,86,87,79,-1,79,87,88,-1,79,88,89,-1,12,90,13,-1,13,90,91,-1,13,91,85,-1,85,91,92,-1,85,92,83,-1,76,93,77,-1,77,93,94,-1,77,94,95,-1,96,97,98,-1,98,97,99,-1,98,99,100,-1,101,89,102,-1,102,89,103,-1,102,103,98,-1,98,103,104,-1,98,104,96,-1,101,105,89,-1,89,105,106,-1,89,106,79,-1,79,106,107,-1,79,107,81,-1,84,108,85,-1,85,108,109,-1,85,109,110,-1,111,112,113,-1,113,112,114,-1,113,114,77,-1,77,114,115,-1,77,115,82,-1,116,117,77,-1,77,117,118,-1,77,118,79,-1,79,118,119,-1,79,119,86,-1,120,121,69,-1,121,122,69,-1,69,122,123,-1,69,123,124,-1,124,125,69,-1,69,125,126,-1,69,126,127,-1,127,126,111,-1,127,111,128,-1,128,111,113,-1,95,129,77,-1,77,129,130,-1,77,130,131,-1,131,132,77,-1,77,132,133,-1,77,133,116,-1,134,135,136,-1,135,137,136,-1,136,137,138,-1,136,138,139,-1,88,136,89,-1,89,136,140,-1,89,140,141,-1,142,143,144,-1,144,143,145,-1,144,145,146,-1,142,144,88,-1,88,144,147,-1,88,147,136,-1,136,147,148,-1,136,148,134,-1,149,150,151,-1,151,150,152,-1,151,152,153,-1,139,138,154,-1,154,138,155,-1,154,155,156,-1,156,155,157,-1,156,157,158,-1,141,159,89,-1,89,159,151,-1,89,151,160,-1,160,151,153,-1,161,162,163,-1,163,162,164,-1,163,164,165,-1,166,167,168,-1,168,167,169,-1,168,169,170,-1,171,172,173,-1,173,172,174,-1,173,174,175,-1,175,174,176,-1,175,176,161,-1,161,176,170,-1,161,170,162,-1,162,170,169,-1,164,177,165,-1,165,177,178,-1,165,178,179,-1,179,178,180,-1,181,182,183,-1,184,185,186,-1,186,185,187,-1,186,187,188,-1,189,190,191,-1,191,190,188,-1,192,193,194,-1,194,193,195,-1,196,197,193,-1,193,197,198,-1,182,199,183,-1,183,199,200,-1,183,200,201,-1,201,200,202,-1,203,204,202,-1,202,204,205,-1,202,205,201,-1,206,207,186,-1,186,207,208,-1,186,208,184,-1,192,209,193,-1,193,209,210,-1,193,210,196,-1,211,212,213,-1,214,215,216,-1,181,183,213,-1,213,183,217,-1,213,217,211,-1,211,217,218,-1,211,218,219,-1,220,190,221,-1,222,223,224,-1,219,225,211,-1,211,225,226,-1,211,226,227,-1,228,229,202,-1,202,229,230,-1,202,230,231,-1,214,216,189,-1,224,232,222,-1,222,232,220,-1,222,220,233,-1,233,220,221,-1,216,234,189,-1,189,234,235,-1,189,235,190,-1,190,235,236,-1,190,236,221,-1,231,237,202,-1,202,237,238,-1,202,238,203,-1,9,11,239,-1,239,11,240,-1,239,240,241,-1,242,243,8,-1,244,245,8,-1,8,245,246,-1,247,248,249,-1,249,248,250,-1,249,250,251,-1,251,252,249,-1,249,252,253,-1,249,253,254,-1,254,253,255,-1,254,255,242,-1,256,257,243,-1,243,257,258,-1,243,258,8,-1,8,258,259,-1,8,259,244,-1,246,260,8,-1,8,260,261,-1,8,261,6,-1,262,263,264,-1,264,263,265,-1,264,265,266,-1,264,267,262,-1,262,267,268,-1,262,268,269,-1,269,270,262,-1,262,270,271,-1,262,271,272,-1,272,271,273,-1,272,273,274,-1,274,273,275,-1,274,275,243,-1,243,275,276,-1,243,276,256,-1,277,278,266,-1,266,278,279,-1,266,279,264,-1,280,281,215,-1,215,281,282,-1,215,282,216,-1,280,283,281,-1,281,283,284,-1,281,284,285,-1,285,284,286,-1,285,287,288,-1,286,289,285,-1,285,289,290,-1,285,290,291,-1,291,292,285,-1,285,292,293,-1,285,293,287,-1,288,294,285,-1,285,294,295,-1,285,295,296,-1,297,298,299,-1,299,298,161,-1,299,161,300,-1,301,302,303,-1,303,302,304,-1,303,304,305,-1,305,304,306,-1,307,308,309,-1,309,308,161,-1,309,161,310,-1,310,161,298,-1,311,312,313,-1,313,312,314,-1,313,314,315,-1,316,317,308,-1,316,308,318,-1,319,320,321,-1,317,322,308,-1,308,322,323,-1,308,323,324,-1,324,323,325,-1,324,325,326,-1,327,328,319,-1,319,328,329,-1,319,329,320,-1,314,330,315,-1,315,330,331,-1,315,331,319,-1,319,331,332,-1,319,332,327,-1,306,304,307,-1,307,304,319,-1,307,319,308,-1,308,319,321,-1,308,321,318,-1,313,333,334,-1,334,333,335,-1,336,311,337,-1,337,311,313,-1,337,313,338,-1,338,313,334,-1,339,340,341,-1,341,340,342,-1,341,342,338,-1,338,342,343,-1,338,343,337,-1,337,343,344,-1,345,346,347,-1,347,346,348,-1,347,348,344,-1,344,348,349,-1,344,349,337,-1,337,349,350,-1,337,350,254,-1,254,350,351,-1,254,351,249,-1,335,333,352,-1,352,333,353,-1,352,353,354,-1,355,356,357,-1,357,356,358,-1,357,358,359,-1,360,353,361,-1,361,353,362,-1,351,354,249,-1,249,354,353,-1,249,353,363,-1,363,353,360,-1,364,365,211,-1,366,367,249,-1,368,369,370,-1,364,211,371,-1,372,373,374,-1,374,373,375,-1,374,375,363,-1,363,375,376,-1,363,376,249,-1,249,376,377,-1,249,377,366,-1,378,379,380,-1,380,379,381,-1,380,381,382,-1,372,374,370,-1,370,374,383,-1,370,383,368,-1,369,384,370,-1,370,384,385,-1,370,385,386,-1,386,387,370,-1,370,387,388,-1,370,388,389,-1,389,390,370,-1,370,390,379,-1,370,379,391,-1,391,379,378,-1,367,371,249,-1,249,371,211,-1,249,211,247,-1,247,211,227,-1,247,227,223,-1,223,227,392,-1,223,392,224,-1,365,393,211,-1,211,393,394,-1,211,394,395,-1,396,397,398,-1,398,399,396,-1,396,399,400,-1,396,400,401,-1,395,402,211,-1,211,402,403,-1,211,403,404,-1,405,406,396,-1,396,406,407,-1,396,407,397,-1,403,408,404,-1,404,408,409,-1,404,409,405,-1,405,409,410,-1,405,410,406,-1,411,412,413,-1,413,412,240,-1,413,240,187,-1,187,240,11,-1,187,11,188,-1,188,11,10,-1,188,10,191,-1,414,415,324,-1,415,179,324,-1,324,179,180,-1,324,180,308,-1,308,180,416,-1,308,416,161,-1,161,416,417,-1,161,417,175,-1,418,419,420,-1,326,336,324,-1,324,336,337,-1,324,337,414,-1,414,337,421,-1,414,421,422,-1,422,421,418,-1,422,418,423,-1,423,418,420,-1,424,425,8,-1,8,425,426,-1,242,8,254,-1,254,8,426,-1,254,426,337,-1,337,426,427,-1,337,427,421,-1,428,425,429,-1,429,425,424,-1,429,424,430,-1,431,432,433,-1,434,435,424,-1,424,435,436,-1,424,436,430,-1,241,240,7,-1,7,240,431,-1,7,431,8,-1,8,431,433,-1,8,433,424,-1,424,433,437,-1,424,437,438,-1,439,440,441,-1,441,440,442,-1,441,442,431,-1,431,442,443,-1,431,443,432,-1,438,444,424,-1,424,444,445,-1,424,445,434,-1,446,447,448,-1,446,448,449,-1,447,450,448,-1,448,450,451,-1,448,451,441,-1,441,451,452,-1,441,452,439,-1,358,31,359,-1,359,31,26,-1,359,26,453,-1,453,26,454,-1,453,454,455,-1,455,454,456,-1,455,456,457,-1,457,456,458,-1,457,458,459,-1,459,458,460,-1,459,460,461,-1,461,460,462,-1,461,462,463,-1,463,462,464,-1,463,464,465,-1,465,464,466,-1,465,466,467,-1,467,466,468,-1,467,468,469,-1,469,468,470,-1,471,472,456,-1,456,472,362,-1,456,362,458,-1,458,362,353,-1,458,353,460,-1,460,353,333,-1,460,333,462,-1,462,333,313,-1,462,313,464,-1,464,313,315,-1,464,315,466,-1,466,315,319,-1,466,319,468,-1,468,319,304,-1,468,304,470,-1,470,304,302,-1,25,21,26,-1,26,21,15,-1,26,15,454,-1,454,15,405,-1,454,405,456,-1,456,405,396,-1,456,396,471,-1,471,396,401,-1,473,474,15,-1,15,474,0,-1,15,0,405,-1,405,0,2,-1,405,2,404,-1,404,2,475,-1,404,475,13,-1,13,475,473,-1,13,473,15,-1,476,477,163,-1,478,479,480,-1,480,476,478,-1,478,476,163,-1,478,163,481,-1,481,163,482,-1,481,482,483,-1,483,482,301,-1,484,477,485,-1,485,477,486,-1,485,486,487,-1,487,486,488,-1,484,489,477,-1,477,489,490,-1,477,490,491,-1,303,300,301,-1,301,300,161,-1,301,161,483,-1,483,161,486,-1,492,161,493,-1,493,161,163,-1,493,163,494,-1,494,163,477,-1,494,477,495,-1,495,477,491,-1,496,497,486,-1,486,497,498,-1,486,498,488,-1,492,499,161,-1,161,499,500,-1,161,500,486,-1,486,500,501,-1,486,501,496,-1,502,503,504,-1,504,503,505,-1,504,505,85,-1,85,505,13,-1,13,505,506,-1,13,506,404,-1,404,506,507,-1,404,507,508,-1,508,509,510,-1,511,512,513,-1,513,512,502,-1,513,502,514,-1,510,514,508,-1,508,514,502,-1,508,502,404,-1,404,502,504,-1,404,504,211,-1,211,504,193,-1,211,193,212,-1,212,193,198,-1,415,449,179,-1,179,449,448,-1,179,448,165,-1,165,448,515,-1,165,515,163,-1,163,515,516,-1,163,516,482,-1,482,516,517,-1,411,195,412,-1,412,195,193,-1,412,193,518,-1,518,193,504,-1,518,504,71,-1,71,504,85,-1,71,85,69,-1,69,85,110,-1,69,110,120,-1,74,59,71,-1,71,59,61,-1,71,61,518,-1,518,61,519,-1,518,519,412,-1,412,519,520,-1,412,520,240,-1,240,520,521,-1,240,521,431,-1,431,521,522,-1,431,522,441,-1,441,522,523,-1,441,523,448,-1,448,523,524,-1,448,524,515,-1,515,524,525,-1,515,525,516,-1,516,525,526,-1,516,526,517,-1,517,526,527,-1,3,5,32,-1,32,5,528,-1,32,528,50,-1,50,528,529,-1,50,529,46,-1,46,529,530,-1,46,530,66,-1,66,530,531,-1,66,531,63,-1,532,533,527,-1,534,535,531,-1,536,537,534,-1,538,539,531,-1,540,541,542,-1,543,544,545,-1,546,547,548,-1,548,549,550,-1,550,536,548,-1,548,536,534,-1,548,534,546,-1,546,534,531,-1,546,531,542,-1,542,531,551,-1,542,551,540,-1,540,551,552,-1,540,552,553,-1,554,555,556,-1,556,555,557,-1,558,559,560,-1,560,561,562,-1,535,563,531,-1,531,563,556,-1,531,556,538,-1,538,556,557,-1,538,557,564,-1,539,565,566,-1,567,568,569,-1,570,571,532,-1,527,526,532,-1,532,526,525,-1,532,525,570,-1,570,525,524,-1,570,524,523,-1,519,61,539,-1,539,61,63,-1,539,63,531,-1,562,543,560,-1,560,543,545,-1,560,545,558,-1,558,545,519,-1,558,519,569,-1,569,519,539,-1,569,539,567,-1,567,539,566,-1,567,566,572,-1,572,566,573,-1,523,522,570,-1,570,522,521,-1,570,521,545,-1,545,521,520,-1,545,520,519,-1,574,544,543,-1,575,576,577,-1,543,575,574,-1,574,575,577,-1,574,577,578,-1,578,577,579,-1,578,579,571,-1,571,579,532,-1,560,559,580,-1,568,567,581,-1,581,567,582,-1,581,582,580,-1,580,582,583,-1,580,583,560,-1,566,565,584,-1,564,557,585,-1,585,557,586,-1,585,586,584,-1,584,586,587,-1,584,587,566,-1,556,563,588,-1,537,536,589,-1,589,536,590,-1,589,590,588,-1,588,590,591,-1,588,591,556,-1,
        ]
    }
}
Shape{
    appearance Appearance {
        material  Material 	{
            diffuseColor 0.7529411764705882 0.7529411764705882 0.7529411764705882
            specularColor 0.3764705882352941 0.3764705882352941 0.3764705882352941
            ambientIntensity 0.2
            transparency 0
            shininess 0.5
        }
    }
    geometry IndexedFaceSet {
        ccw TRUE
        solid FALSE
        coord DEF co Coordinate {
            point [
                1.4764 -0.689 2.126, 1.518 -0.9252 2.0843, 1.6732 -0.689 2.126, 1.6316 -0.9252 2.0843, 1.518 -0.9252 1.9708, 1.4764 -0.689 1.9291, 1.6732 -0.689 1.9291, 1.6316 -0.9252 1.9708, 1.6732 0.4528 2.126, 1.4764 0.4528 2.126, 1.6732 0.4528 1.9291, 1.4764 0.4528 1.9291, 0.689 -0.689 2.126, 0.7306 -0.9252 2.0843, 0.8858 -0.689 2.126, 0.8442 -0.9252 2.0843, 0.7306 -0.9252 1.9708, 0.689 -0.689 1.9291, 0.8858 -0.689 1.9291, 0.8442 -0.9252 1.9708, 0.8858 0.4528 2.126, 0.689 0.4528 2.126, 0.8858 0.4528 1.9291, 0.689 0.4528 1.9291, -0.0984 -0.689 2.126, -0.0568 -0.9252 2.0843, 0.0984 -0.689 2.126, 0.0568 -0.9252 2.0843, -0.0568 -0.9252 1.9708, -0.0984 -0.689 1.9291, 0.0984 -0.689 1.9291, 0.0568 -0.9252 1.9708, 0.0984 0.4528 2.126, -0.0984 0.4528 2.126, 0.0984 0.4528 1.9291, -0.0984 0.4528 1.9291, -0.0984 0.4528 1.9291
            ]
        }
        coordIndex [
            0,1,2,-1,2,1,3,-1,1,0,4,-1,4,0,5,-1,6,7,5,-1,5,7,4,-1,2,3,6,-1,6,3,7,-1,1,4,3,-1,3,4,7,-1,2,8,0,-1,0,8,9,-1,6,10,2,-1,2,10,8,-1,5,11,6,-1,6,11,10,-1,0,9,5,-1,5,9,11,-1,12,13,14,-1,14,13,15,-1,13,12,16,-1,16,12,17,-1,18,19,17,-1,17,19,16,-1,14,15,18,-1,18,15,19,-1,13,16,15,-1,15,16,19,-1,14,20,12,-1,12,20,21,-1,18,22,14,-1,14,22,20,-1,17,23,18,-1,18,23,22,-1,12,21,17,-1,17,21,23,-1,24,25,26,-1,26,25,27,-1,25,24,28,-1,28,24,29,-1,30,31,29,-1,29,31,28,-1,26,27,30,-1,30,27,31,-1,25,28,27,-1,27,28,31,-1,26,32,24,-1,24,32,33,-1,30,34,26,-1,26,34,32,-1,29,35,30,-1,30,35,34,-1,24,33,29,-1,29,33,35,-1,
        ]
    }
}
Shape{
    appearance Appearance {
        material  Material 	{
            diffuseColor 1.0 1.0 1.0
            specularColor 0.5019607843137255 0.5019607843137255 0.5019607843137255
            ambientIntensity 0.2
            transparency 0
            shininess 0.5
        }
    }
    geometry IndexedFaceSet {
        ccw TRUE
        solid FALSE
        coord DEF co Coordinate {
            point [
                1.4764 0.4528 2.126, 1.6732 0.4528 2.126, 2.1457 0.4528 2.4114, -2.0472 0.4528 2.4803, -2.1457 0.4528 2.4803, -2.1457 0.4528 2.4114, -1.1811 0.4528 2.6969, -1.1811 0.4528 2.4803, 0.3937 0.4528 2.4114, -1.6535 0.4528 2.4803, 0.3937 0.4528 2.6969, 1.1811 0.4528 2.4803, 1.1811 0.4528 2.6969, 2.1457 0.4528 2.4803, 2.0472 0.4528 2.4803, 1.6535 0.4528 2.4803, -0.0984 0.4528 2.126, 0.0984 0.4528 2.126, 0.3937 0.4528 1.0236, 0.0984 0.4528 1.9291, -0.0984 0.4528 1.9291, -1.4764 0.4528 1.9291, -1.6732 0.4528 1.9291, -2.1457 0.4528 1.0236, -1.6732 0.4528 2.126, -1.4764 0.4528 2.126, -0.8858 0.4528 1.9291, -0.689 0.4528 1.9291, -0.689 0.4528 2.126, -0.8858 0.4528 2.126, 2.1457 0.4528 1.0236, 1.6732 0.4528 1.9291, 1.4764 0.4528 1.9291, 0.8858 0.4528 1.9291, 0.689 0.4528 1.9291, 0.689 0.4528 2.126, 0.8858 0.4528 2.126, -1.2992 1.0827 0.8071, -1.2992 1.0827 2.6969, -1.063 1.0827 0.8071, -1.063 1.0827 2.6969, -0.2756 1.0827 2.6969, -0.2756 1.0827 0.8071, -0.5118 1.0827 2.6969, -0.5118 1.0827 0.8071, 0.5118 1.0827 2.6969, 0.5118 1.0827 0.8071, 0.2756 1.0827 2.6969, 0.2756 1.0827 0.8071, 1.2992 1.0827 2.6969, 1.2992 1.0827 0.8071, 1.063 1.0827 2.6969, 1.063 1.0827 0.8071, 1.6535 -0.4921 2.6969, 1.6535 -0.4921 2.4803, 1.6535 1.0039 2.6969, 1.6535 1.0039 2.4803, -2.3622 1.0827 2.6969, -2.0472 1.0827 2.6969, -2.0472 1.0827 2.4803, -1.8504 1.0827 2.4803, -1.8504 1.0827 0.8071, -2.3622 1.0827 0.8071, -1.6535 -0.4921 2.4803, -1.6535 -0.4921 2.6969, -1.6535 1.0039 2.6969, -1.6535 1.0039 2.4803, -2.2244 -1.3189 1.8701, -2.3622 -1.3189 1.8701, -2.2244 -1.3189 0.9449, -2.3622 -1.3189 0.8071, 2.2244 -1.3189 0.9449, 2.3622 -1.3189 0.8071, 2.3622 -1.3189 1.1229, 2.3622 -1.3189 1.1599, 2.3622 -1.3189 1.8701, 2.2244 -1.3189 1.8701, 2.3622 -1.3189 1.4031, 2.3622 -1.3189 1.2807, 2.2244 -1.3189 2.185, 2.3622 -1.3189 2.185, 2.2244 -1.3189 2.5591, 2.3622 -1.3189 2.6969, 1.1811 -1.3189 2.5591, 1.1811 -1.3189 2.6969, -2.0472 -0.4921 2.4803, -1.1811 -1.2402 2.4803, -2.1457 -1.2402 2.4803, -2.3622 -1.3189 2.185, -2.3622 -1.3189 2.6969, -2.3622 -0.5315 2.185, -2.3622 -0.5315 1.8701, -0.2756 1.0039 2.6969, 2.3622 -0.8152 2.6969, 2.0472 -0.4921 2.6969, 1.063 1.0039 2.6969, 0.5118 1.0039 2.6969, 2.3622 0.4411 2.6969, 2.3622 0.4769 2.6969, 2.0472 1.0827 2.6969, 2.3622 0.5065 2.6969, 2.3622 1.0827 2.6969, 1.2992 1.0039 2.6969, -1.063 1.0039 2.6969, -1.2992 1.0039 2.6969, 2.3622 0.325 2.6969, 2.3622 0.3677 2.6969, 2.3622 0.3895 2.6969, 0.2756 1.0039 2.6969, -0.5118 1.0039 2.6969, -2.0472 -0.4921 2.6969, -1.1811 -1.3189 2.6969, 2.3622 0.1504 2.6969, 2.3622 0.2403 2.6969, 2.3622 0.2459 2.6969, -1.1811 -1.3189 2.5591, -2.2244 -1.3189 2.5591, -2.2244 -1.3189 2.185, 1.8504 1.0827 0.8071, 1.8504 1.0827 2.4803, 2.0472 1.0827 2.4803, 2.3622 1.0827 2.0621, 2.3622 1.0827 1.4031, 2.3622 1.0827 1.2807, 2.3622 1.0827 1.1599, 2.3622 1.0827 1.1229, 2.3622 1.0827 0.8071, 2.0472 -0.4921 2.4803, 2.1457 -1.2402 2.4803, 1.1811 -1.2402 2.4803, 2.1457 -0.5315 2.185, 2.1457 -1.2402 2.185, 2.1457 -1.2402 1.0236, 2.1457 -1.2402 1.8701, 2.1457 -0.5315 1.8701, -2.1457 -1.2402 1.0236, -2.1457 -0.5315 2.185, -2.1457 -1.2402 2.185, -2.1457 -1.2402 1.8701, -2.1457 -0.5315 1.8701, 1.8504 1.0039 2.4803, -1.8504 1.0039 2.4803, 2.3622 -0.8152 1.8701, 2.3622 -0.5315 1.8701, 2.3622 -0.5315 2.185, 2.3622 -0.8152 2.185, 2.3622 -0.5315 2.0621, -1.2992 1.0039 0.8071, -1.8504 1.0039 0.8071, -1.6732 1.0039 0.8071, -1.6732 1.0039 2.1013, -1.4764 1.0039 2.1013, -1.4764 1.0039 0.8071, 1.2992 1.0039 0.8071, 1.8504 1.0039 0.8071, 0.5118 1.0039 0.8071, 1.063 1.0039 0.8071, -0.2756 1.0039 0.8071, 0.2756 1.0039 0.8071, -1.063 1.0039 0.8071, -0.5118 1.0039 0.8071, -0.5118 1.0039 0.8071
            ]
        }
        coordIndex [
            0,1,2,-1,3,4,5,-1,6,7,8,-1,8,7,5,-1,5,7,9,-1,5,9,3,-1,6,8,10,-1,10,8,11,-1,10,11,12,-1,13,14,2,-1,2,14,15,-1,5,16,8,-1,8,16,17,-1,8,17,18,-1,18,17,19,-1,18,19,20,-1,21,22,23,-1,23,22,5,-1,5,22,24,-1,5,24,25,-1,26,18,27,-1,27,18,20,-1,27,20,28,-1,23,18,21,-1,21,18,26,-1,21,26,25,-1,25,26,29,-1,25,29,5,-1,5,29,28,-1,5,28,16,-1,16,28,20,-1,2,1,30,-1,30,1,31,-1,30,31,32,-1,33,34,18,-1,18,34,8,-1,8,34,35,-1,8,35,36,-1,15,11,2,-1,2,11,8,-1,2,8,0,-1,0,8,36,-1,0,36,32,-1,32,36,33,-1,32,33,30,-1,30,33,18,-1,37,38,39,-1,39,38,40,-1,41,42,43,-1,43,42,44,-1,45,46,47,-1,47,46,48,-1,49,50,51,-1,51,50,52,-1,53,54,55,-1,55,54,15,-1,55,15,56,-1,57,58,59,-1,60,61,59,-1,59,61,62,-1,59,62,57,-1,63,64,9,-1,9,64,65,-1,9,65,66,-1,67,68,69,-1,69,68,70,-1,69,70,71,-1,70,72,71,-1,71,72,73,-1,71,73,74,-1,75,76,77,-1,77,76,71,-1,77,71,78,-1,78,71,74,-1,79,80,81,-1,81,80,82,-1,81,82,83,-1,83,82,84,-1,4,3,85,-1,9,7,63,-1,63,7,86,-1,63,86,85,-1,85,86,87,-1,85,87,4,-1,88,89,90,-1,90,89,57,-1,90,57,91,-1,91,57,62,-1,91,62,68,-1,68,62,70,-1,92,41,43,-1,93,94,53,-1,95,96,10,-1,97,98,99,-1,99,98,100,-1,99,100,101,-1,49,51,102,-1,102,51,95,-1,102,95,12,-1,12,95,10,-1,82,93,84,-1,84,93,53,-1,84,53,12,-1,12,53,55,-1,12,55,102,-1,40,38,103,-1,103,38,104,-1,105,106,99,-1,99,106,107,-1,99,107,97,-1,45,47,96,-1,96,47,108,-1,96,108,10,-1,10,108,92,-1,10,92,109,-1,109,92,43,-1,58,57,110,-1,110,57,89,-1,110,89,64,-1,64,89,111,-1,64,111,65,-1,65,111,6,-1,65,6,104,-1,104,6,10,-1,104,10,103,-1,103,10,109,-1,93,112,94,-1,94,112,113,-1,94,113,99,-1,99,113,114,-1,99,114,105,-1,115,111,116,-1,116,111,89,-1,116,89,117,-1,117,89,88,-1,118,119,120,-1,99,101,120,-1,120,101,121,-1,120,121,118,-1,118,121,122,-1,118,122,123,-1,123,124,118,-1,118,124,125,-1,118,125,126,-1,14,13,127,-1,127,13,128,-1,127,128,54,-1,54,128,129,-1,54,129,15,-1,15,129,11,-1,130,131,128,-1,132,133,30,-1,30,133,134,-1,30,134,2,-1,2,134,130,-1,2,130,13,-1,13,130,128,-1,23,135,18,-1,18,135,132,-1,18,132,30,-1,4,87,136,-1,136,87,137,-1,138,135,139,-1,139,135,23,-1,139,23,136,-1,136,23,5,-1,136,5,4,-1,86,7,115,-1,115,7,6,-1,115,6,111,-1,11,129,12,-1,12,129,83,-1,12,83,84,-1,127,94,14,-1,14,94,99,-1,14,99,120,-1,53,94,54,-1,54,94,127,-1,56,15,140,-1,140,15,14,-1,140,14,119,-1,119,14,120,-1,110,85,58,-1,58,85,3,-1,58,3,59,-1,110,64,85,-1,85,64,63,-1,60,59,141,-1,141,59,3,-1,141,3,66,-1,66,3,9,-1,138,139,67,-1,67,139,91,-1,67,91,68,-1,136,137,90,-1,90,137,117,-1,90,117,88,-1,136,90,139,-1,139,90,91,-1,76,75,133,-1,133,75,142,-1,133,142,134,-1,134,142,143,-1,130,144,145,-1,80,79,145,-1,145,79,131,-1,145,131,130,-1,144,130,146,-1,146,130,134,-1,146,134,143,-1,87,116,137,-1,137,116,117,-1,116,87,115,-1,115,87,86,-1,132,71,133,-1,133,71,76,-1,135,69,132,-1,132,69,71,-1,69,135,67,-1,67,135,138,-1,81,128,79,-1,79,128,131,-1,83,129,81,-1,81,129,128,-1,38,37,104,-1,104,37,147,-1,141,148,60,-1,60,148,61,-1,149,148,150,-1,150,148,141,-1,150,141,151,-1,151,141,66,-1,147,152,151,-1,66,65,151,-1,151,65,104,-1,151,104,147,-1,102,153,49,-1,49,153,50,-1,119,118,140,-1,140,118,154,-1,96,155,45,-1,45,155,46,-1,51,52,95,-1,95,52,156,-1,92,157,41,-1,41,157,42,-1,47,48,108,-1,108,48,158,-1,103,159,40,-1,40,159,39,-1,43,44,109,-1,109,44,160,-1,
        ]
    }
}
Shape{
    appearance Appearance {
        material  Material 	{
            diffuseColor 0.7529411764705882 0.7529411764705882 0.7529411764705882
            specularColor 0.3764705882352941 0.3764705882352941 0.3764705882352941
            ambientIntensity 0.2
            transparency 0
            shininess 0.5
        }
    }
    geometry IndexedFaceSet {
        ccw TRUE
        solid FALSE
        coord DEF co Coordinate {
            point [
                -1.6732 -0.689 2.126, -1.6732 0.4528 2.126, -1.6732 -0.689 1.9291, -1.6732 0.4528 1.9291, -1.4764 -0.689 1.9291, -1.4764 0.4528 1.9291, -1.4764 -0.689 2.126, -1.4764 0.4528 2.126, -1.6316 -0.9252 2.0843, -1.6316 -0.9252 1.9708, -1.518 -0.9252 2.0843, -1.518 -0.9252 1.9708, -0.8858 -0.689 2.126, -0.8858 0.4528 2.126, -0.8858 -0.689 1.9291, -0.8858 0.4528 1.9291, -0.689 -0.689 1.9291, -0.689 0.4528 1.9291, -0.689 -0.689 2.126, -0.689 0.4528 2.126, -0.8442 -0.9252 2.0843, -0.8442 -0.9252 1.9708, -0.7306 -0.9252 2.0843, -0.7306 -0.9252 1.9708, -1.4764 0.9843 0.0197, -1.4764 0.9843 0.8071, -1.6732 0.9843 0.0197, -1.6732 0.9843 0.8071, -1.4764 1.0039 0.8071, -1.4764 1.1811 0.0197, -1.4764 1.1811 1.8307, -1.4764 1.0039 2.1013, -1.4764 1.1732 1.8986, -1.4764 1.1499 1.9628, -1.4764 1.063 2.067, -1.4764 1.1125 2.0199, -1.6732 1.1125 2.0199, -1.6732 1.1499 1.9628, -1.6732 1.063 2.067, -1.6732 1.0039 2.1013, -1.6732 1.1811 0.0197, -1.6732 1.0039 0.8071, -1.6732 1.1811 1.8307, -1.6732 1.1732 1.8986, -1.5111 1.1464 -0.1772, -1.5111 1.019 -0.1772, -1.6385 1.1464 -0.1772, -1.6385 1.019 -0.1772, -0.689 1.0039 0.8071, -0.689 0.9843 0.8071, -0.689 0.9843 0.0197, -0.689 1.1811 0.0197, -0.689 1.1811 1.8307, -0.689 1.0039 2.1013, -0.689 1.1732 1.8986, -0.689 1.1499 1.9628, -0.689 1.063 2.067, -0.689 1.1125 2.0199, -0.8858 0.9843 0.0197, -0.8858 0.9843 0.8071, -0.8858 1.1125 2.0199, -0.8858 1.1499 1.9628, -0.8858 1.063 2.067, -0.8858 1.0039 2.1013, -0.8858 1.1811 0.0197, -0.8858 1.0039 0.8071, -0.8858 1.1811 1.8307, -0.8858 1.1732 1.8986, -0.7237 1.1464 -0.1772, -0.7237 1.019 -0.1772, -0.8511 1.1464 -0.1772, -0.8511 1.019 -0.1772, 0.0984 1.0039 0.8071, 0.0984 0.9843 0.8071, 0.0984 0.9843 0.0197, 0.0984 1.1811 0.0197, 0.0984 1.1811 1.8307, 0.0984 1.0039 2.1013, 0.0984 1.1732 1.8986, 0.0984 1.1499 1.9628, 0.0984 1.063 2.067, 0.0984 1.1125 2.0199, -0.0984 0.9843 0.0197, -0.0984 0.9843 0.8071, -0.0984 1.1125 2.0199, -0.0984 1.1499 1.9628, -0.0984 1.063 2.067, -0.0984 1.0039 2.1013, -0.0984 1.1811 0.0197, -0.0984 1.0039 0.8071, -0.0984 1.1811 1.8307, -0.0984 1.1732 1.8986, 0.0637 1.1464 -0.1772, 0.0637 1.019 -0.1772, -0.0637 1.1464 -0.1772, -0.0637 1.019 -0.1772, 0.8858 1.0039 0.8071, 0.8858 0.9843 0.8071, 0.8858 0.9843 0.0197, 0.8858 1.1811 0.0197, 0.8858 1.1811 1.8307, 0.8858 1.0039 2.1013, 0.8858 1.1732 1.8986, 0.8858 1.1499 1.9628, 0.8858 1.063 2.067, 0.8858 1.1125 2.0199, 0.689 0.9843 0.0197, 0.689 0.9843 0.8071, 0.689 1.1125 2.0199, 0.689 1.1499 1.9628, 0.689 1.063 2.067, 0.689 1.0039 2.1013, 0.689 1.1811 0.0197, 0.689 1.0039 0.8071, 0.689 1.1811 1.8307, 0.689 1.1732 1.8986, 0.8511 1.1464 -0.1772, 0.8511 1.019 -0.1772, 0.7237 1.1464 -0.1772, 0.7237 1.019 -0.1772, 1.6732 1.0039 0.8071, 1.6732 0.9843 0.8071, 1.6732 0.9843 0.0197, 1.6732 1.1811 0.0197, 1.6732 1.1811 1.8307, 1.6732 1.0039 2.1013, 1.6732 1.1732 1.8986, 1.6732 1.1499 1.9628, 1.6732 1.063 2.067, 1.6732 1.1125 2.0199, 1.4764 0.9843 0.0197, 1.4764 0.9843 0.8071, 1.4764 1.1125 2.0199, 1.4764 1.1499 1.9628, 1.4764 1.063 2.067, 1.4764 1.0039 2.1013, 1.4764 1.1811 0.0197, 1.4764 1.0039 0.8071, 1.4764 1.1811 1.8307, 1.4764 1.1732 1.8986, 1.6385 1.1464 -0.1772, 1.6385 1.019 -0.1772, 1.5111 1.1464 -0.1772, 1.5111 1.019 -0.1772, 1.5111 1.019 -0.1772
            ]
        }
        coordIndex [
            0,1,2,-1,2,1,3,-1,2,3,4,-1,4,3,5,-1,4,5,6,-1,6,5,7,-1,6,7,0,-1,0,7,1,-1,8,9,10,-1,10,9,11,-1,4,11,2,-1,2,11,9,-1,6,10,4,-1,4,10,11,-1,8,0,9,-1,9,0,2,-1,0,8,6,-1,6,8,10,-1,12,13,14,-1,14,13,15,-1,14,15,16,-1,16,15,17,-1,16,17,18,-1,18,17,19,-1,18,19,12,-1,12,19,13,-1,20,21,22,-1,22,21,23,-1,18,22,16,-1,16,22,23,-1,16,23,14,-1,14,23,21,-1,20,12,21,-1,21,12,14,-1,12,20,18,-1,18,20,22,-1,24,25,26,-1,26,25,27,-1,28,25,24,-1,24,29,28,-1,28,29,30,-1,28,30,31,-1,30,32,31,-1,31,32,33,-1,31,33,34,-1,34,33,35,-1,36,37,38,-1,38,37,39,-1,26,27,40,-1,40,27,41,-1,40,41,42,-1,42,41,39,-1,42,39,43,-1,43,39,37,-1,40,42,29,-1,29,42,30,-1,44,45,46,-1,46,45,47,-1,39,31,34,-1,39,34,38,-1,38,34,35,-1,38,35,36,-1,36,35,33,-1,36,33,37,-1,37,33,32,-1,37,32,43,-1,43,32,30,-1,43,30,42,-1,26,47,24,-1,24,47,45,-1,40,46,26,-1,26,46,47,-1,44,29,45,-1,45,29,24,-1,29,44,40,-1,40,44,46,-1,48,49,50,-1,50,51,48,-1,48,51,52,-1,48,52,53,-1,52,54,53,-1,53,54,55,-1,53,55,56,-1,56,55,57,-1,50,49,58,-1,58,49,59,-1,60,61,62,-1,62,61,63,-1,58,59,64,-1,64,59,65,-1,64,65,66,-1,66,65,63,-1,66,63,67,-1,67,63,61,-1,63,53,56,-1,63,56,62,-1,62,56,57,-1,62,57,60,-1,60,57,55,-1,60,55,61,-1,61,55,54,-1,61,54,67,-1,67,54,52,-1,67,52,66,-1,64,66,51,-1,51,66,52,-1,68,69,70,-1,70,69,71,-1,64,70,58,-1,58,70,71,-1,58,71,50,-1,50,71,69,-1,68,51,69,-1,69,51,50,-1,51,68,64,-1,64,68,70,-1,72,73,74,-1,74,75,72,-1,72,75,76,-1,72,76,77,-1,76,78,77,-1,77,78,79,-1,77,79,80,-1,80,79,81,-1,74,73,82,-1,82,73,83,-1,84,85,86,-1,86,85,87,-1,82,83,88,-1,88,83,89,-1,88,89,90,-1,90,89,87,-1,90,87,91,-1,91,87,85,-1,87,77,80,-1,87,80,86,-1,86,80,81,-1,86,81,84,-1,84,81,79,-1,84,79,85,-1,85,79,78,-1,85,78,91,-1,91,78,76,-1,91,76,90,-1,88,90,75,-1,75,90,76,-1,92,93,94,-1,94,93,95,-1,88,94,82,-1,82,94,95,-1,82,95,74,-1,74,95,93,-1,92,75,93,-1,93,75,74,-1,75,92,88,-1,88,92,94,-1,96,97,98,-1,98,99,96,-1,96,99,100,-1,96,100,101,-1,100,102,101,-1,101,102,103,-1,101,103,104,-1,104,103,105,-1,98,97,106,-1,106,97,107,-1,108,109,110,-1,110,109,111,-1,106,107,112,-1,112,107,113,-1,112,113,114,-1,114,113,111,-1,114,111,115,-1,115,111,109,-1,111,101,104,-1,111,104,110,-1,110,104,105,-1,110,105,108,-1,108,105,103,-1,108,103,109,-1,109,103,102,-1,109,102,115,-1,115,102,100,-1,115,100,114,-1,112,114,99,-1,99,114,100,-1,116,117,118,-1,118,117,119,-1,112,118,106,-1,106,118,119,-1,106,119,98,-1,98,119,117,-1,116,99,117,-1,117,99,98,-1,99,116,112,-1,112,116,118,-1,120,121,122,-1,122,123,120,-1,120,123,124,-1,120,124,125,-1,124,126,125,-1,125,126,127,-1,125,127,128,-1,128,127,129,-1,122,121,130,-1,130,121,131,-1,132,133,134,-1,134,133,135,-1,130,131,136,-1,136,131,137,-1,136,137,138,-1,138,137,135,-1,138,135,139,-1,139,135,133,-1,135,125,128,-1,135,128,134,-1,134,128,129,-1,134,129,132,-1,132,129,127,-1,132,127,133,-1,133,127,126,-1,133,126,139,-1,139,126,124,-1,139,124,138,-1,136,138,123,-1,123,138,124,-1,140,141,142,-1,142,141,143,-1,136,142,130,-1,130,142,143,-1,130,143,122,-1,122,143,141,-1,140,123,141,-1,141,123,122,-1,123,140,136,-1,136,140,142,-1,
        ]
    }
}
Shape{
    appearance Appearance {
        material  Material 	{
            diffuseColor 0.0 0.0 0.0
            specularColor 0.0 0.0 0.0
            ambientIntensity 0.2
            transparency 0
            shininess 0.5
        }
    }
    geometry IndexedFaceSet {
        ccw TRUE
        solid FALSE
        coord DEF co Coordinate {
            point [
                2.3661 0.2379 1.3196, 2.3661 0.2379 1.3089, 2.3622 0.2379 1.3196, 2.3622 0.2379 1.3089, 2.3661 0.2007 1.3196, 2.3622 0.2007 1.3196, 2.3661 0.2007 1.4023, 2.3622 0.2007 1.4023, 2.3661 0.1887 1.4023, 2.3622 0.1887 1.4023, 2.3661 0.1887 1.3089, 2.3622 0.1887 1.3089, 2.3661 0.2858 1.3073, 2.3622 0.2858 1.3073, 2.3622 0.3001 1.3087, 2.3661 0.3001 1.3087, 2.3622 0.3101 1.312, 2.3661 0.3101 1.312, 2.3622 0.3117 1.3128, 2.3661 0.3117 1.3128, 2.3661 0.3117 1.3243, 2.3622 0.3117 1.3243, 2.3622 0.304 1.3207, 2.3661 0.304 1.3207, 2.3622 0.2937 1.3184, 2.3661 0.2937 1.3184, 2.3622 0.2876 1.3181, 2.3661 0.2876 1.3181, 2.3622 0.2792 1.319, 2.3661 0.2792 1.319, 2.3622 0.2723 1.3214, 2.3661 0.2723 1.3214, 2.3622 0.2661 1.3255, 2.3661 0.2661 1.3255, 2.3622 0.2636 1.3279, 2.3661 0.2636 1.3279, 2.3622 0.2592 1.334, 2.3661 0.2592 1.334, 2.3622 0.2561 1.3414, 2.3661 0.2561 1.3414, 2.3622 0.2546 1.3507, 2.3661 0.2546 1.3507, 2.3622 0.2544 1.3546, 2.3661 0.2544 1.3546, 2.3622 0.2559 1.3673, 2.3661 0.2559 1.3673, 2.3622 0.2591 1.3754, 2.3661 0.2591 1.3754, 2.3622 0.2636 1.3819, 2.3661 0.2636 1.3819, 2.3622 0.2642 1.3827, 2.3661 0.2642 1.3827, 2.3622 0.2702 1.3876, 2.3661 0.2702 1.3876, 2.3622 0.2775 1.3912, 2.3661 0.2775 1.3912, 2.3622 0.2855 1.3928, 2.3661 0.2855 1.3928, 2.3622 0.2897 1.393, 2.3661 0.2897 1.393, 2.3622 0.3012 1.3916, 2.3661 0.3012 1.3916, 2.3622 0.3107 1.388, 2.3661 0.3107 1.388, 2.3622 0.3117 1.3875, 2.3661 0.3117 1.3875, 2.3661 0.3117 1.4001, 2.3622 0.3117 1.4001, 2.3622 0.2896 1.4039, 2.3661 0.2896 1.4039, 2.3622 0.2996 1.4031, 2.3661 0.3018 1.4029, 2.3622 0.3018 1.4029, 2.3622 0.2831 1.4031, 2.3661 0.2761 1.4023, 2.3622 0.2761 1.4023, 2.3622 0.2663 1.3985, 2.3661 0.2663 1.3985, 2.3622 0.2576 1.3924, 2.3661 0.2576 1.3924, 2.3622 0.2553 1.3902, 2.3661 0.2553 1.3902, 2.3622 0.2485 1.3813, 2.3622 0.2459 1.3754, 2.3661 0.2441 1.3709, 2.3661 0.2485 1.3813, 2.3622 0.2441 1.3709, 2.3622 0.2419 1.3587, 2.3661 0.2419 1.3587, 2.3622 0.2418 1.3539, 2.3661 0.2418 1.3539, 2.3622 0.2436 1.3387, 2.3622 0.2459 1.3327, 2.3661 0.2474 1.3289, 2.3661 0.2436 1.3387, 2.3622 0.2474 1.3289, 2.3622 0.253 1.321, 2.3661 0.253 1.321, 2.3622 0.2538 1.3201, 2.3661 0.2538 1.3201, 2.3622 0.2602 1.3146, 2.3661 0.2602 1.3146, 2.3622 0.2688 1.3101, 2.3661 0.2688 1.3101, 2.3622 0.2787 1.3078, 2.3661 0.2787 1.3078, 2.3661 0.3806 1.3196, 2.3661 0.3806 1.3089, 2.3622 0.3806 1.3196, 2.3622 0.3806 1.3089, 2.3622 0.3425 1.3196, 2.3661 0.3425 1.3196, 2.3622 0.3677 1.3196, 2.3661 0.3425 1.351, 2.3622 0.3425 1.351, 2.3661 0.3759 1.351, 2.3622 0.3677 1.351, 2.3622 0.3759 1.351, 2.3661 0.3759 1.3617, 2.3622 0.3759 1.3617, 2.3622 0.3425 1.3617, 2.3661 0.3425 1.3617, 2.3622 0.3677 1.3617, 2.3661 0.3425 1.3916, 2.3622 0.3425 1.3916, 2.3661 0.3785 1.3916, 2.3622 0.3677 1.3916, 2.3622 0.3785 1.3916, 2.3661 0.3785 1.4023, 2.3622 0.3785 1.4023, 2.3622 0.3304 1.4023, 2.3661 0.3304 1.4023, 2.3622 0.3677 1.4023, 2.3661 0.3304 1.3089, 2.3622 0.3304 1.3089, 2.3622 0.3677 1.3089, 2.3661 0.4563 1.335, 2.3661 0.4517 1.3293, 2.3661 0.4603 1.322, 2.3661 0.4506 1.3283, 2.3661 0.4505 1.315, 2.3661 0.4445 1.3241, 2.3661 0.4398 1.3108, 2.3661 0.4368 1.3211, 2.3661 0.424 1.3089, 2.3661 0.4239 1.3196, 2.3661 0.3983 1.3089, 2.3661 0.4104 1.3196, 2.3661 0.3983 1.4023, 2.3661 0.4104 1.3916, 2.3661 0.4249 1.4023, 2.3661 0.4245 1.3916, 2.3661 0.4392 1.4008, 2.3661 0.4371 1.3901, 2.3661 0.4505 1.3966, 2.3661 0.4451 1.3871, 2.3661 0.4603 1.39, 2.3661 0.4514 1.3828, 2.3661 0.4636 1.3867, 2.3661 0.4541 1.3802, 2.3661 0.4694 1.3786, 2.3661 0.4577 1.3749, 2.3661 0.4728 1.3696, 2.3661 0.4603 1.3681, 2.3661 0.4744 1.3568, 2.3661 0.4617 1.3565, 2.3661 0.4741 1.3509, 2.3661 0.4613 1.3504, 2.3661 0.4718 1.3399, 2.3661 0.4595 1.3419, 2.3661 0.4672 1.3303, 2.3622 0.424 1.3089, 2.3622 0.3983 1.3089, 2.3622 0.4603 1.322, 2.3622 0.4398 1.3108, 2.3622 0.4411 1.3113, 2.3622 0.4505 1.315, 2.3622 0.4672 1.3303, 2.3622 0.4718 1.3399, 2.3622 0.4741 1.3509, 2.3622 0.4744 1.3568, 2.3622 0.4728 1.3696, 2.3622 0.4694 1.3786, 2.3622 0.4636 1.3867, 2.3622 0.4603 1.39, 2.3622 0.4249 1.4023, 2.3622 0.4505 1.3966, 2.3622 0.4411 1.4001, 2.3622 0.4392 1.4008, 2.3622 0.3983 1.4023, 2.3622 0.4245 1.3916, 2.3622 0.4104 1.3916, 2.3622 0.4104 1.3196, 2.3622 0.4239 1.3196, 2.3622 0.4517 1.3293, 2.3622 0.4506 1.3283, 2.3622 0.4445 1.3241, 2.3622 0.4368 1.3211, 2.3622 0.4617 1.3565, 2.3622 0.4613 1.3504, 2.3622 0.4595 1.3419, 2.3622 0.4563 1.335, 2.3622 0.4514 1.3828, 2.3622 0.4541 1.3802, 2.3622 0.4577 1.3749, 2.3622 0.4603 1.3681, 2.3622 0.4371 1.3901, 2.3622 0.4451 1.3871, 2.3622 0.4451 1.3871
            ]
        }
        coordIndex [
            0,1,2,-1,2,1,3,-1,4,0,5,-1,5,0,2,-1,6,4,7,-1,7,4,5,-1,8,6,9,-1,9,6,7,-1,10,8,11,-1,11,8,9,-1,1,10,3,-1,3,10,11,-1,6,8,4,-1,4,8,10,-1,4,10,0,-1,0,10,1,-1,12,13,14,-1,12,14,15,-1,15,14,16,-1,15,16,17,-1,17,16,18,-1,17,18,19,-1,20,19,21,-1,21,19,18,-1,20,21,22,-1,20,22,23,-1,23,22,24,-1,23,24,25,-1,25,24,26,-1,25,26,27,-1,27,26,28,-1,27,28,29,-1,29,28,30,-1,29,30,31,-1,31,30,32,-1,31,32,33,-1,33,32,34,-1,33,34,35,-1,35,34,36,-1,35,36,37,-1,37,36,38,-1,37,38,39,-1,39,38,40,-1,39,40,41,-1,41,40,42,-1,41,42,43,-1,43,42,44,-1,43,44,45,-1,45,44,46,-1,45,46,47,-1,47,46,48,-1,47,48,49,-1,49,48,50,-1,49,50,51,-1,51,50,52,-1,51,52,53,-1,53,52,54,-1,53,54,55,-1,55,54,56,-1,55,56,57,-1,57,56,58,-1,57,58,59,-1,59,58,60,-1,59,60,61,-1,61,60,62,-1,61,62,63,-1,63,62,64,-1,63,64,65,-1,66,65,67,-1,67,65,64,-1,68,69,70,-1,70,69,71,-1,70,71,72,-1,72,71,66,-1,72,66,67,-1,69,68,73,-1,69,73,74,-1,73,75,74,-1,74,75,76,-1,74,76,77,-1,77,76,78,-1,77,78,79,-1,79,78,80,-1,79,80,81,-1,81,80,82,-1,83,84,82,-1,82,84,85,-1,82,85,81,-1,83,86,84,-1,84,86,87,-1,84,87,88,-1,88,87,89,-1,88,89,90,-1,90,89,91,-1,92,93,91,-1,91,93,94,-1,91,94,90,-1,92,95,93,-1,93,95,96,-1,93,96,97,-1,97,96,98,-1,97,98,99,-1,99,98,100,-1,99,100,101,-1,101,100,102,-1,101,102,103,-1,103,102,104,-1,103,104,105,-1,105,104,13,-1,105,13,12,-1,81,51,79,-1,79,51,53,-1,79,53,77,-1,90,43,88,-1,88,43,45,-1,88,45,84,-1,84,45,85,-1,85,45,47,-1,85,47,81,-1,81,47,49,-1,81,49,51,-1,77,53,74,-1,74,53,55,-1,74,55,69,-1,19,20,17,-1,17,20,23,-1,17,23,15,-1,15,23,25,-1,15,25,12,-1,12,25,27,-1,12,27,105,-1,105,27,29,-1,105,29,103,-1,103,29,31,-1,103,31,101,-1,101,31,33,-1,101,33,99,-1,99,33,35,-1,99,35,97,-1,97,35,37,-1,97,37,93,-1,93,37,94,-1,94,37,39,-1,94,39,90,-1,90,39,41,-1,90,41,43,-1,55,57,69,-1,69,57,59,-1,69,59,71,-1,71,59,61,-1,71,61,66,-1,66,61,63,-1,66,63,65,-1,106,107,108,-1,108,107,109,-1,110,111,112,-1,112,111,106,-1,112,106,108,-1,113,111,114,-1,114,111,110,-1,113,114,115,-1,115,114,116,-1,115,116,117,-1,118,115,119,-1,119,115,117,-1,120,121,122,-1,122,121,118,-1,122,118,119,-1,123,121,124,-1,124,121,120,-1,123,124,125,-1,125,124,126,-1,125,126,127,-1,128,125,129,-1,129,125,127,-1,130,131,132,-1,132,131,128,-1,132,128,129,-1,133,131,134,-1,134,131,130,-1,109,107,135,-1,135,107,133,-1,135,133,134,-1,133,107,106,-1,106,111,133,-1,133,111,113,-1,133,113,131,-1,125,128,123,-1,123,128,131,-1,123,131,121,-1,121,131,113,-1,121,113,118,-1,118,113,115,-1,136,137,138,-1,138,137,139,-1,138,139,140,-1,140,139,141,-1,140,141,142,-1,142,141,143,-1,142,143,144,-1,144,143,145,-1,144,145,146,-1,146,145,147,-1,146,147,148,-1,148,147,149,-1,148,149,150,-1,150,149,151,-1,150,151,152,-1,152,151,153,-1,152,153,154,-1,154,153,155,-1,154,155,156,-1,156,155,157,-1,156,157,158,-1,158,157,159,-1,158,159,160,-1,160,159,161,-1,160,161,162,-1,162,161,163,-1,162,163,164,-1,164,163,165,-1,164,165,166,-1,166,165,167,-1,166,167,168,-1,168,167,169,-1,168,169,170,-1,170,169,136,-1,170,136,138,-1,144,146,171,-1,171,146,172,-1,173,138,140,-1,144,171,174,-1,144,174,142,-1,142,174,175,-1,142,175,140,-1,140,175,176,-1,140,176,173,-1,138,173,177,-1,138,177,170,-1,170,177,178,-1,170,178,168,-1,168,178,179,-1,168,179,166,-1,166,179,180,-1,166,180,164,-1,164,180,181,-1,164,181,162,-1,162,181,182,-1,162,182,160,-1,160,182,183,-1,160,183,158,-1,158,183,184,-1,158,184,156,-1,185,150,152,-1,156,184,186,-1,156,186,154,-1,154,186,187,-1,154,187,152,-1,152,187,188,-1,152,188,185,-1,148,150,189,-1,189,150,185,-1,146,148,172,-1,172,148,189,-1,151,149,190,-1,190,149,191,-1,149,147,191,-1,191,147,192,-1,147,145,192,-1,192,145,193,-1,137,194,195,-1,137,195,139,-1,139,195,196,-1,139,196,141,-1,141,196,197,-1,141,197,143,-1,143,197,193,-1,143,193,145,-1,165,198,199,-1,165,199,167,-1,167,199,200,-1,167,200,169,-1,169,200,201,-1,169,201,136,-1,136,201,194,-1,136,194,137,-1,157,202,203,-1,157,203,159,-1,159,203,204,-1,159,204,161,-1,161,204,205,-1,161,205,163,-1,163,205,198,-1,163,198,165,-1,151,190,206,-1,151,206,153,-1,153,206,207,-1,153,207,155,-1,155,207,202,-1,155,202,157,-1,
        ]
    }
}
Shape{
    appearance Appearance {
        material  Material 	{
            diffuseColor 1.0 1.0 1.0
            specularColor 0.5019607843137255 0.5019607843137255 0.5019607843137255
            ambientIntensity 0.2
            transparency 0
            shininess 0.5
        }
    }
    geometry IndexedFaceSet {
        ccw TRUE
        solid FALSE
        coord DEF co Coordinate {
            point [
                2.3622 0.4104 1.3916, 2.3622 0.4104 1.3196, 2.3622 0.4245 1.3916, 2.3622 0.4239 1.3196, 2.3622 0.4368 1.3211, 2.3622 0.4445 1.3241, 2.3622 0.4506 1.3283, 2.3622 0.4517 1.3293, 2.3622 0.4563 1.335, 2.3622 0.4595 1.3419, 2.3622 0.4617 1.3565, 2.3622 0.4514 1.3828, 2.3622 0.4451 1.3871, 2.3622 0.4603 1.3681, 2.3622 0.4577 1.3749, 2.3622 0.4541 1.3802, 2.3622 0.4613 1.3504, 2.3622 0.4371 1.3901, 2.3622 0.4371 1.3901
            ]
        }
        coordIndex [
            0,1,2,-1,2,1,3,-1,3,4,2,-1,2,4,5,-1,2,5,6,-1,6,7,2,-1,2,7,8,-1,2,8,9,-1,10,11,12,-1,13,14,10,-1,10,14,15,-1,10,15,11,-1,9,16,2,-1,2,16,10,-1,2,10,17,-1,17,10,12,-1,
        ]
    }
}
Shape{
    appearance Appearance {
        material  Material 	{
            diffuseColor 0.0 0.0 0.0
            specularColor 0.0 0.0 0.0
            ambientIntensity 0.2
            transparency 0
            shininess 0.5
        }
    }
    geometry IndexedFaceSet {
        ccw TRUE
        solid FALSE
        coord DEF co Coordinate {
            point [
                2.3661 0.5057 1.345, 2.3661 0.5018 1.3345, 2.3661 0.537 1.345, 2.3661 0.5407 1.3345, 2.3661 0.5196 1.3838, 2.3661 0.5151 1.4023, 2.3661 0.4795 1.3089, 2.3661 0.4929 1.3089, 2.3661 0.5204 1.3866, 2.3661 0.5212 1.3904, 2.3661 0.528 1.4023, 2.3661 0.5214 1.3904, 2.3661 0.5222 1.3864, 2.3661 0.5229 1.3838, 2.3661 0.5636 1.3089, 2.3661 0.5503 1.3089, 2.3622 0.528 1.4023, 2.3622 0.5636 1.3089, 2.3622 0.5151 1.4023, 2.3622 0.4795 1.3089, 2.3622 0.5065 1.3796, 2.3622 0.4929 1.3089, 2.3622 0.5018 1.3345, 2.3622 0.5407 1.3345, 2.3622 0.5065 1.3345, 2.3622 0.5503 1.3089, 2.3622 0.5057 1.345, 2.3622 0.537 1.345, 2.3622 0.5229 1.3838, 2.3622 0.5214 1.3904, 2.3622 0.5222 1.3864, 2.3622 0.5212 1.3904, 2.3622 0.5196 1.3838, 2.3622 0.5204 1.3866, 2.3622 0.5204 1.3866
            ]
        }
        coordIndex [
            0,1,2,-1,2,1,3,-1,4,5,0,-1,0,5,6,-1,0,6,1,-1,1,6,7,-1,4,8,5,-1,5,8,9,-1,5,9,10,-1,10,9,11,-1,10,11,12,-1,12,13,10,-1,10,13,2,-1,10,2,14,-1,14,2,3,-1,14,3,15,-1,10,14,16,-1,16,14,17,-1,5,10,18,-1,18,10,16,-1,19,6,20,-1,20,6,5,-1,20,5,18,-1,7,6,21,-1,21,6,19,-1,1,7,22,-1,22,7,21,-1,23,3,24,-1,24,3,1,-1,24,1,22,-1,15,3,25,-1,25,3,23,-1,14,15,17,-1,17,15,25,-1,0,2,26,-1,26,2,27,-1,2,13,27,-1,27,13,28,-1,11,29,30,-1,11,30,12,-1,12,30,28,-1,12,28,13,-1,11,9,29,-1,29,9,31,-1,4,32,33,-1,4,33,8,-1,8,33,31,-1,8,31,9,-1,4,0,32,-1,32,0,26,-1,
        ]
    }
}
Shape{
    appearance Appearance {
        material  Material 	{
            diffuseColor 1.0 1.0 1.0
            specularColor 0.5019607843137255 0.5019607843137255 0.5019607843137255
            ambientIntensity 0.2
            transparency 0
            shininess 0.5
        }
    }
    geometry IndexedFaceSet {
        ccw TRUE
        solid FALSE
        coord DEF co Coordinate {
            point [
                2.3622 0.5214 1.3904, 2.3622 0.5212 1.3904, 2.3622 0.5222 1.3864, 2.3622 0.5204 1.3866, 2.3622 0.5229 1.3838, 2.3622 0.5196 1.3838, 2.3622 0.537 1.345, 2.3622 0.5057 1.345, 2.3622 0.5057 1.345
            ]
        }
        coordIndex [
            0,1,2,-1,2,1,3,-1,2,3,4,-1,4,3,5,-1,4,5,6,-1,6,5,7,-1,
        ]
    }
}
Shape{
    appearance Appearance {
        material  Material 	{
            diffuseColor 0.0 0.0 0.0
            specularColor 0.0 0.0 0.0
            ambientIntensity 0.2
            transparency 0
            shininess 0.5
        }
    }
    geometry IndexedFaceSet {
        ccw TRUE
        solid FALSE
        coord DEF co Coordinate {
            point [
                2.3661 0.2389 1.1714, 2.3661 0.2389 1.1607, 2.3622 0.2389 1.1714, 2.3622 0.2389 1.1607, 2.3661 0.2007 1.1714, 2.3622 0.2007 1.1714, 2.3661 0.2007 1.2028, 2.3622 0.2007 1.2028, 2.3661 0.2342 1.2028, 2.3622 0.2342 1.2028, 2.3661 0.2342 1.2135, 2.3622 0.2342 1.2135, 2.3661 0.2007 1.2135, 2.3622 0.2007 1.2135, 2.3661 0.2007 1.2434, 2.3622 0.2007 1.2434, 2.3661 0.2368 1.2434, 2.3622 0.2368 1.2434, 2.3661 0.2368 1.2541, 2.3622 0.2368 1.2541, 2.3661 0.1887 1.2541, 2.3622 0.1887 1.2541, 2.3661 0.1887 1.1607, 2.3622 0.1887 1.1607, 2.3661 0.2917 1.171, 2.3661 0.292 1.171, 2.3661 0.2913 1.1818, 2.3661 0.292 1.187, 2.3661 0.3037 1.2037, 2.3661 0.292 1.1878, 2.3661 0.292 1.1942, 2.3661 0.292 1.1607, 2.3661 0.3037 1.1607, 2.3661 0.2621 1.1814, 2.3661 0.2627 1.1841, 2.3661 0.2526 1.1893, 2.3661 0.2896 1.1776, 2.3661 0.287 1.1742, 2.3661 0.2898 1.1682, 2.3661 0.2856 1.1728, 2.3661 0.2861 1.1642, 2.3661 0.2822 1.1705, 2.3661 0.2821 1.1615, 2.3661 0.2787 1.1692, 2.3661 0.2773 1.1598, 2.3661 0.2743 1.1687, 2.3661 0.2713 1.1591, 2.3661 0.2704 1.1692, 2.3661 0.2643 1.16, 2.3661 0.2677 1.1702, 2.3661 0.2598 1.1617, 2.3661 0.2654 1.1718, 2.3661 0.2559 1.1644, 2.3661 0.2644 1.1728, 2.3661 0.2549 1.1926, 2.3661 0.2637 1.1863, 2.3661 0.2585 1.1957, 2.3661 0.2651 1.188, 2.3661 0.2636 1.1982, 2.3661 0.2665 1.1891, 2.3661 0.2693 1.1904, 2.3661 0.2723 1.2004, 2.3661 0.2764 1.1921, 2.3661 0.292 1.2031, 2.3661 0.2509 1.1851, 2.3661 0.2502 1.1801, 2.3661 0.262 1.1795, 2.3661 0.2501 1.1786, 2.3661 0.2623 1.1769, 2.3661 0.2507 1.1733, 2.3661 0.2631 1.1747, 2.3661 0.2521 1.1693, 2.3661 0.2546 1.1657, 2.3661 0.2566 1.2228, 2.3661 0.2566 1.2114, 2.3661 0.2591 1.2242, 2.3661 0.2638 1.216, 2.3661 0.2678 1.2275, 2.3661 0.2711 1.2186, 2.3661 0.2796 1.229, 2.3661 0.2785 1.2195, 2.3661 0.2867 1.2283, 2.3661 0.2825 1.219, 2.3661 0.2916 1.2268, 2.3661 0.2852 1.2181, 2.3661 0.2955 1.2246, 2.3661 0.2873 1.2168, 2.3661 0.2986 1.2216, 2.3661 0.289 1.2149, 2.3661 0.301 1.2178, 2.3661 0.2904 1.2125, 2.3661 0.3028 1.2125, 2.3661 0.2916 1.2083, 2.3622 0.2796 1.229, 2.3622 0.2678 1.2275, 2.3622 0.2591 1.2242, 2.3622 0.2566 1.2228, 2.3622 0.2566 1.2114, 2.3622 0.2638 1.216, 2.3622 0.2711 1.2186, 2.3622 0.2785 1.2195, 2.3622 0.2825 1.219, 2.3622 0.2852 1.2181, 2.3622 0.2873 1.2168, 2.3622 0.289 1.2149, 2.3622 0.2904 1.2125, 2.3622 0.2916 1.2083, 2.3622 0.292 1.2031, 2.3622 0.2723 1.2004, 2.3622 0.2636 1.1982, 2.3622 0.2585 1.1957, 2.3622 0.2549 1.1926, 2.3622 0.2526 1.1893, 2.3622 0.2509 1.1851, 2.3622 0.2502 1.1801, 2.3622 0.2501 1.1786, 2.3622 0.2507 1.1733, 2.3622 0.2521 1.1693, 2.3622 0.2546 1.1657, 2.3622 0.2559 1.1644, 2.3622 0.2713 1.1591, 2.3622 0.2645 1.1599, 2.3622 0.2643 1.16, 2.3622 0.2598 1.1617, 2.3622 0.2773 1.1598, 2.3622 0.2777 1.1599, 2.3622 0.2821 1.1615, 2.3622 0.2861 1.1642, 2.3622 0.2898 1.1682, 2.3622 0.2917 1.171, 2.3622 0.292 1.171, 2.3622 0.292 1.1607, 2.3622 0.3037 1.1607, 2.3622 0.3037 1.2037, 2.3622 0.3028 1.2125, 2.3622 0.301 1.2178, 2.3622 0.2986 1.2216, 2.3622 0.2955 1.2246, 2.3622 0.2916 1.2268, 2.3622 0.2867 1.2283, 2.3622 0.2651 1.188, 2.3622 0.2665 1.1891, 2.3622 0.2693 1.1904, 2.3622 0.2764 1.1921, 2.3622 0.262 1.1795, 2.3622 0.2621 1.1814, 2.3622 0.2627 1.1841, 2.3622 0.2637 1.1863, 2.3622 0.2654 1.1718, 2.3622 0.2644 1.1728, 2.3622 0.2631 1.1747, 2.3622 0.2623 1.1769, 2.3622 0.2743 1.1687, 2.3622 0.2704 1.1692, 2.3622 0.2677 1.1702, 2.3622 0.287 1.1742, 2.3622 0.2856 1.1728, 2.3622 0.2822 1.1705, 2.3622 0.2787 1.1692, 2.3622 0.292 1.1878, 2.3622 0.292 1.187, 2.3622 0.2913 1.1818, 2.3622 0.2896 1.1776, 2.3622 0.292 1.1942, 2.3622 0.292 1.1942
            ]
        }
        coordIndex [
            0,1,2,-1,2,1,3,-1,4,0,5,-1,5,0,2,-1,6,4,7,-1,7,4,5,-1,8,6,9,-1,9,6,7,-1,10,8,11,-1,11,8,9,-1,12,10,13,-1,13,10,11,-1,14,12,15,-1,15,12,13,-1,16,14,17,-1,17,14,15,-1,18,16,19,-1,19,16,17,-1,20,18,21,-1,21,18,19,-1,22,20,23,-1,23,20,21,-1,1,22,3,-1,3,22,23,-1,16,18,14,-1,14,18,20,-1,14,20,12,-1,1,0,22,-1,22,0,4,-1,22,4,6,-1,8,10,6,-1,6,10,12,-1,6,12,22,-1,22,12,20,-1,24,25,26,-1,27,28,29,-1,29,28,30,-1,31,32,25,-1,25,32,28,-1,25,28,26,-1,26,28,27,-1,33,34,35,-1,26,36,24,-1,24,36,37,-1,24,37,38,-1,38,37,39,-1,38,39,40,-1,40,39,41,-1,40,41,42,-1,42,41,43,-1,42,43,44,-1,44,43,45,-1,44,45,46,-1,46,45,47,-1,46,47,48,-1,48,47,49,-1,48,49,50,-1,50,49,51,-1,50,51,52,-1,52,51,53,-1,35,34,54,-1,54,34,55,-1,54,55,56,-1,56,55,57,-1,56,57,58,-1,57,59,58,-1,58,59,60,-1,58,60,61,-1,61,60,62,-1,61,62,63,-1,35,64,33,-1,33,64,65,-1,33,65,66,-1,66,65,67,-1,66,67,68,-1,68,67,69,-1,68,69,70,-1,70,69,71,-1,70,71,53,-1,53,71,72,-1,53,72,52,-1,73,74,75,-1,75,74,76,-1,75,76,77,-1,77,76,78,-1,77,78,79,-1,79,78,80,-1,79,80,81,-1,81,80,82,-1,81,82,83,-1,83,82,84,-1,83,84,85,-1,85,84,86,-1,85,86,87,-1,87,86,88,-1,87,88,89,-1,89,88,90,-1,89,90,91,-1,91,90,92,-1,91,92,28,-1,28,92,63,-1,28,63,30,-1,30,63,62,-1,79,93,94,-1,79,94,77,-1,77,94,95,-1,77,95,75,-1,75,95,96,-1,75,96,73,-1,74,73,97,-1,97,73,96,-1,74,97,98,-1,74,98,76,-1,76,98,99,-1,76,99,78,-1,78,99,100,-1,78,100,80,-1,80,100,101,-1,80,101,82,-1,82,101,102,-1,82,102,84,-1,84,102,103,-1,84,103,86,-1,86,103,104,-1,86,104,88,-1,88,104,105,-1,88,105,90,-1,90,105,106,-1,90,106,92,-1,92,106,107,-1,92,107,63,-1,61,63,108,-1,108,63,107,-1,61,108,109,-1,61,109,58,-1,58,109,110,-1,58,110,56,-1,56,110,111,-1,56,111,54,-1,54,111,112,-1,54,112,35,-1,35,112,113,-1,35,113,64,-1,64,113,114,-1,64,114,65,-1,65,114,115,-1,65,115,67,-1,67,115,116,-1,67,116,69,-1,69,116,117,-1,69,117,71,-1,71,117,118,-1,71,118,72,-1,72,118,119,-1,72,119,52,-1,120,46,121,-1,121,46,48,-1,121,48,122,-1,122,48,50,-1,122,50,123,-1,123,50,52,-1,123,52,119,-1,46,120,124,-1,46,124,44,-1,44,124,125,-1,44,125,42,-1,125,126,42,-1,42,126,127,-1,42,127,40,-1,40,127,128,-1,40,128,38,-1,38,128,129,-1,38,129,24,-1,25,24,130,-1,130,24,129,-1,31,25,131,-1,131,25,130,-1,32,31,132,-1,132,31,131,-1,28,32,133,-1,133,32,132,-1,28,133,134,-1,28,134,91,-1,91,134,135,-1,91,135,89,-1,89,135,136,-1,89,136,87,-1,87,136,137,-1,87,137,85,-1,85,137,138,-1,85,138,83,-1,83,138,139,-1,83,139,81,-1,81,139,93,-1,81,93,79,-1,57,140,141,-1,57,141,59,-1,59,141,142,-1,59,142,60,-1,60,142,143,-1,60,143,62,-1,66,144,145,-1,66,145,33,-1,33,145,146,-1,33,146,34,-1,34,146,147,-1,34,147,55,-1,55,147,140,-1,55,140,57,-1,51,148,149,-1,51,149,53,-1,53,149,150,-1,53,150,70,-1,70,150,151,-1,70,151,68,-1,68,151,144,-1,68,144,66,-1,45,152,153,-1,45,153,47,-1,47,153,154,-1,47,154,49,-1,49,154,148,-1,49,148,51,-1,37,155,156,-1,37,156,39,-1,39,156,157,-1,39,157,41,-1,41,157,158,-1,41,158,43,-1,43,158,152,-1,43,152,45,-1,29,159,160,-1,29,160,27,-1,27,160,161,-1,27,161,26,-1,26,161,162,-1,26,162,36,-1,36,162,155,-1,36,155,37,-1,29,30,159,-1,159,30,163,-1,30,62,163,-1,163,62,143,-1,
        ]
    }
}
Shape{
    appearance Appearance {
        material  Material 	{
            diffuseColor 1.0 1.0 1.0
            specularColor 0.5019607843137255 0.5019607843137255 0.5019607843137255
            ambientIntensity 0.2
            transparency 0
            shininess 0.5
        }
    }
    geometry IndexedFaceSet {
        ccw TRUE
        solid FALSE
        coord DEF co Coordinate {
            point [
                2.3622 0.292 1.187, 2.3622 0.292 1.1878, 2.3622 0.2651 1.188, 2.3622 0.292 1.1942, 2.3622 0.2764 1.1921, 2.3622 0.2693 1.1904, 2.3622 0.2665 1.1891, 2.3622 0.2913 1.1818, 2.3622 0.2637 1.1863, 2.3622 0.2896 1.1776, 2.3622 0.2644 1.1728, 2.3622 0.2654 1.1718, 2.3622 0.2856 1.1728, 2.3622 0.2631 1.1747, 2.3622 0.2822 1.1705, 2.3622 0.2787 1.1692, 2.3622 0.2743 1.1687, 2.3622 0.2627 1.1841, 2.3622 0.2621 1.1814, 2.3622 0.287 1.1742, 2.3622 0.262 1.1795, 2.3622 0.2623 1.1769, 2.3622 0.2677 1.1702, 2.3622 0.2704 1.1692, 2.3622 0.2704 1.1692
            ]
        }
        coordIndex [
            0,1,2,-1,1,3,4,-1,4,5,1,-1,1,5,6,-1,1,6,2,-1,0,2,7,-1,7,2,8,-1,7,8,9,-1,10,11,12,-1,10,12,13,-1,14,12,15,-1,15,12,16,-1,8,17,9,-1,9,17,18,-1,9,18,19,-1,19,18,20,-1,19,20,12,-1,12,20,21,-1,12,21,13,-1,11,22,12,-1,12,22,23,-1,12,23,16,-1,
        ]
    }
}
Shape{
    appearance Appearance {
        material  Material 	{
            diffuseColor 0.0 0.0 0.0
            specularColor 0.0 0.0 0.0
            ambientIntensity 0.2
            transparency 0
            shininess 0.5
        }
    }
    geometry IndexedFaceSet {
        ccw TRUE
        solid FALSE
        coord DEF co Coordinate {
            point [
                2.3622 0.3196 1.1751, 2.3661 0.3196 1.1751, 2.3661 0.3241 1.1724, 2.3661 0.3388 1.1687, 2.3622 0.3388 1.1687, 2.3622 0.3314 1.1696, 2.3661 0.3314 1.1696, 2.3622 0.325 1.172, 2.3622 0.3241 1.1724, 2.3661 0.3196 1.1631, 2.3622 0.3196 1.1631, 2.3622 0.325 1.1611, 2.3661 0.327 1.1604, 2.3622 0.3377 1.1591, 2.3661 0.3377 1.1591, 2.3622 0.3308 1.1599, 2.3622 0.327 1.1604, 2.3622 0.3456 1.1599, 2.3661 0.3468 1.1601, 2.3622 0.3468 1.1601, 2.3622 0.3533 1.1622, 2.3661 0.3533 1.1622, 2.3622 0.3571 1.1644, 2.3661 0.3571 1.1644, 2.3622 0.3605 1.1674, 2.3661 0.3605 1.1674, 2.3622 0.3627 1.1705, 2.3661 0.3627 1.1705, 2.3622 0.3641 1.1742, 2.3661 0.3641 1.1742, 2.3622 0.3647 1.1789, 2.3661 0.3647 1.1789, 2.3622 0.3642 1.1832, 2.3661 0.3642 1.1832, 2.3622 0.3629 1.1867, 2.3661 0.3629 1.1867, 2.3622 0.3607 1.1899, 2.3661 0.3607 1.1899, 2.3622 0.3579 1.1924, 2.3661 0.3579 1.1924, 2.3622 0.3502 1.1967, 2.3661 0.3502 1.1967, 2.3622 0.3456 1.1985, 2.3661 0.3456 1.1985, 2.3622 0.3384 1.2017, 2.3661 0.3384 1.2017, 2.3622 0.3343 1.2043, 2.3661 0.3343 1.2043, 2.3622 0.3331 1.2055, 2.3661 0.3331 1.2055, 2.3622 0.3323 1.2071, 2.3661 0.3323 1.2071, 2.3622 0.3318 1.2089, 2.3661 0.3318 1.2089, 2.3622 0.3317 1.2105, 2.3661 0.3317 1.2105, 2.3622 0.3319 1.2124, 2.3661 0.3319 1.2124, 2.3622 0.3325 1.2139, 2.3661 0.3325 1.2139, 2.3622 0.3335 1.2154, 2.3661 0.3335 1.2154, 2.3622 0.3353 1.217, 2.3661 0.3353 1.217, 2.3622 0.3379 1.2184, 2.3661 0.3379 1.2184, 2.3622 0.341 1.2192, 2.3661 0.341 1.2192, 2.3622 0.3445 1.2195, 2.3661 0.3445 1.2195, 2.3622 0.3522 1.2186, 2.3661 0.3522 1.2186, 2.3622 0.3588 1.2161, 2.3661 0.3588 1.2161, 2.3622 0.3615 1.2146, 2.3661 0.3615 1.2146, 2.3661 0.3615 1.226, 2.3622 0.3615 1.226, 2.3622 0.3536 1.2283, 2.3661 0.3536 1.2283, 2.3622 0.3456 1.229, 2.3661 0.3456 1.229, 2.3622 0.3372 1.2281, 2.3661 0.3372 1.2281, 2.3622 0.3308 1.2258, 2.3661 0.3308 1.2258, 2.3622 0.3272 1.2237, 2.3661 0.3272 1.2237, 2.3622 0.325 1.2217, 2.3661 0.3237 1.2205, 2.3622 0.3237 1.2205, 2.3622 0.3215 1.2174, 2.3661 0.3215 1.2174, 2.3622 0.3201 1.2136, 2.3661 0.3201 1.2136, 2.3622 0.3197 1.2094, 2.3661 0.3197 1.2094, 2.3622 0.3202 1.2049, 2.3661 0.3202 1.2049, 2.3622 0.3215 1.2013, 2.3661 0.3215 1.2013, 2.3622 0.323 1.1989, 2.3661 0.323 1.1989, 2.3622 0.3374 1.19, 2.3661 0.3374 1.19, 2.3661 0.3304 1.1932, 2.3622 0.3249 1.1969, 2.3661 0.3249 1.1969, 2.3622 0.325 1.1968, 2.3622 0.3304 1.1932, 2.3622 0.3451 1.1868, 2.3661 0.3451 1.1868, 2.3622 0.3496 1.1841, 2.3661 0.3496 1.1841, 2.3622 0.3511 1.1826, 2.3661 0.3511 1.1826, 2.3622 0.352 1.181, 2.3661 0.352 1.181, 2.3622 0.3525 1.1792, 2.3661 0.3525 1.1792, 2.3622 0.3526 1.1777, 2.3661 0.3526 1.1777, 2.3622 0.3524 1.1755, 2.3661 0.3524 1.1755, 2.3622 0.3518 1.1738, 2.3661 0.3518 1.1738, 2.3622 0.3508 1.1723, 2.3661 0.3508 1.1723, 2.3622 0.3494 1.1711, 2.3661 0.3494 1.1711, 2.3622 0.3484 1.1705, 2.3661 0.3484 1.1705, 2.3622 0.3454 1.1694, 2.3661 0.3454 1.1694, 2.3622 0.3394 1.1687, 2.3661 0.3394 1.1687, 2.3661 0.4227 1.2274, 2.3661 0.4348 1.2274, 2.3622 0.4227 1.2274, 2.3622 0.4348 1.2274, 2.3661 0.4044 1.1772, 2.3622 0.4044 1.1772, 2.3622 0.4035 1.1741, 2.3661 0.4035 1.1741, 2.3622 0.403 1.1718, 2.3661 0.403 1.1718, 2.3661 0.4027 1.1718, 2.3622 0.4027 1.1718, 2.3661 0.4013 1.1773, 2.3622 0.4013 1.1773, 2.3622 0.3838 1.2274, 2.3661 0.3838 1.2274, 2.3622 0.3895 1.2112, 2.3661 0.3707 1.2274, 2.3622 0.3707 1.2274, 2.3622 0.3969 1.1609, 2.3661 0.3969 1.1609, 2.3622 0.3895 1.1798, 2.3622 0.3918 1.1487, 2.3661 0.3918 1.1487, 2.3622 0.3965 1.1599, 2.3622 0.3895 1.1445, 2.3661 0.3895 1.1445, 2.3622 0.3895 1.1445, 2.3622 0.3873 1.1421, 2.3661 0.3873 1.1421, 2.3622 0.3852 1.1406, 2.3661 0.3852 1.1406, 2.3622 0.3827 1.1397, 2.3661 0.3827 1.1397, 2.3622 0.3798 1.1393, 2.3661 0.3798 1.1393, 2.3622 0.3755 1.1399, 2.3661 0.3755 1.1399, 2.3622 0.3732 1.1407, 2.3661 0.3732 1.1407, 2.3661 0.3732 1.1303, 2.3622 0.3732 1.1303, 2.3622 0.3781 1.1294, 2.3661 0.3781 1.1294, 2.3622 0.3807 1.1293, 2.3661 0.3807 1.1293, 2.3622 0.3854 1.1298, 2.3661 0.3854 1.1298, 2.3622 0.3895 1.1314, 2.3661 0.39 1.1316, 2.3622 0.39 1.1316, 2.3622 0.3941 1.1345, 2.3661 0.3941 1.1345, 2.3622 0.3949 1.1352, 2.3661 0.3949 1.1352, 2.3622 0.3992 1.1403, 2.3661 0.3992 1.1403, 2.3622 0.4045 1.1506, 2.3661 0.4045 1.1506, 2.3622 0.4082 1.1599, 2.3661 0.4976 1.1714, 2.3661 0.4976 1.1607, 2.3622 0.4976 1.1714, 2.3622 0.4976 1.1607, 2.3622 0.4595 1.1714, 2.3661 0.4595 1.1714, 2.3622 0.4769 1.1714, 2.3661 0.4595 1.2028, 2.3622 0.4595 1.2028, 2.3622 0.4929 1.2028, 2.3661 0.4929 1.2028, 2.3622 0.4769 1.2028, 2.3661 0.4929 1.2135, 2.3622 0.4929 1.2135, 2.3622 0.4595 1.2135, 2.3661 0.4595 1.2135, 2.3622 0.4769 1.2135, 2.3661 0.4595 1.2434, 2.3622 0.4595 1.2434, 2.3622 0.4955 1.2434, 2.3661 0.4955 1.2434, 2.3622 0.4769 1.2434, 2.3661 0.4955 1.2541, 2.3622 0.4955 1.2541, 2.3622 0.4474 1.2541, 2.3661 0.4474 1.2541, 2.3622 0.4769 1.2541, 2.3661 0.4474 1.1607, 2.3622 0.4474 1.1607, 2.3622 0.4769 1.1607, 2.3661 0.5732 1.1868, 2.3661 0.5687 1.1811, 2.3661 0.5772 1.1738, 2.3661 0.5675 1.1801, 2.3661 0.5674 1.1668, 2.3661 0.5615 1.1759, 2.3661 0.5568 1.1626, 2.3661 0.5538 1.1729, 2.3661 0.541 1.1607, 2.3661 0.5409 1.1714, 2.3661 0.5153 1.1607, 2.3661 0.5273 1.1714, 2.3661 0.5153 1.2541, 2.3661 0.5273 1.2434, 2.3661 0.5419 1.2541, 2.3661 0.5415 1.2434, 2.3661 0.5562 1.2526, 2.3661 0.5541 1.2419, 2.3661 0.5675 1.2484, 2.3661 0.5621 1.2389, 2.3661 0.5772 1.2418, 2.3661 0.5684 1.2346, 2.3661 0.5806 1.2385, 2.3661 0.571 1.232, 2.3661 0.5863 1.2304, 2.3661 0.5747 1.2268, 2.3661 0.5898 1.2214, 2.3661 0.5773 1.2199, 2.3661 0.5913 1.2086, 2.3661 0.5787 1.2083, 2.3661 0.5911 1.2027, 2.3661 0.5783 1.2022, 2.3661 0.5888 1.1917, 2.3661 0.5765 1.1937, 2.3661 0.5842 1.1821, 2.3622 0.541 1.1607, 2.3622 0.5153 1.1607, 2.3622 0.5568 1.1626, 2.3622 0.5674 1.1668, 2.3622 0.5772 1.1738, 2.3622 0.5842 1.1821, 2.3622 0.5888 1.1917, 2.3622 0.5911 1.2027, 2.3622 0.5913 1.2086, 2.3622 0.5898 1.2214, 2.3622 0.5863 1.2304, 2.3622 0.5806 1.2385, 2.3622 0.5772 1.2418, 2.3622 0.5675 1.2484, 2.3622 0.5562 1.2526, 2.3622 0.5419 1.2541, 2.3622 0.5153 1.2541, 2.3622 0.5415 1.2434, 2.3622 0.5273 1.2434, 2.3622 0.5273 1.1714, 2.3622 0.5409 1.1714, 2.3622 0.5687 1.1811, 2.3622 0.5675 1.1801, 2.3622 0.5615 1.1759, 2.3622 0.5538 1.1729, 2.3622 0.5787 1.2083, 2.3622 0.5783 1.2022, 2.3622 0.5765 1.1937, 2.3622 0.5732 1.1868, 2.3622 0.5684 1.2346, 2.3622 0.571 1.232, 2.3622 0.5747 1.2268, 2.3622 0.5773 1.2199, 2.3622 0.5541 1.2419, 2.3622 0.5621 1.2389, 2.3622 0.5621 1.2389
            ]
        }
        coordIndex [
            0,1,2,-1,3,4,5,-1,3,5,6,-1,6,5,7,-1,6,7,2,-1,2,7,8,-1,2,8,0,-1,9,1,10,-1,10,1,0,-1,10,11,9,-1,9,11,12,-1,13,14,15,-1,15,14,12,-1,15,12,16,-1,16,12,11,-1,13,17,14,-1,14,17,18,-1,17,19,18,-1,18,19,20,-1,18,20,21,-1,21,20,22,-1,21,22,23,-1,23,22,24,-1,23,24,25,-1,25,24,26,-1,25,26,27,-1,27,26,28,-1,27,28,29,-1,29,28,30,-1,29,30,31,-1,31,30,32,-1,31,32,33,-1,33,32,34,-1,33,34,35,-1,35,34,36,-1,35,36,37,-1,37,36,38,-1,37,38,39,-1,39,38,40,-1,39,40,41,-1,41,40,42,-1,41,42,43,-1,43,42,44,-1,43,44,45,-1,45,44,46,-1,45,46,47,-1,47,46,48,-1,47,48,49,-1,49,48,50,-1,49,50,51,-1,51,50,52,-1,51,52,53,-1,53,52,54,-1,53,54,55,-1,55,54,56,-1,55,56,57,-1,57,56,58,-1,57,58,59,-1,59,58,60,-1,59,60,61,-1,61,60,62,-1,61,62,63,-1,63,62,64,-1,63,64,65,-1,65,64,66,-1,65,66,67,-1,67,66,68,-1,67,68,69,-1,69,68,70,-1,69,70,71,-1,71,70,72,-1,71,72,73,-1,73,72,74,-1,73,74,75,-1,76,75,77,-1,77,75,74,-1,76,77,78,-1,76,78,79,-1,79,78,80,-1,79,80,81,-1,81,80,82,-1,81,82,83,-1,83,82,84,-1,83,84,85,-1,85,84,86,-1,85,86,87,-1,86,88,87,-1,87,88,89,-1,88,90,89,-1,89,90,91,-1,89,91,92,-1,92,91,93,-1,92,93,94,-1,94,93,95,-1,94,95,96,-1,96,95,97,-1,96,97,98,-1,98,97,99,-1,98,99,100,-1,100,99,101,-1,100,101,102,-1,103,104,105,-1,102,101,106,-1,102,106,107,-1,107,106,108,-1,107,108,105,-1,105,108,109,-1,105,109,103,-1,104,103,110,-1,104,110,111,-1,111,110,112,-1,111,112,113,-1,113,112,114,-1,113,114,115,-1,115,114,116,-1,115,116,117,-1,117,116,118,-1,117,118,119,-1,119,118,120,-1,119,120,121,-1,121,120,122,-1,121,122,123,-1,123,122,124,-1,123,124,125,-1,125,124,126,-1,125,126,127,-1,127,126,128,-1,127,128,129,-1,129,128,130,-1,129,130,131,-1,131,130,132,-1,131,132,133,-1,133,132,134,-1,133,134,135,-1,135,134,4,-1,135,4,3,-1,61,63,85,-1,85,63,83,-1,45,104,43,-1,43,104,111,-1,43,111,41,-1,14,3,12,-1,12,3,6,-1,12,6,9,-1,9,6,2,-1,9,2,1,-1,63,65,83,-1,83,65,67,-1,83,67,81,-1,81,67,69,-1,81,69,79,-1,79,69,71,-1,79,71,76,-1,76,71,73,-1,76,73,75,-1,41,111,39,-1,39,111,113,-1,39,113,37,-1,37,113,115,-1,37,115,35,-1,35,115,117,-1,35,117,33,-1,33,117,119,-1,33,119,31,-1,31,119,121,-1,31,121,29,-1,29,121,123,-1,29,123,27,-1,27,123,125,-1,27,125,25,-1,25,125,127,-1,25,127,23,-1,23,127,129,-1,23,129,21,-1,21,129,131,-1,21,131,18,-1,18,131,133,-1,18,133,14,-1,14,133,135,-1,14,135,3,-1,85,87,61,-1,61,87,89,-1,61,89,59,-1,59,89,92,-1,59,92,57,-1,57,92,94,-1,57,94,55,-1,55,94,96,-1,55,96,53,-1,53,96,98,-1,53,98,51,-1,51,98,100,-1,51,100,49,-1,49,100,102,-1,49,102,47,-1,47,102,107,-1,47,107,45,-1,45,107,105,-1,45,105,104,-1,136,137,138,-1,138,137,139,-1,140,136,141,-1,141,136,138,-1,140,141,142,-1,140,142,143,-1,143,142,144,-1,143,144,145,-1,146,145,147,-1,147,145,144,-1,148,146,149,-1,149,146,147,-1,150,151,152,-1,152,151,148,-1,152,148,149,-1,153,151,154,-1,154,151,150,-1,155,156,157,-1,157,156,153,-1,157,153,154,-1,158,159,160,-1,160,159,156,-1,160,156,155,-1,158,161,159,-1,159,161,162,-1,161,163,162,-1,162,163,164,-1,162,164,165,-1,165,164,166,-1,165,166,167,-1,167,166,168,-1,167,168,169,-1,169,168,170,-1,169,170,171,-1,171,170,172,-1,171,172,173,-1,173,172,174,-1,173,174,175,-1,176,175,177,-1,177,175,174,-1,176,177,178,-1,176,178,179,-1,179,178,180,-1,179,180,181,-1,181,180,182,-1,181,182,183,-1,183,182,184,-1,183,184,185,-1,184,186,185,-1,185,186,187,-1,185,187,188,-1,188,187,189,-1,188,189,190,-1,190,189,191,-1,190,191,192,-1,192,191,193,-1,192,193,194,-1,139,137,195,-1,195,137,194,-1,195,194,193,-1,143,145,194,-1,137,136,194,-1,194,136,140,-1,194,140,143,-1,151,153,148,-1,148,153,156,-1,148,156,146,-1,175,176,173,-1,173,176,179,-1,173,179,171,-1,171,179,181,-1,171,181,169,-1,169,181,183,-1,169,183,167,-1,167,183,185,-1,167,185,165,-1,145,146,194,-1,194,146,156,-1,194,156,192,-1,156,159,192,-1,192,159,162,-1,192,162,190,-1,190,162,165,-1,190,165,188,-1,188,165,185,-1,196,197,198,-1,198,197,199,-1,200,201,202,-1,202,201,196,-1,202,196,198,-1,203,201,204,-1,204,201,200,-1,205,206,207,-1,207,206,203,-1,207,203,204,-1,208,206,209,-1,209,206,205,-1,210,211,212,-1,212,211,208,-1,212,208,209,-1,213,211,214,-1,214,211,210,-1,215,216,217,-1,217,216,213,-1,217,213,214,-1,218,216,219,-1,219,216,215,-1,220,221,222,-1,222,221,218,-1,222,218,219,-1,223,221,224,-1,224,221,220,-1,199,197,225,-1,225,197,223,-1,225,223,224,-1,223,197,196,-1,196,201,223,-1,223,201,203,-1,223,203,221,-1,216,218,213,-1,213,218,221,-1,213,221,211,-1,211,221,203,-1,211,203,208,-1,208,203,206,-1,226,227,228,-1,228,227,229,-1,228,229,230,-1,230,229,231,-1,230,231,232,-1,232,231,233,-1,232,233,234,-1,234,233,235,-1,234,235,236,-1,236,235,237,-1,236,237,238,-1,238,237,239,-1,238,239,240,-1,240,239,241,-1,240,241,242,-1,242,241,243,-1,242,243,244,-1,244,243,245,-1,244,245,246,-1,246,245,247,-1,246,247,248,-1,248,247,249,-1,248,249,250,-1,250,249,251,-1,250,251,252,-1,252,251,253,-1,252,253,254,-1,254,253,255,-1,254,255,256,-1,256,255,257,-1,256,257,258,-1,258,257,259,-1,258,259,260,-1,260,259,226,-1,260,226,228,-1,234,236,261,-1,261,236,262,-1,234,261,263,-1,234,263,232,-1,232,263,264,-1,232,264,230,-1,230,264,265,-1,230,265,228,-1,228,265,266,-1,228,266,260,-1,260,266,267,-1,260,267,258,-1,258,267,268,-1,258,268,256,-1,256,268,269,-1,256,269,254,-1,254,269,270,-1,254,270,252,-1,252,270,271,-1,252,271,250,-1,250,271,272,-1,250,272,248,-1,248,272,273,-1,248,273,246,-1,246,273,274,-1,246,274,244,-1,244,274,275,-1,244,275,242,-1,242,275,276,-1,242,276,240,-1,238,240,277,-1,277,240,276,-1,236,238,262,-1,262,238,277,-1,241,239,278,-1,278,239,279,-1,239,237,279,-1,279,237,280,-1,237,235,280,-1,280,235,281,-1,227,282,283,-1,227,283,229,-1,229,283,284,-1,229,284,231,-1,231,284,285,-1,231,285,233,-1,233,285,281,-1,233,281,235,-1,255,286,287,-1,255,287,257,-1,257,287,288,-1,257,288,259,-1,259,288,289,-1,259,289,226,-1,226,289,282,-1,226,282,227,-1,247,290,291,-1,247,291,249,-1,249,291,292,-1,249,292,251,-1,251,292,293,-1,251,293,253,-1,253,293,286,-1,253,286,255,-1,241,278,294,-1,241,294,243,-1,243,294,295,-1,243,295,245,-1,245,295,290,-1,245,290,247,-1,
        ]
    }
}
Shape{
    appearance Appearance {
        material  Material 	{
            diffuseColor 1.0 1.0 1.0
            specularColor 0.5019607843137255 0.5019607843137255 0.5019607843137255
            ambientIntensity 0.2
            transparency 0
            shininess 0.5
        }
    }
    geometry IndexedFaceSet {
        ccw TRUE
        solid FALSE
        coord DEF co Coordinate {
            point [
                2.3622 0.5273 1.2434, 2.3622 0.5273 1.1714, 2.3622 0.5415 1.2434, 2.3622 0.5409 1.1714, 2.3622 0.5538 1.1729, 2.3622 0.5615 1.1759, 2.3622 0.5675 1.1801, 2.3622 0.5687 1.1811, 2.3622 0.5732 1.1868, 2.3622 0.5765 1.1937, 2.3622 0.5787 1.2083, 2.3622 0.5684 1.2346, 2.3622 0.5621 1.2389, 2.3622 0.5773 1.2199, 2.3622 0.5747 1.2268, 2.3622 0.571 1.232, 2.3622 0.5783 1.2022, 2.3622 0.5541 1.2419, 2.3622 0.5541 1.2419
            ]
        }
        coordIndex [
            0,1,2,-1,2,1,3,-1,3,4,2,-1,2,4,5,-1,2,5,6,-1,6,7,2,-1,2,7,8,-1,2,8,9,-1,10,11,12,-1,13,14,10,-1,10,14,15,-1,10,15,11,-1,9,16,2,-1,2,16,10,-1,2,10,17,-1,17,10,12,-1,
        ]
    }
}
Shape{
    appearance Appearance {
        material  Material 	{
            diffuseColor 0.0 0.0 0.0
            specularColor 0.0 0.0 0.0
            ambientIntensity 0.2
            transparency 0
            shininess 0.5
        }
    }
    geometry IndexedFaceSet {
        ccw TRUE
        solid FALSE
        coord DEF co Coordinate {
            point [
                2.3661 0.6226 1.1968, 2.3661 0.6188 1.1863, 2.3661 0.654 1.1968, 2.3661 0.6577 1.1863, 2.3661 0.6366 1.2357, 2.3661 0.6321 1.2541, 2.3661 0.5965 1.1607, 2.3661 0.6098 1.1607, 2.3661 0.6374 1.2384, 2.3661 0.6381 1.2422, 2.3661 0.645 1.2541, 2.3661 0.6384 1.2422, 2.3661 0.6392 1.2382, 2.3661 0.6399 1.2357, 2.3661 0.6806 1.1607, 2.3661 0.6672 1.1607, 2.3622 0.645 1.2541, 2.3622 0.6806 1.1607, 2.3622 0.6321 1.2541, 2.3622 0.5965 1.1607, 2.3622 0.6098 1.1607, 2.3622 0.6188 1.1863, 2.3622 0.6577 1.1863, 2.3622 0.6672 1.1607, 2.3622 0.6226 1.1968, 2.3622 0.654 1.1968, 2.3622 0.6399 1.2357, 2.3622 0.6384 1.2422, 2.3622 0.6392 1.2382, 2.3622 0.6381 1.2422, 2.3622 0.6366 1.2357, 2.3622 0.6374 1.2384, 2.3622 0.6374 1.2384
            ]
        }
        coordIndex [
            0,1,2,-1,2,1,3,-1,4,5,0,-1,0,5,6,-1,0,6,1,-1,1,6,7,-1,4,8,5,-1,5,8,9,-1,5,9,10,-1,10,9,11,-1,10,11,12,-1,12,13,10,-1,10,13,2,-1,10,2,14,-1,14,2,3,-1,14,3,15,-1,10,14,16,-1,16,14,17,-1,5,10,18,-1,18,10,16,-1,6,5,19,-1,19,5,18,-1,7,6,20,-1,20,6,19,-1,1,7,21,-1,21,7,20,-1,3,1,22,-1,22,1,21,-1,15,3,23,-1,23,3,22,-1,14,15,17,-1,17,15,23,-1,0,2,24,-1,24,2,25,-1,2,13,25,-1,25,13,26,-1,11,27,28,-1,11,28,12,-1,12,28,26,-1,12,26,13,-1,11,9,27,-1,27,9,29,-1,4,30,31,-1,4,31,8,-1,8,31,29,-1,8,29,9,-1,4,0,30,-1,30,0,24,-1,
        ]
    }
}
Shape{
    appearance Appearance {
        material  Material 	{
            diffuseColor 1.0 1.0 1.0
            specularColor 0.5019607843137255 0.5019607843137255 0.5019607843137255
            ambientIntensity 0.2
            transparency 0
            shininess 0.5
        }
    }
    geometry IndexedFaceSet {
        ccw TRUE
        solid FALSE
        coord DEF co Coordinate {
            point [
                2.3622 0.6384 1.2422, 2.3622 0.6381 1.2422, 2.3622 0.6392 1.2382, 2.3622 0.6374 1.2384, 2.3622 0.6399 1.2357, 2.3622 0.6366 1.2357, 2.3622 0.654 1.1968, 2.3622 0.6226 1.1968, 2.3622 0.6226 1.1968
            ]
        }
        coordIndex [
            0,1,2,-1,2,1,3,-1,2,3,4,-1,4,3,5,-1,4,5,6,-1,6,5,7,-1,
        ]
    }
}
Shape{
    appearance Appearance {
        material  Material 	{
            diffuseColor 0.0 0.0 0.0
            specularColor 0.0 0.0 0.0
            ambientIntensity 0.2
            transparency 0
            shininess 0.5
        }
    }
    geometry IndexedFaceSet {
        ccw TRUE
        solid FALSE
        coord DEF co Coordinate {
            point [
                2.3661 -0.2239 1.1475, 2.3661 -0.214 1.1353, 2.3661 -0.2299 1.2062, 2.3661 -0.2414 1.3216, 2.3661 -0.2266 1.3295, 2.3661 -0.2301 1.3704, 2.3661 -0.1887 1.3723, 2.3661 -0.1681 1.3238, 2.3661 -0.1579 1.3448, 2.3661 -0.2443 1.2151, 2.3661 -0.2389 1.1642, 2.3661 -0.2305 1.1617, 2.3661 -0.204 1.3736, 2.3661 -0.1623 1.2075, 2.3661 -0.1561 1.2053, 2.3661 -0.101 1.1896, 2.3661 -0.1508 1.2016, 2.3661 -0.1466 1.1968, 2.3661 -0.008 1.2388, 2.3661 -0.0286 1.274, 2.3661 -0.1176 1.2275, 2.3661 -0.1681 1.2082, 2.3661 -0.1746 1.2074, 2.3661 -0.1833 1.2481, 2.3661 -0.1804 1.2051, 2.3661 -0.198 1.2425, 2.3661 -0.1856 1.2014, 2.3661 -0.2115 1.2331, 2.3661 -0.1882 1.1986, 2.3661 -0.2225 1.2205, 2.3661 -0.1916 1.1931, 2.3661 -0.1936 1.1869, 2.3661 -0.1939 1.1804, 2.3661 -0.1433 1.2456, 2.3661 -0.1594 1.2496, 2.3661 -0.1674 1.2501, 2.3661 -0.1438 1.1913, 2.3661 -0.1423 1.1851, 2.3661 -0.101 1.183, 2.3661 -0.1423 1.1796, 2.3661 -0.1014 1.1761, 2.3661 0.0139 1.3045, 2.3661 0.0192 1.3045, 2.3661 0.0464 1.3404, 2.3661 0.0318 1.303, 2.3661 0.0497 1.3393, 2.3661 0.0434 1.2985, 2.3661 0.0695 1.3295, 2.3661 0.0875 1.3142, 2.3661 -0.1751 1.3881, 2.3661 -0.1431 1.3626, 2.3661 -0.1595 1.4015, 2.3661 -0.1252 1.3756, 2.3661 -0.1415 1.4124, 2.3661 -0.2102 1.3334, 2.3661 -0.2033 1.3337, 2.3661 -0.1963 1.3732, 2.3661 -0.1877 1.3318, 2.3661 -0.1728 1.3264, 2.3661 -0.1292 1.2381, 2.3661 0.0876 1.1903, 2.3661 0.0567 1.2167, 2.3661 0.0695 1.175, 2.3661 0.0468 1.2086, 2.3661 0.0493 1.1651, 2.3661 0.0351 1.2032, 2.3661 0.0272 1.1604, 2.3661 0.0232 1.2009, 2.3661 -0.012 1.1604, 2.3661 -0.0067 1.2009, 2.3661 -0.0158 1.161, 2.3661 -0.1927 1.1742, 2.3661 -0.1901 1.1686, 2.3661 0.0537 1.2913, 2.3661 0.0614 1.2828, 2.3661 0.101 1.2954, 2.3661 0.0676 1.2713, 2.3661 0.1091 1.2751, 2.3661 0.0707 1.2586, 2.3661 0.1122 1.2534, 2.3661 0.071 1.2527, 2.3661 0.1091 1.2297, 2.3661 0.0694 1.2398, 2.3661 0.1008 1.2087, 2.3661 0.0648 1.2279, 2.3661 0.0575 1.2176, 2.3661 0.0106 1.3929, 2.3661 -0.0154 1.3623, 2.3661 0.033 1.3668, 2.3661 -0.0004 1.3444, 2.3661 0.0098 1.323, 2.3661 -0.2677 1.2834, 2.3661 -0.3114 1.2724, 2.3661 -0.2697 1.2673, 2.3661 -0.3116 1.266, 2.3661 -0.2689 1.2571, 2.3661 -0.3083 1.24, 2.3661 -0.2642 1.2408, 2.3661 -0.2988 1.2153, 2.3661 -0.2562 1.2274, 2.3661 -0.2837 1.1936, 2.3661 -0.2629 1.1759, 2.3661 -0.1053 1.1597, 2.3661 -0.1438 1.1732, 2.3661 -0.1131 1.1449, 2.3661 -0.1469 1.1675, 2.3661 -0.1233 1.1334, 2.3661 -0.1507 1.1631, 2.3661 -0.1365 1.1242, 2.3661 -0.1558 1.1595, 2.3661 -0.1513 1.1185, 2.3661 -0.1615 1.1572, 2.3661 -0.1674 1.1166, 2.3661 -0.1681 1.1564, 2.3661 -0.17 1.1166, 2.3661 -0.1692 1.1564, 2.3661 -0.1857 1.1191, 2.3661 -0.1752 1.1574, 2.3661 -0.201 1.1255, 2.3661 -0.1812 1.16, 2.3661 -0.1863 1.1639, 2.3661 -0.1108 1.4238, 2.3661 -0.1036 1.3844, 2.3661 -0.0798 1.4274, 2.3661 -0.0791 1.3875, 2.3661 -0.0494 1.4239, 2.3661 -0.0566 1.3848, 2.3661 -0.0163 1.4114, 2.3661 -0.0357 1.3768, 2.3661 -0.0171 1.3638, 2.3661 -0.2547 1.3608, 2.3661 -0.2759 1.346, 2.3661 -0.2528 1.3115, 2.3661 -0.2803 1.3417, 2.3661 -0.262 1.2982, 2.3661 -0.2963 1.3213, 2.3661 -0.3069 1.2973, 2.3661 -0.01 1.2015, 2.3661 -0.026 1.1674, 2.3661 -0.0245 1.1658, 2.3661 -0.008 1.2011, 2.3661 -0.0202 1.1627, 2.3661 -0.0313 1.181, 2.3661 -0.0306 1.176, 2.3661 -0.0289 1.1715, 2.3661 -0.0158 1.2009, 2.3661 -0.0204 1.1991, 2.3661 -0.0311 1.1836, 2.3661 -0.0245 1.1962, 2.3661 -0.0272 1.1932, 2.3661 -0.0298 1.1887, 2.3661 -0.0107 1.2016, 2.3622 0.1122 1.2534, 2.3622 0.1091 1.2751, 2.3622 0.1069 1.2807, 2.3622 0.101 1.2954, 2.3622 0.0875 1.3142, 2.3622 0.0695 1.3295, 2.3622 0.0497 1.3393, 2.3622 0.0464 1.3404, 2.3622 0.033 1.3668, 2.3622 0.0106 1.3929, 2.3622 -0.0043 1.4031, 2.3622 -0.0163 1.4114, 2.3622 -0.0494 1.4239, 2.3622 -0.0798 1.4274, 2.3622 -0.1108 1.4238, 2.3622 -0.1415 1.4124, 2.3622 -0.1568 1.4031, 2.3622 -0.1595 1.4015, 2.3622 -0.1751 1.3881, 2.3622 -0.1887 1.3723, 2.3622 -0.1963 1.3732, 2.3622 -0.204 1.3736, 2.3622 -0.2301 1.3704, 2.3622 -0.2547 1.3608, 2.3622 -0.2759 1.346, 2.3622 -0.2803 1.3417, 2.3622 -0.3069 1.2973, 2.3622 -0.2963 1.3213, 2.3622 -0.3099 1.2807, 2.3622 -0.3114 1.2724, 2.3622 -0.3116 1.266, 2.3622 -0.3083 1.24, 2.3622 -0.2988 1.2153, 2.3622 -0.2837 1.1936, 2.3622 -0.2629 1.1759, 2.3622 -0.2389 1.1642, 2.3622 -0.2305 1.1617, 2.3622 -0.2297 1.1599, 2.3622 -0.2239 1.1475, 2.3622 -0.214 1.1353, 2.3622 -0.201 1.1255, 2.3622 -0.1949 1.1229, 2.3622 -0.1857 1.1191, 2.3622 -0.17 1.1166, 2.3622 -0.1674 1.1166, 2.3622 -0.101 1.183, 2.3622 -0.1513 1.1185, 2.3622 -0.1399 1.1229, 2.3622 -0.1365 1.1242, 2.3622 -0.1233 1.1334, 2.3622 -0.1131 1.1449, 2.3622 -0.1053 1.1597, 2.3622 -0.1052 1.1599, 2.3622 -0.1014 1.1761, 2.3622 -0.101 1.1896, 2.3622 -0.008 1.2388, 2.3622 -0.0286 1.274, 2.3622 -0.1176 1.2275, 2.3622 -0.1292 1.2381, 2.3622 -0.1433 1.2456, 2.3622 -0.1594 1.2496, 2.3622 -0.1674 1.2501, 2.3622 -0.1833 1.2481, 2.3622 -0.198 1.2425, 2.3622 -0.2115 1.2331, 2.3622 -0.2225 1.2205, 2.3622 -0.2299 1.2062, 2.3622 -0.2443 1.2151, 2.3622 -0.2562 1.2274, 2.3622 -0.2642 1.2408, 2.3622 -0.2689 1.2571, 2.3622 -0.2697 1.2673, 2.3622 -0.2681 1.2807, 2.3622 -0.2677 1.2834, 2.3622 -0.262 1.2982, 2.3622 -0.2528 1.3115, 2.3622 -0.2414 1.3216, 2.3622 -0.2266 1.3295, 2.3622 -0.2102 1.3334, 2.3622 -0.2033 1.3337, 2.3622 -0.1877 1.3318, 2.3622 -0.1728 1.3264, 2.3622 -0.1681 1.3238, 2.3622 -0.1579 1.3448, 2.3622 -0.1431 1.3626, 2.3622 -0.1252 1.3756, 2.3622 -0.1036 1.3844, 2.3622 -0.0791 1.3875, 2.3622 -0.0566 1.3848, 2.3622 -0.0357 1.3768, 2.3622 -0.0171 1.3638, 2.3622 -0.0154 1.3623, 2.3622 -0.0004 1.3444, 2.3622 0.0098 1.323, 2.3622 0.0139 1.3045, 2.3622 0.0192 1.3045, 2.3622 0.0318 1.303, 2.3622 0.0434 1.2985, 2.3622 0.0537 1.2913, 2.3622 0.0614 1.2828, 2.3622 0.0625 1.2807, 2.3622 0.0676 1.2713, 2.3622 0.0707 1.2586, 2.3622 0.071 1.2527, 2.3622 0.0694 1.2398, 2.3622 0.0648 1.2279, 2.3622 0.0575 1.2176, 2.3622 0.0567 1.2167, 2.3622 0.0468 1.2086, 2.3622 0.0351 1.2032, 2.3622 0.0232 1.2009, 2.3622 -0.0067 1.2009, 2.3622 -0.008 1.2011, 2.3622 -0.01 1.2015, 2.3622 -0.0107 1.2016, 2.3622 -0.0158 1.2009, 2.3622 -0.0204 1.1991, 2.3622 -0.0245 1.1962, 2.3622 -0.0272 1.1932, 2.3622 -0.0298 1.1887, 2.3622 -0.0311 1.1836, 2.3622 -0.0313 1.181, 2.3622 -0.0306 1.176, 2.3622 -0.0289 1.1715, 2.3622 -0.026 1.1674, 2.3622 -0.0245 1.1658, 2.3622 -0.0202 1.1627, 2.3622 -0.0158 1.161, 2.3622 -0.012 1.1604, 2.3622 0.0272 1.1604, 2.3622 0.0493 1.1651, 2.3622 0.0695 1.175, 2.3622 0.0876 1.1903, 2.3622 0.1008 1.2087, 2.3622 0.1091 1.2297, 2.3622 -0.1681 1.2082, 2.3622 -0.1623 1.2075, 2.3622 -0.1561 1.2053, 2.3622 -0.1508 1.2016, 2.3622 -0.1466 1.1968, 2.3622 -0.1438 1.1913, 2.3622 -0.1423 1.1851, 2.3622 -0.1423 1.1796, 2.3622 -0.1438 1.1732, 2.3622 -0.1469 1.1675, 2.3622 -0.1507 1.1631, 2.3622 -0.1558 1.1595, 2.3622 -0.1615 1.1572, 2.3622 -0.1681 1.1564, 2.3622 -0.1692 1.1564, 2.3622 -0.1752 1.1574, 2.3622 -0.1812 1.16, 2.3622 -0.1863 1.1639, 2.3622 -0.1901 1.1686, 2.3622 -0.1927 1.1742, 2.3622 -0.1939 1.1804, 2.3622 -0.1936 1.1869, 2.3622 -0.1916 1.1931, 2.3622 -0.1882 1.1986, 2.3622 -0.1856 1.2014, 2.3622 -0.1804 1.2051, 2.3622 -0.1746 1.2074, 2.3622 -0.1746 1.2074
            ]
        }
        coordIndex [
            0,1,2,-1,3,4,5,-1,6,7,8,-1,9,10,2,-1,2,10,11,-1,2,11,0,-1,5,4,12,-1,13,14,15,-1,15,14,16,-1,15,16,17,-1,18,19,15,-1,15,19,20,-1,15,20,13,-1,13,20,21,-1,22,23,24,-1,24,23,25,-1,24,25,26,-1,26,25,27,-1,26,27,28,-1,28,27,29,-1,28,29,30,-1,30,29,2,-1,30,2,31,-1,31,2,32,-1,33,34,22,-1,22,34,35,-1,22,35,23,-1,17,36,15,-1,15,36,37,-1,15,37,38,-1,38,37,39,-1,38,39,40,-1,41,42,43,-1,43,42,44,-1,43,44,45,-1,45,44,46,-1,45,46,47,-1,47,46,48,-1,6,8,49,-1,49,8,50,-1,49,50,51,-1,51,50,52,-1,51,52,53,-1,4,54,12,-1,12,54,55,-1,12,55,56,-1,56,55,57,-1,56,57,6,-1,6,57,58,-1,6,58,7,-1,21,20,22,-1,22,20,59,-1,22,59,33,-1,60,61,62,-1,62,61,63,-1,62,63,64,-1,64,63,65,-1,64,65,66,-1,66,65,67,-1,66,67,68,-1,68,67,69,-1,68,69,70,-1,32,2,71,-1,71,2,1,-1,71,1,72,-1,46,73,48,-1,48,73,74,-1,48,74,75,-1,75,74,76,-1,75,76,77,-1,77,76,78,-1,77,78,79,-1,79,78,80,-1,79,80,81,-1,81,80,82,-1,81,82,83,-1,83,82,84,-1,83,84,60,-1,60,84,85,-1,60,85,61,-1,86,87,88,-1,88,87,89,-1,88,89,43,-1,43,89,90,-1,43,90,41,-1,91,92,93,-1,93,92,94,-1,93,94,95,-1,95,94,96,-1,95,96,97,-1,97,96,98,-1,97,98,99,-1,99,98,100,-1,99,100,9,-1,9,100,101,-1,9,101,10,-1,40,39,102,-1,102,39,103,-1,102,103,104,-1,104,103,105,-1,104,105,106,-1,106,105,107,-1,106,107,108,-1,108,107,109,-1,108,109,110,-1,110,109,111,-1,110,111,112,-1,112,111,113,-1,112,113,114,-1,114,113,115,-1,114,115,116,-1,116,115,117,-1,116,117,118,-1,118,117,119,-1,118,119,1,-1,1,119,120,-1,1,120,72,-1,53,52,121,-1,121,52,122,-1,121,122,123,-1,123,122,124,-1,123,124,125,-1,125,124,126,-1,125,126,127,-1,127,126,128,-1,127,128,86,-1,86,128,129,-1,86,129,87,-1,5,130,3,-1,3,130,131,-1,3,131,132,-1,132,131,133,-1,132,133,134,-1,134,133,135,-1,134,135,91,-1,91,135,136,-1,91,136,92,-1,137,138,139,-1,69,140,70,-1,70,140,137,-1,70,137,141,-1,141,137,139,-1,142,143,137,-1,137,143,144,-1,137,144,138,-1,145,146,147,-1,146,148,147,-1,147,148,149,-1,147,149,150,-1,142,137,147,-1,147,137,151,-1,147,151,145,-1,79,152,153,-1,79,153,77,-1,77,153,154,-1,77,154,75,-1,154,155,75,-1,75,155,156,-1,75,156,48,-1,48,156,157,-1,48,157,47,-1,47,157,158,-1,47,158,45,-1,45,158,159,-1,45,159,43,-1,43,159,160,-1,43,160,88,-1,88,160,161,-1,88,161,86,-1,127,86,162,-1,162,86,161,-1,162,163,127,-1,127,163,164,-1,127,164,125,-1,125,164,165,-1,125,165,123,-1,123,165,166,-1,123,166,121,-1,121,166,167,-1,121,167,53,-1,53,167,51,-1,51,167,168,-1,51,168,169,-1,51,169,170,-1,51,170,49,-1,49,170,171,-1,49,171,6,-1,6,171,172,-1,6,172,56,-1,56,172,173,-1,56,173,12,-1,12,173,174,-1,12,174,5,-1,5,174,175,-1,5,175,130,-1,130,175,176,-1,130,176,131,-1,131,176,177,-1,131,177,133,-1,178,135,179,-1,179,135,133,-1,179,133,177,-1,180,92,178,-1,178,92,136,-1,178,136,135,-1,180,181,92,-1,92,181,182,-1,92,182,94,-1,94,182,183,-1,94,183,96,-1,96,183,184,-1,96,184,98,-1,98,184,185,-1,98,185,100,-1,100,185,186,-1,100,186,101,-1,101,186,187,-1,101,187,10,-1,10,187,188,-1,10,188,11,-1,11,188,189,-1,11,189,0,-1,189,190,0,-1,0,190,191,-1,0,191,1,-1,1,191,192,-1,1,192,118,-1,118,192,193,-1,118,193,116,-1,193,194,116,-1,116,194,195,-1,116,195,114,-1,114,195,196,-1,114,196,112,-1,197,38,40,-1,112,196,198,-1,199,108,198,-1,198,108,110,-1,198,110,112,-1,199,200,108,-1,108,200,201,-1,108,201,106,-1,106,201,202,-1,106,202,104,-1,104,202,203,-1,104,203,102,-1,102,203,204,-1,102,204,40,-1,40,204,205,-1,40,205,197,-1,15,38,206,-1,206,38,197,-1,18,15,207,-1,207,15,206,-1,19,18,208,-1,208,18,207,-1,20,19,209,-1,209,19,208,-1,20,209,210,-1,20,210,59,-1,59,210,211,-1,59,211,33,-1,33,211,212,-1,33,212,34,-1,34,212,213,-1,34,213,35,-1,35,213,214,-1,35,214,23,-1,23,214,215,-1,23,215,25,-1,25,215,216,-1,25,216,27,-1,27,216,217,-1,27,217,29,-1,29,217,218,-1,29,218,2,-1,2,218,219,-1,2,219,9,-1,9,219,220,-1,9,220,99,-1,99,220,221,-1,99,221,97,-1,97,221,222,-1,97,222,95,-1,95,222,223,-1,95,223,93,-1,93,223,91,-1,91,223,224,-1,224,225,91,-1,91,225,226,-1,91,226,134,-1,134,226,227,-1,134,227,132,-1,132,227,228,-1,132,228,3,-1,3,228,229,-1,3,229,4,-1,4,229,230,-1,4,230,54,-1,54,230,231,-1,54,231,55,-1,55,231,232,-1,55,232,57,-1,57,232,233,-1,57,233,58,-1,58,233,234,-1,58,234,7,-1,7,234,235,-1,7,235,8,-1,8,235,236,-1,8,236,50,-1,50,236,237,-1,50,237,52,-1,52,237,238,-1,52,238,122,-1,122,238,239,-1,122,239,124,-1,124,239,240,-1,124,240,126,-1,126,240,241,-1,126,241,128,-1,128,241,242,-1,128,242,129,-1,129,242,243,-1,129,243,87,-1,87,243,244,-1,87,244,89,-1,89,244,245,-1,89,245,90,-1,90,245,246,-1,90,246,41,-1,42,41,247,-1,247,41,246,-1,42,247,248,-1,42,248,44,-1,44,248,249,-1,44,249,46,-1,46,249,250,-1,46,250,73,-1,73,250,251,-1,73,251,74,-1,74,251,252,-1,74,252,76,-1,252,253,76,-1,76,253,254,-1,76,254,78,-1,78,254,255,-1,78,255,80,-1,80,255,256,-1,80,256,82,-1,82,256,257,-1,82,257,84,-1,84,257,258,-1,84,258,85,-1,85,258,259,-1,85,259,61,-1,61,259,260,-1,61,260,63,-1,63,260,261,-1,63,261,65,-1,65,261,262,-1,65,262,67,-1,69,67,263,-1,263,67,262,-1,69,263,264,-1,69,264,140,-1,140,264,265,-1,140,265,137,-1,137,265,266,-1,137,266,151,-1,151,266,267,-1,151,267,145,-1,145,267,268,-1,145,268,146,-1,146,268,269,-1,146,269,148,-1,148,269,270,-1,148,270,149,-1,149,270,271,-1,149,271,150,-1,150,271,272,-1,150,272,147,-1,147,272,273,-1,147,273,142,-1,142,273,274,-1,142,274,143,-1,143,274,275,-1,143,275,144,-1,144,275,276,-1,144,276,138,-1,138,276,277,-1,138,277,139,-1,139,277,278,-1,139,278,141,-1,141,278,279,-1,141,279,70,-1,70,279,280,-1,70,280,68,-1,66,68,281,-1,281,68,280,-1,66,281,282,-1,66,282,64,-1,64,282,283,-1,64,283,62,-1,62,283,284,-1,62,284,60,-1,60,284,285,-1,60,285,83,-1,83,285,286,-1,83,286,81,-1,81,286,152,-1,81,152,79,-1,21,287,288,-1,21,288,13,-1,13,288,289,-1,13,289,14,-1,14,289,290,-1,14,290,16,-1,16,290,291,-1,16,291,17,-1,17,291,292,-1,17,292,36,-1,36,292,293,-1,36,293,37,-1,37,293,294,-1,37,294,39,-1,39,294,295,-1,39,295,103,-1,103,295,296,-1,103,296,105,-1,105,296,297,-1,105,297,107,-1,107,297,298,-1,107,298,109,-1,109,298,299,-1,109,299,111,-1,111,299,300,-1,111,300,113,-1,113,300,301,-1,113,301,115,-1,115,301,302,-1,115,302,117,-1,117,302,303,-1,117,303,119,-1,119,303,304,-1,119,304,120,-1,120,304,305,-1,120,305,72,-1,72,305,306,-1,72,306,71,-1,71,306,307,-1,71,307,32,-1,32,307,308,-1,32,308,31,-1,31,308,309,-1,31,309,30,-1,30,309,310,-1,30,310,28,-1,28,310,311,-1,28,311,26,-1,26,311,312,-1,26,312,24,-1,24,312,313,-1,24,313,22,-1,22,313,287,-1,22,287,21,-1,
        ]
    }
}
Shape{
    appearance Appearance {
        material  Material 	{
            diffuseColor 1.0 1.0 1.0
            specularColor 0.5019607843137255 0.5019607843137255 0.5019607843137255
            ambientIntensity 0.2
            transparency 0
            shininess 0.5
        }
    }
    geometry IndexedFaceSet {
        ccw TRUE
        solid FALSE
        coord DEF co Coordinate {
            point [
                2.3622 -0.1746 1.2074, 2.3622 -0.1804 1.2051, 2.3622 -0.1692 1.1564, 2.3622 -0.1856 1.2014, 2.3622 -0.1882 1.1986, 2.3622 -0.1927 1.1742, 2.3622 -0.1901 1.1686, 2.3622 -0.1863 1.1639, 2.3622 -0.1681 1.1564, 2.3622 -0.1466 1.1968, 2.3622 -0.1508 1.2016, 2.3622 -0.1615 1.1572, 2.3622 -0.1423 1.1851, 2.3622 -0.1438 1.1913, 2.3622 -0.1558 1.1595, 2.3622 -0.1507 1.1631, 2.3622 -0.1423 1.1796, 2.3622 -0.1469 1.1675, 2.3622 -0.1438 1.1732, 2.3622 -0.1561 1.2053, 2.3622 -0.1623 1.2075, 2.3622 -0.1681 1.2082, 2.3622 -0.1916 1.1931, 2.3622 -0.1936 1.1869, 2.3622 -0.1939 1.1804, 2.3622 -0.1812 1.16, 2.3622 -0.1752 1.1574, 2.3622 -0.1752 1.1574
            ]
        }
        coordIndex [
            0,1,2,-1,2,1,3,-1,2,3,4,-1,5,6,4,-1,4,6,7,-1,8,9,10,-1,11,12,8,-1,8,12,13,-1,8,13,9,-1,11,14,12,-1,12,14,15,-1,12,15,16,-1,16,15,17,-1,16,17,18,-1,10,19,8,-1,8,19,20,-1,8,20,2,-1,2,20,21,-1,2,21,0,-1,22,23,4,-1,4,23,24,-1,4,24,5,-1,7,25,4,-1,4,25,26,-1,4,26,2,-1,
        ]
    }
}