#VRML V2.0 utf8
# 3D model generated by easyeda2kicad.py (https://github.com/uPesy/easyeda2kicad.py)

Shape{
    appearance Appearance {
        material  Material 	{
            diffuseColor 0.6039215686274509 0.6039215686274509 0.6039215686274509
            specularColor 0.7529411764705882 0.7529411764705882 0.7529411764705882
            ambientIntensity 0.2
            transparency 0
            shininess 0.5
        }
    }
    geometry IndexedFaceSet {
        ccw TRUE
        solid FALSE
        coord DEF co Coordinate {
            point [
                -3.248 0.1378 -3.5486, -3.248 0.1378 -0.4528, -3.248 0.3346 -3.5486, -3.248 0.3346 -0.4528, -3.0512 0.3346 -3.5486, -3.0512 0.3346 -0.4528, -3.0512 0.1378 -3.5486, -3.0512 0.1378 -0.4528, -3.189 0.1969 -3.5827, -3.189 0.2756 -3.5827, -3.1102 0.1969 -3.5827, -3.1102 0.2756 -3.5827, -3.2139 0.3005 -0.3937, -3.2139 0.1719 -0.3937, -3.0853 0.3005 -0.3937, -3.0853 0.1719 -0.3937, -2.4606 0.1378 -3.5486, -2.4606 0.1378 -0.4528, -2.4606 0.3346 -3.5486, -2.4606 0.3346 -0.4528, -2.2638 0.3346 -3.5486, -2.2638 0.3346 -0.4528, -2.2638 0.1378 -3.5486, -2.2638 0.1378 -0.4528, -2.4016 0.1969 -3.5827, -2.4016 0.2756 -3.5827, -2.3228 0.1969 -3.5827, -2.3228 0.2756 -3.5827, -2.4265 0.3005 -0.3937, -2.4265 0.1719 -0.3937, -2.2979 0.3005 -0.3937, -2.2979 0.1719 -0.3937, -1.6732 0.1378 -3.5486, -1.6732 0.1378 -0.4528, -1.6732 0.3346 -3.5486, -1.6732 0.3346 -0.4528, -1.4764 0.3346 -3.5486, -1.4764 0.3346 -0.4528, -1.4764 0.1378 -3.5486, -1.4764 0.1378 -0.4528, -1.6142 0.1969 -3.5827, -1.6142 0.2756 -3.5827, -1.5354 0.1969 -3.5827, -1.5354 0.2756 -3.5827, -1.6391 0.3005 -0.3937, -1.6391 0.1719 -0.3937, -1.5105 0.3005 -0.3937, -1.5105 0.1719 -0.3937, -0.8858 0.1378 -3.5486, -0.8858 0.1378 -0.4528, -0.8858 0.3346 -3.5486, -0.8858 0.3346 -0.4528, -0.689 0.3346 -3.5486, -0.689 0.3346 -0.4528, -0.689 0.1378 -3.5486, -0.689 0.1378 -0.4528, -0.8268 0.1969 -3.5827, -0.8268 0.2756 -3.5827, -0.748 0.1969 -3.5827, -0.748 0.2756 -3.5827, -0.8517 0.3005 -0.3937, -0.8517 0.1719 -0.3937, -0.7231 0.3005 -0.3937, -0.7231 0.1719 -0.3937, -0.0984 0.1378 -3.5486, -0.0984 0.1378 -0.4528, -0.0984 0.3346 -3.5486, -0.0984 0.3346 -0.4528, 0.0984 0.3346 -3.5486, 0.0984 0.3346 -0.4528, 0.0984 0.1378 -3.5486, 0.0984 0.1378 -0.4528, -0.0394 0.1969 -3.5827, -0.0394 0.2756 -3.5827, 0.0394 0.1969 -3.5827, 0.0394 0.2756 -3.5827, -0.0643 0.3005 -0.3937, -0.0643 0.1719 -0.3937, 0.0643 0.3005 -0.3937, 0.0643 0.1719 -0.3937, 0.689 0.1378 -3.5486, 0.689 0.1378 -0.4528, 0.689 0.3346 -3.5486, 0.689 0.3346 -0.4528, 0.8858 0.3346 -3.5486, 0.8858 0.3346 -0.4528, 0.8858 0.1378 -3.5486, 0.8858 0.1378 -0.4528, 0.748 0.1969 -3.5827, 0.748 0.2756 -3.5827, 0.8268 0.1969 -3.5827, 0.8268 0.2756 -3.5827, 0.7231 0.3005 -0.3937, 0.7231 0.1719 -0.3937, 0.8517 0.3005 -0.3937, 0.8517 0.1719 -0.3937, 1.4764 0.1378 -3.5486, 1.4764 0.1378 -0.4528, 1.4764 0.3346 -3.5486, 1.4764 0.3346 -0.4528, 1.6732 0.3346 -3.5486, 1.6732 0.3346 -0.4528, 1.6732 0.1378 -3.5486, 1.6732 0.1378 -0.4528, 1.5354 0.1969 -3.5827, 1.5354 0.2756 -3.5827, 1.6142 0.1969 -3.5827, 1.6142 0.2756 -3.5827, 1.5105 0.3005 -0.3937, 1.5105 0.1719 -0.3937, 1.6391 0.3005 -0.3937, 1.6391 0.1719 -0.3937, 2.2638 0.1378 -3.5486, 2.2638 0.1378 -0.4528, 2.2638 0.3346 -3.5486, 2.2638 0.3346 -0.4528, 2.4606 0.3346 -3.5486, 2.4606 0.3346 -0.4528, 2.4606 0.1378 -3.5486, 2.4606 0.1378 -0.4528, 2.3228 0.1969 -3.5827, 2.3228 0.2756 -3.5827, 2.4016 0.1969 -3.5827, 2.4016 0.2756 -3.5827, 2.2979 0.3005 -0.3937, 2.2979 0.1719 -0.3937, 2.4265 0.3005 -0.3937, 2.4265 0.1719 -0.3937, 3.0512 0.1378 -3.5486, 3.0512 0.1378 -0.4528, 3.0512 0.3346 -3.5486, 3.0512 0.3346 -0.4528, 3.248 0.3346 -3.5486, 3.248 0.3346 -0.4528, 3.248 0.1378 -3.5486, 3.248 0.1378 -0.4528, 3.1102 0.1969 -3.5827, 3.1102 0.2756 -3.5827, 3.189 0.1969 -3.5827, 3.189 0.2756 -3.5827, 3.0853 0.3005 -0.3937, 3.0853 0.1719 -0.3937, 3.2139 0.3005 -0.3937, 3.2139 0.1719 -0.3937, 3.2139 0.1719 -0.3937
            ]
        }
        coordIndex [
            0,1,2,-1,2,1,3,-1,2,3,4,-1,4,3,5,-1,4,5,6,-1,6,5,7,-1,6,7,0,-1,0,7,1,-1,8,9,10,-1,10,9,11,-1,12,13,14,-1,14,13,15,-1,9,2,11,-1,11,2,4,-1,8,0,9,-1,9,0,2,-1,6,10,4,-1,4,10,11,-1,10,6,8,-1,8,6,0,-1,7,15,1,-1,1,15,13,-1,5,14,7,-1,7,14,15,-1,12,3,13,-1,13,3,1,-1,3,12,5,-1,5,12,14,-1,16,17,18,-1,18,17,19,-1,18,19,20,-1,20,19,21,-1,20,21,22,-1,22,21,23,-1,22,23,16,-1,16,23,17,-1,24,25,26,-1,26,25,27,-1,28,29,30,-1,30,29,31,-1,25,18,27,-1,27,18,20,-1,24,16,25,-1,25,16,18,-1,22,26,20,-1,20,26,27,-1,26,22,24,-1,24,22,16,-1,23,31,17,-1,17,31,29,-1,21,30,23,-1,23,30,31,-1,28,19,29,-1,29,19,17,-1,19,28,21,-1,21,28,30,-1,32,33,34,-1,34,33,35,-1,34,35,36,-1,36,35,37,-1,36,37,38,-1,38,37,39,-1,38,39,32,-1,32,39,33,-1,40,41,42,-1,42,41,43,-1,44,45,46,-1,46,45,47,-1,41,34,43,-1,43,34,36,-1,40,32,41,-1,41,32,34,-1,38,42,36,-1,36,42,43,-1,42,38,40,-1,40,38,32,-1,39,47,33,-1,33,47,45,-1,37,46,39,-1,39,46,47,-1,44,35,45,-1,45,35,33,-1,35,44,37,-1,37,44,46,-1,48,49,50,-1,50,49,51,-1,50,51,52,-1,52,51,53,-1,52,53,54,-1,54,53,55,-1,54,55,48,-1,48,55,49,-1,56,57,58,-1,58,57,59,-1,60,61,62,-1,62,61,63,-1,57,50,59,-1,59,50,52,-1,56,48,57,-1,57,48,50,-1,54,58,52,-1,52,58,59,-1,58,54,56,-1,56,54,48,-1,55,63,49,-1,49,63,61,-1,53,62,55,-1,55,62,63,-1,60,51,61,-1,61,51,49,-1,51,60,53,-1,53,60,62,-1,64,65,66,-1,66,65,67,-1,66,67,68,-1,68,67,69,-1,68,69,70,-1,70,69,71,-1,70,71,64,-1,64,71,65,-1,72,73,74,-1,74,73,75,-1,76,77,78,-1,78,77,79,-1,73,66,75,-1,75,66,68,-1,72,64,73,-1,73,64,66,-1,70,74,68,-1,68,74,75,-1,74,70,72,-1,72,70,64,-1,71,79,65,-1,65,79,77,-1,69,78,71,-1,71,78,79,-1,76,67,77,-1,77,67,65,-1,67,76,69,-1,69,76,78,-1,80,81,82,-1,82,81,83,-1,82,83,84,-1,84,83,85,-1,84,85,86,-1,86,85,87,-1,86,87,80,-1,80,87,81,-1,88,89,90,-1,90,89,91,-1,92,93,94,-1,94,93,95,-1,89,82,91,-1,91,82,84,-1,88,80,89,-1,89,80,82,-1,86,90,84,-1,84,90,91,-1,90,86,88,-1,88,86,80,-1,87,95,81,-1,81,95,93,-1,85,94,87,-1,87,94,95,-1,92,83,93,-1,93,83,81,-1,83,92,85,-1,85,92,94,-1,96,97,98,-1,98,97,99,-1,98,99,100,-1,100,99,101,-1,100,101,102,-1,102,101,103,-1,102,103,96,-1,96,103,97,-1,104,105,106,-1,106,105,107,-1,108,109,110,-1,110,109,111,-1,105,98,107,-1,107,98,100,-1,104,96,105,-1,105,96,98,-1,102,106,100,-1,100,106,107,-1,106,102,104,-1,104,102,96,-1,103,111,97,-1,97,111,109,-1,101,110,103,-1,103,110,111,-1,108,99,109,-1,109,99,97,-1,99,108,101,-1,101,108,110,-1,112,113,114,-1,114,113,115,-1,114,115,116,-1,116,115,117,-1,116,117,118,-1,118,117,119,-1,118,119,112,-1,112,119,113,-1,120,121,122,-1,122,121,123,-1,124,125,126,-1,126,125,127,-1,121,114,123,-1,123,114,116,-1,120,112,121,-1,121,112,114,-1,118,122,116,-1,116,122,123,-1,122,118,120,-1,120,118,112,-1,119,127,113,-1,113,127,125,-1,117,126,119,-1,119,126,127,-1,124,115,125,-1,125,115,113,-1,115,124,117,-1,117,124,126,-1,128,129,130,-1,130,129,131,-1,130,131,132,-1,132,131,133,-1,132,133,134,-1,134,133,135,-1,134,135,128,-1,128,135,129,-1,136,137,138,-1,138,137,139,-1,140,141,142,-1,142,141,143,-1,137,130,139,-1,139,130,132,-1,136,128,137,-1,137,128,130,-1,134,138,132,-1,132,138,139,-1,138,134,136,-1,136,134,128,-1,135,143,129,-1,129,143,141,-1,133,142,135,-1,135,142,143,-1,140,131,141,-1,141,131,129,-1,131,140,133,-1,133,140,142,-1,
        ]
    }
}
Shape{
    appearance Appearance {
        material  Material 	{
            diffuseColor 0.8 0.8 0.8
            specularColor 1.0 1.0 1.0
            ambientIntensity 0.2
            transparency 0
            shininess 0.5
        }
    }
    geometry IndexedFaceSet {
        ccw TRUE
        solid FALSE
        coord DEF co Coordinate {
            point [
                3.5986 0.0824 -2.3622, 3.6002 0.096 -2.3622, 3.7021 0.0526 -2.3622, 3.5852 -0.0473 -2.3622, 3.4646 -0.0641 -2.3622, 3.5852 0.0232 -2.3622, 3.4646 0.689 -2.3622, 3.7113 0.1293 -2.3622, 3.7008 0.1395 -2.3622, 3.723 0.1644 -2.3622, 3.7238 0.0962 -2.3622, 3.723 0.235 -2.3622, 3.6008 0.0657 -2.3622, 3.7007 0.0501 -2.3622, 3.6075 0.0501 -2.3622, 3.6608 -0.044 -2.3622, 3.7238 -0.0641 -2.3622, 3.6457 -0.044 -2.3622, 3.6003 -0.0473 -2.3622, 3.6457 0.0048 -2.3622, 3.6003 0.0048 -2.3622, 3.6214 0.1454 -2.3622, 3.6084 0.1371 -2.3622, 3.5852 0.2165 -2.3622, 3.5965 0.1246 -2.3622, 3.589 0.1115 -2.3622, 3.7079 0.1644 -2.3622, 3.6879 0.1469 -2.3622, 3.7079 0.2165 -2.3622, 3.5846 0.0962 -2.3622, 3.5835 0.0826 -2.3622, 3.5846 0.0661 -2.3622, 3.6518 0.689 -2.3622, 3.5852 0.235 -2.3622, 3.589 0.0501 -2.3622, 3.723 0.0232 -2.3622, 3.7158 0.0501 -2.3622, 3.7229 0.105 -2.3622, 3.7183 0.1183 -2.3622, 3.6039 0.1063 -2.3622, 3.6103 0.1158 -2.3622, 3.6194 0.1241 -2.3622, 3.6556 0.1342 -2.3622, 3.6705 0.1328 -2.3622, 3.6823 0.129 -2.3622, 3.7081 0.0984 -2.3622, 3.7095 0.0855 -2.3622, 3.7044 0.1084 -2.3622, 3.6987 0.1168 -2.3622, 3.6919 0.1233 -2.3622, 3.7075 0.0672 -2.3622, 3.6731 0.1512 -2.3622, 3.6567 0.1526 -2.3622, 3.6371 0.1507 -2.3622, 3.6301 0.1298 -2.3622, 3.6448 0.1335 -2.3622, 3.6608 0.0048 -2.3622, 3.7079 0.0048 -2.3622, 3.7079 -0.0507 -2.3622, 3.723 -0.0507 -2.3622, 3.7238 0.0787 -2.3622, 3.7246 0.0843 -2.3622, 3.937 -0.0641 -2.3622, 3.7247 0.088 -2.3622, 3.6518 0.9252 -2.3622, 3.7238 0.9252 -2.3622, 3.937 0.9252 -2.3622, 3.5852 -0.2507 -2.3622, 3.5852 -0.2691 -2.3622, 3.723 -0.115 -2.3622, 3.723 -0.0776 -2.3622, 3.5852 -0.0776 -2.3622, 3.723 -0.3028 -2.3622, 3.723 -0.3229 -2.3622, 3.7238 -0.9252 -2.3622, 3.4646 -0.9252 -2.3622, 3.5852 -0.1165 -2.3622, 3.5873 -0.1364 -2.3622, 3.593 -0.1525 -2.3622, 3.603 -0.1675 -2.3622, 3.723 -0.1986 -2.3622, 3.7166 -0.1484 -2.3622, 3.7214 -0.1325 -2.3622, 3.6852 -0.1816 -2.3622, 3.6973 -0.1739 -2.3622, 3.7082 -0.1626 -2.3622, 3.723 -0.2187 -2.3622, 3.6843 -0.2319 -2.3622, 3.6843 -0.2888 -2.3622, 3.6031 -0.1676 -2.3622, 3.614 -0.1774 -2.3622, 3.626 -0.1838 -2.3622, 3.6397 -0.1875 -2.3622, 3.6524 -0.1885 -2.3622, 3.6708 -0.1866 -2.3622, 3.7219 0.0648 -2.3622, 3.937 -0.9252 -2.3622, 3.7402 0.401 0.0, 3.8976 0.401 0.0, 3.7402 0.7283 0.0, 3.8976 0.8858 0.0, 2.9921 0.7283 0.0, 2.9921 0.8858 0.0, -3.7402 0.1672 0.0, -3.8976 0.1672 0.0, -3.7402 -0.7283 0.0, -3.8976 -0.8858 0.0, 3.7402 -0.7283 0.0, 3.8976 -0.8858 0.0, 3.7402 0.1672 0.0, 3.8976 0.1672 0.0, 3.937 0.1672 -0.7378, 3.937 0.1672 -0.0394, 3.937 -0.9252 -0.0394, 3.937 0.1964 -0.7758, 3.937 0.1869 -0.7718, 3.937 0.1788 -0.7656, 3.937 0.1725 -0.7574, 3.937 0.1686 -0.7479, 3.937 0.3997 -0.7479, 3.937 0.3957 -0.7574, 3.937 0.3895 -0.7656, 3.937 0.3813 -0.7718, 3.937 0.3718 -0.7758, 3.937 0.3616 -0.7771, 3.937 0.2066 -0.7771, 3.937 0.401 -0.7378, 3.937 0.9252 -0.0394, 3.937 0.401 -0.0394, 3.7008 0.3718 -0.7758, 3.7008 0.3813 -0.7718, 3.7008 0.689 -1.7717, 3.7008 0.3895 -0.7656, 3.7008 0.3957 -0.7574, 3.7008 0.1686 -0.7479, 3.7008 -0.689 -1.7717, 3.7008 0.1672 -0.7378, 3.7008 -0.689 -0.0394, 3.7008 0.1672 -0.0394, 3.7008 0.1869 -0.7718, 3.7008 -0.2756 -1.7717, 3.7008 0.1788 -0.7656, 3.7008 0.1725 -0.7574, 3.7008 0.3997 -0.7479, 3.7008 0.401 -0.7378, 3.7008 0.689 -0.0394, 3.7008 0.401 -0.0394, 3.7008 0.1964 -0.7758, 3.7008 0.2066 -0.7771, 3.7008 0.3616 -0.7771, -3.7008 -0.689 -0.0394, -3.7008 0.1672 -0.0394, -3.937 -0.9252 -0.0394, -3.937 0.1672 -0.0394, 3.3465 -0.9252 -2.2441, 3.3465 0.689 -2.2441, -3.3465 0.689 -2.2441, -3.3465 -0.9252 -2.2441, -3.4646 0.689 -2.3622, -3.4646 -0.9252 -2.3622, 2.9528 0.689 -1.7717, 3.304 0.689 -1.7717, 3.304 0.689 -1.1629, 3.6518 0.689 -1.7717, 3.6518 0.689 -1.1629, 2.9528 0.689 -0.0394, 2.8346 -0.9252 -2.3622, 2.6772 -0.9252 -2.3622, 2.8346 0.9252 -2.3622, 2.6772 0.9252 -2.3622, 2.0472 -0.9252 -2.3622, 1.8898 -0.9252 -2.3622, 2.0472 0.9252 -2.3622, 1.8898 0.9252 -2.3622, 1.2598 -0.9252 -2.3622, 1.1024 -0.9252 -2.3622, 1.2598 0.9252 -2.3622, 1.1024 0.9252 -2.3622, 0.4724 -0.9252 -2.3622, 0.315 -0.9252 -2.3622, 0.4724 0.9252 -2.3622, 0.315 0.9252 -2.3622, -0.315 -0.9252 -2.3622, -0.4724 -0.9252 -2.3622, -0.315 0.9252 -2.3622, -0.4724 0.9252 -2.3622, -1.1024 -0.9252 -2.3622, -1.2598 -0.9252 -2.3622, -1.1024 0.9252 -2.3622, -1.2598 0.9252 -2.3622, -1.8898 -0.9252 -2.3622, -2.0472 -0.9252 -2.3622, -1.8898 0.9252 -2.3622, -2.0472 0.9252 -2.3622, -2.6772 -0.9252 -2.3622, -2.8346 -0.9252 -2.3622, -2.6772 0.9252 -2.3622, -2.8346 0.9252 -2.3622, -3.937 0.9252 -2.3622, -3.6518 0.9252 -2.3622, -3.6518 0.689 -2.3622, -3.937 -0.9252 -2.3622, -2.9528 -0.9252 -2.2441, 0.9843 -0.9252 -2.2441, -2.5591 -0.9252 -2.2441, -2.1654 -0.9252 -2.2441, -1.7717 -0.9252 -2.2441, -1.378 -0.9252 -2.2441, 2.9528 -0.9252 -2.2441, -0.9843 -0.9252 -2.2441, -0.5906 -0.9252 -2.2441, -0.1969 -0.9252 -2.2441, 0.1969 -0.9252 -2.2441, 0.5906 -0.9252 -2.2441, 1.378 -0.9252 -2.2441, 1.7717 -0.9252 -2.2441, 2.1654 -0.9252 -2.2441, 2.5591 -0.9252 -2.2441, -3.937 0.1672 -0.7378, -3.937 0.1725 -0.7574, -3.937 0.1788 -0.7656, -3.937 0.3616 -0.7771, -3.937 0.3718 -0.7758, -3.937 0.1686 -0.7479, -3.937 0.3957 -0.7574, -3.937 0.3997 -0.7479, -3.937 0.9252 -0.0394, -3.937 0.401 -0.7378, -3.937 0.401 -0.0394, -3.937 0.3813 -0.7718, -3.937 0.3895 -0.7656, -3.937 0.1869 -0.7718, -3.937 0.1964 -0.7758, -3.937 0.2066 -0.7771, -3.6518 0.9252 -1.1629, -3.304 0.9252 -1.1629, -2.9528 0.9252 -0.0394, -2.9528 0.9252 -1.7717, 3.6518 0.9252 -1.1629, 2.9528 0.9252 -0.0394, 3.304 0.9252 -1.1629, 2.9528 0.9252 -1.7717, 3.304 0.9252 -2.2441, 2.7559 0.9252 -1.7717, 2.9528 0.9252 -2.2441, 2.5591 0.9252 -2.2441, 1.9685 0.9252 -1.7717, 2.1654 0.9252 -2.2441, 1.7717 0.9252 -2.2441, 1.1811 0.9252 -1.7717, 1.378 0.9252 -2.2441, 0.9843 0.9252 -2.2441, 0.3937 0.9252 -1.7717, 0.5906 0.9252 -2.2441, 0.1969 0.9252 -2.2441, -0.3937 0.9252 -1.7717, -0.1969 0.9252 -2.2441, -1.9685 0.9252 -1.7717, -2.1654 0.9252 -2.2441, -2.7559 0.9252 -1.7717, -2.5591 0.9252 -2.2441, -2.9528 0.9252 -2.2441, -3.304 0.9252 -2.2441, -0.5906 0.9252 -2.2441, -1.1811 0.9252 -1.7717, -0.9843 0.9252 -2.2441, -1.378 0.9252 -2.2441, -1.7717 0.9252 -2.2441, -2.9921 0.7283 0.0, -2.9921 0.8858 0.0, -3.7402 0.7283 0.0, -3.8976 0.8858 0.0, -3.7402 0.401 0.0, -3.8976 0.401 0.0, 3.4744 -0.689 -1.7717, 2.7559 -0.689 -1.7717, 1.9685 -0.689 -1.7717, 1.1811 -0.689 -1.7717, 0.3937 -0.689 -1.7717, -0.3937 -0.689 -1.7717, -1.1811 -0.689 -1.7717, -1.9685 -0.689 -1.7717, -2.7559 -0.689 -1.7717, -3.7008 -0.689 -1.7717, -3.7008 0.1725 -0.7574, -3.7008 0.1686 -0.7479, -3.7008 0.1964 -0.7758, -3.7008 0.1869 -0.7718, -3.7008 -0.2756 -1.7717, -3.7008 0.1672 -0.7378, -3.7008 0.3997 -0.7479, -3.7008 0.3957 -0.7574, -3.7008 0.689 -1.7717, -3.7008 0.3895 -0.7656, -3.7008 0.3813 -0.7718, -3.7008 0.401 -0.7378, -3.7008 0.689 -0.0394, -3.7008 0.401 -0.0394, -3.7008 0.1788 -0.7656, -3.7008 0.3718 -0.7758, -3.7008 0.3616 -0.7771, -3.7008 0.2066 -0.7771, -3.6518 0.689 -1.7717, -3.6518 0.689 -1.1629, -3.304 0.689 -1.7717, -2.9528 0.689 -1.7717, -3.304 0.689 -1.1629, -2.9528 0.689 -0.0394, -3.0512 0.3346 -1.7717, -3.248 0.3346 -1.7717, -2.7559 -0.2756 -1.7717, -3.0512 0.1378 -1.7717, -3.248 0.1378 -1.7717, 3.248 0.3346 -1.7717, 3.248 0.1378 -1.7717, 3.4744 -0.2756 -1.7717, 2.7559 -0.2756 -1.7717, 3.0512 0.1378 -1.7717, 3.0512 0.3346 -1.7717, 3.4744 0.689 -1.7717, 1.9685 -0.2756 -1.7717, 1.1811 -0.2756 -1.7717, 0.3937 -0.2756 -1.7717, -0.3937 -0.2756 -1.7717, -1.1811 -0.2756 -1.7717, -1.9685 -0.2756 -1.7717, -2.4606 0.3346 -1.7717, -2.4606 0.1378 -1.7717, -2.2638 0.1378 -1.7717, -2.2638 0.3346 -1.7717, -1.4764 0.3346 -1.7717, -1.6732 0.3346 -1.7717, -1.6732 0.1378 -1.7717, -1.4764 0.1378 -1.7717, -0.689 0.3346 -1.7717, -0.8858 0.3346 -1.7717, -0.8858 0.1378 -1.7717, -0.689 0.1378 -1.7717, 0.0984 0.3346 -1.7717, -0.0984 0.3346 -1.7717, -0.0984 0.1378 -1.7717, 0.0984 0.1378 -1.7717, 0.8858 0.3346 -1.7717, 0.689 0.3346 -1.7717, 0.689 0.1378 -1.7717, 0.8858 0.1378 -1.7717, 1.6732 0.3346 -1.7717, 1.4764 0.3346 -1.7717, 1.4764 0.1378 -1.7717, 1.6732 0.1378 -1.7717, 2.4606 0.3346 -1.7717, 2.2638 0.3346 -1.7717, 2.2638 0.1378 -1.7717, 2.4606 0.1378 -1.7717, -3.248 0.1378 -2.2441, -3.0512 0.1378 -2.2441, -3.248 0.3346 -2.2441, -3.0512 0.3346 -2.2441, -2.4606 0.1378 -2.2441, -2.2638 0.1378 -2.2441, -2.4606 0.3346 -2.2441, -2.2638 0.3346 -2.2441, -1.4764 0.1378 -2.2441, -1.4764 0.3346 -2.2441, -1.6732 0.3346 -2.2441, -1.6732 0.1378 -2.2441, -0.689 0.1378 -2.2441, -0.689 0.3346 -2.2441, -0.8858 0.3346 -2.2441, -0.8858 0.1378 -2.2441, 0.0984 0.1378 -2.2441, 0.0984 0.3346 -2.2441, -0.0984 0.3346 -2.2441, -0.0984 0.1378 -2.2441, 0.8858 0.1378 -2.2441, 0.8858 0.3346 -2.2441, 0.689 0.3346 -2.2441, 0.689 0.1378 -2.2441, 1.6732 0.1378 -2.2441, 1.6732 0.3346 -2.2441, 1.4764 0.3346 -2.2441, 1.4764 0.1378 -2.2441, 2.4606 0.1378 -2.2441, 2.4606 0.3346 -2.2441, 2.2638 0.3346 -2.2441, 2.2638 0.1378 -2.2441, 3.248 0.1378 -2.2441, 3.248 0.3346 -2.2441, 3.0512 0.3346 -2.2441, 3.0512 0.1378 -2.2441, -3.304 0.689 -2.2441, 3.304 0.689 -2.2441, 3.304 0.689 -2.2441
            ]
        }
        coordIndex [
            0,1,2,-1,3,4,5,-1,5,4,6,-1,7,8,9,-1,10,9,11,-1,0,2,12,-1,12,2,13,-1,12,13,14,-1,15,16,17,-1,17,16,18,-1,17,18,19,-1,19,18,20,-1,21,22,23,-1,23,22,24,-1,23,24,25,-1,9,8,26,-1,26,8,27,-1,26,27,28,-1,25,29,23,-1,23,29,30,-1,23,30,6,-1,6,30,31,-1,6,31,5,-1,32,11,6,-1,6,11,33,-1,6,33,23,-1,31,34,5,-1,5,34,14,-1,5,14,35,-1,35,14,13,-1,35,13,36,-1,10,37,9,-1,9,37,38,-1,9,38,7,-1,1,39,2,-1,2,39,40,-1,2,40,41,-1,42,43,2,-1,2,43,44,-1,45,46,47,-1,47,46,48,-1,44,49,2,-1,2,49,48,-1,2,48,50,-1,50,48,46,-1,27,51,28,-1,28,51,52,-1,28,52,23,-1,23,52,53,-1,23,53,21,-1,41,54,2,-1,2,54,55,-1,2,55,42,-1,56,57,15,-1,15,57,58,-1,15,58,16,-1,16,58,59,-1,16,59,35,-1,60,61,62,-1,62,61,63,-1,62,63,10,-1,32,64,11,-1,11,64,65,-1,11,65,10,-1,10,65,66,-1,10,66,62,-1,4,67,68,-1,69,70,16,-1,3,18,4,-1,4,18,16,-1,4,16,71,-1,71,16,70,-1,72,16,73,-1,73,16,74,-1,73,74,68,-1,68,74,75,-1,68,75,4,-1,71,76,4,-1,4,76,77,-1,4,77,67,-1,67,77,78,-1,67,78,79,-1,80,81,82,-1,83,84,80,-1,80,84,85,-1,80,85,81,-1,82,69,80,-1,80,69,16,-1,80,16,86,-1,86,16,72,-1,86,72,87,-1,87,72,88,-1,79,89,67,-1,67,89,90,-1,67,90,91,-1,91,92,67,-1,67,92,93,-1,67,93,80,-1,80,93,94,-1,80,94,83,-1,36,95,35,-1,35,95,60,-1,35,60,16,-1,16,60,62,-1,16,62,74,-1,74,62,96,-1,97,98,99,-1,99,98,100,-1,99,100,101,-1,101,100,102,-1,103,104,105,-1,105,104,106,-1,105,106,107,-1,107,106,108,-1,107,108,109,-1,109,108,110,-1,111,112,113,-1,62,114,96,-1,96,114,115,-1,115,116,96,-1,96,116,117,-1,96,117,113,-1,113,117,118,-1,113,118,111,-1,119,120,66,-1,66,120,121,-1,66,121,122,-1,122,123,66,-1,66,123,124,-1,66,124,62,-1,62,124,125,-1,62,125,114,-1,119,66,126,-1,126,66,127,-1,126,127,128,-1,129,130,131,-1,131,130,132,-1,131,132,133,-1,134,135,136,-1,136,135,137,-1,136,137,138,-1,139,140,141,-1,141,140,135,-1,141,135,142,-1,142,135,134,-1,133,143,131,-1,131,143,144,-1,131,144,145,-1,145,144,146,-1,139,147,140,-1,140,147,148,-1,140,148,131,-1,131,148,149,-1,131,149,129,-1,97,99,146,-1,146,99,145,-1,138,137,109,-1,109,137,107,-1,128,127,98,-1,98,127,100,-1,110,108,112,-1,112,108,113,-1,105,150,103,-1,103,150,151,-1,152,106,153,-1,153,106,104,-1,75,154,4,-1,4,154,155,-1,4,155,6,-1,156,157,158,-1,158,157,159,-1,160,161,162,-1,163,131,164,-1,164,131,145,-1,164,145,162,-1,162,145,165,-1,162,165,160,-1,166,167,168,-1,168,167,169,-1,170,171,172,-1,172,171,173,-1,174,175,176,-1,176,175,177,-1,178,179,180,-1,180,179,181,-1,182,183,184,-1,184,183,185,-1,186,187,188,-1,188,187,189,-1,190,191,192,-1,192,191,193,-1,194,195,196,-1,196,195,197,-1,198,199,200,-1,158,159,200,-1,200,159,201,-1,200,201,198,-1,201,159,152,-1,152,159,157,-1,152,157,202,-1,203,175,174,-1,195,194,202,-1,202,194,204,-1,202,204,152,-1,152,204,205,-1,191,190,205,-1,205,190,206,-1,205,206,152,-1,152,206,207,-1,113,208,154,-1,187,186,207,-1,207,186,209,-1,207,209,152,-1,152,209,210,-1,183,182,210,-1,210,182,211,-1,210,211,152,-1,152,211,212,-1,179,178,212,-1,212,178,213,-1,212,213,152,-1,152,213,203,-1,152,203,214,-1,214,203,174,-1,171,170,215,-1,215,170,216,-1,217,167,166,-1,154,75,113,-1,113,75,74,-1,113,74,96,-1,214,215,152,-1,152,215,216,-1,152,216,113,-1,113,216,217,-1,113,217,208,-1,208,217,166,-1,152,153,218,-1,219,220,201,-1,221,222,198,-1,152,218,201,-1,201,218,223,-1,201,223,219,-1,198,224,225,-1,198,225,226,-1,226,225,227,-1,226,227,228,-1,222,229,198,-1,198,229,230,-1,198,230,224,-1,220,231,201,-1,201,231,232,-1,201,232,198,-1,198,232,233,-1,198,233,221,-1,199,198,234,-1,234,198,226,-1,234,226,235,-1,235,226,236,-1,235,236,237,-1,127,66,238,-1,238,66,65,-1,238,65,64,-1,127,238,239,-1,239,238,240,-1,239,240,241,-1,241,240,242,-1,241,242,243,-1,243,242,244,-1,243,244,168,-1,168,169,243,-1,243,169,245,-1,243,245,246,-1,246,245,247,-1,246,247,172,-1,172,173,246,-1,246,173,248,-1,246,248,249,-1,249,248,250,-1,249,250,176,-1,176,177,249,-1,249,177,251,-1,249,251,252,-1,252,251,253,-1,252,253,180,-1,180,181,252,-1,252,181,254,-1,252,254,255,-1,255,254,256,-1,255,256,184,-1,192,193,257,-1,257,193,258,-1,257,258,259,-1,259,258,260,-1,259,260,196,-1,196,197,259,-1,259,197,261,-1,259,261,237,-1,237,261,262,-1,237,262,235,-1,184,185,255,-1,255,185,263,-1,255,263,264,-1,264,263,265,-1,264,265,188,-1,188,189,264,-1,264,189,266,-1,264,266,257,-1,257,266,267,-1,257,267,192,-1,268,269,270,-1,270,269,271,-1,270,271,272,-1,272,271,273,-1,135,274,137,-1,137,274,275,-1,137,275,276,-1,276,277,137,-1,137,277,278,-1,137,278,150,-1,150,278,279,-1,150,279,280,-1,280,281,150,-1,150,281,282,-1,150,282,283,-1,284,285,283,-1,286,287,288,-1,283,285,150,-1,150,285,289,-1,150,289,151,-1,290,291,292,-1,292,291,293,-1,292,293,294,-1,290,292,295,-1,295,292,296,-1,295,296,297,-1,288,287,283,-1,283,287,298,-1,283,298,284,-1,294,299,292,-1,292,299,300,-1,292,300,288,-1,288,300,301,-1,288,301,286,-1,292,302,303,-1,304,305,306,-1,306,305,307,-1,306,307,303,-1,303,307,296,-1,303,296,292,-1,160,241,243,-1,308,305,309,-1,309,305,304,-1,237,305,259,-1,259,305,308,-1,259,308,310,-1,310,308,311,-1,310,311,288,-1,288,311,312,-1,288,312,292,-1,292,312,309,-1,292,309,302,-1,302,309,304,-1,313,314,315,-1,315,314,316,-1,316,314,317,-1,316,317,318,-1,243,316,160,-1,160,316,318,-1,160,318,161,-1,161,318,313,-1,161,313,319,-1,319,313,315,-1,319,315,163,-1,163,315,140,-1,163,140,131,-1,135,140,274,-1,274,140,315,-1,274,315,275,-1,275,315,316,-1,275,316,276,-1,276,316,320,-1,276,320,277,-1,277,320,321,-1,277,321,278,-1,278,321,322,-1,278,322,279,-1,279,322,323,-1,279,323,280,-1,280,323,324,-1,280,324,281,-1,281,324,325,-1,281,325,282,-1,282,325,310,-1,282,310,283,-1,283,310,288,-1,326,259,327,-1,327,259,310,-1,327,310,328,-1,328,310,325,-1,328,325,329,-1,329,325,257,-1,329,257,326,-1,326,257,259,-1,330,264,331,-1,331,264,257,-1,331,257,332,-1,332,257,325,-1,332,325,333,-1,333,325,324,-1,333,324,330,-1,330,324,264,-1,334,255,335,-1,335,255,264,-1,335,264,336,-1,336,264,324,-1,336,324,337,-1,337,324,323,-1,337,323,334,-1,334,323,255,-1,338,252,339,-1,339,252,255,-1,339,255,340,-1,340,255,323,-1,340,323,341,-1,341,323,322,-1,341,322,338,-1,338,322,252,-1,342,249,343,-1,343,249,252,-1,343,252,344,-1,344,252,322,-1,344,322,345,-1,345,322,321,-1,345,321,342,-1,342,321,249,-1,346,246,347,-1,347,246,249,-1,347,249,348,-1,348,249,321,-1,348,321,349,-1,349,321,320,-1,349,320,346,-1,346,320,246,-1,350,243,351,-1,351,243,246,-1,351,246,352,-1,352,246,320,-1,352,320,353,-1,353,320,316,-1,353,316,350,-1,350,316,243,-1,354,312,355,-1,355,312,311,-1,309,312,356,-1,356,312,354,-1,308,309,357,-1,357,309,356,-1,355,311,357,-1,357,311,308,-1,358,327,359,-1,359,327,328,-1,326,327,360,-1,360,327,358,-1,329,326,361,-1,361,326,360,-1,359,328,361,-1,361,328,329,-1,362,333,363,-1,363,333,330,-1,330,331,363,-1,363,331,364,-1,331,332,364,-1,364,332,365,-1,365,332,362,-1,362,332,333,-1,366,337,367,-1,367,337,334,-1,334,335,367,-1,367,335,368,-1,335,336,368,-1,368,336,369,-1,369,336,366,-1,366,336,337,-1,370,341,371,-1,371,341,338,-1,338,339,371,-1,371,339,372,-1,339,340,372,-1,372,340,373,-1,373,340,370,-1,370,340,341,-1,374,345,375,-1,375,345,342,-1,342,343,375,-1,375,343,376,-1,343,344,376,-1,376,344,377,-1,377,344,374,-1,374,344,345,-1,378,349,379,-1,379,349,346,-1,346,347,379,-1,379,347,380,-1,347,348,380,-1,380,348,381,-1,381,348,378,-1,378,348,349,-1,382,353,383,-1,383,353,350,-1,350,351,383,-1,383,351,384,-1,351,352,384,-1,384,352,385,-1,385,352,382,-1,382,352,353,-1,386,314,387,-1,387,314,313,-1,313,318,387,-1,387,318,388,-1,318,317,388,-1,388,317,389,-1,389,317,386,-1,386,317,314,-1,390,357,156,-1,156,357,356,-1,156,356,354,-1,390,262,357,-1,357,262,261,-1,357,261,355,-1,355,261,202,-1,355,202,354,-1,354,202,157,-1,354,157,156,-1,260,360,358,-1,360,260,361,-1,361,260,258,-1,361,258,359,-1,359,258,205,-1,359,205,358,-1,358,205,204,-1,358,204,260,-1,267,364,365,-1,364,267,363,-1,363,267,266,-1,363,266,362,-1,362,266,207,-1,362,207,365,-1,365,207,206,-1,365,206,267,-1,265,368,369,-1,368,265,367,-1,367,265,263,-1,367,263,366,-1,366,263,210,-1,366,210,369,-1,369,210,209,-1,369,209,265,-1,256,372,373,-1,372,256,371,-1,371,256,254,-1,371,254,370,-1,370,254,212,-1,370,212,373,-1,373,212,211,-1,373,211,256,-1,253,376,377,-1,376,253,375,-1,375,253,251,-1,375,251,374,-1,374,251,203,-1,374,203,377,-1,377,203,213,-1,377,213,253,-1,250,380,381,-1,380,250,379,-1,379,250,248,-1,379,248,378,-1,378,248,215,-1,378,215,381,-1,381,215,214,-1,381,214,250,-1,247,384,385,-1,384,247,383,-1,383,247,245,-1,383,245,382,-1,382,245,217,-1,382,217,385,-1,385,217,216,-1,385,216,247,-1,244,242,391,-1,389,244,388,-1,388,244,391,-1,388,391,387,-1,387,391,386,-1,391,155,386,-1,386,155,154,-1,386,154,389,-1,389,154,208,-1,389,208,244,-1,216,170,247,-1,247,170,172,-1,208,166,244,-1,244,166,168,-1,167,217,169,-1,169,217,245,-1,171,215,173,-1,173,215,248,-1,214,174,250,-1,250,174,176,-1,175,203,177,-1,177,203,251,-1,213,178,253,-1,253,178,180,-1,179,212,181,-1,181,212,254,-1,211,182,256,-1,256,182,184,-1,183,210,185,-1,185,210,263,-1,209,186,265,-1,265,186,188,-1,187,207,189,-1,189,207,266,-1,206,190,267,-1,267,190,192,-1,191,205,193,-1,193,205,258,-1,204,194,260,-1,260,194,196,-1,195,202,197,-1,197,202,261,-1,239,241,165,-1,165,241,160,-1,307,305,236,-1,236,305,237,-1,296,270,297,-1,297,270,272,-1,307,268,296,-1,296,268,270,-1,107,137,105,-1,105,137,150,-1,236,269,307,-1,307,269,268,-1,226,271,236,-1,236,271,269,-1,101,165,99,-1,99,165,145,-1,271,226,273,-1,273,226,228,-1,102,239,101,-1,101,239,165,-1,113,108,152,-1,152,108,106,-1,100,127,102,-1,102,127,239,-1,306,235,304,-1,304,235,262,-1,304,262,390,-1,158,200,156,-1,156,200,302,-1,156,302,390,-1,390,302,304,-1,234,303,199,-1,199,303,302,-1,199,302,200,-1,234,235,303,-1,303,235,306,-1,240,162,242,-1,242,162,161,-1,242,161,391,-1,391,161,155,-1,155,161,319,-1,155,319,6,-1,6,319,163,-1,6,163,32,-1,164,238,163,-1,163,238,64,-1,163,64,32,-1,240,238,162,-1,162,238,164,-1,289,218,151,-1,151,218,153,-1,151,153,103,-1,103,153,104,-1,301,300,233,-1,233,300,221,-1,272,273,297,-1,297,273,228,-1,297,228,295,-1,295,228,227,-1,125,124,148,-1,148,124,149,-1,97,146,98,-1,98,146,144,-1,98,144,128,-1,128,144,126,-1,109,110,138,-1,138,110,112,-1,138,112,136,-1,136,112,111,-1,125,148,114,-1,114,148,147,-1,114,147,115,-1,115,147,139,-1,115,139,116,-1,116,139,141,-1,116,141,117,-1,117,141,142,-1,117,142,118,-1,118,142,134,-1,118,134,111,-1,111,134,136,-1,126,144,119,-1,119,144,143,-1,119,143,120,-1,120,143,133,-1,120,133,121,-1,121,133,132,-1,121,132,122,-1,122,132,130,-1,122,130,123,-1,123,130,129,-1,123,129,124,-1,124,129,149,-1,218,289,223,-1,223,289,285,-1,223,285,219,-1,219,285,284,-1,219,284,220,-1,220,284,298,-1,220,298,231,-1,231,298,287,-1,231,287,232,-1,232,287,286,-1,232,286,233,-1,233,286,301,-1,221,300,222,-1,222,300,299,-1,222,299,229,-1,229,299,294,-1,229,294,230,-1,230,294,293,-1,230,293,224,-1,224,293,291,-1,224,291,225,-1,225,291,290,-1,225,290,227,-1,227,290,295,-1,
        ]
    }
}
Shape{
    appearance Appearance {
        material  Material 	{
            diffuseColor 0.4 0.4 0.4
            specularColor 0.5019607843137255 0.5019607843137255 0.5019607843137255
            ambientIntensity 0.2
            transparency 0
            shininess 0.5
        }
    }
    geometry IndexedFaceSet {
        ccw TRUE
        solid FALSE
        coord DEF co Coordinate {
            point [
                3.7079 0.1644 -2.3583, 3.723 0.1644 -2.3583, 3.7079 0.1644 -2.3622, 3.723 0.1644 -2.3622, 3.723 0.235 -2.3583, 3.723 0.235 -2.3622, 3.5852 0.235 -2.3583, 3.5852 0.235 -2.3622, 3.5852 0.2165 -2.3583, 3.5852 0.2165 -2.3622, 3.7079 0.2165 -2.3583, 3.7079 0.2165 -2.3622, 3.7007 0.0501 -2.3583, 3.7158 0.0501 -2.3583, 3.7007 0.0501 -2.3622, 3.7158 0.0501 -2.3622, 3.7219 0.0648 -2.3583, 3.7247 0.088 -2.3583, 3.7247 0.088 -2.3622, 3.7246 0.0843 -2.3622, 3.7246 0.0843 -2.3583, 3.7238 0.0787 -2.3622, 3.7219 0.0648 -2.3622, 3.6567 0.1526 -2.3583, 3.6567 0.1526 -2.3622, 3.6731 0.1512 -2.3622, 3.6731 0.1512 -2.3583, 3.6879 0.1469 -2.3622, 3.6879 0.1469 -2.3583, 3.7008 0.1395 -2.3622, 3.7008 0.1395 -2.3583, 3.7113 0.1293 -2.3622, 3.7113 0.1293 -2.3583, 3.7183 0.1183 -2.3622, 3.7183 0.1183 -2.3583, 3.7229 0.105 -2.3622, 3.7229 0.105 -2.3583, 3.7238 0.0962 -2.3622, 3.5835 0.0826 -2.3583, 3.5835 0.0826 -2.3622, 3.5846 0.0962 -2.3622, 3.5846 0.0962 -2.3583, 3.589 0.1115 -2.3622, 3.589 0.1115 -2.3583, 3.5965 0.1246 -2.3622, 3.5965 0.1246 -2.3583, 3.6084 0.1371 -2.3622, 3.6084 0.1371 -2.3583, 3.6214 0.1454 -2.3622, 3.6214 0.1454 -2.3583, 3.6371 0.1507 -2.3622, 3.6371 0.1507 -2.3583, 3.589 0.0501 -2.3583, 3.589 0.0501 -2.3622, 3.5846 0.0661 -2.3622, 3.5846 0.0661 -2.3583, 3.6075 0.0501 -2.3583, 3.6075 0.0501 -2.3622, 3.5986 0.0824 -2.3583, 3.5986 0.0824 -2.3622, 3.6008 0.0657 -2.3622, 3.6008 0.0657 -2.3583, 3.6556 0.1342 -2.3583, 3.6556 0.1342 -2.3622, 3.6448 0.1335 -2.3622, 3.6448 0.1335 -2.3583, 3.6301 0.1298 -2.3622, 3.6301 0.1298 -2.3583, 3.6194 0.1241 -2.3622, 3.6194 0.1241 -2.3583, 3.6103 0.1158 -2.3622, 3.6103 0.1158 -2.3583, 3.6039 0.1063 -2.3622, 3.6039 0.1063 -2.3583, 3.6002 0.096 -2.3622, 3.6002 0.096 -2.3583, 3.7095 0.0855 -2.3583, 3.7095 0.0855 -2.3622, 3.7081 0.0984 -2.3622, 3.7081 0.0984 -2.3583, 3.7044 0.1084 -2.3622, 3.7044 0.1084 -2.3583, 3.6987 0.1168 -2.3622, 3.6987 0.1168 -2.3583, 3.6919 0.1233 -2.3622, 3.6919 0.1233 -2.3583, 3.6823 0.129 -2.3622, 3.6823 0.129 -2.3583, 3.6705 0.1328 -2.3622, 3.6705 0.1328 -2.3583, 3.7021 0.0526 -2.3622, 3.7021 0.0526 -2.3583, 3.7075 0.0672 -2.3622, 3.7075 0.0672 -2.3583, 3.7079 -0.0507 -2.3583, 3.723 -0.0507 -2.3583, 3.7079 -0.0507 -2.3622, 3.723 -0.0507 -2.3622, 3.723 0.0232 -2.3583, 3.723 0.0232 -2.3622, 3.5852 0.0232 -2.3583, 3.5852 0.0232 -2.3622, 3.5852 -0.0473 -2.3583, 3.5852 -0.0473 -2.3622, 3.6003 -0.0473 -2.3583, 3.6003 -0.0473 -2.3622, 3.6003 0.0048 -2.3583, 3.6003 0.0048 -2.3622, 3.6457 0.0048 -2.3583, 3.6457 0.0048 -2.3622, 3.6457 -0.044 -2.3583, 3.6457 -0.044 -2.3622, 3.6608 -0.044 -2.3583, 3.6608 -0.044 -2.3622, 3.6608 0.0048 -2.3583, 3.6608 0.0048 -2.3622, 3.7079 0.0048 -2.3583, 3.7079 0.0048 -2.3622, 3.723 -0.115 -2.3583, 3.723 -0.0776 -2.3583, 3.723 -0.115 -2.3622, 3.723 -0.0776 -2.3622, 3.5852 -0.0776 -2.3583, 3.5852 -0.0776 -2.3622, 3.5852 -0.1165 -2.3583, 3.5852 -0.1165 -2.3622, 3.6524 -0.1885 -2.3583, 3.6524 -0.1885 -2.3622, 3.6397 -0.1875 -2.3622, 3.6397 -0.1875 -2.3583, 3.626 -0.1838 -2.3622, 3.626 -0.1838 -2.3583, 3.614 -0.1774 -2.3622, 3.614 -0.1774 -2.3583, 3.6031 -0.1676 -2.3622, 3.6031 -0.1676 -2.3583, 3.603 -0.1675 -2.3622, 3.603 -0.1675 -2.3583, 3.593 -0.1525 -2.3622, 3.593 -0.1525 -2.3583, 3.5873 -0.1364 -2.3622, 3.5873 -0.1364 -2.3583, 3.7214 -0.1325 -2.3622, 3.7214 -0.1325 -2.3583, 3.7166 -0.1484 -2.3622, 3.7166 -0.1484 -2.3583, 3.7082 -0.1626 -2.3622, 3.7082 -0.1626 -2.3583, 3.6973 -0.1739 -2.3622, 3.6973 -0.1739 -2.3583, 3.6852 -0.1816 -2.3622, 3.6852 -0.1816 -2.3583, 3.6708 -0.1866 -2.3622, 3.6708 -0.1866 -2.3583, 3.6196 -0.1608 -2.3583, 3.6125 -0.1541 -2.3583, 3.606 -0.1441 -2.3583, 3.602 -0.1327 -2.3583, 3.6003 -0.1164 -2.3583, 3.6003 -0.0961 -2.3583, 3.7079 -0.0961 -2.3583, 3.7079 -0.1156 -2.3583, 3.7065 -0.1302 -2.3583, 3.7029 -0.1418 -2.3583, 3.6973 -0.1512 -2.3583, 3.6896 -0.159 -2.3583, 3.6802 -0.1647 -2.3583, 3.6692 -0.1683 -2.3583, 3.6527 -0.17 -2.3583, 3.639 -0.1688 -2.3583, 3.6281 -0.1656 -2.3583, 3.6003 -0.1164 -2.3622, 3.6003 -0.0961 -2.3622, 3.602 -0.1327 -2.3622, 3.606 -0.1441 -2.3622, 3.6125 -0.1541 -2.3622, 3.6196 -0.1608 -2.3622, 3.6281 -0.1656 -2.3622, 3.639 -0.1688 -2.3622, 3.6527 -0.17 -2.3622, 3.6692 -0.1683 -2.3622, 3.6802 -0.1647 -2.3622, 3.6896 -0.159 -2.3622, 3.6973 -0.1512 -2.3622, 3.7029 -0.1418 -2.3622, 3.7065 -0.1302 -2.3622, 3.7079 -0.1156 -2.3622, 3.7079 -0.0961 -2.3622, 3.7079 -0.0961 -2.3622
            ]
        }
        coordIndex [
            0,1,2,-1,2,1,3,-1,1,4,3,-1,3,4,5,-1,4,6,5,-1,5,6,7,-1,6,8,7,-1,7,8,9,-1,8,10,9,-1,9,10,11,-1,10,0,11,-1,11,0,2,-1,8,6,10,-1,10,6,4,-1,10,4,0,-1,0,4,1,-1,12,13,14,-1,14,13,15,-1,15,13,16,-1,17,18,19,-1,17,19,20,-1,20,19,21,-1,20,21,16,-1,16,21,22,-1,16,22,15,-1,23,24,25,-1,23,25,26,-1,26,25,27,-1,26,27,28,-1,28,27,29,-1,28,29,30,-1,30,29,31,-1,30,31,32,-1,32,31,33,-1,32,33,34,-1,34,33,35,-1,34,35,36,-1,36,35,17,-1,17,35,37,-1,17,37,18,-1,38,39,40,-1,38,40,41,-1,41,40,42,-1,41,42,43,-1,43,42,44,-1,43,44,45,-1,45,44,46,-1,45,46,47,-1,47,46,48,-1,47,48,49,-1,49,48,50,-1,49,50,51,-1,51,50,24,-1,51,24,23,-1,52,53,54,-1,52,54,55,-1,55,54,39,-1,55,39,38,-1,52,56,53,-1,53,56,57,-1,58,59,60,-1,58,60,61,-1,61,60,57,-1,61,57,56,-1,62,63,64,-1,62,64,65,-1,65,64,66,-1,65,66,67,-1,67,66,68,-1,67,68,69,-1,69,68,70,-1,69,70,71,-1,71,70,72,-1,71,72,73,-1,73,72,74,-1,73,74,75,-1,75,74,59,-1,75,59,58,-1,76,77,78,-1,76,78,79,-1,79,78,80,-1,79,80,81,-1,81,80,82,-1,81,82,83,-1,83,82,84,-1,83,84,85,-1,85,84,86,-1,85,86,87,-1,87,86,88,-1,87,88,89,-1,89,88,63,-1,89,63,62,-1,12,14,90,-1,12,90,91,-1,91,90,92,-1,91,92,93,-1,93,92,77,-1,93,77,76,-1,79,17,76,-1,76,17,20,-1,76,20,93,-1,93,20,16,-1,93,16,91,-1,91,16,13,-1,91,13,12,-1,56,52,61,-1,61,52,55,-1,61,55,58,-1,58,55,38,-1,58,38,75,-1,75,38,41,-1,75,41,73,-1,73,41,43,-1,73,43,71,-1,71,43,45,-1,71,45,69,-1,69,45,47,-1,69,47,67,-1,67,47,49,-1,67,49,65,-1,65,49,51,-1,65,51,62,-1,62,51,23,-1,62,23,89,-1,89,23,26,-1,89,26,87,-1,87,26,28,-1,87,28,85,-1,85,28,30,-1,85,30,83,-1,83,30,32,-1,83,32,81,-1,81,32,34,-1,81,34,79,-1,79,34,36,-1,79,36,17,-1,94,95,96,-1,96,95,97,-1,95,98,97,-1,97,98,99,-1,98,100,99,-1,99,100,101,-1,100,102,101,-1,101,102,103,-1,102,104,103,-1,103,104,105,-1,104,106,105,-1,105,106,107,-1,106,108,107,-1,107,108,109,-1,108,110,109,-1,109,110,111,-1,110,112,111,-1,111,112,113,-1,112,114,113,-1,113,114,115,-1,114,116,115,-1,115,116,117,-1,116,94,117,-1,117,94,96,-1,98,95,94,-1,94,116,98,-1,98,116,114,-1,98,114,100,-1,104,102,106,-1,106,102,100,-1,106,100,108,-1,108,100,114,-1,108,114,110,-1,110,114,112,-1,118,119,120,-1,120,119,121,-1,119,122,121,-1,121,122,123,-1,122,124,123,-1,123,124,125,-1,126,127,128,-1,126,128,129,-1,129,128,130,-1,129,130,131,-1,131,130,132,-1,131,132,133,-1,133,132,134,-1,133,134,135,-1,135,134,136,-1,135,136,137,-1,137,136,138,-1,137,138,139,-1,139,138,140,-1,139,140,141,-1,141,140,125,-1,141,125,124,-1,118,120,142,-1,118,142,143,-1,143,142,144,-1,143,144,145,-1,145,144,146,-1,145,146,147,-1,147,146,148,-1,147,148,149,-1,149,148,150,-1,149,150,151,-1,151,150,152,-1,151,152,153,-1,153,152,127,-1,153,127,126,-1,131,133,154,-1,154,133,135,-1,154,135,155,-1,155,135,137,-1,155,137,156,-1,156,137,139,-1,156,139,157,-1,157,139,141,-1,157,141,158,-1,158,141,124,-1,158,124,159,-1,159,124,122,-1,159,122,160,-1,160,122,119,-1,160,119,161,-1,161,119,118,-1,161,118,162,-1,162,118,143,-1,162,143,163,-1,163,143,145,-1,163,145,164,-1,164,145,147,-1,164,147,165,-1,165,147,149,-1,165,149,166,-1,166,149,151,-1,166,151,167,-1,167,151,153,-1,167,153,168,-1,168,153,126,-1,168,126,169,-1,169,126,129,-1,169,129,170,-1,170,129,131,-1,170,131,154,-1,158,159,171,-1,171,159,172,-1,158,171,173,-1,158,173,157,-1,157,173,174,-1,157,174,156,-1,156,174,175,-1,156,175,155,-1,155,175,176,-1,155,176,154,-1,154,176,177,-1,154,177,170,-1,170,177,178,-1,170,178,169,-1,169,178,179,-1,169,179,168,-1,168,179,180,-1,168,180,167,-1,167,180,181,-1,167,181,166,-1,166,181,182,-1,166,182,165,-1,165,182,183,-1,165,183,164,-1,164,183,184,-1,164,184,163,-1,163,184,185,-1,163,185,162,-1,162,185,186,-1,162,186,161,-1,160,161,187,-1,187,161,186,-1,159,160,172,-1,172,160,187,-1,
        ]
    }
}
Shape{
    appearance Appearance {
        material  Material 	{
            diffuseColor 0.8 0.8 0.8
            specularColor 1.0 1.0 1.0
            ambientIntensity 0.2
            transparency 0
            shininess 0.5
        }
    }
    geometry IndexedFaceSet {
        ccw TRUE
        solid FALSE
        coord DEF co Coordinate {
            point [
                3.6003 -0.0961 -2.3622, 3.7079 -0.0961 -2.3622, 3.6003 -0.1164 -2.3622, 3.7079 -0.1156 -2.3622, 3.6692 -0.1683 -2.3622, 3.6527 -0.17 -2.3622, 3.639 -0.1688 -2.3622, 3.6281 -0.1656 -2.3622, 3.602 -0.1327 -2.3622, 3.7065 -0.1302 -2.3622, 3.7029 -0.1418 -2.3622, 3.6973 -0.1512 -2.3622, 3.6196 -0.1608 -2.3622, 3.6125 -0.1541 -2.3622, 3.606 -0.1441 -2.3622, 3.6896 -0.159 -2.3622, 3.6802 -0.1647 -2.3622, 3.6802 -0.1647 -2.3622
            ]
        }
        coordIndex [
            0,1,2,-1,2,1,3,-1,4,5,2,-1,5,6,2,-1,2,6,7,-1,2,7,8,-1,3,9,2,-1,2,9,10,-1,2,10,11,-1,12,13,7,-1,7,13,14,-1,7,14,8,-1,11,15,2,-1,2,15,16,-1,2,16,4,-1,
        ]
    }
}
Shape{
    appearance Appearance {
        material  Material 	{
            diffuseColor 0.4 0.4 0.4
            specularColor 0.5019607843137255 0.5019607843137255 0.5019607843137255
            ambientIntensity 0.2
            transparency 0
            shininess 0.5
        }
    }
    geometry IndexedFaceSet {
        ccw TRUE
        solid FALSE
        coord DEF co Coordinate {
            point [
                3.5852 -0.2691 -2.3583, 3.723 -0.3229 -2.3583, 3.5852 -0.2691 -2.3622, 3.723 -0.3229 -2.3622, 3.723 -0.3028 -2.3583, 3.723 -0.3028 -2.3622, 3.6843 -0.2888 -2.3583, 3.6843 -0.2888 -2.3622, 3.6843 -0.2319 -2.3583, 3.6843 -0.2319 -2.3622, 3.723 -0.2187 -2.3583, 3.723 -0.2187 -2.3622, 3.723 -0.1986 -2.3583, 3.723 -0.1986 -2.3622, 3.5852 -0.2507 -2.3583, 3.5852 -0.2507 -2.3622, 3.6692 -0.2365 -2.3583, 3.6117 -0.2571 -2.3583, 3.6069 -0.2584 -2.3583, 3.602 -0.2593 -2.3583, 3.602 -0.2597 -2.3583, 3.6069 -0.2606 -2.3583, 3.6117 -0.2619 -2.3583, 3.6692 -0.2826 -2.3583, 3.6692 -0.2365 -2.3622, 3.6692 -0.2826 -2.3622, 3.6117 -0.2571 -2.3622, 3.6069 -0.2584 -2.3622, 3.602 -0.2593 -2.3622, 3.602 -0.2597 -2.3622, 3.6069 -0.2606 -2.3622, 3.6117 -0.2619 -2.3622, 3.6117 -0.2619 -2.3622
            ]
        }
        coordIndex [
            0,1,2,-1,2,1,3,-1,1,4,3,-1,3,4,5,-1,4,6,5,-1,5,6,7,-1,6,8,7,-1,7,8,9,-1,8,10,9,-1,9,10,11,-1,10,12,11,-1,11,12,13,-1,12,14,13,-1,13,14,15,-1,14,0,15,-1,15,0,2,-1,16,17,14,-1,12,10,8,-1,17,18,14,-1,14,18,19,-1,14,19,0,-1,0,19,20,-1,0,20,21,-1,21,22,0,-1,0,22,23,-1,0,23,1,-1,4,1,6,-1,6,1,23,-1,6,23,8,-1,8,23,16,-1,8,16,12,-1,12,16,14,-1,16,23,24,-1,24,23,25,-1,17,16,26,-1,26,16,24,-1,17,26,27,-1,17,27,18,-1,18,27,28,-1,18,28,19,-1,20,19,29,-1,29,19,28,-1,20,29,30,-1,20,30,21,-1,21,30,31,-1,21,31,22,-1,23,22,25,-1,25,22,31,-1,
        ]
    }
}
Shape{
    appearance Appearance {
        material  Material 	{
            diffuseColor 0.8 0.8 0.8
            specularColor 1.0 1.0 1.0
            ambientIntensity 0.2
            transparency 0
            shininess 0.5
        }
    }
    geometry IndexedFaceSet {
        ccw TRUE
        solid FALSE
        coord DEF co Coordinate {
            point [
                3.6692 -0.2365 -2.3622, 3.6692 -0.2826 -2.3622, 3.6117 -0.2571 -2.3622, 3.6117 -0.2619 -2.3622, 3.6069 -0.2584 -2.3622, 3.6069 -0.2606 -2.3622, 3.602 -0.2593 -2.3622, 3.602 -0.2597 -2.3622, 3.602 -0.2597 -2.3622
            ]
        }
        coordIndex [
            0,1,2,-1,2,1,3,-1,2,3,4,-1,4,3,5,-1,4,5,6,-1,6,5,7,-1,
        ]
    }
}