#VRML V2.0 utf8
# 3D model generated by easyeda2kicad.py (https://github.com/uPesy/easyeda2kicad.py)

Shape{
    appearance Appearance {
        material  Material 	{
            diffuseColor 0.7019607843137254 0.7019607843137254 0.7019607843137254
            specularColor 0.050980392156862744 0.050980392156862744 0.050980392156862744
            ambientIntensity 0.2
            transparency 0
            shininess 0.5
        }
    }
    geometry IndexedFaceSet {
        ccw TRUE
        solid FALSE
        coord DEF co Coordinate {
            point [
                3.878 0.315 2.3622, 3.9173 0.315 2.3622, 3.878 0.8465 2.3622, 3.9173 0.8858 2.3622, 2.6772 0.8465 2.3622, 2.6772 0.8858 2.3622, 3.7205 0.689 0.7874, 3.7205 0.689 2.2047, 3.4843 0.689 0.7874, 2.6772 0.689 2.2047, 2.7559 0.689 0.7874, 2.6772 0.689 0.7874, 3.9173 -0.0394 1.8504, 3.9173 -0.0394 2.3622, 3.9173 -0.8858 2.3622, 3.9173 0.315 1.8504, 3.9173 0.8858 0.0, 3.9173 0.3089 1.8045, 3.9173 0.2912 1.7618, 3.9173 0.6004 0.0, 3.9173 0.1378 1.6732, 3.9173 -0.8858 0.0, 3.9173 0.0919 1.6793, 3.9173 0.0492 1.697, 3.9173 0.2631 1.7251, 3.9173 0.2264 1.697, 3.9173 0.1836 1.6793, 3.9173 0.0125 1.7251, 3.9173 -0.0156 1.7618, 3.9173 -0.0333 1.8045, -2.6772 0.8465 2.3622, -2.6772 0.8858 2.3622, -3.878 0.8465 2.3622, -3.9173 0.8858 2.3622, -3.878 0.315 2.3622, -3.9173 0.315 2.3622, -3.878 -0.0394 2.3622, -3.9173 -0.0394 2.3622, -3.878 -0.8465 2.3622, -3.9173 -0.8858 2.3622, 3.878 -0.8465 2.3622, 3.878 -0.0394 2.3622, 3.7205 -0.0333 1.8045, 3.7205 -0.0156 1.7618, 3.7205 -0.689 0.7874, 3.7205 0.0125 1.7251, 3.7205 -0.0394 1.8504, 3.7205 -0.689 2.2047, 3.7205 -0.0394 2.2047, 3.7205 0.0492 1.697, 3.7205 0.0919 1.6793, 3.7205 0.6004 0.7874, 3.7205 0.1378 1.6732, 3.7205 0.1836 1.6793, 3.7205 0.2264 1.697, 3.7205 0.2631 1.7251, 3.7205 0.2912 1.7618, 3.7205 0.3089 1.8045, 3.7205 0.315 1.8504, 3.7205 0.315 2.2047, -3.7205 -0.689 2.2047, -3.7205 -0.0394 2.2047, -3.7205 -0.0394 2.2047
            ]
        }
        coordIndex [
            0,1,2,-1,2,1,3,-1,2,3,4,-1,4,3,5,-1,6,7,8,-1,8,7,9,-1,8,9,10,-1,10,9,11,-1,7,2,9,-1,9,2,4,-1,12,13,14,-1,3,1,15,-1,3,15,16,-1,16,15,17,-1,16,17,18,-1,19,20,21,-1,21,20,22,-1,21,22,23,-1,18,24,16,-1,16,24,25,-1,16,25,19,-1,19,25,26,-1,19,26,20,-1,23,27,21,-1,21,27,28,-1,21,28,14,-1,14,28,29,-1,14,29,12,-1,30,31,32,-1,32,31,33,-1,32,33,34,-1,34,33,35,-1,36,37,38,-1,38,37,39,-1,38,39,40,-1,40,39,14,-1,40,14,41,-1,41,14,13,-1,42,43,44,-1,44,43,45,-1,42,44,46,-1,46,44,47,-1,46,47,48,-1,45,49,44,-1,44,49,50,-1,44,50,51,-1,50,52,51,-1,51,52,53,-1,51,53,6,-1,6,53,54,-1,6,54,55,-1,55,56,6,-1,6,56,57,-1,6,57,7,-1,7,57,58,-1,7,58,59,-1,0,2,59,-1,59,2,7,-1,48,47,41,-1,41,47,40,-1,38,60,36,-1,36,60,61,-1,
        ]
    }
}
Shape{
    appearance Appearance {
        material  Material 	{
            diffuseColor 0.6666666666666666 0.6666666666666666 0.6666666666666666
            specularColor 0.4666666666666667 0.4666666666666667 0.4666666666666667
            ambientIntensity 0.2
            transparency 0
            shininess 0.5
        }
    }
    geometry IndexedFaceSet {
        ccw TRUE
        solid FALSE
        coord DEF co Coordinate {
            point [
                -2.2638 0.1181 -0.3178, -2.2638 0.1181 0.0, -2.4606 0.1181 -0.3178, -2.4606 0.1181 0.0, -2.4606 0.1181 -0.8633, -2.4606 0.1181 -1.0976, -2.2638 0.1181 -0.8633, -2.2638 0.1181 -1.0976, -2.2638 0.315 -0.7989, -2.2638 0.315 -1.0976, -2.4606 0.315 -0.7989, -2.4606 0.315 -1.0976, -2.4606 0.315 -0.3822, -2.4606 0.315 0.0, -2.2638 0.315 -0.3822, -2.2638 0.315 0.0, 2.2638 0.1181 -1.0976, 2.4606 0.1181 -1.0976, 2.2638 0.1181 -0.8633, 2.4606 0.1181 -0.8633, 2.2638 0.315 0.0, 2.4606 0.315 0.0, 2.2638 0.315 -0.3822, 2.4606 0.315 -0.3822, 2.4606 0.315 -0.3822
            ]
        }
        coordIndex [
            0,1,2,-1,2,1,3,-1,4,5,6,-1,6,5,7,-1,8,9,10,-1,10,9,11,-1,12,13,14,-1,14,13,15,-1,16,17,18,-1,18,17,19,-1,20,21,22,-1,22,21,23,-1,
        ]
    }
}
Shape{
    appearance Appearance {
        material  Material 	{
            diffuseColor 0.7019607843137254 0.7019607843137254 0.7019607843137254
            specularColor 0.050980392156862744 0.050980392156862744 0.050980392156862744
            ambientIntensity 0.2
            transparency 0
            shininess 0.5
        }
    }
    geometry IndexedFaceSet {
        ccw TRUE
        solid FALSE
        coord DEF co Coordinate {
            point [
                -3.9173 0.0125 1.7251, -3.9173 0.0492 1.697, -3.9173 -0.8858 0.0, -3.9173 0.0919 1.6793, -3.9173 0.6004 0.0, -3.9173 0.1378 1.6732, -3.9173 0.1836 1.6793, -3.9173 0.8858 0.0, -3.9173 0.2264 1.697, -3.9173 0.2631 1.7251, -3.9173 0.2912 1.7618, -3.9173 0.3089 1.8045, -3.9173 0.8858 2.3622, -3.9173 0.315 1.8504, -3.9173 0.315 2.3622, -3.9173 -0.0394 2.3622, -3.9173 -0.0394 1.8504, -3.9173 -0.8858 2.3622, -3.9173 -0.0333 1.8045, -3.9173 -0.0156 1.7618, -3.5827 -0.8858 0.0, -2.7559 -0.8858 0.0, -1.9685 -0.8858 0.0, -1.1811 -0.8858 0.0, -0.3937 -0.8858 0.0, 3.9173 -0.8858 2.3622, 0.3937 -0.8858 0.0, 1.1811 -0.8858 0.0, 1.9685 -0.8858 0.0, 2.7559 -0.8858 0.0, 3.9173 -0.8858 0.0, 2.6772 0.8858 0.7874, 2.6772 0.8858 2.3622, 3.9173 0.8858 2.3622, -2.6772 0.8858 2.3622, -2.6772 0.8858 0.7874, -3.5827 0.8858 0.0, -2.7559 0.8858 0.0, -1.9685 0.8858 0.7874, 3.9173 0.8858 0.0, 2.7559 0.8858 0.0, 1.9685 0.8858 0.7874, 1.9685 0.8858 0.0, 1.1811 0.8858 0.7874, 1.1811 0.8858 0.0, 0.3937 0.8858 0.7874, 0.3937 0.8858 0.0, -0.3937 0.8858 0.7874, -0.3937 0.8858 0.0, -1.1811 0.8858 0.7874, -1.1811 0.8858 0.0, -1.9685 0.8858 0.0, 3.9173 0.6004 0.0, 2.7559 0.6004 0.0, -2.4606 0.1181 0.0, -2.7559 0.6004 0.0, -1.6732 0.1181 0.0, -1.9685 0.6004 0.0, -0.8858 0.1181 0.0, -1.1811 0.6004 0.0, -0.0984 0.1181 0.0, -0.3937 0.6004 0.0, 0.689 0.1181 0.0, 0.3937 0.6004 0.0, 1.4764 0.1181 0.0, 1.1811 0.6004 0.0, 2.2638 0.1181 0.0, 1.9685 0.6004 0.0, 3.0512 0.1181 0.0, 3.248 0.1181 0.0, 3.248 0.315 0.0, 3.0512 0.315 0.0, 2.4606 0.1181 0.0, 2.4606 0.315 0.0, 2.2638 0.315 0.0, 1.6732 0.1181 0.0, 1.6732 0.315 0.0, 1.4764 0.315 0.0, 0.8858 0.1181 0.0, 0.8858 0.315 0.0, 0.689 0.315 0.0, 0.0984 0.1181 0.0, 0.0984 0.315 0.0, -0.0984 0.315 0.0, -0.689 0.1181 0.0, -0.689 0.315 0.0, -0.8858 0.315 0.0, -1.4764 0.1181 0.0, -1.4764 0.315 0.0, -1.6732 0.315 0.0, -2.2638 0.1181 0.0, -2.2638 0.315 0.0, -2.4606 0.315 0.0, -3.248 0.315 0.0, -3.5827 0.6004 0.0, -3.0512 0.315 0.0, -3.0512 0.1181 0.0, -3.248 0.1181 0.0, -2.6772 0.689 0.7874, -2.6772 0.689 2.2047, -2.7559 0.689 0.7874, -3.7205 0.689 2.2047, -3.7205 0.689 0.7874, 3.7205 -0.689 0.7874, 3.4843 -0.689 0.7874, 3.7205 -0.689 2.2047, 2.7559 -0.689 0.7874, 1.9685 -0.689 0.7874, 1.1811 -0.689 0.7874, 0.3937 -0.689 0.7874, -3.7205 -0.689 2.2047, -0.3937 -0.689 0.7874, -1.1811 -0.689 0.7874, -1.9685 -0.689 0.7874, -2.7559 -0.689 0.7874, -3.7205 -0.689 0.7874, -3.7205 0.0492 1.697, -3.7205 0.0125 1.7251, -3.7205 0.3089 1.8045, -3.7205 0.2912 1.7618, -3.7205 -0.0156 1.7618, -3.7205 -0.0333 1.8045, -3.7205 -0.0394 1.8504, -3.7205 -0.0394 2.2047, -3.7205 0.6004 0.7874, -3.7205 0.1378 1.6732, -3.7205 0.0919 1.6793, -3.7205 0.315 1.8504, -3.7205 0.315 2.2047, -3.7205 0.2631 1.7251, -3.7205 0.2264 1.697, -3.7205 0.1836 1.6793, 2.6772 0.689 0.7874, -2.7559 0.6004 0.7874, -1.9685 0.6004 0.7874, 1.9685 0.6004 0.7874, 2.7559 0.6004 0.7874, 2.7559 0.689 0.7874, 3.4843 0.6004 0.7874, 3.4843 0.689 0.7874, 3.7205 0.6004 0.7874, 3.7205 0.689 0.7874, -3.0512 0.315 0.7874, -3.248 0.315 0.7874, -3.248 0.1181 0.7874, -3.0512 0.1181 0.7874, -2.2638 0.315 0.7874, -2.4606 0.315 0.7874, -2.4606 0.1181 0.7874, -2.2638 0.1181 0.7874, -1.4764 0.315 0.7874, -1.1811 0.6004 0.7874, -1.6732 0.315 0.7874, -1.6732 0.1181 0.7874, -1.4764 0.1181 0.7874, -0.689 0.315 0.7874, -0.3937 0.6004 0.7874, -0.8858 0.315 0.7874, -0.8858 0.1181 0.7874, -0.689 0.1181 0.7874, 0.0984 0.315 0.7874, 0.3937 0.6004 0.7874, -0.0984 0.315 0.7874, -0.0984 0.1181 0.7874, 0.0984 0.1181 0.7874, 0.8858 0.315 0.7874, 1.1811 0.6004 0.7874, 0.689 0.315 0.7874, 0.689 0.1181 0.7874, 0.8858 0.1181 0.7874, 1.6732 0.315 0.7874, 1.4764 0.315 0.7874, 1.4764 0.1181 0.7874, 1.6732 0.1181 0.7874, 2.4606 0.315 0.7874, 2.2638 0.315 0.7874, 2.2638 0.1181 0.7874, 2.4606 0.1181 0.7874, 3.248 0.315 0.7874, 3.248 0.1181 0.7874, 3.0512 0.315 0.7874, 3.0512 0.1181 0.7874, 3.878 -0.8465 2.3622, -3.878 -0.8465 2.3622, -3.878 0.8465 2.3622, -3.878 0.315 2.3622, -2.6772 0.8465 2.3622, -2.6772 0.8465 2.3622
            ]
        }
        coordIndex [
            0,1,2,-1,2,1,3,-1,2,3,4,-1,3,5,4,-1,4,5,6,-1,4,6,7,-1,7,6,8,-1,7,8,9,-1,9,10,7,-1,7,10,11,-1,7,11,12,-1,12,11,13,-1,12,13,14,-1,15,16,17,-1,17,16,18,-1,17,18,2,-1,2,18,19,-1,2,19,0,-1,2,20,17,-1,17,20,21,-1,17,21,22,-1,22,23,17,-1,17,23,24,-1,17,24,25,-1,25,24,26,-1,25,26,27,-1,27,28,25,-1,25,28,29,-1,25,29,30,-1,31,32,33,-1,12,34,35,-1,7,12,36,-1,36,12,35,-1,36,35,37,-1,37,35,38,-1,33,39,31,-1,31,39,40,-1,31,40,41,-1,41,40,42,-1,41,42,43,-1,43,42,44,-1,43,44,45,-1,45,44,46,-1,45,46,47,-1,47,46,48,-1,47,48,49,-1,49,48,50,-1,49,50,38,-1,38,50,51,-1,38,51,37,-1,39,52,53,-1,54,21,55,-1,56,22,57,-1,58,23,59,-1,60,24,61,-1,62,26,63,-1,64,27,65,-1,66,28,67,-1,68,29,53,-1,29,68,30,-1,30,68,69,-1,30,69,52,-1,52,69,70,-1,52,70,53,-1,53,70,71,-1,53,71,68,-1,28,66,29,-1,29,66,72,-1,29,72,53,-1,53,72,73,-1,53,73,67,-1,67,73,74,-1,67,74,66,-1,27,64,28,-1,28,64,75,-1,28,75,67,-1,67,75,76,-1,67,76,65,-1,65,76,77,-1,65,77,64,-1,26,62,27,-1,27,62,78,-1,27,78,65,-1,65,78,79,-1,65,79,63,-1,63,79,80,-1,63,80,62,-1,24,60,26,-1,26,60,81,-1,26,81,63,-1,63,81,82,-1,63,82,61,-1,61,82,83,-1,61,83,60,-1,23,58,24,-1,24,58,84,-1,24,84,61,-1,61,84,85,-1,61,85,59,-1,59,85,86,-1,59,86,58,-1,22,56,23,-1,23,56,87,-1,23,87,59,-1,59,87,88,-1,59,88,57,-1,57,88,89,-1,57,89,56,-1,21,54,22,-1,22,54,90,-1,22,90,57,-1,57,90,91,-1,57,91,55,-1,55,91,92,-1,55,92,54,-1,93,94,95,-1,95,94,55,-1,95,55,96,-1,96,55,21,-1,96,21,97,-1,97,21,20,-1,97,20,93,-1,93,20,94,-1,94,20,2,-1,94,2,4,-1,39,53,40,-1,40,53,67,-1,40,67,42,-1,42,67,65,-1,42,65,44,-1,44,65,63,-1,44,63,46,-1,46,63,61,-1,46,61,48,-1,48,61,59,-1,48,59,50,-1,50,59,57,-1,50,57,51,-1,51,57,55,-1,51,55,37,-1,37,55,94,-1,37,94,36,-1,36,94,4,-1,36,4,7,-1,98,99,100,-1,100,99,101,-1,100,101,102,-1,103,104,105,-1,105,104,106,-1,105,106,107,-1,107,108,105,-1,105,108,109,-1,105,109,110,-1,110,109,111,-1,110,111,112,-1,112,113,110,-1,110,113,114,-1,110,114,115,-1,116,117,115,-1,118,119,102,-1,117,120,115,-1,115,120,121,-1,115,121,110,-1,110,121,122,-1,110,122,123,-1,124,125,115,-1,115,125,126,-1,115,126,116,-1,118,102,127,-1,127,102,101,-1,127,101,128,-1,119,129,102,-1,102,129,130,-1,102,130,124,-1,124,130,131,-1,124,131,125,-1,132,31,41,-1,102,124,133,-1,134,98,133,-1,133,98,100,-1,133,100,102,-1,132,135,136,-1,132,136,137,-1,137,136,138,-1,137,138,139,-1,139,138,140,-1,139,140,141,-1,142,133,143,-1,143,133,124,-1,143,124,144,-1,144,124,115,-1,144,115,145,-1,145,115,114,-1,145,114,142,-1,142,114,133,-1,146,134,147,-1,147,134,133,-1,147,133,148,-1,148,133,114,-1,148,114,149,-1,149,114,113,-1,149,113,146,-1,146,113,134,-1,150,151,152,-1,152,151,134,-1,152,134,153,-1,153,134,113,-1,153,113,154,-1,154,113,112,-1,154,112,150,-1,150,112,151,-1,155,156,157,-1,157,156,151,-1,157,151,158,-1,158,151,112,-1,158,112,159,-1,159,112,111,-1,159,111,155,-1,155,111,156,-1,160,161,162,-1,162,161,156,-1,162,156,163,-1,163,156,111,-1,163,111,164,-1,164,111,109,-1,164,109,160,-1,160,109,161,-1,165,166,167,-1,167,166,161,-1,167,161,168,-1,168,161,109,-1,168,109,169,-1,169,109,108,-1,169,108,165,-1,165,108,166,-1,170,135,171,-1,171,135,166,-1,171,166,172,-1,172,166,108,-1,172,108,173,-1,173,108,107,-1,173,107,170,-1,170,107,135,-1,174,136,175,-1,175,136,135,-1,175,135,176,-1,176,135,107,-1,176,107,177,-1,177,107,106,-1,177,106,174,-1,174,106,136,-1,138,178,179,-1,178,138,180,-1,180,138,136,-1,180,136,181,-1,181,136,106,-1,181,106,179,-1,179,106,104,-1,179,104,138,-1,138,104,103,-1,138,103,140,-1,132,41,135,-1,135,41,43,-1,135,43,166,-1,166,43,45,-1,166,45,161,-1,161,45,47,-1,161,47,156,-1,156,47,49,-1,156,49,151,-1,151,49,38,-1,151,38,134,-1,134,38,35,-1,134,35,98,-1,182,105,183,-1,183,105,110,-1,101,184,128,-1,128,184,185,-1,184,101,186,-1,186,101,99,-1,
        ]
    }
}
Shape{
    appearance Appearance {
        material  Material 	{
            diffuseColor 0.6666666666666666 0.6666666666666666 0.6666666666666666
            specularColor 0.4666666666666667 0.4666666666666667 0.4666666666666667
            ambientIntensity 0.2
            transparency 0
            shininess 0.5
        }
    }
    geometry IndexedFaceSet {
        ccw TRUE
        solid FALSE
        coord DEF co Coordinate {
            point [
                3.1102 0.2559 2.0866, 3.1102 0.1772 2.0866, 3.189 0.2559 2.0866, 3.189 0.1772 2.0866, 3.0512 0.315 1.9244, 3.0512 0.315 0.7874, 3.0512 0.1181 1.9244, 3.0512 0.1181 0.7874, 3.248 0.315 1.9244, 3.248 0.315 0.7874, 3.248 0.1181 1.9244, 3.248 0.1181 0.7874, 3.248 0.1181 -1.0976, 3.248 0.1181 0.0, 3.0512 0.1181 -1.0976, 3.0512 0.1181 0.0, 3.248 0.315 -1.0976, 3.248 0.315 0.0, 3.0512 0.315 -1.0976, 3.0512 0.315 0.0, 3.1102 0.1772 -1.2598, 3.1102 0.2559 -1.2598, 3.189 0.1772 -1.2598, 3.189 0.2559 -1.2598, 2.3228 0.2559 2.0866, 2.3228 0.1772 2.0866, 2.4016 0.2559 2.0866, 2.4016 0.1772 2.0866, 2.2638 0.315 1.9244, 2.2638 0.315 0.7874, 2.2638 0.1181 1.9244, 2.2638 0.1181 0.7874, 2.4606 0.315 1.9244, 2.4606 0.315 0.7874, 2.4606 0.1181 1.9244, 2.4606 0.1181 0.7874, 2.4606 0.1181 0.0, 2.2638 0.1181 0.0, 2.4606 0.1181 -0.3178, 2.2638 0.1181 -0.3178, 2.4606 0.1181 -0.8633, 2.4606 0.1181 -1.0976, 2.4606 0.315 -1.0976, 2.4606 0.315 0.0, 2.4606 0.315 -0.3822, 2.4606 0.2721 -0.4446, 2.4606 0.2453 -0.5154, 2.4606 0.0682 -0.4212, 2.4606 0.2362 -0.5906, 2.4606 0.315 -0.7989, 2.4606 0.2721 -0.7365, 2.4606 0.0682 -0.7599, 2.4606 0.2453 -0.6657, 2.4606 0.0426 -0.648, 2.4606 0.0426 -0.5331, 2.2638 0.315 -1.0976, 2.2638 0.315 -0.7989, 2.2638 0.315 0.0, 2.2638 0.1181 -1.0976, 2.2638 0.1181 -0.8633, 2.2638 0.2721 -0.7365, 2.2638 0.2453 -0.6657, 2.2638 0.315 -0.3822, 2.2638 0.2721 -0.4446, 2.2638 0.0682 -0.4212, 2.2638 0.2453 -0.5154, 2.2638 0.0426 -0.5331, 2.2638 0.2362 -0.5906, 2.2638 0.0426 -0.648, 2.2638 0.0682 -0.7599, 2.3228 0.1772 -1.2598, 2.3228 0.2559 -1.2598, 2.4016 0.1772 -1.2598, 2.4016 0.2559 -1.2598, 1.5354 0.2559 2.0866, 1.5354 0.1772 2.0866, 1.6142 0.2559 2.0866, 1.6142 0.1772 2.0866, 1.4764 0.315 1.9244, 1.4764 0.315 0.7874, 1.4764 0.1181 1.9244, 1.4764 0.1181 0.7874, 1.6732 0.315 1.9244, 1.6732 0.315 0.7874, 1.6732 0.1181 1.9244, 1.6732 0.1181 0.7874, 1.6732 0.1181 -1.0976, 1.6732 0.1181 0.0, 1.4764 0.1181 -1.0976, 1.4764 0.1181 0.0, 1.6732 0.315 -1.0976, 1.6732 0.315 0.0, 1.4764 0.315 -1.0976, 1.4764 0.315 0.0, 1.5354 0.1772 -1.2598, 1.5354 0.2559 -1.2598, 1.6142 0.1772 -1.2598, 1.6142 0.2559 -1.2598, 0.748 0.2559 2.0866, 0.748 0.1772 2.0866, 0.8268 0.2559 2.0866, 0.8268 0.1772 2.0866, 0.689 0.315 1.9244, 0.689 0.315 0.7874, 0.689 0.1181 1.9244, 0.689 0.1181 0.7874, 0.8858 0.315 1.9244, 0.8858 0.315 0.7874, 0.8858 0.1181 1.9244, 0.8858 0.1181 0.7874, 0.8858 0.1181 -1.0976, 0.8858 0.1181 0.0, 0.689 0.1181 -1.0976, 0.689 0.1181 0.0, 0.8858 0.315 -1.0976, 0.8858 0.315 0.0, 0.689 0.315 -1.0976, 0.689 0.315 0.0, 0.748 0.1772 -1.2598, 0.748 0.2559 -1.2598, 0.8268 0.1772 -1.2598, 0.8268 0.2559 -1.2598, -0.0394 0.2559 2.0866, -0.0394 0.1772 2.0866, 0.0394 0.2559 2.0866, 0.0394 0.1772 2.0866, -0.0984 0.315 1.9244, -0.0984 0.315 0.7874, -0.0984 0.1181 1.9244, -0.0984 0.1181 0.7874, 0.0984 0.315 1.9244, 0.0984 0.315 0.7874, 0.0984 0.1181 1.9244, 0.0984 0.1181 0.7874, 0.0984 0.1181 -1.0976, 0.0984 0.1181 0.0, -0.0984 0.1181 -1.0976, -0.0984 0.1181 0.0, 0.0984 0.315 -1.0976, 0.0984 0.315 0.0, -0.0984 0.315 -1.0976, -0.0984 0.315 0.0, -0.0394 0.1772 -1.2598, -0.0394 0.2559 -1.2598, 0.0394 0.1772 -1.2598, 0.0394 0.2559 -1.2598, -0.8268 0.2559 2.0866, -0.8268 0.1772 2.0866, -0.748 0.2559 2.0866, -0.748 0.1772 2.0866, -0.8858 0.315 1.9244, -0.8858 0.315 0.7874, -0.8858 0.1181 1.9244, -0.8858 0.1181 0.7874, -0.689 0.315 1.9244, -0.689 0.315 0.7874, -0.689 0.1181 1.9244, -0.689 0.1181 0.7874, -0.689 0.1181 -1.0976, -0.689 0.1181 0.0, -0.8858 0.1181 -1.0976, -0.8858 0.1181 0.0, -0.689 0.315 -1.0976, -0.689 0.315 0.0, -0.8858 0.315 -1.0976, -0.8858 0.315 0.0, -0.8268 0.1772 -1.2598, -0.8268 0.2559 -1.2598, -0.748 0.1772 -1.2598, -0.748 0.2559 -1.2598, -1.6142 0.2559 2.0866, -1.6142 0.1772 2.0866, -1.5354 0.2559 2.0866, -1.5354 0.1772 2.0866, -1.6732 0.315 1.9244, -1.6732 0.315 0.7874, -1.6732 0.1181 1.9244, -1.6732 0.1181 0.7874, -1.4764 0.315 1.9244, -1.4764 0.315 0.7874, -1.4764 0.1181 1.9244, -1.4764 0.1181 0.7874, -1.4764 0.1181 -1.0976, -1.4764 0.1181 0.0, -1.6732 0.1181 -1.0976, -1.6732 0.1181 0.0, -1.4764 0.315 -1.0976, -1.4764 0.315 0.0, -1.6732 0.315 -1.0976, -1.6732 0.315 0.0, -1.6142 0.1772 -1.2598, -1.6142 0.2559 -1.2598, -1.5354 0.1772 -1.2598, -1.5354 0.2559 -1.2598, -2.4016 0.2559 2.0866, -2.4016 0.1772 2.0866, -2.3228 0.2559 2.0866, -2.3228 0.1772 2.0866, -2.4606 0.315 1.9244, -2.4606 0.315 0.7874, -2.4606 0.1181 1.9244, -2.4606 0.1181 0.7874, -2.2638 0.315 1.9244, -2.2638 0.315 0.7874, -2.2638 0.1181 1.9244, -2.2638 0.1181 0.7874, -2.2638 0.1181 -0.8633, -2.2638 0.1181 -1.0976, -2.2638 0.315 -1.0976, -2.2638 0.315 0.0, -2.2638 0.1181 0.0, -2.2638 0.315 -0.3822, -2.2638 0.1181 -0.3178, -2.2638 0.2721 -0.4446, -2.2638 0.2453 -0.5154, -2.2638 0.315 -0.7989, -2.2638 0.2721 -0.7365, -2.2638 0.0682 -0.7599, -2.2638 0.2453 -0.6657, -2.2638 0.0426 -0.648, -2.2638 0.2362 -0.5906, -2.2638 0.0426 -0.5331, -2.2638 0.0682 -0.4212, -2.4606 0.1181 -0.3178, -2.4606 0.1181 0.0, -2.4606 0.315 0.0, -2.4606 0.315 -1.0976, -2.4606 0.1181 -1.0976, -2.4606 0.315 -0.7989, -2.4606 0.1181 -0.8633, -2.4606 0.2721 -0.7365, -2.4606 0.2453 -0.6657, -2.4606 0.0682 -0.7599, -2.4606 0.2362 -0.5906, -2.4606 0.315 -0.3822, -2.4606 0.2721 -0.4446, -2.4606 0.0682 -0.4212, -2.4606 0.2453 -0.5154, -2.4606 0.0426 -0.5331, -2.4606 0.0426 -0.648, -2.4016 0.1772 -1.2598, -2.4016 0.2559 -1.2598, -2.3228 0.1772 -1.2598, -2.3228 0.2559 -1.2598, -3.189 0.2559 2.0866, -3.189 0.1772 2.0866, -3.1102 0.2559 2.0866, -3.1102 0.1772 2.0866, -3.248 0.315 1.9244, -3.248 0.315 0.7874, -3.248 0.1181 1.9244, -3.248 0.1181 0.7874, -3.0512 0.315 1.9244, -3.0512 0.315 0.7874, -3.0512 0.1181 1.9244, -3.0512 0.1181 0.7874, -3.0512 0.1181 -1.0976, -3.0512 0.1181 0.0, -3.248 0.1181 -1.0976, -3.248 0.1181 0.0, -3.0512 0.315 -1.0976, -3.0512 0.315 0.0, -3.248 0.315 -1.0976, -3.248 0.315 0.0, -3.189 0.1772 -1.2598, -3.189 0.2559 -1.2598, -3.1102 0.1772 -1.2598, -3.1102 0.2559 -1.2598, -3.1102 0.2559 -1.2598
            ]
        }
        coordIndex [
            0,1,2,-1,2,1,3,-1,4,5,6,-1,6,5,7,-1,8,9,4,-1,4,9,5,-1,10,11,8,-1,8,11,9,-1,6,7,10,-1,10,7,11,-1,12,13,14,-1,14,13,15,-1,16,17,12,-1,12,17,13,-1,18,19,16,-1,16,19,17,-1,14,15,18,-1,18,15,19,-1,20,21,22,-1,22,21,23,-1,21,18,23,-1,23,18,16,-1,20,14,21,-1,21,14,18,-1,12,22,16,-1,16,22,23,-1,22,12,20,-1,20,12,14,-1,10,3,6,-1,6,3,1,-1,8,2,10,-1,10,2,3,-1,0,4,1,-1,1,4,6,-1,4,0,8,-1,8,0,2,-1,24,25,26,-1,26,25,27,-1,28,29,30,-1,30,29,31,-1,32,33,28,-1,28,33,29,-1,34,35,32,-1,32,35,33,-1,30,31,34,-1,34,31,35,-1,36,37,38,-1,38,37,39,-1,40,41,42,-1,43,36,44,-1,44,36,38,-1,44,38,45,-1,45,38,46,-1,46,38,47,-1,46,47,48,-1,42,49,40,-1,40,49,50,-1,40,50,51,-1,51,50,52,-1,51,52,53,-1,53,52,48,-1,53,48,54,-1,54,48,47,-1,42,55,49,-1,49,55,56,-1,39,37,57,-1,55,58,56,-1,56,58,59,-1,56,59,60,-1,60,59,61,-1,57,62,39,-1,39,62,63,-1,39,63,64,-1,64,63,65,-1,64,65,66,-1,66,65,67,-1,66,67,68,-1,68,67,61,-1,68,61,69,-1,69,61,59,-1,70,71,72,-1,72,71,73,-1,74,75,76,-1,76,75,77,-1,78,79,80,-1,80,79,81,-1,82,83,78,-1,78,83,79,-1,84,85,82,-1,82,85,83,-1,80,81,84,-1,84,81,85,-1,86,87,88,-1,88,87,89,-1,90,91,86,-1,86,91,87,-1,92,93,90,-1,90,93,91,-1,88,89,92,-1,92,89,93,-1,94,95,96,-1,96,95,97,-1,98,99,100,-1,100,99,101,-1,102,103,104,-1,104,103,105,-1,106,107,102,-1,102,107,103,-1,108,109,106,-1,106,109,107,-1,104,105,108,-1,108,105,109,-1,110,111,112,-1,112,111,113,-1,114,115,110,-1,110,115,111,-1,116,117,114,-1,114,117,115,-1,112,113,116,-1,116,113,117,-1,118,119,120,-1,120,119,121,-1,122,123,124,-1,124,123,125,-1,126,127,128,-1,128,127,129,-1,130,131,126,-1,126,131,127,-1,132,133,130,-1,130,133,131,-1,128,129,132,-1,132,129,133,-1,134,135,136,-1,136,135,137,-1,138,139,134,-1,134,139,135,-1,140,141,138,-1,138,141,139,-1,136,137,140,-1,140,137,141,-1,142,143,144,-1,144,143,145,-1,146,147,148,-1,148,147,149,-1,150,151,152,-1,152,151,153,-1,154,155,150,-1,150,155,151,-1,156,157,154,-1,154,157,155,-1,152,153,156,-1,156,153,157,-1,158,159,160,-1,160,159,161,-1,162,163,158,-1,158,163,159,-1,164,165,162,-1,162,165,163,-1,160,161,164,-1,164,161,165,-1,166,167,168,-1,168,167,169,-1,170,171,172,-1,172,171,173,-1,174,175,176,-1,176,175,177,-1,178,179,174,-1,174,179,175,-1,180,181,178,-1,178,181,179,-1,176,177,180,-1,180,177,181,-1,182,183,184,-1,184,183,185,-1,186,187,182,-1,182,187,183,-1,188,189,186,-1,186,189,187,-1,184,185,188,-1,188,185,189,-1,190,191,192,-1,192,191,193,-1,194,195,196,-1,196,195,197,-1,198,199,200,-1,200,199,201,-1,202,203,198,-1,198,203,199,-1,204,205,202,-1,202,205,203,-1,200,201,204,-1,204,201,205,-1,206,207,208,-1,209,210,211,-1,211,210,212,-1,211,212,213,-1,213,212,214,-1,208,215,206,-1,206,215,216,-1,206,216,217,-1,217,216,218,-1,217,218,219,-1,219,218,220,-1,219,220,221,-1,221,220,214,-1,221,214,222,-1,222,214,212,-1,223,224,225,-1,226,227,228,-1,228,227,229,-1,228,229,230,-1,230,229,231,-1,231,229,232,-1,231,232,233,-1,225,234,223,-1,223,234,235,-1,223,235,236,-1,236,235,237,-1,236,237,238,-1,238,237,233,-1,238,233,239,-1,239,233,232,-1,240,241,242,-1,242,241,243,-1,244,245,246,-1,246,245,247,-1,248,249,250,-1,250,249,251,-1,252,253,248,-1,248,253,249,-1,254,255,252,-1,252,255,253,-1,250,251,254,-1,254,251,255,-1,256,257,258,-1,258,257,259,-1,260,261,256,-1,256,261,257,-1,262,263,260,-1,260,263,261,-1,258,259,262,-1,262,259,263,-1,264,265,266,-1,266,265,267,-1,71,55,73,-1,73,55,42,-1,70,58,71,-1,71,58,55,-1,41,72,42,-1,42,72,73,-1,72,41,70,-1,70,41,58,-1,34,27,30,-1,30,27,25,-1,32,26,34,-1,34,26,27,-1,24,28,25,-1,25,28,30,-1,28,24,32,-1,32,24,26,-1,95,92,97,-1,97,92,90,-1,94,88,95,-1,95,88,92,-1,86,96,90,-1,90,96,97,-1,96,86,94,-1,94,86,88,-1,84,77,80,-1,80,77,75,-1,82,76,84,-1,84,76,77,-1,74,78,75,-1,75,78,80,-1,78,74,82,-1,82,74,76,-1,119,116,121,-1,121,116,114,-1,118,112,119,-1,119,112,116,-1,110,120,114,-1,114,120,121,-1,120,110,118,-1,118,110,112,-1,108,101,104,-1,104,101,99,-1,106,100,108,-1,108,100,101,-1,98,102,99,-1,99,102,104,-1,102,98,106,-1,106,98,100,-1,143,140,145,-1,145,140,138,-1,142,136,143,-1,143,136,140,-1,134,144,138,-1,138,144,145,-1,144,134,142,-1,142,134,136,-1,132,125,128,-1,128,125,123,-1,130,124,132,-1,132,124,125,-1,122,126,123,-1,123,126,128,-1,126,122,130,-1,130,122,124,-1,167,164,169,-1,169,164,162,-1,166,160,167,-1,167,160,164,-1,158,168,162,-1,162,168,169,-1,168,158,166,-1,166,158,160,-1,156,149,152,-1,152,149,147,-1,154,148,156,-1,156,148,149,-1,146,150,147,-1,147,150,152,-1,150,146,154,-1,154,146,148,-1,191,188,193,-1,193,188,186,-1,190,184,191,-1,191,184,188,-1,182,192,186,-1,186,192,193,-1,192,182,190,-1,190,182,184,-1,180,173,176,-1,176,173,171,-1,178,172,180,-1,180,172,173,-1,170,174,171,-1,171,174,176,-1,174,170,178,-1,178,170,172,-1,241,226,243,-1,243,226,208,-1,240,227,241,-1,241,227,226,-1,207,242,208,-1,208,242,243,-1,242,207,240,-1,240,207,227,-1,204,197,200,-1,200,197,195,-1,202,196,204,-1,204,196,197,-1,194,198,195,-1,195,198,200,-1,198,194,202,-1,202,194,196,-1,265,262,267,-1,267,262,260,-1,264,258,265,-1,265,258,262,-1,256,266,260,-1,260,266,267,-1,266,256,264,-1,264,256,258,-1,254,247,250,-1,250,247,245,-1,252,246,254,-1,254,246,247,-1,244,248,245,-1,245,248,250,-1,248,244,252,-1,252,244,246,-1,62,44,63,-1,63,44,45,-1,63,45,65,-1,65,45,46,-1,65,46,67,-1,67,46,48,-1,67,48,61,-1,61,48,52,-1,61,52,60,-1,60,52,50,-1,60,50,56,-1,56,50,49,-1,59,40,51,-1,59,51,69,-1,69,51,53,-1,69,53,68,-1,68,53,54,-1,68,54,66,-1,66,54,47,-1,66,47,64,-1,64,47,38,-1,64,38,39,-1,215,228,216,-1,216,228,230,-1,216,230,218,-1,218,230,231,-1,218,231,220,-1,220,231,233,-1,220,233,214,-1,214,233,237,-1,214,237,213,-1,213,237,235,-1,213,235,211,-1,211,235,234,-1,212,223,236,-1,212,236,222,-1,222,236,238,-1,222,238,221,-1,221,238,239,-1,221,239,219,-1,219,239,232,-1,219,232,217,-1,217,232,229,-1,217,229,206,-1,
        ]
    }
}
Shape{
    appearance Appearance {
        material  Material 	{
            diffuseColor 0.7019607843137254 0.7019607843137254 0.7019607843137254
            specularColor 0.050980392156862744 0.050980392156862744 0.050980392156862744
            ambientIntensity 0.2
            transparency 0
            shininess 0.5
        }
    }
    geometry IndexedFaceSet {
        ccw TRUE
        solid FALSE
        coord DEF co Coordinate {
            point [
                -3.7205 0.315 1.8504, -3.9173 0.315 1.8504, -3.7205 0.3089 1.8045, -3.9173 0.3089 1.8045, -3.7205 0.2912 1.7618, -3.9173 0.2912 1.7618, -3.7205 0.2631 1.7251, -3.9173 0.2631 1.7251, -3.7205 0.2264 1.697, -3.9173 0.2264 1.697, -3.7205 0.1836 1.6793, -3.9173 0.1836 1.6793, -3.7205 0.1378 1.6732, -3.9173 0.1378 1.6732, -3.7205 0.0919 1.6793, -3.9173 0.0919 1.6793, -3.7205 0.0492 1.697, -3.9173 0.0492 1.697, -3.7205 0.0125 1.7251, -3.9173 0.0125 1.7251, -3.7205 -0.0156 1.7618, -3.9173 -0.0156 1.7618, -3.7205 -0.0333 1.8045, -3.9173 -0.0333 1.8045, -3.7205 -0.0394 1.8504, -3.9173 -0.0394 1.8504, -3.7205 -0.0394 2.2047, -3.878 -0.0394 2.3622, -3.9173 -0.0394 2.3622, -3.7205 0.315 2.2047, -3.878 0.315 2.3622, -3.9173 0.315 2.3622, 3.7205 -0.0394 1.8504, 3.9173 -0.0394 1.8504, 3.7205 -0.0333 1.8045, 3.9173 -0.0333 1.8045, 3.7205 -0.0156 1.7618, 3.9173 -0.0156 1.7618, 3.7205 0.0125 1.7251, 3.9173 0.0125 1.7251, 3.7205 0.0492 1.697, 3.9173 0.0492 1.697, 3.7205 0.0919 1.6793, 3.9173 0.0919 1.6793, 3.7205 0.1378 1.6732, 3.9173 0.1378 1.6732, 3.7205 0.1836 1.6793, 3.9173 0.1836 1.6793, 3.7205 0.2264 1.697, 3.9173 0.2264 1.697, 3.7205 0.2631 1.7251, 3.9173 0.2631 1.7251, 3.7205 0.2912 1.7618, 3.9173 0.2912 1.7618, 3.7205 0.3089 1.8045, 3.9173 0.3089 1.8045, 3.7205 0.315 1.8504, 3.9173 0.315 1.8504, 3.7205 0.315 2.2047, 3.878 0.315 2.3622, 3.9173 0.315 2.3622, 3.878 -0.0394 2.3622, 3.9173 -0.0394 2.3622, 3.7205 -0.0394 2.2047, 2.6772 0.8465 2.3622, 2.6772 0.8858 2.3622, 2.6772 0.689 2.2047, 2.6772 0.8858 0.7874, 2.6772 0.689 0.7874, -2.6772 0.8858 2.3622, -2.6772 0.8465 2.3622, -2.6772 0.8858 0.7874, -2.6772 0.689 2.2047, -2.6772 0.689 0.7874, -2.6772 0.689 0.7874
            ]
        }
        coordIndex [
            0,1,2,-1,2,1,3,-1,2,3,4,-1,4,3,5,-1,4,5,6,-1,6,5,7,-1,6,7,8,-1,8,7,9,-1,8,9,10,-1,10,9,11,-1,10,11,12,-1,12,11,13,-1,12,13,14,-1,14,13,15,-1,14,15,16,-1,16,15,17,-1,16,17,18,-1,18,17,19,-1,18,19,20,-1,20,19,21,-1,20,21,22,-1,22,21,23,-1,22,23,24,-1,24,23,25,-1,26,24,27,-1,27,24,25,-1,27,25,28,-1,0,29,1,-1,1,29,30,-1,1,30,31,-1,32,33,34,-1,34,33,35,-1,34,35,36,-1,36,35,37,-1,36,37,38,-1,38,37,39,-1,38,39,40,-1,40,39,41,-1,40,41,42,-1,42,41,43,-1,42,43,44,-1,44,43,45,-1,44,45,46,-1,46,45,47,-1,46,47,48,-1,48,47,49,-1,48,49,50,-1,50,49,51,-1,50,51,52,-1,52,51,53,-1,52,53,54,-1,54,53,55,-1,54,55,56,-1,56,55,57,-1,58,56,59,-1,59,56,57,-1,59,57,60,-1,61,62,63,-1,63,62,33,-1,63,33,32,-1,64,65,66,-1,66,65,67,-1,66,67,68,-1,69,70,71,-1,71,70,72,-1,71,72,73,-1,
        ]
    }
}