#VRML V2.0 utf8
# 3D model generated by easyeda2kicad.py (https://github.com/uPesy/easyeda2kicad.py)

Shape{
    appearance Appearance {
        material  Material 	{
            diffuseColor 1.0 1.0 1.0
            specularColor 0.5019607843137255 0.5019607843137255 0.5019607843137255
            ambientIntensity 0.2
            transparency 0
            shininess 0.5
        }
    }
    geometry IndexedFaceSet {
        ccw TRUE
        solid FALSE
        coord DEF co Coordinate {
            point [
                2.9488 -0.567 0.8938, 2.9488 -0.567 0.7755, 2.9488 -0.5139 0.7755, 2.9488 -0.1303 -1.1417, 2.9488 -0.0053 -1.1417, 2.9488 -0.0053 0.4946, 2.9488 0.7854 -0.748, 2.9488 1.3563 -0.748, 2.9488 1.3563 0.4946, 2.9488 -0.3564 0.5481, 2.9488 -0.3618 0.5475, 2.9488 -0.3285 0.5475, 2.9488 -0.2147 0.682, 2.9488 -0.1724 0.682, 2.9488 -0.1724 0.7201, 2.9488 -0.7545 0.7897, 2.9488 -0.7288 0.7679, 2.9488 -0.6389 0.8949, 2.9488 -0.6389 0.7592, 2.9488 -0.8747 0.9054, 2.9488 -0.8597 0.8949, 2.9488 -0.8387 0.8802, 2.9488 -0.8053 0.8409, 2.9488 -0.7875 0.8053, 2.9488 -0.7828 0.8037, 2.9488 -0.9677 0.9296, 2.9488 -0.9217 0.9238, 2.9488 -0.6389 1.1417, 2.9488 -1.0095 0.925, 2.9488 -1.498 1.1417, 2.9488 -1.0536 0.9094, 2.9488 -1.0777 0.8949, 2.9488 -1.498 0.8949, 2.9488 -1.0816 0.8926, 2.9488 -1.498 0.7592, 2.9488 -1.2854 0.7592, 2.9488 -1.2771 0.7779, 2.9488 -1.2543 0.8072, 2.9488 -1.1824 0.8481, 2.9488 -1.1452 0.8527, 2.9488 -1.1039 0.8735, 2.9488 -1.1342 0.8521, 2.9488 -1.1233 0.8508, 2.9488 -1.2477 0.8133, 2.9488 -1.2175 0.8345, 2.9488 -1.2299 0.5707, 2.9488 -1.259 0.5956, 2.9488 -1.498 0.5475, 2.9488 -1.1957 0.5538, 2.9488 -1.2807 0.6266, 2.9488 -1.2943 0.662, 2.9488 -1.498 0.7201, 2.9488 -1.2989 0.699, 2.9488 -1.2986 0.7081, 2.9488 -1.2965 0.7201, 2.9488 -1.2922 0.7438, 2.9488 -1.1831 0.55, 2.9488 -1.1819 0.5475, 2.9488 -1.1736 0.5297, 2.9488 -1.498 0.4946, 2.9488 -1.1595 0.5123, 2.9488 -1.1409 0.4983, 2.9488 -0.6389 -1.1417, 2.9488 -0.6389 0.4946, 2.9488 -1.0537 0.4946, 2.9488 -1.498 -1.1417, 2.9488 -1.119 0.4891, 2.9488 -1.1322 0.4946, 2.9488 -1.07 0.4883, 2.9488 -1.093 0.4855, 2.9488 -1.0966 0.4856, 2.9488 -0.6389 0.5475, 2.9488 -1.0041 0.5475, 2.9488 -1.0041 0.5471, 2.9488 -1.0154 0.526, 2.9488 -1.03 0.5096, 2.9488 -1.0489 0.4965, 2.9488 -0.6979 0.7119, 2.9488 -0.6935 0.681, 2.9488 -0.6389 0.7201, 2.9488 -0.8829 0.6034, 2.9488 -0.8764 0.606, 2.9488 -0.8653 0.6601, 2.9488 -0.7286 0.5908, 2.9488 -0.7545 0.569, 2.9488 -1.0218 0.644, 2.9488 -0.8947 0.7104, 2.9488 -1.0384 0.6591, 2.9488 -1.0585 0.6699, 2.9488 -0.8888 0.5993, 2.9488 -0.7098 0.617, 2.9488 -0.7528 0.6883, 2.9488 -0.7573 0.7065, 2.9488 -0.7645 0.7201, 2.9488 -1.2367 0.7201, 2.9488 -0.6979 0.6471, 2.9488 -0.8691 0.607, 2.9488 -0.8681 0.6069, 2.9488 -0.8653 0.6063, 2.9488 -1.2312 0.6631, 2.9488 -1.2198 0.6438, 2.9488 -1.1717 0.634, 2.9488 -1.2028 0.6263, 2.9488 -1.1822 0.6136, 2.9488 -1.1366 0.6654, 2.9488 -1.156 0.652, 2.9488 -1.2391 0.7009, 2.9488 -1.238 0.6863, 2.9488 -1.1156 0.6734, 2.9488 -1.093 0.6762, 2.9488 -1.0814 0.6755, 2.9488 -0.8985 0.5776, 2.9488 -0.8982 0.5813, 2.9488 -0.9981 0.5899, 2.9488 -0.8963 0.5885, 2.9488 -0.8927 0.595, 2.9488 -0.7716 0.6298, 2.9488 -0.7612 0.6446, 2.9488 -0.7546 0.6616, 2.9488 -0.7523 0.68, 2.9488 -0.8763 0.549, 2.9488 -0.8826 0.5515, 2.9488 -0.8887 0.5558, 2.9488 -0.8909 0.5581, 2.9488 -0.8951 0.564, 2.9488 -0.8976 0.5705, 2.9488 -0.9986 0.5706, 2.9488 -0.9981 0.5804, 2.9488 -0.7834 0.5548, 2.9488 -0.815 0.5481, 2.9488 -0.871 0.5481, 2.9488 -0.8634 0.606, 2.9488 -0.8207 0.606, 2.9488 -0.8037 0.6093, 2.9488 -0.7869 0.617, 2.9488 -0.7729 0.6285, 2.9488 -0.8339 0.754, 2.9488 -1.2281 0.745, 2.9488 -1.2363 0.7239, 2.9488 -0.8264 0.754, 2.9488 -0.7661 0.7229, 2.9488 -0.777 0.7352, 2.9488 -0.7918 0.7454, 2.9488 -0.8083 0.7518, 2.9488 -0.8544 0.811, 2.9488 -0.8758 0.8366, 2.9488 -1.0939 0.7815, 2.9488 -0.8782 0.8388, 2.9488 -0.9049 0.8573, 2.9488 -1.0794 0.8115, 2.9488 -1.2183 0.7592, 2.9488 -1.1007 0.7853, 2.9488 -0.8351 0.7592, 2.9488 -0.8397 0.7804, 2.9488 -1.122 0.793, 2.9488 -1.1442 0.7958, 2.9488 -1.154 0.7953, 2.9488 -1.0582 0.837, 2.9488 -0.9346 0.8687, 2.9488 -1.0327 0.8556, 2.9488 -0.9668 0.8726, 2.9488 -1.0017 0.8681, 2.9488 -1.1775 0.7897, 2.9488 -1.1986 0.7785, 2.9488 -1.215 0.7639, 2.9488 -0.7226 0.7592, 2.9488 -0.7094 0.7409, 2.9488 -0.7011 0.7201, 2.9488 -0.1303 0.7201, 2.9488 -0.1459 0.682, 2.9488 -0.1459 0.6667, 2.9488 -0.1497 0.624, 2.9488 -0.1497 0.6087, 2.9488 -0.1303 0.5475, 2.9488 -0.1974 0.6667, 2.9488 -0.1974 0.624, 2.9488 -0.1724 0.6667, 2.9488 -0.1724 0.624, 2.9488 -0.1974 0.6087, 2.9488 -0.1974 0.5638, 2.9488 -0.1724 0.6087, 2.9488 -0.1724 0.5638, 2.9488 -0.1429 0.5638, 2.9488 -0.1429 0.5486, 2.9488 -0.1724 0.5475, 2.9488 -0.1724 0.5486, 2.9488 -0.2147 0.5486, 2.9488 -0.2806 0.5723, 2.9488 -0.2785 0.5644, 2.9488 -0.2781 0.5644, 2.9488 -0.2327 0.6439, 2.9488 -0.2974 0.7201, 2.9488 -0.25 0.6439, 2.9488 -0.2974 0.6207, 2.9488 -0.276 0.5721, 2.9488 -0.2773 0.5677, 2.9488 -0.3972 0.5692, 2.9488 -0.4142 0.7201, 2.9488 -0.4142 0.5475, 2.9488 -0.3903 0.565, 2.9488 -0.3895 0.5647, 2.9488 -0.3895 0.6002, 2.9488 -0.3924 0.6031, 2.9488 -0.3946 0.6066, 2.9488 -0.3964 0.6117, 2.9488 -0.3971 0.6182, 2.9488 -0.3965 0.6242, 2.9488 -0.3896 0.6003, 2.9488 -0.3808 0.5475, 2.9488 -0.3873 0.5483, 2.9488 -0.3895 0.5475, 2.9488 -0.3895 0.5491, 2.9488 -0.3972 0.5519, 2.9488 -0.3374 0.6419, 2.9488 -0.3374 0.6256, 2.9488 -0.3864 0.6385, 2.9488 -0.3808 0.6418, 2.9488 -0.3895 0.7201, 2.9488 -0.3945 0.6295, 2.9488 -0.3914 0.6341, 2.9488 -0.3895 0.6357, 2.9488 -0.3336 0.5678, 2.9488 -0.3357 0.5625, 2.9488 -0.3388 0.5581, 2.9488 -0.3714 0.645, 2.9488 -0.36 0.6461, 2.9488 -0.3285 0.7201, 2.9488 -0.3483 0.6451, 2.9488 -0.3384 0.5903, 2.9488 -0.3353 0.5857, 2.9488 -0.3335 0.5808, 2.9488 -0.3329 0.5745, 2.9488 -0.3436 0.5539, 2.9488 -0.3475 0.5515, 2.9488 -0.3616 0.6325, 2.9488 -0.3666 0.6321, 2.9488 -0.3799 0.6197, 2.9488 -0.3711 0.631, 2.9488 -0.3748 0.629, 2.9488 -0.3797 0.6175, 2.9488 -0.3791 0.6149, 2.9488 -0.3779 0.6126, 2.9488 -0.3762 0.6108, 2.9488 -0.3704 0.6071, 2.9488 -0.3512 0.6314, 2.9488 -0.36 0.6026, 2.9488 -0.3417 0.6281, 2.9488 -0.3535 0.6, 2.9488 -0.3424 0.5938, 2.9488 -0.3773 0.6267, 2.9488 -0.3788 0.6246, 2.9488 -0.3796 0.6224, 2.9488 -0.3798 0.5611, 2.9488 -0.3718 0.5905, 2.9488 -0.3818 0.5951, 2.9488 -0.3697 0.56, 2.9488 -0.369 0.56, 2.9488 -0.3608 0.5859, 2.9488 -0.3604 0.561, 2.9488 -0.35 0.5729, 2.9488 -0.3502 0.575, 2.9488 -0.3561 0.5625, 2.9488 -0.3546 0.5635, 2.9488 -0.3527 0.5652, 2.9488 -0.3512 0.5673, 2.9488 -0.3504 0.5697, 2.9488 -0.3509 0.5776, 2.9488 -0.3522 0.5798, 2.9488 -0.3543 0.582, 2.9488 -0.0053 0.7592, 2.9488 -0.0487 0.7603, 2.9488 -0.0677 0.7603, 2.9488 -0.0813 0.7968, 2.9488 -0.1303 0.7968, 2.9488 -0.1303 0.7592, 2.9488 -0.0995 0.8938, 2.9488 -0.0053 0.8949, 2.9488 -0.1303 0.8949, 2.9488 -0.1369 0.7968, 2.9488 -0.1497 0.7603, 2.9488 -0.1724 0.7592, 2.9488 -0.1687 0.7603, 2.9488 -0.1724 0.8949, 2.9488 -0.1303 0.8613, 2.9488 -0.1179 0.8938, 2.9488 -0.3285 0.8949, 2.9488 -0.3285 0.8938, 2.9488 -0.313 0.8938, 2.9488 -0.2974 0.8949, 2.9488 -0.313 0.8784, 2.9488 -0.2974 0.7592, 2.9488 -0.3168 0.8204, 2.9488 -0.3168 0.8357, 2.9488 -0.3285 0.8357, 2.9488 -0.3285 0.8784, 2.9488 -0.3645 0.8357, 2.9488 -0.3645 0.8784, 2.9488 -0.3818 0.7603, 2.9488 -0.3895 0.7592, 2.9488 -0.3285 0.7592, 2.9488 -0.3645 0.8204, 2.9488 -0.3645 0.7755, 2.9488 -0.3285 0.8204, 2.9488 -0.3285 0.7755, 2.9488 -0.31 0.7755, 2.9488 -0.31 0.7603, 2.9488 -0.3285 0.7603, 2.9488 -0.3818 0.8938, 2.9488 -0.3895 0.8949, 2.9488 0.7854 -1.1417, 2.9488 0.7374 -1.1417, 2.9488 0.7374 0.4946, 2.9488 -0.4235 0.8785, 2.9488 -0.4399 0.8804, 2.9488 -0.4142 0.7798, 2.9488 -0.4085 0.8725, 2.9488 -0.4085 0.7823, 2.9488 -0.41 0.8733, 2.9488 -0.4142 0.8749, 2.9488 -0.4465 0.8801, 2.9488 -0.4579 0.8776, 2.9488 -0.4683 0.8724, 2.9488 -0.4881 0.8439, 2.9488 -0.4903 0.8255, 2.9488 -0.4429 0.7734, 2.9488 -0.4763 0.8656, 2.9488 -0.4772 0.8647, 2.9488 -0.4216 0.7764, 2.9488 -0.4367 0.7736, 2.9488 -0.4836 0.8554, 2.9488 -0.4901 0.8191, 2.9488 -0.4877 0.8061, 2.9488 -0.4832 0.7955, 2.9488 -0.4772 0.7875, 2.9488 -0.4733 0.7837, 2.9488 -0.4543 0.7745, 2.9488 -0.4642 0.7778, 2.9488 -0.4258 0.8949, 2.9488 -0.4226 0.8946, 2.9488 -0.4142 0.8949, 2.9488 -0.4142 0.8922, 2.9488 -0.4085 0.8905, 2.9488 -0.4401 0.896, 2.9488 -0.4142 1.1417, 2.9488 -0.4494 0.8949, 2.9488 -0.5024 1.1417, 2.9488 -0.5024 0.8949, 2.9488 -0.4988 0.8637, 2.9488 -0.4891 0.8764, 2.9488 -0.4858 0.8795, 2.9488 -0.4733 0.8882, 2.9488 -0.4594 0.8937, 2.9488 -0.5104 0.8949, 2.9488 -0.5051 0.8489, 2.9488 -0.5024 0.8552, 2.9488 -0.5024 0.7942, 2.9488 -0.5058 0.8028, 2.9488 -0.5104 0.7592, 2.9488 -0.5084 0.8245, 2.9488 -0.5082 0.8315, 2.9488 -0.468 0.7614, 2.9488 -0.4805 0.7674, 2.9488 -0.5024 0.7592, 2.9488 -0.4913 0.7763, 2.9488 -0.4924 0.7775, 2.9488 -0.5003 0.7888, 2.9488 -0.4571 0.7592, 2.9488 -0.5024 0.7201, 2.9488 -0.4535 0.7584, 2.9488 -0.4454 0.7581, 2.9488 -0.4336 0.7592, 2.9488 -0.4085 0.7658, 2.9488 -0.4108 0.7647, 2.9488 -0.4142 0.7592, 2.9488 -0.4142 0.7636, 2.9488 -0.4251 0.76, 2.9488 -0.4902 0.5935, 2.9488 -0.4871 0.621, 2.9488 -0.4937 0.588, 2.9488 -0.4957 0.5819, 2.9488 -0.4502 0.6319, 2.9488 -0.4559 0.6325, 2.9488 -0.4648 0.6052, 2.9488 -0.4853 0.598, 2.9488 -0.4785 0.6017, 2.9488 -0.4756 0.6282, 2.9488 -0.4652 0.6316, 2.9488 -0.4438 0.6451, 2.9488 -0.4368 0.6429, 2.9488 -0.4366 0.5633, 2.9488 -0.437 0.5633, 2.9488 -0.4366 0.5486, 2.9488 -0.441 0.5577, 2.9488 -0.4464 0.5525, 2.9488 -0.4826 0.5499, 2.9488 -0.4883 0.5539, 2.9488 -0.5024 0.5475, 2.9488 -0.4901 0.5557, 2.9488 -0.4936 0.5608, 2.9488 -0.4313 0.6396, 2.9488 -0.4269 0.6353, 2.9488 -0.4236 0.6298, 2.9488 -0.4956 0.5665, 2.9488 -0.4965 0.5741, 2.9488 -0.4871 0.6372, 2.9488 -0.4837 0.6392, 2.9488 -0.4713 0.644, 2.9488 -0.4543 0.6461, 2.9488 -0.4366 0.6092, 2.9488 -0.4372 0.6166, 2.9488 -0.4389 0.6225, 2.9488 -0.4409 0.626, 2.9488 -0.421 0.6219, 2.9488 -0.4199 0.6099, 2.9488 -0.4199 0.5486, 2.9488 -0.4434 0.6287, 2.9488 -0.4464 0.6306, 2.9488 -0.4569 0.5475, 2.9488 -0.4569 0.5475, 2.9488 -0.4142 0.4946, 2.9488 -0.5024 0.4946, 2.9488 -0.4662 0.5463, 2.9488 -0.4759 0.5475, 2.9488 -0.4762 0.5475, 2.9488 -0.2974 0.5475, 2.9488 -0.2974 0.5758, 2.9488 -0.3242 0.6439, 2.9488 -0.3055 0.6439, 2.9488 -0.2868 0.5488, 2.9488 -0.2873 0.5475, 2.9488 -0.2941 0.5315, 2.9488 -0.3285 0.4946, 2.9488 -0.3207 0.5051, 2.9488 -0.3207 0.5199, 2.9488 -0.3006 0.5219, 2.9488 -0.2974 0.5254, 2.9488 -0.2974 0.5255, 2.9488 -0.3714 0.5463, 2.9488 -0.3895 0.4946, 2.9488 -0.3173 0.5188, 2.9488 -0.3112 0.518, 2.9488 -0.2974 0.5067, 2.9488 -0.3032 0.5045, 2.9488 -0.2974 0.4946, 2.9488 -0.3099 0.5037, 2.9488 -0.3136 0.5038, 2.9488 -0.307 0.5185, 2.9488 -0.3033 0.52, 2.9488 -0.2759 0.5342, 2.9488 -0.2835 0.5195, 2.9488 -0.1724 0.4946, 2.9488 -0.2707 0.5475, 2.9488 -0.2896 0.5121, 2.9488 -0.2907 0.5111, 2.9488 -0.2966 0.507, 2.9488 -0.1303 0.4946, 2.9488 -0.1724 -1.1417, 2.9488 -0.2974 -1.1417, 2.9488 -0.3285 -1.1417, 2.9488 -0.3895 -1.1417, 2.9488 -0.4142 -1.1417, 2.9488 -0.5024 -1.1417, 2.9488 -0.4503 0.55, 2.9488 0.7374 0.5475, 2.9488 -0.0053 0.5475, 2.9488 -0.5842 0.682, 2.9488 -0.5842 0.5486, 2.9488 -0.5104 0.5475, 2.9488 -0.5104 0.4946, 2.9488 -0.5104 -1.1417, 2.9488 -0.5155 0.682, 2.9488 -0.5104 0.7201, 2.9488 -0.5155 0.6667, 2.9488 -0.5125 0.5638, 2.9488 -0.5125 0.5486, 2.9488 -0.567 0.6087, 2.9488 -0.567 0.5638, 2.9488 -0.5193 0.6087, 2.9488 -0.5193 0.624, 2.9488 -0.567 0.624, 2.9488 -0.567 0.6667, 2.9488 -0.1177 0.5486, 2.9488 -0.0127 0.5929, 2.9488 -0.0192 0.5791, 2.9488 -0.0291 0.5673, 2.9488 -0.0162 0.6481, 2.9488 -0.0112 0.6354, 2.9488 -0.0053 0.7201, 2.9488 -0.009 0.617, 2.9488 -0.0094 0.6085, 2.9488 -0.0431 0.5573, 2.9488 -0.0583 0.5514, 2.9488 -0.081 0.5486, 2.9488 -0.1177 0.682, 2.9488 -0.0796 0.682, 2.9488 -0.0592 0.6798, 2.9488 -0.0431 0.6739, 2.9488 -0.0291 0.6644, 2.9488 -0.0244 0.6598, 2.9488 0.0174 0.5486, 2.9488 -0.0016 0.5486, 2.9488 0.0994 0.5486, 2.9488 0.0858 0.5851, 2.9488 0.0302 0.5851, 2.9488 0.0492 0.682, 2.9488 0.0676 0.682, 2.9488 -0.5842 0.7603, 2.9488 -0.5842 0.8938, 2.9488 -0.5139 0.7603, 2.9488 -0.1833 0.8599, 2.9488 -0.1784 0.8471, 2.9488 -0.1761 0.8287, 2.9488 -0.1765 0.8202, 2.9488 -0.1798 0.8046, 2.9488 -0.1863 0.7908, 2.9488 -0.1963 0.779, 2.9488 -0.2102 0.769, 2.9488 -0.2467 0.8938, 2.9488 -0.2263 0.8915, 2.9488 -0.2102 0.8856, 2.9488 -0.2254 0.7631, 2.9488 -0.2481 0.7603, 2.9488 -0.2848 0.7603, 2.9488 -0.2848 0.8938, 2.9488 -0.1963 0.8761, 2.9488 -0.1916 0.8715, 2.9488 0.1185 0.5486, 2.9488 0.7374 0.7201, 2.9488 0.7374 0.7592, 2.9488 0.7374 0.8949, 2.9488 1.3563 0.5475, 2.9488 1.3563 0.7201, 2.9488 1.3563 0.7592, 2.9488 1.3563 0.8949, 2.9488 -0.5104 1.1417, 2.9488 1.3563 1.1417, 2.9488 0.7374 1.1417, 2.9488 -0.0053 1.1417, 2.9488 -0.1303 1.1417, 2.9488 -0.1724 1.1417, 2.9488 -0.2974 1.1417, 2.9488 -0.3285 1.1417, 2.9488 -0.3895 1.1417, -0.2402 1.1387 1.1417, -0.2402 1.3563 1.1417, -0.752 1.3563 1.1417, -2.9567 -1.498 1.1417, -2.3661 -1.498 1.1417, -2.9567 1.3563 1.1417, -2.3661 -0.1988 1.1417, 2.3583 -0.1988 1.1417, -2.2087 1.3563 1.1417, -2.2087 1.1387 1.1417, -1.7362 1.1387 1.1417, -1.8937 -0.1988 1.1417, -1.2244 1.3563 1.1417, -1.7362 1.3563 1.1417, -1.2244 1.1387 1.1417, 1.7283 1.3563 1.1417, 1.2165 1.3563 1.1417, 1.7283 1.1387 1.1417, 1.2165 1.1387 1.1417, 2.2008 1.3563 1.1417, 2.2008 1.1387 1.1417, 1.2953 -1.498 1.1417, 1.8858 -1.498 1.1417, 1.2953 -0.7106 1.1417, 1.8858 -0.1988 1.1417, 0.7441 1.1387 1.1417, 2.3583 -1.498 1.1417, -0.752 1.1387 1.1417, 0.2323 1.1387 1.1417, 0.2323 1.3563 1.1417, 0.7441 1.3563 1.1417, -1.8937 -1.498 1.1417, -1.3031 -1.498 1.1417, -1.3031 -0.7106 1.1417, -2.3661 -1.498 0.9252, -2.7402 -1.498 0.9252, -2.7402 -1.498 -0.9252, -2.9567 -1.498 -1.1417, 2.7323 -1.498 -0.9252, 2.7323 -1.498 0.9252, 2.3583 -1.498 0.9252, 0.2323 1.3563 -0.748, 0.7441 1.3563 -0.748, -0.752 1.3563 -0.748, -0.2402 1.3563 -0.748, -1.7362 1.3563 -0.748, -1.2244 1.3563 -0.748, -2.9567 1.3563 -0.748, -2.2087 1.3563 -0.748, 1.2165 1.3563 -0.748, 1.7283 1.3563 -0.748, -2.9567 0.7854 -1.1417, -2.9567 0.7854 -0.748, 1.8858 -1.498 0.9252, -1.8937 -1.498 0.9252, 2.2008 1.3563 -0.748, -2.622 0.2736 0.8071, -2.622 -1.3799 0.8071, -2.622 0.2736 -0.4469, -2.622 -1.3799 -0.8071, -2.622 0.2736 -0.8071, 2.6142 -1.3799 0.8071, 2.3583 -1.3799 0.8071, 2.6142 0.2736 0.8071, 2.3583 -0.1988 0.8071, 0.4882 0.2736 0.8071, 1.8858 -0.1988 0.8071, 1.8858 -1.3799 0.8071, -2.3661 -1.3799 0.8071, -2.3661 -0.1988 0.8071, -1.8937 -0.1988 0.8071, -1.8937 -1.3799 0.8071, 2.6142 0.2736 -0.8071, 2.6142 -1.3799 -0.8071, 2.6142 0.2736 -0.4469, 0.4882 0.2736 -0.8071, -0.1299 0.2736 0.1654, 0.122 0.2736 0.1654, 0.4882 0.2736 -0.4469, 0.122 0.2736 -0.0866, -0.1299 0.2736 -0.0866, -1.8465 0.2736 -0.0866, -2.0984 0.2736 -0.0866, -2.0984 0.2736 0.1654, -1.8465 0.2736 0.1654, -0.8622 0.2736 0.1654, -1.1142 0.2736 0.1654, -1.1142 0.2736 -0.0866, -0.8622 0.2736 -0.0866, 1.8386 0.2736 0.1654, 2.0906 0.2736 0.1654, 2.0906 0.2736 -0.0866, 1.8386 0.2736 -0.0866, 1.1063 0.2736 0.1654, 0.8543 0.2736 0.1654, 0.8543 0.2736 -0.0866, 1.1063 0.2736 -0.0866, 1.7283 1.2776 -0.3543, 1.7283 1.2081 -0.748, 1.7283 1.2776 0.3543, 2.2008 1.2081 -0.748, 2.2008 1.2776 -0.3543, 2.2008 1.2776 0.3543, 1.8386 1.2776 0.1613, 2.0906 1.2776 0.1613, 2.0906 1.2776 -0.1085, 1.8386 1.2776 -0.1085, -2.2087 1.2776 -0.3543, -2.2087 1.2081 -0.748, -2.2087 1.2776 0.3543, -1.7362 1.2081 -0.748, -1.7362 1.2776 -0.3543, -1.7362 1.2776 0.3543, -2.0984 1.2776 0.1613, -1.8465 1.2776 0.1613, -1.8465 1.2776 -0.1085, -2.0984 1.2776 -0.1085, -1.2244 1.2776 -0.3543, -1.2244 1.2081 -0.748, -1.2244 1.2776 0.3543, -0.752 1.2081 -0.748, -0.752 1.2776 -0.3543, -0.752 1.2776 0.3543, -1.1142 1.2776 0.1613, -0.8622 1.2776 0.1613, -0.8622 1.2776 -0.1085, -1.1142 1.2776 -0.1085, -0.2402 1.2776 -0.3543, -0.2402 1.2081 -0.748, -0.2402 1.2776 0.3543, 0.2323 1.2081 -0.748, 0.2323 1.2776 -0.3543, 0.2323 1.2776 0.3543, -0.1299 1.2776 0.1613, 0.122 1.2776 0.1613, 0.122 1.2776 -0.1085, -0.1299 1.2776 -0.1085, 0.7441 1.2776 -0.3543, 0.7441 1.2081 -0.748, 0.7441 1.2776 0.3543, 1.2165 1.2081 -0.748, 1.2165 1.2776 -0.3543, 1.2165 1.2776 0.3543, 0.8543 1.2776 0.1613, 1.1063 1.2776 0.1613, 1.1063 1.2776 -0.1085, 0.8543 1.2776 -0.1085, 0.8543 1.2776 -0.1085
            ]
        }
        coordIndex [
            0,1,2,-1,3,4,5,-1,6,7,8,-1,9,10,11,-1,12,13,14,-1,15,16,17,-1,17,16,18,-1,19,20,17,-1,17,20,21,-1,17,21,22,-1,22,23,17,-1,17,23,24,-1,17,24,15,-1,25,26,27,-1,25,27,28,-1,28,27,29,-1,28,29,30,-1,30,29,31,-1,31,29,32,-1,31,32,33,-1,34,35,32,-1,32,35,36,-1,32,36,37,-1,32,38,33,-1,33,38,39,-1,33,39,40,-1,40,39,41,-1,40,41,42,-1,37,43,32,-1,32,43,44,-1,32,44,38,-1,45,46,47,-1,45,47,48,-1,46,49,47,-1,47,49,50,-1,47,50,51,-1,51,50,52,-1,52,53,51,-1,51,53,54,-1,51,54,34,-1,34,54,55,-1,34,55,35,-1,56,48,57,-1,57,48,47,-1,57,47,58,-1,58,47,59,-1,58,59,60,-1,60,59,61,-1,62,63,64,-1,65,66,59,-1,59,66,67,-1,59,67,61,-1,64,68,62,-1,62,68,69,-1,62,69,65,-1,65,69,70,-1,65,70,66,-1,71,72,63,-1,63,72,73,-1,63,73,74,-1,74,75,63,-1,63,75,76,-1,63,76,64,-1,77,78,79,-1,80,81,82,-1,83,84,71,-1,85,86,87,-1,87,86,88,-1,80,82,89,-1,83,71,90,-1,91,92,86,-1,86,92,93,-1,86,93,94,-1,79,78,71,-1,71,78,95,-1,71,95,90,-1,81,96,82,-1,82,96,97,-1,82,97,98,-1,99,100,101,-1,101,100,102,-1,101,102,103,-1,104,94,105,-1,105,94,106,-1,105,106,101,-1,101,106,107,-1,101,107,99,-1,104,108,94,-1,94,108,109,-1,94,109,86,-1,86,109,110,-1,86,110,88,-1,111,112,113,-1,113,112,114,-1,113,114,82,-1,82,114,115,-1,82,115,89,-1,116,117,82,-1,82,117,118,-1,82,118,86,-1,86,118,119,-1,86,119,91,-1,120,121,72,-1,72,121,122,-1,72,122,123,-1,123,124,72,-1,72,124,125,-1,72,125,126,-1,126,125,111,-1,126,111,127,-1,127,111,113,-1,84,128,71,-1,71,128,129,-1,71,129,72,-1,72,129,130,-1,72,130,120,-1,98,131,82,-1,82,131,132,-1,82,132,133,-1,133,134,82,-1,82,134,135,-1,82,135,116,-1,136,137,138,-1,138,94,136,-1,136,94,93,-1,136,93,139,-1,139,93,140,-1,140,141,139,-1,139,141,142,-1,139,142,143,-1,144,145,146,-1,145,147,146,-1,146,147,148,-1,146,148,149,-1,150,146,151,-1,137,136,150,-1,150,136,152,-1,150,152,146,-1,146,152,153,-1,146,153,144,-1,151,154,150,-1,150,154,155,-1,150,155,156,-1,149,148,157,-1,157,148,158,-1,157,158,159,-1,159,158,160,-1,159,160,161,-1,162,163,156,-1,156,163,164,-1,156,164,150,-1,16,165,18,-1,18,165,166,-1,18,166,79,-1,79,166,167,-1,79,167,77,-1,14,13,168,-1,168,13,169,-1,168,169,170,-1,171,172,173,-1,174,175,176,-1,176,175,177,-1,176,177,170,-1,178,179,180,-1,180,179,181,-1,180,181,172,-1,172,181,182,-1,172,182,173,-1,173,182,183,-1,173,183,184,-1,184,183,185,-1,184,185,186,-1,187,188,189,-1,190,191,192,-1,192,191,193,-1,192,193,194,-1,194,193,187,-1,194,187,195,-1,195,187,189,-1,196,197,198,-1,199,200,201,-1,202,203,196,-1,203,204,196,-1,196,204,205,-1,196,205,197,-1,197,205,206,-1,199,201,196,-1,196,201,207,-1,196,207,202,-1,208,209,210,-1,210,209,211,-1,210,211,198,-1,198,211,212,-1,198,212,196,-1,213,214,11,-1,215,216,217,-1,206,218,197,-1,197,218,219,-1,197,219,217,-1,217,219,220,-1,217,220,215,-1,221,222,11,-1,11,222,223,-1,216,224,217,-1,217,224,225,-1,217,225,226,-1,226,225,227,-1,226,227,213,-1,228,229,214,-1,214,229,230,-1,214,230,11,-1,11,230,231,-1,11,231,221,-1,223,232,11,-1,11,232,233,-1,11,233,9,-1,234,235,236,-1,236,235,237,-1,236,237,238,-1,236,239,234,-1,234,239,240,-1,234,240,241,-1,241,242,234,-1,234,242,243,-1,234,243,244,-1,244,243,245,-1,244,245,246,-1,246,245,247,-1,246,247,214,-1,214,247,248,-1,214,248,228,-1,249,250,238,-1,238,250,251,-1,238,251,236,-1,252,253,200,-1,200,253,254,-1,200,254,201,-1,252,255,253,-1,253,255,256,-1,253,256,257,-1,257,256,258,-1,257,259,260,-1,258,261,257,-1,257,261,262,-1,257,262,263,-1,263,264,257,-1,257,264,265,-1,257,265,259,-1,260,266,257,-1,257,266,267,-1,257,267,268,-1,269,270,271,-1,272,273,271,-1,271,273,274,-1,271,274,269,-1,270,269,275,-1,275,269,276,-1,275,276,277,-1,273,278,274,-1,274,278,279,-1,274,279,280,-1,280,279,281,-1,280,281,282,-1,282,281,283,-1,282,283,277,-1,277,283,284,-1,277,284,275,-1,285,286,287,-1,285,287,288,-1,288,287,289,-1,288,289,290,-1,291,290,292,-1,292,290,289,-1,292,289,293,-1,293,289,294,-1,293,294,295,-1,295,294,296,-1,297,298,299,-1,300,301,302,-1,302,301,303,-1,302,303,291,-1,291,303,304,-1,291,304,290,-1,290,304,305,-1,290,305,299,-1,299,305,306,-1,299,306,297,-1,286,285,307,-1,307,285,308,-1,307,308,297,-1,309,6,310,-1,310,6,311,-1,310,311,4,-1,312,313,314,-1,297,308,298,-1,298,308,315,-1,298,315,316,-1,316,315,317,-1,316,317,314,-1,314,317,318,-1,314,318,312,-1,313,319,314,-1,314,319,320,-1,314,320,321,-1,322,323,324,-1,321,325,314,-1,314,325,326,-1,314,326,327,-1,327,326,328,-1,328,326,324,-1,324,326,329,-1,324,329,322,-1,323,330,324,-1,324,330,331,-1,324,331,332,-1,332,333,324,-1,324,333,334,-1,324,334,335,-1,335,334,336,-1,337,338,339,-1,339,338,340,-1,339,340,308,-1,308,340,341,-1,308,341,315,-1,342,343,344,-1,344,343,345,-1,346,347,348,-1,348,349,346,-1,346,349,350,-1,346,350,351,-1,352,353,346,-1,346,353,354,-1,346,354,347,-1,355,356,357,-1,357,356,358,-1,357,358,352,-1,352,358,359,-1,352,359,353,-1,360,361,362,-1,362,361,363,-1,363,364,362,-1,362,364,365,-1,362,365,355,-1,360,362,366,-1,366,362,367,-1,366,367,368,-1,368,367,369,-1,369,367,197,-1,369,197,370,-1,316,371,298,-1,298,371,372,-1,298,372,373,-1,373,372,374,-1,373,374,375,-1,376,377,378,-1,378,377,379,-1,380,381,382,-1,376,383,377,-1,377,383,384,-1,377,384,385,-1,385,384,382,-1,385,382,386,-1,386,382,381,-1,387,388,197,-1,389,390,391,-1,391,390,392,-1,391,392,393,-1,394,395,396,-1,396,395,397,-1,396,397,398,-1,388,399,197,-1,197,399,400,-1,197,400,401,-1,398,402,396,-1,396,402,403,-1,396,403,367,-1,367,403,379,-1,367,379,404,-1,404,379,377,-1,404,405,367,-1,367,405,406,-1,367,406,197,-1,197,406,407,-1,197,407,387,-1,408,409,382,-1,382,409,410,-1,382,410,411,-1,401,412,197,-1,197,412,413,-1,197,413,198,-1,198,413,414,-1,198,414,391,-1,411,415,382,-1,382,415,416,-1,382,416,380,-1,417,418,419,-1,419,418,420,-1,418,421,420,-1,420,421,422,-1,420,422,396,-1,396,422,423,-1,396,423,394,-1,424,425,11,-1,11,425,426,-1,213,11,226,-1,226,11,426,-1,226,426,191,-1,191,426,427,-1,191,427,193,-1,428,425,429,-1,429,425,424,-1,429,424,430,-1,431,432,433,-1,434,435,424,-1,424,435,436,-1,424,436,430,-1,437,438,10,-1,10,438,431,-1,10,431,11,-1,11,431,433,-1,11,433,424,-1,424,433,439,-1,424,439,440,-1,441,442,443,-1,443,442,444,-1,443,444,431,-1,431,444,445,-1,431,445,432,-1,440,446,424,-1,424,446,447,-1,424,447,434,-1,448,449,450,-1,448,450,451,-1,449,452,450,-1,450,452,453,-1,450,453,443,-1,443,453,454,-1,443,454,441,-1,3,455,456,-1,456,455,450,-1,456,450,457,-1,457,450,443,-1,457,443,458,-1,458,443,431,-1,458,431,459,-1,459,431,438,-1,459,438,460,-1,460,438,419,-1,460,419,461,-1,461,419,420,-1,437,208,438,-1,438,208,210,-1,438,210,419,-1,419,210,198,-1,419,198,417,-1,417,198,391,-1,417,391,462,-1,462,391,393,-1,455,173,450,-1,450,173,184,-1,450,184,451,-1,451,184,186,-1,451,186,190,-1,190,186,12,-1,190,12,191,-1,191,12,14,-1,4,311,5,-1,5,311,463,-1,5,463,464,-1,465,79,466,-1,466,79,71,-1,466,71,467,-1,467,71,63,-1,467,63,468,-1,468,63,62,-1,468,62,469,-1,465,470,471,-1,470,472,471,-1,471,472,473,-1,471,473,467,-1,467,473,474,-1,467,474,466,-1,475,476,477,-1,477,476,473,-1,477,473,478,-1,478,473,472,-1,478,472,479,-1,479,472,480,-1,177,171,170,-1,170,171,173,-1,170,173,168,-1,168,173,481,-1,482,483,464,-1,464,483,484,-1,485,486,487,-1,487,486,488,-1,487,488,464,-1,464,488,489,-1,464,489,482,-1,484,490,464,-1,464,490,491,-1,464,491,492,-1,3,5,455,-1,455,5,464,-1,455,464,173,-1,173,464,492,-1,173,492,481,-1,481,493,168,-1,168,493,494,-1,168,494,487,-1,487,494,495,-1,487,495,496,-1,496,497,487,-1,487,497,498,-1,487,498,485,-1,499,500,464,-1,501,502,503,-1,464,500,487,-1,487,500,504,-1,487,504,505,-1,355,357,362,-1,362,357,471,-1,362,471,367,-1,367,471,467,-1,367,467,396,-1,396,467,468,-1,396,468,420,-1,420,468,469,-1,420,469,461,-1,487,269,168,-1,168,269,274,-1,168,274,14,-1,14,274,280,-1,14,280,191,-1,191,280,290,-1,191,290,226,-1,226,290,299,-1,226,299,217,-1,217,299,298,-1,217,298,197,-1,197,298,373,-1,197,373,370,-1,370,373,375,-1,465,471,79,-1,79,471,357,-1,79,357,18,-1,18,357,506,-1,18,506,17,-1,506,507,17,-1,17,507,0,-1,17,0,352,-1,352,0,2,-1,352,2,357,-1,357,2,508,-1,357,508,506,-1,509,510,282,-1,282,510,511,-1,282,511,280,-1,280,511,512,-1,280,512,513,-1,513,514,280,-1,280,514,515,-1,280,515,516,-1,288,517,282,-1,282,517,518,-1,282,518,519,-1,516,520,280,-1,280,520,521,-1,280,521,290,-1,290,521,522,-1,290,522,288,-1,288,522,523,-1,288,523,517,-1,519,524,282,-1,282,524,525,-1,282,525,509,-1,503,499,501,-1,501,499,464,-1,501,464,526,-1,526,464,463,-1,526,463,505,-1,505,463,527,-1,505,527,487,-1,487,527,528,-1,487,528,269,-1,269,528,529,-1,269,529,276,-1,6,8,311,-1,311,8,530,-1,311,530,463,-1,463,530,531,-1,463,531,527,-1,527,531,532,-1,527,532,528,-1,528,532,533,-1,528,533,529,-1,351,344,346,-1,346,344,345,-1,346,345,352,-1,352,345,534,-1,352,534,17,-1,17,534,27,-1,17,27,19,-1,19,27,26,-1,533,535,529,-1,529,535,536,-1,529,536,276,-1,276,536,537,-1,276,537,277,-1,277,537,538,-1,277,538,282,-1,282,538,539,-1,282,539,288,-1,288,539,540,-1,288,540,285,-1,285,540,541,-1,285,541,308,-1,308,541,542,-1,308,542,339,-1,339,542,343,-1,339,343,337,-1,337,343,342,-1,543,544,545,-1,546,547,548,-1,548,547,549,-1,540,539,550,-1,551,548,552,-1,552,548,549,-1,552,549,553,-1,553,549,554,-1,555,556,557,-1,557,556,553,-1,558,559,560,-1,560,559,561,-1,535,562,536,-1,536,562,563,-1,536,563,537,-1,537,563,550,-1,537,550,538,-1,538,550,539,-1,564,565,566,-1,566,565,567,-1,563,560,550,-1,550,560,561,-1,550,561,567,-1,567,561,568,-1,569,29,550,-1,550,29,27,-1,27,534,550,-1,550,534,345,-1,550,345,343,-1,343,542,550,-1,550,542,541,-1,550,541,540,-1,545,570,543,-1,543,570,566,-1,543,566,571,-1,571,566,567,-1,571,567,572,-1,572,567,568,-1,572,568,573,-1,574,575,554,-1,554,575,576,-1,554,576,553,-1,553,576,566,-1,553,566,557,-1,557,566,570,-1,577,547,578,-1,578,547,546,-1,578,546,579,-1,579,546,580,-1,579,580,581,-1,581,580,65,-1,581,65,582,-1,582,65,59,-1,59,47,582,-1,582,47,51,-1,582,51,34,-1,569,583,29,-1,29,583,582,-1,29,582,32,-1,32,582,34,-1,584,572,585,-1,585,572,573,-1,586,545,587,-1,587,545,544,-1,588,556,589,-1,589,556,555,-1,590,548,591,-1,591,548,551,-1,592,559,593,-1,593,559,558,-1,594,580,595,-1,595,580,546,-1,595,546,590,-1,590,546,548,-1,596,565,564,-1,596,564,597,-1,597,564,575,-1,597,575,574,-1,535,533,562,-1,562,533,532,-1,562,532,531,-1,7,598,8,-1,8,598,562,-1,8,562,530,-1,530,562,531,-1,62,65,580,-1,594,309,310,-1,310,4,594,-1,594,4,3,-1,594,3,456,-1,460,580,459,-1,459,580,594,-1,460,461,580,-1,580,461,469,-1,580,469,62,-1,456,457,594,-1,594,457,458,-1,594,458,459,-1,599,600,601,-1,601,600,602,-1,601,602,603,-1,604,605,606,-1,606,605,607,-1,606,607,608,-1,608,607,609,-1,608,609,610,-1,611,600,612,-1,612,600,599,-1,612,599,613,-1,613,599,608,-1,613,608,614,-1,614,608,610,-1,615,616,617,-1,617,616,604,-1,617,604,606,-1,603,602,618,-1,618,602,616,-1,618,616,615,-1,619,620,608,-1,608,620,621,-1,621,620,622,-1,621,622,623,-1,624,625,601,-1,601,625,599,-1,599,625,626,-1,599,626,627,-1,628,599,629,-1,629,599,627,-1,629,627,630,-1,608,599,619,-1,619,599,628,-1,619,628,623,-1,623,628,631,-1,623,631,621,-1,621,631,630,-1,621,630,624,-1,624,630,627,-1,624,601,621,-1,621,601,603,-1,621,603,618,-1,632,633,606,-1,606,633,617,-1,617,633,634,-1,617,634,635,-1,635,632,636,-1,636,632,606,-1,636,606,637,-1,637,606,608,-1,637,608,638,-1,638,608,621,-1,638,621,639,-1,636,639,635,-1,635,639,621,-1,635,621,617,-1,617,621,618,-1,617,618,615,-1,640,641,593,-1,640,593,642,-1,642,593,558,-1,642,558,560,-1,643,644,598,-1,598,644,645,-1,598,645,562,-1,562,645,563,-1,646,642,647,-1,647,642,645,-1,647,645,648,-1,648,645,644,-1,648,644,649,-1,649,644,640,-1,649,640,646,-1,646,640,642,-1,640,644,641,-1,641,644,643,-1,563,645,560,-1,560,645,642,-1,650,651,591,-1,650,591,652,-1,652,591,551,-1,652,551,552,-1,653,654,588,-1,588,654,655,-1,588,655,556,-1,556,655,553,-1,656,652,657,-1,657,652,655,-1,657,655,658,-1,658,655,654,-1,658,654,659,-1,659,654,650,-1,659,650,656,-1,656,650,652,-1,660,661,589,-1,660,589,662,-1,662,589,555,-1,662,555,557,-1,663,664,586,-1,586,664,665,-1,586,665,545,-1,545,665,570,-1,666,662,667,-1,667,662,665,-1,667,665,668,-1,668,665,664,-1,668,664,669,-1,669,664,660,-1,669,660,666,-1,666,660,662,-1,670,671,587,-1,670,587,672,-1,672,587,544,-1,672,544,543,-1,673,674,584,-1,584,674,675,-1,584,675,572,-1,572,675,571,-1,676,672,677,-1,677,672,675,-1,677,675,678,-1,678,675,674,-1,678,674,679,-1,679,674,670,-1,679,670,676,-1,676,670,672,-1,680,681,585,-1,680,585,682,-1,682,585,573,-1,682,573,568,-1,683,684,592,-1,592,684,685,-1,592,685,559,-1,559,685,561,-1,686,682,687,-1,687,682,685,-1,687,685,688,-1,688,685,684,-1,688,684,689,-1,689,684,680,-1,689,680,686,-1,686,680,682,-1,680,684,681,-1,681,684,683,-1,561,685,568,-1,568,685,682,-1,670,674,671,-1,671,674,673,-1,571,675,543,-1,543,675,672,-1,660,664,661,-1,661,664,663,-1,570,665,557,-1,557,665,662,-1,650,654,651,-1,651,654,653,-1,553,655,552,-1,552,655,652,-1,595,590,591,-1,598,7,643,-1,643,7,6,-1,643,6,641,-1,591,651,595,-1,595,651,653,-1,595,653,6,-1,663,586,587,-1,671,673,6,-1,587,671,663,-1,663,671,6,-1,663,6,661,-1,661,6,653,-1,661,653,589,-1,589,653,588,-1,683,592,593,-1,584,585,673,-1,673,585,681,-1,673,681,6,-1,6,681,683,-1,6,683,641,-1,641,683,593,-1,594,595,309,-1,309,595,6,-1,
        ]
    }
}
Shape{
    appearance Appearance {
        material  Material 	{
            diffuseColor 0.7529411764705882 0.7529411764705882 0.7529411764705882
            specularColor 0.3764705882352941 0.3764705882352941 0.3764705882352941
            ambientIntensity 0.2
            transparency 0
            shininess 0.5
        }
    }
    geometry IndexedFaceSet {
        ccw TRUE
        solid FALSE
        coord DEF co Coordinate {
            point [
                -0.1299 1.5492 -2.2835, -0.1299 1.5492 -0.1575, 0.122 1.5492 -2.2835, 0.122 1.5492 -0.1575, 0.0504 1.4776 -2.4803, 0.0504 1.3689 -2.4803, -0.0583 1.4776 -2.4803, -0.0583 1.3689 -2.4803, 0.122 1.2972 -2.2835, 0.122 1.2972 -0.1575, -0.1299 1.2972 -2.2835, -0.1299 1.2972 -0.1575, -0.1299 1.5403 -0.0822, -0.1299 1.295 -0.1396, -0.1299 1.5141 -0.0111, -0.1299 1.2883 -0.1229, -0.1299 1.4721 0.0519, -0.1299 1.2776 -0.1085, -0.1299 1.2776 0.1613, -0.1299 1.3505 0.1406, -0.1299 1.4165 0.1034, 0.122 1.3505 0.1406, 0.122 1.2776 0.1613, 0.122 1.2776 -0.1085, 0.122 1.4165 0.1034, 0.122 1.295 -0.1396, 0.122 1.5403 -0.0822, 0.122 1.2883 -0.1229, 0.122 1.5141 -0.0111, 0.122 1.4721 0.0519, -0.1299 -0.8209 0.1654, -0.1299 0.2736 0.1654, -0.1299 -0.8209 -0.0866, -0.1299 0.2736 -0.0866, 0.122 -0.8209 -0.0866, 0.122 0.2736 -0.0866, 0.122 -0.8209 0.1654, 0.122 0.2736 0.1654, 0.0504 -1.0177 -0.015, 0.0504 -1.0177 0.0937, -0.0583 -1.0177 -0.015, -0.0583 -1.0177 0.0937, -1.1142 1.5492 -2.2835, -1.1142 1.5492 -0.1575, -0.8622 1.5492 -2.2835, -0.8622 1.5492 -0.1575, -0.9339 1.4776 -2.4803, -0.9339 1.3689 -2.4803, -1.0425 1.4776 -2.4803, -1.0425 1.3689 -2.4803, -0.8622 1.2972 -2.2835, -0.8622 1.2972 -0.1575, -1.1142 1.2972 -2.2835, -1.1142 1.2972 -0.1575, -1.1142 1.2776 -0.1085, -1.1142 1.2776 0.1613, -1.1142 1.3505 0.1406, -1.1142 1.5403 -0.0822, -1.1142 1.295 -0.1396, -1.1142 1.5141 -0.0111, -1.1142 1.2883 -0.1229, -1.1142 1.4721 0.0519, -1.1142 1.4165 0.1034, -0.8622 1.4721 0.0519, -0.8622 1.2776 -0.1085, -0.8622 1.2883 -0.1229, -0.8622 1.4165 0.1034, -0.8622 1.3505 0.1406, -0.8622 1.2776 0.1613, -0.8622 1.295 -0.1396, -0.8622 1.5403 -0.0822, -0.8622 1.5141 -0.0111, -1.1142 -0.8209 0.1654, -1.1142 0.2736 0.1654, -1.1142 -0.8209 -0.0866, -1.1142 0.2736 -0.0866, -0.8622 -0.8209 -0.0866, -0.8622 0.2736 -0.0866, -0.8622 -0.8209 0.1654, -0.8622 0.2736 0.1654, -0.9339 -1.0177 -0.015, -0.9339 -1.0177 0.0937, -1.0425 -1.0177 -0.015, -1.0425 -1.0177 0.0937, -2.0984 1.5492 -2.2835, -2.0984 1.5492 -0.1575, -1.8465 1.5492 -2.2835, -1.8465 1.5492 -0.1575, -1.9181 1.4776 -2.4803, -1.9181 1.3689 -2.4803, -2.0268 1.4776 -2.4803, -2.0268 1.3689 -2.4803, -1.8465 1.2972 -2.2835, -1.8465 1.2972 -0.1575, -2.0984 1.2972 -2.2835, -2.0984 1.2972 -0.1575, -2.0984 1.2776 -0.1085, -2.0984 1.2776 0.1613, -2.0984 1.3505 0.1406, -2.0984 1.5403 -0.0822, -2.0984 1.295 -0.1396, -2.0984 1.5141 -0.0111, -2.0984 1.2883 -0.1229, -2.0984 1.4721 0.0519, -2.0984 1.4165 0.1034, -1.8465 1.3505 0.1406, -1.8465 1.2776 0.1613, -1.8465 1.2776 -0.1085, -1.8465 1.295 -0.1396, -1.8465 1.5403 -0.0822, -1.8465 1.2883 -0.1229, -1.8465 1.5141 -0.0111, -1.8465 1.4721 0.0519, -1.8465 1.4165 0.1034, -2.0984 -0.8209 0.1654, -2.0984 0.2736 0.1654, -2.0984 -0.8209 -0.0866, -2.0984 0.2736 -0.0866, -1.8465 -0.8209 -0.0866, -1.8465 0.2736 -0.0866, -1.8465 -0.8209 0.1654, -1.8465 0.2736 0.1654, -1.9181 -1.0177 -0.015, -1.9181 -1.0177 0.0937, -2.0268 -1.0177 -0.015, -2.0268 -1.0177 0.0937, 0.8543 1.5492 -2.2835, 0.8543 1.5492 -0.1575, 1.1063 1.5492 -2.2835, 1.1063 1.5492 -0.1575, 1.0347 1.4776 -2.4803, 1.0347 1.3689 -2.4803, 0.926 1.4776 -2.4803, 0.926 1.3689 -2.4803, 1.1063 1.2972 -2.2835, 1.1063 1.2972 -0.1575, 0.8543 1.2972 -2.2835, 0.8543 1.2972 -0.1575, 0.8543 1.5403 -0.0822, 0.8543 1.295 -0.1396, 0.8543 1.5141 -0.0111, 0.8543 1.2883 -0.1229, 0.8543 1.4721 0.0519, 0.8543 1.2776 -0.1085, 0.8543 1.2776 0.1613, 0.8543 1.3505 0.1406, 0.8543 1.4165 0.1034, 1.1063 1.3505 0.1406, 1.1063 1.2776 0.1613, 1.1063 1.2776 -0.1085, 1.1063 1.4165 0.1034, 1.1063 1.295 -0.1396, 1.1063 1.5403 -0.0822, 1.1063 1.2883 -0.1229, 1.1063 1.5141 -0.0111, 1.1063 1.4721 0.0519, 0.8543 -0.8209 0.1654, 0.8543 0.2736 0.1654, 0.8543 -0.8209 -0.0866, 0.8543 0.2736 -0.0866, 1.1063 -0.8209 -0.0866, 1.1063 0.2736 -0.0866, 1.1063 -0.8209 0.1654, 1.1063 0.2736 0.1654, 1.0347 -1.0177 -0.015, 1.0347 -1.0177 0.0937, 0.926 -1.0177 -0.015, 0.926 -1.0177 0.0937, 1.8386 1.5492 -2.2835, 1.8386 1.5492 -0.1575, 2.0906 1.5492 -2.2835, 2.0906 1.5492 -0.1575, 2.0189 1.4776 -2.4803, 2.0189 1.3689 -2.4803, 1.9102 1.4776 -2.4803, 1.9102 1.3689 -2.4803, 2.0906 1.2972 -2.2835, 2.0906 1.2972 -0.1575, 1.8386 1.2972 -2.2835, 1.8386 1.2972 -0.1575, 1.8386 1.5403 -0.0822, 1.8386 1.295 -0.1396, 1.8386 1.5141 -0.0111, 1.8386 1.2883 -0.1229, 1.8386 1.4721 0.0519, 1.8386 1.2776 -0.1085, 1.8386 1.2776 0.1613, 1.8386 1.3505 0.1406, 1.8386 1.4165 0.1034, 2.0906 1.3505 0.1406, 2.0906 1.2776 0.1613, 2.0906 1.2776 -0.1085, 2.0906 1.4165 0.1034, 2.0906 1.295 -0.1396, 2.0906 1.5403 -0.0822, 2.0906 1.2883 -0.1229, 2.0906 1.5141 -0.0111, 2.0906 1.4721 0.0519, 1.8386 -0.8209 0.1654, 1.8386 0.2736 0.1654, 1.8386 -0.8209 -0.0866, 1.8386 0.2736 -0.0866, 2.0906 -0.8209 -0.0866, 2.0906 0.2736 -0.0866, 2.0906 -0.8209 0.1654, 2.0906 0.2736 0.1654, 2.0189 -1.0177 -0.015, 2.0189 -1.0177 0.0937, 1.9102 -1.0177 -0.015, 1.9102 -1.0177 0.0937, 1.9102 -1.0177 0.0937
            ]
        }
        coordIndex [
            0,1,2,-1,2,1,3,-1,4,5,6,-1,6,5,7,-1,8,9,10,-1,10,9,11,-1,0,10,1,-1,1,10,11,-1,1,11,12,-1,12,11,13,-1,12,13,14,-1,14,13,15,-1,14,15,16,-1,16,15,17,-1,18,19,17,-1,17,19,20,-1,17,20,16,-1,21,22,23,-1,21,23,24,-1,8,2,9,-1,9,2,3,-1,9,3,25,-1,25,3,26,-1,25,26,27,-1,27,26,28,-1,27,28,23,-1,23,28,29,-1,23,29,24,-1,18,22,21,-1,18,21,19,-1,19,21,24,-1,19,24,20,-1,20,24,29,-1,20,29,16,-1,16,29,28,-1,16,28,14,-1,14,28,26,-1,14,26,12,-1,12,26,3,-1,12,3,1,-1,11,9,13,-1,13,9,25,-1,13,25,15,-1,15,25,27,-1,15,27,17,-1,17,27,23,-1,30,31,32,-1,32,31,33,-1,34,35,36,-1,36,35,37,-1,32,33,34,-1,34,33,35,-1,38,39,40,-1,40,39,41,-1,36,37,30,-1,30,37,31,-1,30,41,36,-1,36,41,39,-1,32,40,30,-1,30,40,41,-1,38,34,39,-1,39,34,36,-1,34,38,32,-1,32,38,40,-1,10,7,8,-1,8,7,5,-1,0,6,10,-1,10,6,7,-1,4,2,5,-1,5,2,8,-1,2,4,0,-1,0,4,6,-1,42,43,44,-1,44,43,45,-1,46,47,48,-1,48,47,49,-1,50,51,52,-1,52,51,53,-1,54,55,56,-1,42,52,43,-1,43,52,53,-1,43,53,57,-1,57,53,58,-1,57,58,59,-1,59,58,60,-1,59,60,61,-1,61,60,54,-1,61,54,62,-1,62,54,56,-1,63,64,65,-1,63,66,64,-1,64,66,67,-1,64,67,68,-1,50,44,51,-1,51,44,45,-1,51,45,69,-1,69,45,70,-1,69,70,65,-1,65,70,71,-1,65,71,63,-1,55,68,67,-1,55,67,56,-1,56,67,66,-1,56,66,62,-1,62,66,63,-1,62,63,61,-1,61,63,71,-1,61,71,59,-1,59,71,70,-1,59,70,57,-1,57,70,45,-1,57,45,43,-1,53,51,58,-1,58,51,69,-1,58,69,60,-1,60,69,65,-1,60,65,54,-1,54,65,64,-1,72,73,74,-1,74,73,75,-1,76,77,78,-1,78,77,79,-1,74,75,76,-1,76,75,77,-1,80,81,82,-1,82,81,83,-1,78,79,72,-1,72,79,73,-1,84,85,86,-1,86,85,87,-1,88,89,90,-1,90,89,91,-1,92,93,94,-1,94,93,95,-1,96,97,98,-1,84,94,85,-1,85,94,95,-1,85,95,99,-1,99,95,100,-1,99,100,101,-1,101,100,102,-1,101,102,103,-1,103,102,96,-1,103,96,104,-1,104,96,98,-1,105,106,107,-1,92,86,93,-1,93,86,87,-1,93,87,108,-1,108,87,109,-1,108,109,110,-1,109,111,110,-1,110,111,112,-1,110,112,107,-1,107,112,113,-1,107,113,105,-1,97,106,105,-1,97,105,98,-1,98,105,113,-1,98,113,104,-1,104,113,112,-1,104,112,103,-1,103,112,111,-1,103,111,101,-1,101,111,109,-1,101,109,99,-1,99,109,87,-1,99,87,85,-1,95,93,100,-1,100,93,108,-1,100,108,102,-1,102,108,110,-1,102,110,96,-1,96,110,107,-1,114,115,116,-1,116,115,117,-1,118,119,120,-1,120,119,121,-1,116,117,118,-1,118,117,119,-1,122,123,124,-1,124,123,125,-1,120,121,114,-1,114,121,115,-1,126,127,128,-1,128,127,129,-1,130,131,132,-1,132,131,133,-1,134,135,136,-1,136,135,137,-1,126,136,127,-1,127,136,137,-1,127,137,138,-1,138,137,139,-1,138,139,140,-1,140,139,141,-1,140,141,142,-1,142,141,143,-1,144,145,143,-1,143,145,146,-1,143,146,142,-1,147,148,149,-1,147,149,150,-1,134,128,135,-1,135,128,129,-1,135,129,151,-1,151,129,152,-1,151,152,153,-1,153,152,154,-1,153,154,149,-1,149,154,155,-1,149,155,150,-1,144,148,147,-1,144,147,145,-1,145,147,150,-1,145,150,146,-1,146,150,155,-1,146,155,142,-1,142,155,154,-1,142,154,140,-1,140,154,152,-1,140,152,138,-1,138,152,129,-1,138,129,127,-1,137,135,139,-1,139,135,151,-1,139,151,141,-1,141,151,153,-1,141,153,143,-1,143,153,149,-1,156,157,158,-1,158,157,159,-1,160,161,162,-1,162,161,163,-1,158,159,160,-1,160,159,161,-1,164,165,166,-1,166,165,167,-1,162,163,156,-1,156,163,157,-1,168,169,170,-1,170,169,171,-1,172,173,174,-1,174,173,175,-1,176,177,178,-1,178,177,179,-1,168,178,169,-1,169,178,179,-1,169,179,180,-1,180,179,181,-1,180,181,182,-1,182,181,183,-1,182,183,184,-1,184,183,185,-1,186,187,185,-1,185,187,188,-1,185,188,184,-1,189,190,191,-1,189,191,192,-1,176,170,177,-1,177,170,171,-1,177,171,193,-1,193,171,194,-1,193,194,195,-1,195,194,196,-1,195,196,191,-1,191,196,197,-1,191,197,192,-1,186,190,189,-1,186,189,187,-1,187,189,192,-1,187,192,188,-1,188,192,197,-1,188,197,184,-1,184,197,196,-1,184,196,182,-1,182,196,194,-1,182,194,180,-1,180,194,171,-1,180,171,169,-1,179,177,181,-1,181,177,193,-1,181,193,183,-1,183,193,195,-1,183,195,185,-1,185,195,191,-1,198,199,200,-1,200,199,201,-1,202,203,204,-1,204,203,205,-1,200,201,202,-1,202,201,203,-1,206,207,208,-1,208,207,209,-1,204,205,198,-1,198,205,199,-1,72,83,78,-1,78,83,81,-1,74,82,72,-1,72,82,83,-1,80,76,81,-1,81,76,78,-1,76,80,74,-1,74,80,82,-1,52,49,50,-1,50,49,47,-1,42,48,52,-1,52,48,49,-1,46,44,47,-1,47,44,50,-1,44,46,42,-1,42,46,48,-1,114,125,120,-1,120,125,123,-1,116,124,114,-1,114,124,125,-1,122,118,123,-1,123,118,120,-1,118,122,116,-1,116,122,124,-1,94,91,92,-1,92,91,89,-1,84,90,94,-1,94,90,91,-1,88,86,89,-1,89,86,92,-1,86,88,84,-1,84,88,90,-1,156,167,162,-1,162,167,165,-1,158,166,156,-1,156,166,167,-1,164,160,165,-1,165,160,162,-1,160,164,158,-1,158,164,166,-1,136,133,134,-1,134,133,131,-1,126,132,136,-1,136,132,133,-1,130,128,131,-1,131,128,134,-1,128,130,126,-1,126,130,132,-1,198,209,204,-1,204,209,207,-1,200,208,198,-1,198,208,209,-1,206,202,207,-1,207,202,204,-1,202,206,200,-1,200,206,208,-1,178,175,176,-1,176,175,173,-1,168,174,178,-1,178,174,175,-1,172,170,173,-1,173,170,176,-1,170,172,168,-1,168,172,174,-1,
        ]
    }
}
Shape{
    appearance Appearance {
        material  Material 	{
            diffuseColor 1.0 1.0 1.0
            specularColor 0.5019607843137255 0.5019607843137255 0.5019607843137255
            ambientIntensity 0.2
            transparency 0
            shininess 0.5
        }
    }
    geometry IndexedFaceSet {
        ccw TRUE
        solid FALSE
        coord DEF co Coordinate {
            point [
                1.8858 -1.3799 0.8071, 1.8858 -0.1988 0.8071, 1.8858 -1.498 0.9252, 1.8858 -0.1988 1.1417, 1.8858 -1.498 1.1417, 2.3583 -0.1988 1.1417, 2.3583 -0.1988 0.8071, 2.3583 -1.498 0.9252, 2.3583 -1.498 1.1417, 2.3583 -1.3799 0.8071, -2.3661 -1.3799 0.8071, -2.3661 -0.1988 0.8071, -2.3661 -1.498 0.9252, -2.3661 -0.1988 1.1417, -2.3661 -1.498 1.1417, -1.8937 -0.1988 1.1417, -1.8937 -0.1988 0.8071, -1.8937 -1.498 0.9252, -1.8937 -1.498 1.1417, -1.8937 -1.3799 0.8071, -1.3031 -0.7106 1.1417, -1.3031 -0.6713 1.3386, 1.2953 -0.7106 1.1417, 1.2953 -0.6713 1.3386, -1.3031 -0.8681 1.3386, 1.2953 -0.8681 1.3386, -1.3031 -1.498 1.1417, 1.2953 -1.498 1.1417, -2.7402 -1.498 0.9252, -2.622 -1.3799 0.8071, -2.7402 -1.498 -0.9252, -2.622 -1.3799 -0.8071, 2.7323 -1.498 -0.9252, 2.6142 -1.3799 -0.8071, 2.7323 -1.498 0.9252, 2.6142 -1.3799 0.8071, 2.6142 -1.3799 0.8071
            ]
        }
        coordIndex [
            0,1,2,-1,2,1,3,-1,2,3,4,-1,3,1,5,-1,5,1,6,-1,7,8,9,-1,9,8,5,-1,9,5,6,-1,10,11,12,-1,12,11,13,-1,12,13,14,-1,13,11,15,-1,15,11,16,-1,17,18,19,-1,19,18,15,-1,19,15,16,-1,20,21,22,-1,22,21,23,-1,21,24,23,-1,23,24,25,-1,24,26,25,-1,25,26,27,-1,27,22,25,-1,25,22,23,-1,21,20,24,-1,24,20,26,-1,17,19,2,-1,2,19,0,-1,28,29,12,-1,12,29,10,-1,30,31,28,-1,28,31,29,-1,32,33,30,-1,30,33,31,-1,34,35,32,-1,32,35,33,-1,7,9,34,-1,34,9,35,-1,
        ]
    }
}
Shape{
    appearance Appearance {
        material  Material 	{
            diffuseColor 0.0 0.0 0.0
            specularColor 0.0 0.0 0.0
            ambientIntensity 0.2
            transparency 0
            shininess 0.5
        }
    }
    geometry IndexedFaceSet {
        ccw TRUE
        solid FALSE
        coord DEF co Coordinate {
            point [
                2.9528 -0.5139 0.7755, 2.9528 -0.5139 0.7603, 2.9488 -0.5139 0.7755, 2.9488 -0.5139 0.7603, 2.9528 -0.567 0.7755, 2.9488 -0.567 0.7755, 2.9528 -0.567 0.8938, 2.9488 -0.567 0.8938, 2.9528 -0.5842 0.8938, 2.9488 -0.5842 0.8938, 2.9528 -0.5842 0.7603, 2.9488 -0.5842 0.7603, 2.9528 -0.4251 0.76, 2.9528 -0.4454 0.7581, 2.9488 -0.4454 0.7581, 2.9488 -0.4336 0.7592, 2.9488 -0.4251 0.76, 2.9528 -0.4108 0.7647, 2.9488 -0.4142 0.7636, 2.9488 -0.4108 0.7647, 2.9488 -0.4085 0.7658, 2.9528 -0.4085 0.7658, 2.9528 -0.4085 0.7823, 2.9488 -0.4085 0.7823, 2.9488 -0.4142 0.7798, 2.9528 -0.4216 0.7764, 2.9488 -0.4216 0.7764, 2.9488 -0.4367 0.7736, 2.9528 -0.4367 0.7736, 2.9488 -0.4429 0.7734, 2.9528 -0.4429 0.7734, 2.9488 -0.4543 0.7745, 2.9528 -0.4543 0.7745, 2.9488 -0.4642 0.7778, 2.9528 -0.4642 0.7778, 2.9488 -0.4733 0.7837, 2.9528 -0.4733 0.7837, 2.9488 -0.4772 0.7875, 2.9528 -0.4772 0.7875, 2.9488 -0.4832 0.7955, 2.9528 -0.4832 0.7955, 2.9488 -0.4877 0.8061, 2.9528 -0.4877 0.8061, 2.9488 -0.4901 0.8191, 2.9528 -0.4901 0.8191, 2.9488 -0.4903 0.8255, 2.9528 -0.4903 0.8255, 2.9488 -0.4881 0.8439, 2.9528 -0.4881 0.8439, 2.9488 -0.4836 0.8554, 2.9528 -0.4836 0.8554, 2.9488 -0.4772 0.8647, 2.9528 -0.4772 0.8647, 2.9488 -0.4763 0.8656, 2.9528 -0.4763 0.8656, 2.9488 -0.4683 0.8724, 2.9528 -0.4683 0.8724, 2.9488 -0.4579 0.8776, 2.9528 -0.4579 0.8776, 2.9488 -0.4465 0.8801, 2.9528 -0.4465 0.8801, 2.9488 -0.4399 0.8804, 2.9528 -0.4399 0.8804, 2.9488 -0.4235 0.8785, 2.9488 -0.4142 0.8749, 2.9528 -0.41 0.8733, 2.9528 -0.4235 0.8785, 2.9488 -0.41 0.8733, 2.9488 -0.4085 0.8725, 2.9528 -0.4085 0.8725, 2.9528 -0.4085 0.8905, 2.9488 -0.4085 0.8905, 2.9488 -0.4142 0.8922, 2.9528 -0.4226 0.8946, 2.9488 -0.4401 0.896, 2.9528 -0.4401 0.896, 2.9488 -0.4258 0.8949, 2.9488 -0.4226 0.8946, 2.9488 -0.4494 0.8949, 2.9528 -0.4594 0.8937, 2.9488 -0.4594 0.8937, 2.9488 -0.4733 0.8882, 2.9528 -0.4733 0.8882, 2.9488 -0.4858 0.8795, 2.9528 -0.4858 0.8795, 2.9488 -0.4891 0.8764, 2.9528 -0.4891 0.8764, 2.9488 -0.4988 0.8637, 2.9488 -0.5024 0.8552, 2.9528 -0.5051 0.8489, 2.9528 -0.4988 0.8637, 2.9488 -0.5051 0.8489, 2.9488 -0.5082 0.8315, 2.9528 -0.5082 0.8315, 2.9488 -0.5084 0.8245, 2.9528 -0.5084 0.8245, 2.9488 -0.5058 0.8028, 2.9488 -0.5024 0.7942, 2.9528 -0.5003 0.7888, 2.9528 -0.5058 0.8028, 2.9488 -0.5003 0.7888, 2.9488 -0.4924 0.7775, 2.9528 -0.4924 0.7775, 2.9488 -0.4913 0.7763, 2.9528 -0.4913 0.7763, 2.9488 -0.468 0.7614, 2.9528 -0.4805 0.7674, 2.9488 -0.4805 0.7674, 2.9488 -0.4571 0.7592, 2.9528 -0.4535 0.7584, 2.9528 -0.468 0.7614, 2.9488 -0.4535 0.7584, 2.9528 -0.31 0.7755, 2.9528 -0.31 0.7603, 2.9488 -0.31 0.7755, 2.9488 -0.31 0.7603, 2.9488 -0.3645 0.7755, 2.9528 -0.3645 0.7755, 2.9488 -0.3285 0.7755, 2.9528 -0.3645 0.8204, 2.9488 -0.3645 0.8204, 2.9528 -0.3168 0.8204, 2.9488 -0.3285 0.8204, 2.9488 -0.3168 0.8204, 2.9528 -0.3168 0.8357, 2.9488 -0.3168 0.8357, 2.9488 -0.3645 0.8357, 2.9528 -0.3645 0.8357, 2.9488 -0.3285 0.8357, 2.9528 -0.3645 0.8784, 2.9488 -0.3645 0.8784, 2.9488 -0.313 0.8784, 2.9528 -0.313 0.8784, 2.9488 -0.3285 0.8784, 2.9528 -0.313 0.8938, 2.9488 -0.313 0.8938, 2.9488 -0.3818 0.8938, 2.9528 -0.3818 0.8938, 2.9488 -0.3285 0.8938, 2.9528 -0.3818 0.7603, 2.9488 -0.3818 0.7603, 2.9488 -0.3285 0.7603, 2.9528 -0.1963 0.779, 2.9528 -0.2101 0.788, 2.9528 -0.2102 0.769, 2.9528 -0.2187 0.782, 2.9528 -0.2254 0.7631, 2.9528 -0.2297 0.7777, 2.9528 -0.2481 0.7603, 2.9528 -0.2482 0.7755, 2.9528 -0.2848 0.7603, 2.9528 -0.2676 0.7755, 2.9528 -0.2848 0.8938, 2.9528 -0.2676 0.8784, 2.9528 -0.2467 0.8938, 2.9528 -0.2474 0.8784, 2.9528 -0.2456 0.8784, 2.9528 -0.2263 0.8915, 2.9528 -0.2287 0.8761, 2.9528 -0.2102 0.8856, 2.9528 -0.2174 0.8717, 2.9528 -0.1963 0.8761, 2.9528 -0.2089 0.8658, 2.9528 -0.1916 0.8715, 2.9528 -0.2052 0.8622, 2.9528 -0.1833 0.8599, 2.9528 -0.2 0.8547, 2.9528 -0.1784 0.8471, 2.9528 -0.1962 0.845, 2.9528 -0.1761 0.8287, 2.9528 -0.1943 0.8283, 2.9528 -0.1765 0.8202, 2.9528 -0.1948 0.8188, 2.9528 -0.1798 0.8046, 2.9528 -0.1976 0.8068, 2.9528 -0.1863 0.7908, 2.9528 -0.2023 0.797, 2.9528 -0.2085 0.7894, 2.9488 -0.2481 0.7603, 2.9488 -0.2848 0.7603, 2.9488 -0.2254 0.7631, 2.9488 -0.2102 0.769, 2.9488 -0.1963 0.779, 2.9488 -0.1863 0.7908, 2.9488 -0.1798 0.8046, 2.9488 -0.1765 0.8202, 2.9488 -0.1761 0.8287, 2.9488 -0.1784 0.8471, 2.9488 -0.1833 0.8599, 2.9488 -0.1916 0.8715, 2.9488 -0.1963 0.8761, 2.9488 -0.2102 0.8856, 2.9488 -0.2263 0.8915, 2.9488 -0.2467 0.8938, 2.9488 -0.2848 0.8938, 2.9488 -0.2474 0.8784, 2.9488 -0.2676 0.8784, 2.9488 -0.2676 0.7755, 2.9488 -0.2482 0.7755, 2.9488 -0.2085 0.7894, 2.9488 -0.2101 0.788, 2.9488 -0.2187 0.782, 2.9488 -0.2297 0.7777, 2.9488 -0.1943 0.8283, 2.9488 -0.1948 0.8188, 2.9488 -0.1976 0.8068, 2.9488 -0.2023 0.797, 2.9488 -0.2089 0.8658, 2.9488 -0.2052 0.8622, 2.9488 -0.2 0.8547, 2.9488 -0.1962 0.845, 2.9488 -0.2456 0.8784, 2.9488 -0.2287 0.8761, 2.9488 -0.2174 0.8717, 2.9488 -0.2174 0.8717
            ]
        }
        coordIndex [
            0,1,2,-1,2,1,3,-1,4,0,5,-1,5,0,2,-1,6,4,7,-1,7,4,5,-1,8,6,9,-1,9,6,7,-1,10,8,11,-1,11,8,9,-1,1,10,3,-1,3,10,11,-1,6,8,4,-1,4,8,10,-1,4,10,0,-1,0,10,1,-1,12,13,14,-1,14,15,12,-1,12,15,16,-1,12,16,17,-1,17,16,18,-1,18,19,17,-1,17,19,20,-1,17,20,21,-1,22,21,23,-1,23,21,20,-1,22,23,24,-1,22,24,25,-1,24,26,25,-1,25,26,27,-1,25,27,28,-1,28,27,29,-1,28,29,30,-1,30,29,31,-1,30,31,32,-1,32,31,33,-1,32,33,34,-1,34,33,35,-1,34,35,36,-1,36,35,37,-1,36,37,38,-1,38,37,39,-1,38,39,40,-1,40,39,41,-1,40,41,42,-1,42,41,43,-1,42,43,44,-1,44,43,45,-1,44,45,46,-1,46,45,47,-1,46,47,48,-1,48,47,49,-1,48,49,50,-1,50,49,51,-1,50,51,52,-1,52,51,53,-1,52,53,54,-1,54,53,55,-1,54,55,56,-1,56,55,57,-1,56,57,58,-1,58,57,59,-1,58,59,60,-1,60,59,61,-1,60,61,62,-1,62,61,63,-1,64,65,63,-1,63,65,66,-1,63,66,62,-1,64,67,65,-1,65,67,68,-1,65,68,69,-1,70,69,71,-1,71,69,68,-1,70,71,72,-1,70,72,73,-1,74,75,76,-1,76,75,73,-1,76,73,77,-1,77,73,72,-1,75,74,78,-1,75,78,79,-1,78,80,79,-1,79,80,81,-1,79,81,82,-1,82,81,83,-1,82,83,84,-1,84,83,85,-1,84,85,86,-1,86,85,87,-1,88,89,87,-1,87,89,90,-1,87,90,86,-1,88,91,89,-1,89,91,92,-1,89,92,93,-1,93,92,94,-1,93,94,95,-1,95,94,96,-1,97,98,96,-1,96,98,99,-1,96,99,95,-1,97,100,98,-1,98,100,101,-1,98,101,102,-1,102,101,103,-1,102,103,104,-1,105,106,107,-1,107,106,104,-1,107,104,103,-1,108,109,105,-1,105,109,110,-1,105,110,106,-1,108,111,109,-1,109,111,14,-1,109,14,13,-1,56,58,79,-1,48,50,90,-1,90,50,86,-1,79,58,75,-1,95,46,93,-1,93,46,48,-1,93,48,89,-1,89,48,90,-1,58,60,75,-1,75,60,62,-1,75,62,73,-1,73,62,66,-1,73,66,70,-1,70,66,65,-1,70,65,69,-1,21,22,17,-1,17,22,25,-1,17,25,12,-1,12,25,28,-1,12,28,13,-1,13,28,30,-1,13,30,109,-1,109,30,32,-1,109,32,110,-1,110,32,34,-1,110,34,106,-1,106,34,36,-1,106,36,104,-1,104,36,38,-1,104,38,102,-1,102,38,40,-1,102,40,98,-1,98,40,99,-1,99,40,42,-1,99,42,95,-1,95,42,44,-1,95,44,46,-1,50,52,86,-1,86,52,54,-1,86,54,84,-1,84,54,56,-1,84,56,82,-1,82,56,79,-1,112,113,114,-1,114,113,115,-1,116,117,118,-1,118,117,112,-1,118,112,114,-1,119,117,120,-1,120,117,116,-1,119,120,121,-1,121,120,122,-1,121,122,123,-1,124,121,125,-1,125,121,123,-1,126,127,128,-1,128,127,124,-1,128,124,125,-1,129,127,130,-1,130,127,126,-1,131,132,133,-1,133,132,129,-1,133,129,130,-1,134,132,135,-1,135,132,131,-1,136,137,138,-1,138,137,134,-1,138,134,135,-1,139,137,140,-1,140,137,136,-1,115,113,141,-1,141,113,139,-1,141,139,140,-1,121,124,119,-1,119,124,127,-1,113,112,139,-1,139,112,117,-1,132,134,129,-1,129,134,137,-1,129,137,127,-1,127,137,139,-1,127,139,119,-1,119,139,117,-1,142,143,144,-1,144,143,145,-1,144,145,146,-1,146,145,147,-1,146,147,148,-1,148,147,149,-1,148,149,150,-1,150,149,151,-1,150,151,152,-1,152,151,153,-1,152,153,154,-1,153,155,154,-1,154,155,156,-1,154,156,157,-1,157,156,158,-1,157,158,159,-1,159,158,160,-1,159,160,161,-1,161,160,162,-1,161,162,163,-1,163,162,164,-1,163,164,165,-1,165,164,166,-1,165,166,167,-1,167,166,168,-1,167,168,169,-1,169,168,170,-1,169,170,171,-1,171,170,172,-1,171,172,173,-1,173,172,174,-1,173,174,175,-1,175,174,176,-1,175,176,142,-1,142,176,177,-1,142,177,143,-1,148,150,178,-1,178,150,179,-1,148,178,180,-1,148,180,146,-1,146,180,181,-1,146,181,144,-1,144,181,182,-1,144,182,142,-1,142,182,183,-1,142,183,175,-1,175,183,184,-1,175,184,173,-1,173,184,185,-1,173,185,171,-1,171,185,186,-1,171,186,169,-1,169,186,187,-1,169,187,167,-1,167,187,188,-1,167,188,165,-1,165,188,189,-1,165,189,163,-1,163,189,190,-1,163,190,161,-1,161,190,191,-1,161,191,159,-1,159,191,192,-1,159,192,157,-1,157,192,193,-1,157,193,154,-1,152,154,194,-1,194,154,193,-1,150,152,179,-1,179,152,194,-1,155,153,195,-1,195,153,196,-1,153,151,196,-1,196,151,197,-1,151,149,197,-1,197,149,198,-1,177,199,200,-1,177,200,143,-1,143,200,201,-1,143,201,145,-1,145,201,202,-1,145,202,147,-1,147,202,198,-1,147,198,149,-1,170,203,204,-1,170,204,172,-1,172,204,205,-1,172,205,174,-1,174,205,206,-1,174,206,176,-1,176,206,199,-1,176,199,177,-1,162,207,208,-1,162,208,164,-1,164,208,209,-1,164,209,166,-1,166,209,210,-1,166,210,168,-1,168,210,203,-1,168,203,170,-1,155,195,211,-1,155,211,156,-1,156,211,212,-1,156,212,158,-1,158,212,213,-1,158,213,160,-1,160,213,207,-1,160,207,162,-1,
        ]
    }
}
Shape{
    appearance Appearance {
        material  Material 	{
            diffuseColor 1.0 1.0 1.0
            specularColor 0.5019607843137255 0.5019607843137255 0.5019607843137255
            ambientIntensity 0.2
            transparency 0
            shininess 0.5
        }
    }
    geometry IndexedFaceSet {
        ccw TRUE
        solid FALSE
        coord DEF co Coordinate {
            point [
                2.9488 -0.2676 0.8784, 2.9488 -0.2676 0.7755, 2.9488 -0.2474 0.8784, 2.9488 -0.2482 0.7755, 2.9488 -0.2456 0.8784, 2.9488 -0.2297 0.7777, 2.9488 -0.2187 0.782, 2.9488 -0.2101 0.788, 2.9488 -0.2085 0.7894, 2.9488 -0.2023 0.797, 2.9488 -0.1943 0.8283, 2.9488 -0.2089 0.8658, 2.9488 -0.1948 0.8188, 2.9488 -0.2174 0.8717, 2.9488 -0.1976 0.8068, 2.9488 -0.2287 0.8761, 2.9488 -0.1962 0.845, 2.9488 -0.2 0.8547, 2.9488 -0.2052 0.8622, 2.9488 -0.2052 0.8622
            ]
        }
        coordIndex [
            0,1,2,-1,2,1,3,-1,2,3,4,-1,4,3,5,-1,4,5,6,-1,6,7,4,-1,4,7,8,-1,4,8,9,-1,10,11,12,-1,12,11,13,-1,9,14,4,-1,4,14,12,-1,4,12,15,-1,15,12,13,-1,16,17,10,-1,10,17,18,-1,10,18,11,-1,
        ]
    }
}
Shape{
    appearance Appearance {
        material  Material 	{
            diffuseColor 0.0 0.0 0.0
            specularColor 0.0 0.0 0.0
            ambientIntensity 0.2
            transparency 0
            shininess 0.5
        }
    }
    geometry IndexedFaceSet {
        ccw TRUE
        solid FALSE
        coord DEF co Coordinate {
            point [
                2.9528 -0.1314 0.8119, 2.9528 -0.1369 0.7968, 2.9528 -0.0866 0.8119, 2.9528 -0.0813 0.7968, 2.9528 -0.1115 0.8674, 2.9528 -0.1179 0.8938, 2.9528 -0.1687 0.7603, 2.9528 -0.1497 0.7603, 2.9528 -0.1103 0.8713, 2.9528 -0.1093 0.8767, 2.9528 -0.0995 0.8938, 2.9528 -0.1089 0.8767, 2.9528 -0.1078 0.8711, 2.9528 -0.1068 0.8674, 2.9528 -0.0487 0.7603, 2.9528 -0.0677 0.7603, 2.9488 -0.0995 0.8938, 2.9488 -0.0487 0.7603, 2.9488 -0.1179 0.8938, 2.9488 -0.1687 0.7603, 2.9488 -0.1303 0.8613, 2.9488 -0.1497 0.7603, 2.9488 -0.1369 0.7968, 2.9488 -0.0813 0.7968, 2.9488 -0.1303 0.7968, 2.9488 -0.0677 0.7603, 2.9488 -0.1314 0.8119, 2.9488 -0.0866 0.8119, 2.9488 -0.1068 0.8674, 2.9488 -0.1089 0.8767, 2.9488 -0.1078 0.8711, 2.9488 -0.1093 0.8767, 2.9488 -0.1115 0.8674, 2.9488 -0.1103 0.8713, 2.9488 -0.1103 0.8713
            ]
        }
        coordIndex [
            0,1,2,-1,2,1,3,-1,4,5,0,-1,0,5,6,-1,0,6,1,-1,1,6,7,-1,4,8,5,-1,5,8,9,-1,5,9,10,-1,10,9,11,-1,10,11,12,-1,12,13,10,-1,10,13,2,-1,10,2,14,-1,14,2,3,-1,14,3,15,-1,10,14,16,-1,16,14,17,-1,5,10,18,-1,18,10,16,-1,19,6,20,-1,20,6,5,-1,20,5,18,-1,7,6,21,-1,21,6,19,-1,1,7,22,-1,22,7,21,-1,23,3,24,-1,24,3,1,-1,24,1,22,-1,15,3,25,-1,25,3,23,-1,14,15,17,-1,17,15,25,-1,0,2,26,-1,26,2,27,-1,2,13,27,-1,27,13,28,-1,11,29,30,-1,11,30,12,-1,12,30,28,-1,12,28,13,-1,11,9,29,-1,29,9,31,-1,4,32,33,-1,4,33,8,-1,8,33,31,-1,8,31,9,-1,4,0,32,-1,32,0,26,-1,
        ]
    }
}
Shape{
    appearance Appearance {
        material  Material 	{
            diffuseColor 1.0 1.0 1.0
            specularColor 0.5019607843137255 0.5019607843137255 0.5019607843137255
            ambientIntensity 0.2
            transparency 0
            shininess 0.5
        }
    }
    geometry IndexedFaceSet {
        ccw TRUE
        solid FALSE
        coord DEF co Coordinate {
            point [
                2.9488 -0.1089 0.8767, 2.9488 -0.1093 0.8767, 2.9488 -0.1078 0.8711, 2.9488 -0.1103 0.8713, 2.9488 -0.1068 0.8674, 2.9488 -0.1115 0.8674, 2.9488 -0.0866 0.8119, 2.9488 -0.1314 0.8119, 2.9488 -0.1314 0.8119
            ]
        }
        coordIndex [
            0,1,2,-1,2,1,3,-1,2,3,4,-1,4,3,5,-1,4,5,6,-1,6,5,7,-1,
        ]
    }
}
Shape{
    appearance Appearance {
        material  Material 	{
            diffuseColor 0.0 0.0 0.0
            specularColor 0.0 0.0 0.0
            ambientIntensity 0.2
            transparency 0
            shininess 0.5
        }
    }
    geometry IndexedFaceSet {
        ccw TRUE
        solid FALSE
        coord DEF co Coordinate {
            point [
                2.9528 -0.5125 0.5638, 2.9528 -0.5125 0.5486, 2.9488 -0.5125 0.5638, 2.9488 -0.5125 0.5486, 2.9528 -0.567 0.5638, 2.9488 -0.567 0.5638, 2.9528 -0.567 0.6087, 2.9488 -0.567 0.6087, 2.9528 -0.5193 0.6087, 2.9488 -0.5193 0.6087, 2.9528 -0.5193 0.624, 2.9488 -0.5193 0.624, 2.9528 -0.567 0.624, 2.9488 -0.567 0.624, 2.9528 -0.567 0.6667, 2.9488 -0.567 0.6667, 2.9528 -0.5155 0.6667, 2.9488 -0.5155 0.6667, 2.9528 -0.5155 0.682, 2.9488 -0.5155 0.682, 2.9528 -0.5842 0.682, 2.9488 -0.5842 0.682, 2.9528 -0.5842 0.5486, 2.9488 -0.5842 0.5486, 2.9528 -0.4366 0.5486, 2.9528 -0.4199 0.5486, 2.9528 -0.4366 0.5633, 2.9528 -0.4199 0.6099, 2.9528 -0.4735 0.5888, 2.9528 -0.47 0.5907, 2.9528 -0.4366 0.6092, 2.9528 -0.4589 0.5934, 2.9528 -0.4366 0.5964, 2.9528 -0.437 0.5633, 2.9528 -0.4459 0.5658, 2.9528 -0.441 0.5577, 2.9528 -0.4506 0.5626, 2.9528 -0.4366 0.5873, 2.9528 -0.421 0.6219, 2.9528 -0.4366 0.5862, 2.9528 -0.4377 0.5787, 2.9528 -0.4401 0.5728, 2.9528 -0.4438 0.5678, 2.9528 -0.4871 0.6372, 2.9528 -0.4871 0.621, 2.9528 -0.4837 0.6392, 2.9528 -0.4756 0.6282, 2.9528 -0.4713 0.644, 2.9528 -0.4652 0.6316, 2.9528 -0.4543 0.6461, 2.9528 -0.4559 0.6325, 2.9528 -0.4438 0.6451, 2.9528 -0.4502 0.6319, 2.9528 -0.4368 0.6429, 2.9528 -0.4464 0.6306, 2.9528 -0.4313 0.6396, 2.9528 -0.4434 0.6287, 2.9528 -0.4269 0.6353, 2.9528 -0.4409 0.626, 2.9528 -0.4236 0.6298, 2.9528 -0.4389 0.6225, 2.9528 -0.4372 0.6166, 2.9528 -0.4761 0.5658, 2.9528 -0.4883 0.5539, 2.9528 -0.4747 0.5644, 2.9528 -0.4826 0.5499, 2.9528 -0.4713 0.5621, 2.9528 -0.4762 0.5475, 2.9528 -0.4675 0.5607, 2.9528 -0.4662 0.5463, 2.9528 -0.4619 0.5601, 2.9528 -0.4569 0.5475, 2.9528 -0.4556 0.5608, 2.9528 -0.4503 0.55, 2.9528 -0.4464 0.5525, 2.9528 -0.4648 0.6052, 2.9528 -0.4785 0.6017, 2.9528 -0.4751 0.5876, 2.9528 -0.4853 0.598, 2.9528 -0.4771 0.5851, 2.9528 -0.4902 0.5935, 2.9528 -0.4785 0.582, 2.9528 -0.4937 0.588, 2.9528 -0.4794 0.5781, 2.9528 -0.4957 0.5819, 2.9528 -0.4795 0.5755, 2.9528 -0.4965 0.5741, 2.9528 -0.4791 0.5716, 2.9528 -0.4956 0.5665, 2.9528 -0.478 0.5686, 2.9528 -0.4936 0.5608, 2.9528 -0.4901 0.5557, 2.9488 -0.4543 0.6461, 2.9488 -0.4713 0.644, 2.9488 -0.4837 0.6392, 2.9488 -0.4871 0.6372, 2.9488 -0.4871 0.621, 2.9488 -0.4756 0.6282, 2.9488 -0.4652 0.6316, 2.9488 -0.4559 0.6325, 2.9488 -0.4502 0.6319, 2.9488 -0.4464 0.6306, 2.9488 -0.4434 0.6287, 2.9488 -0.4409 0.626, 2.9488 -0.4389 0.6225, 2.9488 -0.4372 0.6166, 2.9488 -0.4366 0.6092, 2.9488 -0.4648 0.6052, 2.9488 -0.4785 0.6017, 2.9488 -0.4853 0.598, 2.9488 -0.4902 0.5935, 2.9488 -0.4937 0.588, 2.9488 -0.4957 0.5819, 2.9488 -0.4965 0.5741, 2.9488 -0.4956 0.5665, 2.9488 -0.4936 0.5608, 2.9488 -0.4901 0.5557, 2.9488 -0.4883 0.5539, 2.9488 -0.4662 0.5463, 2.9488 -0.4759 0.5475, 2.9488 -0.4762 0.5475, 2.9488 -0.4826 0.5499, 2.9488 -0.4569 0.5475, 2.9488 -0.4569 0.5475, 2.9488 -0.4503 0.55, 2.9488 -0.4464 0.5525, 2.9488 -0.441 0.5577, 2.9488 -0.437 0.5633, 2.9488 -0.4366 0.5633, 2.9488 -0.4366 0.5486, 2.9488 -0.4199 0.5486, 2.9488 -0.4199 0.6099, 2.9488 -0.421 0.6219, 2.9488 -0.4236 0.6298, 2.9488 -0.4269 0.6353, 2.9488 -0.4313 0.6396, 2.9488 -0.4368 0.6429, 2.9488 -0.4438 0.6451, 2.9488 -0.4751 0.5876, 2.9488 -0.4735 0.5888, 2.9488 -0.47 0.5907, 2.9488 -0.4589 0.5934, 2.9488 -0.4795 0.5755, 2.9488 -0.4794 0.5781, 2.9488 -0.4785 0.582, 2.9488 -0.4771 0.5851, 2.9488 -0.4747 0.5644, 2.9488 -0.4761 0.5658, 2.9488 -0.478 0.5686, 2.9488 -0.4791 0.5716, 2.9488 -0.4619 0.5601, 2.9488 -0.4675 0.5607, 2.9488 -0.4713 0.5621, 2.9488 -0.4438 0.5678, 2.9488 -0.4459 0.5658, 2.9488 -0.4506 0.5626, 2.9488 -0.4556 0.5608, 2.9488 -0.4366 0.5873, 2.9488 -0.4366 0.5862, 2.9488 -0.4377 0.5787, 2.9488 -0.4401 0.5728, 2.9488 -0.4366 0.5964, 2.9488 -0.4366 0.5964
            ]
        }
        coordIndex [
            0,1,2,-1,2,1,3,-1,4,0,5,-1,5,0,2,-1,6,4,7,-1,7,4,5,-1,8,6,9,-1,9,6,7,-1,10,8,11,-1,11,8,9,-1,12,10,13,-1,13,10,11,-1,14,12,15,-1,15,12,13,-1,16,14,17,-1,17,14,15,-1,18,16,19,-1,19,16,17,-1,20,18,21,-1,21,18,19,-1,22,20,23,-1,23,20,21,-1,1,22,3,-1,3,22,23,-1,1,0,22,-1,22,0,4,-1,8,10,6,-1,6,10,12,-1,16,18,14,-1,14,18,20,-1,14,20,12,-1,12,20,22,-1,12,22,6,-1,6,22,4,-1,24,25,26,-1,26,25,27,-1,28,29,30,-1,30,29,31,-1,30,31,32,-1,33,34,35,-1,35,34,36,-1,37,27,32,-1,32,27,38,-1,32,38,30,-1,37,39,27,-1,27,39,40,-1,27,40,26,-1,26,40,41,-1,26,41,33,-1,33,41,42,-1,33,42,34,-1,43,44,45,-1,45,44,46,-1,45,46,47,-1,47,46,48,-1,47,48,49,-1,49,48,50,-1,49,50,51,-1,51,50,52,-1,51,52,53,-1,53,52,54,-1,53,54,55,-1,55,54,56,-1,55,56,57,-1,57,56,58,-1,57,58,59,-1,59,58,60,-1,59,60,38,-1,38,60,61,-1,38,61,30,-1,62,63,64,-1,64,63,65,-1,64,65,66,-1,66,65,67,-1,66,67,68,-1,68,67,69,-1,68,69,70,-1,70,69,71,-1,70,71,72,-1,72,71,73,-1,72,73,36,-1,36,73,74,-1,36,74,35,-1,30,75,28,-1,28,75,76,-1,28,76,77,-1,77,76,78,-1,77,78,79,-1,79,78,80,-1,79,80,81,-1,81,80,82,-1,81,82,83,-1,83,82,84,-1,83,84,85,-1,85,84,86,-1,85,86,87,-1,87,86,88,-1,87,88,89,-1,89,88,90,-1,89,90,62,-1,62,90,91,-1,62,91,63,-1,49,92,93,-1,49,93,47,-1,47,93,94,-1,47,94,45,-1,45,94,95,-1,45,95,43,-1,44,43,96,-1,96,43,95,-1,44,96,97,-1,44,97,46,-1,46,97,98,-1,46,98,48,-1,48,98,99,-1,48,99,50,-1,50,99,100,-1,50,100,52,-1,52,100,101,-1,52,101,54,-1,54,101,102,-1,54,102,56,-1,56,102,103,-1,56,103,58,-1,58,103,104,-1,58,104,60,-1,60,104,105,-1,60,105,61,-1,61,105,106,-1,61,106,30,-1,75,30,107,-1,107,30,106,-1,75,107,108,-1,75,108,76,-1,76,108,109,-1,76,109,78,-1,78,109,110,-1,78,110,80,-1,80,110,111,-1,80,111,82,-1,82,111,112,-1,82,112,84,-1,84,112,113,-1,84,113,86,-1,86,113,114,-1,86,114,88,-1,88,114,115,-1,88,115,90,-1,90,115,116,-1,90,116,91,-1,91,116,117,-1,91,117,63,-1,118,69,119,-1,119,69,67,-1,119,67,120,-1,120,67,65,-1,120,65,121,-1,121,65,63,-1,121,63,117,-1,69,118,122,-1,123,73,122,-1,122,73,71,-1,122,71,69,-1,123,124,73,-1,73,124,125,-1,73,125,74,-1,74,125,126,-1,74,126,35,-1,35,126,127,-1,35,127,33,-1,26,33,128,-1,128,33,127,-1,24,26,129,-1,129,26,128,-1,25,24,130,-1,130,24,129,-1,27,25,131,-1,131,25,130,-1,27,131,132,-1,27,132,38,-1,38,132,133,-1,38,133,59,-1,59,133,134,-1,59,134,57,-1,57,134,135,-1,57,135,55,-1,55,135,136,-1,55,136,53,-1,53,136,137,-1,53,137,51,-1,51,137,92,-1,51,92,49,-1,77,138,139,-1,77,139,28,-1,28,139,140,-1,28,140,29,-1,29,140,141,-1,29,141,31,-1,85,142,143,-1,85,143,83,-1,83,143,144,-1,83,144,81,-1,81,144,145,-1,81,145,79,-1,79,145,138,-1,79,138,77,-1,64,146,147,-1,64,147,62,-1,62,147,148,-1,62,148,89,-1,89,148,149,-1,89,149,87,-1,87,149,142,-1,87,142,85,-1,70,150,151,-1,70,151,68,-1,68,151,152,-1,68,152,66,-1,66,152,146,-1,66,146,64,-1,42,153,154,-1,42,154,34,-1,34,154,155,-1,34,155,36,-1,36,155,156,-1,36,156,72,-1,72,156,150,-1,72,150,70,-1,37,157,158,-1,37,158,39,-1,39,158,159,-1,39,159,40,-1,40,159,160,-1,40,160,41,-1,41,160,153,-1,41,153,42,-1,37,32,157,-1,157,32,161,-1,32,31,161,-1,161,31,141,-1,
        ]
    }
}
Shape{
    appearance Appearance {
        material  Material 	{
            diffuseColor 1.0 1.0 1.0
            specularColor 0.5019607843137255 0.5019607843137255 0.5019607843137255
            ambientIntensity 0.2
            transparency 0
            shininess 0.5
        }
    }
    geometry IndexedFaceSet {
        ccw TRUE
        solid FALSE
        coord DEF co Coordinate {
            point [
                2.9488 -0.4366 0.5862, 2.9488 -0.4366 0.5873, 2.9488 -0.4751 0.5876, 2.9488 -0.4366 0.5964, 2.9488 -0.4589 0.5934, 2.9488 -0.47 0.5907, 2.9488 -0.4735 0.5888, 2.9488 -0.4377 0.5787, 2.9488 -0.4771 0.5851, 2.9488 -0.4401 0.5728, 2.9488 -0.4761 0.5658, 2.9488 -0.4747 0.5644, 2.9488 -0.4459 0.5658, 2.9488 -0.478 0.5686, 2.9488 -0.4506 0.5626, 2.9488 -0.4556 0.5608, 2.9488 -0.4619 0.5601, 2.9488 -0.4785 0.582, 2.9488 -0.4794 0.5781, 2.9488 -0.4438 0.5678, 2.9488 -0.4795 0.5755, 2.9488 -0.4791 0.5716, 2.9488 -0.4713 0.5621, 2.9488 -0.4675 0.5607, 2.9488 -0.4675 0.5607
            ]
        }
        coordIndex [
            0,1,2,-1,1,3,4,-1,4,5,1,-1,1,5,6,-1,1,6,2,-1,0,2,7,-1,7,2,8,-1,7,8,9,-1,10,11,12,-1,10,12,13,-1,14,12,15,-1,15,12,16,-1,8,17,9,-1,9,17,18,-1,9,18,19,-1,19,18,20,-1,19,20,12,-1,12,20,21,-1,12,21,13,-1,11,22,12,-1,12,22,23,-1,12,23,16,-1,
        ]
    }
}
Shape{
    appearance Appearance {
        material  Material 	{
            diffuseColor 0.0 0.0 0.0
            specularColor 0.0 0.0 0.0
            ambientIntensity 0.2
            transparency 0
            shininess 0.5
        }
    }
    geometry IndexedFaceSet {
        ccw TRUE
        solid FALSE
        coord DEF co Coordinate {
            point [
                2.9488 -0.3972 0.5692, 2.9528 -0.3972 0.5692, 2.9528 -0.3903 0.565, 2.9528 -0.3697 0.56, 2.9488 -0.3697 0.56, 2.9488 -0.3798 0.5611, 2.9528 -0.3798 0.5611, 2.9488 -0.3895 0.5647, 2.9488 -0.3903 0.565, 2.9528 -0.3972 0.5519, 2.9488 -0.3972 0.5519, 2.9528 -0.3873 0.5483, 2.9488 -0.3895 0.5491, 2.9488 -0.3714 0.5463, 2.9528 -0.3714 0.5463, 2.9488 -0.3808 0.5475, 2.9488 -0.3873 0.5483, 2.9528 -0.3564 0.5481, 2.9488 -0.3618 0.5475, 2.9488 -0.3564 0.5481, 2.9488 -0.3475 0.5515, 2.9528 -0.3475 0.5515, 2.9488 -0.3436 0.5539, 2.9528 -0.3436 0.5539, 2.9488 -0.3388 0.5581, 2.9528 -0.3388 0.5581, 2.9488 -0.3357 0.5625, 2.9528 -0.3357 0.5625, 2.9488 -0.3336 0.5678, 2.9528 -0.3336 0.5678, 2.9488 -0.3329 0.5745, 2.9528 -0.3329 0.5745, 2.9488 -0.3335 0.5808, 2.9528 -0.3335 0.5808, 2.9488 -0.3353 0.5857, 2.9528 -0.3353 0.5857, 2.9488 -0.3384 0.5903, 2.9528 -0.3384 0.5903, 2.9488 -0.3424 0.5938, 2.9528 -0.3424 0.5938, 2.9488 -0.3535 0.6, 2.9528 -0.3535 0.6, 2.9488 -0.36 0.6026, 2.9528 -0.36 0.6026, 2.9488 -0.3704 0.6071, 2.9528 -0.3704 0.6071, 2.9488 -0.3762 0.6108, 2.9528 -0.3762 0.6108, 2.9488 -0.3779 0.6126, 2.9528 -0.3779 0.6126, 2.9488 -0.3791 0.6149, 2.9528 -0.3791 0.6149, 2.9488 -0.3797 0.6175, 2.9528 -0.3797 0.6175, 2.9488 -0.3799 0.6197, 2.9528 -0.3799 0.6197, 2.9488 -0.3796 0.6224, 2.9528 -0.3796 0.6224, 2.9488 -0.3788 0.6246, 2.9528 -0.3788 0.6246, 2.9488 -0.3773 0.6267, 2.9528 -0.3773 0.6267, 2.9488 -0.3748 0.629, 2.9528 -0.3748 0.629, 2.9488 -0.3711 0.631, 2.9528 -0.3711 0.631, 2.9488 -0.3666 0.6321, 2.9528 -0.3666 0.6321, 2.9488 -0.3616 0.6325, 2.9528 -0.3616 0.6325, 2.9488 -0.3512 0.6314, 2.9528 -0.3512 0.6314, 2.9488 -0.3417 0.6281, 2.9528 -0.3417 0.6281, 2.9488 -0.3374 0.6256, 2.9528 -0.3374 0.6256, 2.9528 -0.3374 0.6419, 2.9488 -0.3374 0.6419, 2.9488 -0.3483 0.6451, 2.9528 -0.3483 0.6451, 2.9488 -0.36 0.6461, 2.9528 -0.36 0.6461, 2.9488 -0.3714 0.645, 2.9528 -0.3714 0.645, 2.9488 -0.3808 0.6418, 2.9528 -0.3808 0.6418, 2.9488 -0.3864 0.6385, 2.9528 -0.3864 0.6385, 2.9528 -0.3914 0.6341, 2.9488 -0.3895 0.6357, 2.9488 -0.3914 0.6341, 2.9488 -0.3945 0.6295, 2.9528 -0.3945 0.6295, 2.9488 -0.3965 0.6242, 2.9528 -0.3965 0.6242, 2.9488 -0.3971 0.6182, 2.9528 -0.3971 0.6182, 2.9488 -0.3964 0.6117, 2.9528 -0.3964 0.6117, 2.9488 -0.3946 0.6066, 2.9528 -0.3946 0.6066, 2.9488 -0.3924 0.6031, 2.9528 -0.3924 0.6031, 2.9488 -0.3718 0.5905, 2.9528 -0.3718 0.5905, 2.9528 -0.3818 0.5951, 2.9488 -0.3896 0.6003, 2.9528 -0.3896 0.6003, 2.9488 -0.3895 0.6002, 2.9488 -0.3818 0.5951, 2.9488 -0.3608 0.5859, 2.9528 -0.3608 0.5859, 2.9488 -0.3543 0.582, 2.9528 -0.3543 0.582, 2.9488 -0.3522 0.5798, 2.9528 -0.3522 0.5798, 2.9488 -0.3509 0.5776, 2.9528 -0.3509 0.5776, 2.9488 -0.3502 0.575, 2.9528 -0.3502 0.575, 2.9488 -0.35 0.5729, 2.9528 -0.35 0.5729, 2.9488 -0.3504 0.5697, 2.9528 -0.3504 0.5697, 2.9488 -0.3512 0.5673, 2.9528 -0.3512 0.5673, 2.9488 -0.3527 0.5652, 2.9528 -0.3527 0.5652, 2.9488 -0.3546 0.5635, 2.9528 -0.3546 0.5635, 2.9488 -0.3561 0.5625, 2.9528 -0.3561 0.5625, 2.9488 -0.3604 0.561, 2.9528 -0.3604 0.561, 2.9488 -0.369 0.56, 2.9528 -0.369 0.56, 2.9528 -0.25 0.6439, 2.9528 -0.2327 0.6439, 2.9488 -0.25 0.6439, 2.9488 -0.2327 0.6439, 2.9528 -0.276 0.5721, 2.9488 -0.276 0.5721, 2.9488 -0.2773 0.5677, 2.9528 -0.2773 0.5677, 2.9488 -0.2781 0.5644, 2.9528 -0.2781 0.5644, 2.9528 -0.2785 0.5644, 2.9488 -0.2785 0.5644, 2.9528 -0.2806 0.5723, 2.9488 -0.2806 0.5723, 2.9488 -0.3055 0.6439, 2.9528 -0.3055 0.6439, 2.9488 -0.2974 0.6207, 2.9528 -0.3242 0.6439, 2.9488 -0.3242 0.6439, 2.9488 -0.2868 0.5488, 2.9528 -0.2868 0.5488, 2.9488 -0.2974 0.5758, 2.9488 -0.2941 0.5315, 2.9528 -0.2941 0.5315, 2.9488 -0.2873 0.5475, 2.9488 -0.2974 0.5255, 2.9528 -0.2974 0.5254, 2.9488 -0.2974 0.5254, 2.9488 -0.3006 0.5219, 2.9528 -0.3006 0.5219, 2.9488 -0.3033 0.52, 2.9528 -0.3033 0.52, 2.9488 -0.307 0.5185, 2.9528 -0.307 0.5185, 2.9488 -0.3112 0.518, 2.9528 -0.3112 0.518, 2.9488 -0.3173 0.5188, 2.9528 -0.3173 0.5188, 2.9488 -0.3207 0.5199, 2.9528 -0.3207 0.5199, 2.9528 -0.3207 0.5051, 2.9488 -0.3207 0.5051, 2.9488 -0.3136 0.5038, 2.9528 -0.3136 0.5038, 2.9488 -0.3099 0.5037, 2.9528 -0.3099 0.5037, 2.9488 -0.3032 0.5045, 2.9528 -0.3032 0.5045, 2.9488 -0.2974 0.5067, 2.9528 -0.2966 0.507, 2.9488 -0.2966 0.507, 2.9488 -0.2907 0.5111, 2.9528 -0.2907 0.5111, 2.9488 -0.2896 0.5121, 2.9528 -0.2896 0.5121, 2.9488 -0.2835 0.5195, 2.9528 -0.2835 0.5195, 2.9488 -0.2759 0.5342, 2.9528 -0.2759 0.5342, 2.9488 -0.2707 0.5475, 2.9528 -0.1429 0.5638, 2.9528 -0.1429 0.5486, 2.9488 -0.1429 0.5638, 2.9488 -0.1429 0.5486, 2.9488 -0.1974 0.5638, 2.9528 -0.1974 0.5638, 2.9488 -0.1724 0.5638, 2.9528 -0.1974 0.6087, 2.9488 -0.1974 0.6087, 2.9488 -0.1497 0.6087, 2.9528 -0.1497 0.6087, 2.9488 -0.1724 0.6087, 2.9528 -0.1497 0.624, 2.9488 -0.1497 0.624, 2.9488 -0.1974 0.624, 2.9528 -0.1974 0.624, 2.9488 -0.1724 0.624, 2.9528 -0.1974 0.6667, 2.9488 -0.1974 0.6667, 2.9488 -0.1459 0.6667, 2.9528 -0.1459 0.6667, 2.9488 -0.1724 0.6667, 2.9528 -0.1459 0.682, 2.9488 -0.1459 0.682, 2.9488 -0.2147 0.682, 2.9528 -0.2147 0.682, 2.9488 -0.1724 0.682, 2.9528 -0.2147 0.5486, 2.9488 -0.2147 0.5486, 2.9488 -0.1724 0.5486, 2.9528 -0.0291 0.5673, 2.9528 -0.0429 0.5763, 2.9528 -0.0431 0.5573, 2.9528 -0.0515 0.5703, 2.9528 -0.0583 0.5514, 2.9528 -0.0626 0.566, 2.9528 -0.081 0.5486, 2.9528 -0.0811 0.5638, 2.9528 -0.1177 0.5486, 2.9528 -0.1004 0.5638, 2.9528 -0.1177 0.682, 2.9528 -0.1004 0.6667, 2.9528 -0.0796 0.682, 2.9528 -0.0803 0.6667, 2.9528 -0.0785 0.6667, 2.9528 -0.0592 0.6798, 2.9528 -0.0616 0.6644, 2.9528 -0.0431 0.6739, 2.9528 -0.0503 0.66, 2.9528 -0.0291 0.6644, 2.9528 -0.0418 0.6541, 2.9528 -0.0244 0.6598, 2.9528 -0.0381 0.6505, 2.9528 -0.0162 0.6481, 2.9528 -0.0329 0.643, 2.9528 -0.0112 0.6354, 2.9528 -0.0291 0.6333, 2.9528 -0.009 0.617, 2.9528 -0.0271 0.6166, 2.9528 -0.0094 0.6085, 2.9528 -0.0277 0.6071, 2.9528 -0.0127 0.5929, 2.9528 -0.0304 0.5951, 2.9528 -0.0192 0.5791, 2.9528 -0.0352 0.5853, 2.9528 -0.0414 0.5777, 2.9488 -0.081 0.5486, 2.9488 -0.1177 0.5486, 2.9488 -0.0583 0.5514, 2.9488 -0.0431 0.5573, 2.9488 -0.0291 0.5673, 2.9488 -0.0192 0.5791, 2.9488 -0.0127 0.5929, 2.9488 -0.0094 0.6085, 2.9488 -0.009 0.617, 2.9488 -0.0112 0.6354, 2.9488 -0.0162 0.6481, 2.9488 -0.0244 0.6598, 2.9488 -0.0291 0.6644, 2.9488 -0.0431 0.6739, 2.9488 -0.0592 0.6798, 2.9488 -0.0796 0.682, 2.9488 -0.1177 0.682, 2.9488 -0.0803 0.6667, 2.9488 -0.1004 0.6667, 2.9488 -0.1004 0.5638, 2.9488 -0.0811 0.5638, 2.9488 -0.0414 0.5777, 2.9488 -0.0429 0.5763, 2.9488 -0.0515 0.5703, 2.9488 -0.0626 0.566, 2.9488 -0.0271 0.6166, 2.9488 -0.0277 0.6071, 2.9488 -0.0304 0.5951, 2.9488 -0.0352 0.5853, 2.9488 -0.0418 0.6541, 2.9488 -0.0381 0.6505, 2.9488 -0.0329 0.643, 2.9488 -0.0291 0.6333, 2.9488 -0.0785 0.6667, 2.9488 -0.0616 0.6644, 2.9488 -0.0503 0.66, 2.9488 -0.0503 0.66
            ]
        }
        coordIndex [
            0,1,2,-1,3,4,5,-1,3,5,6,-1,6,5,7,-1,6,7,2,-1,2,7,8,-1,2,8,0,-1,9,1,10,-1,10,1,0,-1,9,10,11,-1,11,10,12,-1,13,14,15,-1,15,14,11,-1,15,11,16,-1,16,11,12,-1,14,13,17,-1,17,13,18,-1,18,19,17,-1,17,19,20,-1,17,20,21,-1,21,20,22,-1,21,22,23,-1,23,22,24,-1,23,24,25,-1,25,24,26,-1,25,26,27,-1,27,26,28,-1,27,28,29,-1,29,28,30,-1,29,30,31,-1,31,30,32,-1,31,32,33,-1,33,32,34,-1,33,34,35,-1,35,34,36,-1,35,36,37,-1,37,36,38,-1,37,38,39,-1,39,38,40,-1,39,40,41,-1,41,40,42,-1,41,42,43,-1,43,42,44,-1,43,44,45,-1,45,44,46,-1,45,46,47,-1,47,46,48,-1,47,48,49,-1,49,48,50,-1,49,50,51,-1,51,50,52,-1,51,52,53,-1,53,52,54,-1,53,54,55,-1,55,54,56,-1,55,56,57,-1,57,56,58,-1,57,58,59,-1,59,58,60,-1,59,60,61,-1,61,60,62,-1,61,62,63,-1,63,62,64,-1,63,64,65,-1,65,64,66,-1,65,66,67,-1,67,66,68,-1,67,68,69,-1,69,68,70,-1,69,70,71,-1,71,70,72,-1,71,72,73,-1,73,72,74,-1,73,74,75,-1,76,75,77,-1,77,75,74,-1,76,77,78,-1,76,78,79,-1,79,78,80,-1,79,80,81,-1,81,80,82,-1,81,82,83,-1,83,82,84,-1,83,84,85,-1,85,84,86,-1,85,86,87,-1,87,86,88,-1,88,86,89,-1,89,90,88,-1,88,90,91,-1,88,91,92,-1,92,91,93,-1,92,93,94,-1,94,93,95,-1,94,95,96,-1,96,95,97,-1,96,97,98,-1,98,97,99,-1,98,99,100,-1,100,99,101,-1,100,101,102,-1,103,104,105,-1,102,101,106,-1,102,106,107,-1,107,106,108,-1,107,108,105,-1,105,108,109,-1,105,109,103,-1,104,103,110,-1,104,110,111,-1,111,110,112,-1,111,112,113,-1,113,112,114,-1,113,114,115,-1,115,114,116,-1,115,116,117,-1,117,116,118,-1,117,118,119,-1,119,118,120,-1,119,120,121,-1,121,120,122,-1,121,122,123,-1,123,122,124,-1,123,124,125,-1,125,124,126,-1,125,126,127,-1,127,126,128,-1,127,128,129,-1,129,128,130,-1,129,130,131,-1,131,130,132,-1,131,132,133,-1,133,132,134,-1,133,134,135,-1,135,134,4,-1,135,4,3,-1,61,63,85,-1,85,63,83,-1,111,43,104,-1,104,43,45,-1,21,23,127,-1,127,23,25,-1,127,25,125,-1,125,25,27,-1,125,27,123,-1,123,27,29,-1,123,29,121,-1,121,29,31,-1,121,31,119,-1,119,31,33,-1,119,33,117,-1,117,33,35,-1,117,35,115,-1,115,35,37,-1,115,37,113,-1,113,37,39,-1,113,39,111,-1,111,39,41,-1,111,41,43,-1,14,3,11,-1,11,3,6,-1,11,6,9,-1,9,6,2,-1,9,2,1,-1,63,65,83,-1,83,65,67,-1,83,67,81,-1,81,67,69,-1,81,69,79,-1,79,69,71,-1,79,71,76,-1,76,71,73,-1,76,73,75,-1,127,129,21,-1,21,129,131,-1,21,131,17,-1,17,131,133,-1,17,133,14,-1,14,133,135,-1,14,135,3,-1,85,87,61,-1,61,87,88,-1,61,88,59,-1,59,88,92,-1,59,92,57,-1,57,92,94,-1,57,94,55,-1,55,94,96,-1,55,96,53,-1,53,96,98,-1,53,98,51,-1,51,98,100,-1,51,100,49,-1,49,100,102,-1,49,102,47,-1,47,102,107,-1,47,107,45,-1,45,107,105,-1,45,105,104,-1,136,137,138,-1,138,137,139,-1,140,136,141,-1,141,136,138,-1,140,141,142,-1,140,142,143,-1,143,142,144,-1,143,144,145,-1,146,145,147,-1,147,145,144,-1,148,146,149,-1,149,146,147,-1,150,151,152,-1,152,151,148,-1,152,148,149,-1,153,151,154,-1,154,151,150,-1,155,156,157,-1,157,156,153,-1,157,153,154,-1,158,159,160,-1,160,159,156,-1,160,156,155,-1,158,161,159,-1,159,161,162,-1,161,163,162,-1,162,163,164,-1,162,164,165,-1,165,164,166,-1,165,166,167,-1,167,166,168,-1,167,168,169,-1,169,168,170,-1,169,170,171,-1,171,170,172,-1,171,172,173,-1,173,172,174,-1,173,174,175,-1,176,175,177,-1,177,175,174,-1,176,177,178,-1,176,178,179,-1,179,178,180,-1,179,180,181,-1,181,180,182,-1,181,182,183,-1,183,182,184,-1,183,184,185,-1,184,186,185,-1,185,186,187,-1,185,187,188,-1,188,187,189,-1,188,189,190,-1,190,189,191,-1,190,191,192,-1,192,191,193,-1,192,193,194,-1,139,137,195,-1,195,137,194,-1,195,194,193,-1,143,145,194,-1,137,136,194,-1,194,136,140,-1,194,140,143,-1,151,153,148,-1,148,153,156,-1,148,156,146,-1,175,176,173,-1,173,176,179,-1,173,179,171,-1,171,179,181,-1,171,181,169,-1,169,181,183,-1,169,183,167,-1,167,183,185,-1,167,185,165,-1,145,146,194,-1,194,146,156,-1,194,156,192,-1,156,159,192,-1,192,159,162,-1,192,162,190,-1,190,162,165,-1,190,165,188,-1,188,165,185,-1,196,197,198,-1,198,197,199,-1,200,201,202,-1,202,201,196,-1,202,196,198,-1,203,201,204,-1,204,201,200,-1,205,206,207,-1,207,206,203,-1,207,203,204,-1,208,206,209,-1,209,206,205,-1,210,211,212,-1,212,211,208,-1,212,208,209,-1,213,211,214,-1,214,211,210,-1,215,216,217,-1,217,216,213,-1,217,213,214,-1,218,216,219,-1,219,216,215,-1,220,221,222,-1,222,221,218,-1,222,218,219,-1,223,221,224,-1,224,221,220,-1,199,197,225,-1,225,197,223,-1,225,223,224,-1,216,218,213,-1,213,218,221,-1,213,221,211,-1,197,196,223,-1,223,196,201,-1,223,201,203,-1,206,208,203,-1,203,208,211,-1,203,211,223,-1,223,211,221,-1,226,227,228,-1,228,227,229,-1,228,229,230,-1,230,229,231,-1,230,231,232,-1,232,231,233,-1,232,233,234,-1,234,233,235,-1,234,235,236,-1,236,235,237,-1,236,237,238,-1,237,239,238,-1,238,239,240,-1,238,240,241,-1,241,240,242,-1,241,242,243,-1,243,242,244,-1,243,244,245,-1,245,244,246,-1,245,246,247,-1,247,246,248,-1,247,248,249,-1,249,248,250,-1,249,250,251,-1,251,250,252,-1,251,252,253,-1,253,252,254,-1,253,254,255,-1,255,254,256,-1,255,256,257,-1,257,256,258,-1,257,258,259,-1,259,258,260,-1,259,260,226,-1,226,260,261,-1,226,261,227,-1,232,234,262,-1,262,234,263,-1,232,262,264,-1,232,264,230,-1,230,264,265,-1,230,265,228,-1,228,265,266,-1,228,266,226,-1,226,266,267,-1,226,267,259,-1,259,267,268,-1,259,268,257,-1,257,268,269,-1,257,269,255,-1,255,269,270,-1,255,270,253,-1,253,270,271,-1,253,271,251,-1,251,271,272,-1,251,272,249,-1,249,272,273,-1,249,273,247,-1,247,273,274,-1,247,274,245,-1,245,274,275,-1,245,275,243,-1,243,275,276,-1,243,276,241,-1,241,276,277,-1,241,277,238,-1,236,238,278,-1,278,238,277,-1,234,236,263,-1,263,236,278,-1,239,237,279,-1,279,237,280,-1,237,235,280,-1,280,235,281,-1,235,233,281,-1,281,233,282,-1,261,283,284,-1,261,284,227,-1,227,284,285,-1,227,285,229,-1,229,285,286,-1,229,286,231,-1,231,286,282,-1,231,282,233,-1,254,287,288,-1,254,288,256,-1,256,288,289,-1,256,289,258,-1,258,289,290,-1,258,290,260,-1,260,290,283,-1,260,283,261,-1,246,291,292,-1,246,292,248,-1,248,292,293,-1,248,293,250,-1,250,293,294,-1,250,294,252,-1,252,294,287,-1,252,287,254,-1,239,279,295,-1,239,295,240,-1,240,295,296,-1,240,296,242,-1,242,296,297,-1,242,297,244,-1,244,297,291,-1,244,291,246,-1,
        ]
    }
}
Shape{
    appearance Appearance {
        material  Material 	{
            diffuseColor 1.0 1.0 1.0
            specularColor 0.5019607843137255 0.5019607843137255 0.5019607843137255
            ambientIntensity 0.2
            transparency 0
            shininess 0.5
        }
    }
    geometry IndexedFaceSet {
        ccw TRUE
        solid FALSE
        coord DEF co Coordinate {
            point [
                2.9488 -0.1004 0.6667, 2.9488 -0.1004 0.5638, 2.9488 -0.0803 0.6667, 2.9488 -0.0811 0.5638, 2.9488 -0.0785 0.6667, 2.9488 -0.0626 0.566, 2.9488 -0.0515 0.5703, 2.9488 -0.0429 0.5763, 2.9488 -0.0414 0.5777, 2.9488 -0.0352 0.5853, 2.9488 -0.0271 0.6166, 2.9488 -0.0418 0.6541, 2.9488 -0.0277 0.6071, 2.9488 -0.0503 0.66, 2.9488 -0.0304 0.5951, 2.9488 -0.0616 0.6644, 2.9488 -0.0291 0.6333, 2.9488 -0.0329 0.643, 2.9488 -0.0381 0.6505, 2.9488 -0.0381 0.6505
            ]
        }
        coordIndex [
            0,1,2,-1,2,1,3,-1,2,3,4,-1,4,3,5,-1,4,5,6,-1,6,7,4,-1,4,7,8,-1,4,8,9,-1,10,11,12,-1,12,11,13,-1,9,14,4,-1,4,14,12,-1,4,12,15,-1,15,12,13,-1,16,17,10,-1,10,17,18,-1,10,18,11,-1,
        ]
    }
}
Shape{
    appearance Appearance {
        material  Material 	{
            diffuseColor 0.0 0.0 0.0
            specularColor 0.0 0.0 0.0
            ambientIntensity 0.2
            transparency 0
            shininess 0.5
        }
    }
    geometry IndexedFaceSet {
        ccw TRUE
        solid FALSE
        coord DEF co Coordinate {
            point [
                2.9528 0.0357 0.6002, 2.9528 0.0302 0.5851, 2.9528 0.0805 0.6002, 2.9528 0.0858 0.5851, 2.9528 0.0557 0.6556, 2.9528 0.0492 0.682, 2.9528 -0.0016 0.5486, 2.9528 0.0174 0.5486, 2.9528 0.0568 0.6596, 2.9528 0.0578 0.665, 2.9528 0.0676 0.682, 2.9528 0.0583 0.665, 2.9528 0.0593 0.6593, 2.9528 0.0603 0.6556, 2.9528 0.1185 0.5486, 2.9528 0.0994 0.5486, 2.9488 0.0676 0.682, 2.9488 0.1185 0.5486, 2.9488 0.0492 0.682, 2.9488 -0.0016 0.5486, 2.9488 0.0174 0.5486, 2.9488 0.0302 0.5851, 2.9488 0.0858 0.5851, 2.9488 0.0994 0.5486, 2.9488 0.0357 0.6002, 2.9488 0.0805 0.6002, 2.9488 0.0603 0.6556, 2.9488 0.0583 0.665, 2.9488 0.0593 0.6593, 2.9488 0.0578 0.665, 2.9488 0.0557 0.6556, 2.9488 0.0568 0.6596, 2.9488 0.0568 0.6596
            ]
        }
        coordIndex [
            0,1,2,-1,2,1,3,-1,4,5,0,-1,0,5,6,-1,0,6,1,-1,1,6,7,-1,4,8,5,-1,5,8,9,-1,5,9,10,-1,10,9,11,-1,10,11,12,-1,12,13,10,-1,10,13,2,-1,10,2,14,-1,14,2,3,-1,14,3,15,-1,10,14,16,-1,16,14,17,-1,5,10,18,-1,18,10,16,-1,6,5,19,-1,19,5,18,-1,7,6,20,-1,20,6,19,-1,1,7,21,-1,21,7,20,-1,3,1,22,-1,22,1,21,-1,15,3,23,-1,23,3,22,-1,14,15,17,-1,17,15,23,-1,0,2,24,-1,24,2,25,-1,2,13,25,-1,25,13,26,-1,11,27,28,-1,11,28,12,-1,12,28,26,-1,12,26,13,-1,11,9,27,-1,27,9,29,-1,4,30,31,-1,4,31,8,-1,8,31,29,-1,8,29,9,-1,4,0,30,-1,30,0,24,-1,
        ]
    }
}
Shape{
    appearance Appearance {
        material  Material 	{
            diffuseColor 1.0 1.0 1.0
            specularColor 0.5019607843137255 0.5019607843137255 0.5019607843137255
            ambientIntensity 0.2
            transparency 0
            shininess 0.5
        }
    }
    geometry IndexedFaceSet {
        ccw TRUE
        solid FALSE
        coord DEF co Coordinate {
            point [
                2.9488 0.0583 0.665, 2.9488 0.0578 0.665, 2.9488 0.0593 0.6593, 2.9488 0.0568 0.6596, 2.9488 0.0603 0.6556, 2.9488 0.0557 0.6556, 2.9488 0.0805 0.6002, 2.9488 0.0357 0.6002, 2.9488 0.0357 0.6002
            ]
        }
        coordIndex [
            0,1,2,-1,2,1,3,-1,2,3,4,-1,4,3,5,-1,4,5,6,-1,6,5,7,-1,
        ]
    }
}
Shape{
    appearance Appearance {
        material  Material 	{
            diffuseColor 0.0 0.0 0.0
            specularColor 0.0 0.0 0.0
            ambientIntensity 0.2
            transparency 0
            shininess 0.5
        }
    }
    geometry IndexedFaceSet {
        ccw TRUE
        solid FALSE
        coord DEF co Coordinate {
            point [
                2.9528 -1.1736 0.5297, 2.9528 -1.1595 0.5123, 2.9528 -1.1822 0.6136, 2.9528 -1.1986 0.7785, 2.9528 -1.1775 0.7897, 2.9528 -1.1824 0.8481, 2.9528 -1.1233 0.8508, 2.9528 -1.0939 0.7815, 2.9528 -1.0794 0.8115, 2.9528 -0.9981 0.5804, 2.9528 -0.9981 0.5899, 2.9528 -1.0784 0.613, 2.9528 -1.0873 0.6159, 2.9528 -1.2028 0.6263, 2.9528 -1.1957 0.5538, 2.9528 -1.1831 0.55, 2.9528 -1.1452 0.8527, 2.9528 -1.0642 0.6015, 2.9528 -1.0598 0.5938, 2.9528 -0.9986 0.5706, 2.9528 -0.8653 0.6601, 2.9528 -0.8947 0.7104, 2.9528 -1.0218 0.644, 2.9528 -1.0939 0.6165, 2.9528 -1.1027 0.6154, 2.9528 -1.1156 0.6734, 2.9528 -1.111 0.6122, 2.9528 -1.1366 0.6654, 2.9528 -1.1185 0.6071, 2.9528 -1.156 0.652, 2.9528 -1.1236 0.6015, 2.9528 -1.1717 0.634, 2.9528 -1.1282 0.5934, 2.9528 -1.1306 0.5844, 2.9528 -1.0585 0.6699, 2.9528 -1.0814 0.6755, 2.9528 -1.093 0.6762, 2.9528 -1.0705 0.6081, 2.9528 -1.1184 0.5517, 2.9528 -1.1108 0.5465, 2.9528 -1.1409 0.4983, 2.9528 -1.102 0.5433, 2.9528 -0.8339 0.754, 2.9528 -0.8264 0.754, 2.9528 -0.7875 0.8053, 2.9528 -0.8083 0.7518, 2.9528 -0.7828 0.8037, 2.9528 -0.7918 0.7454, 2.9528 -0.7545 0.7897, 2.9528 -0.7288 0.7679, 2.9528 -1.1039 0.8735, 2.9528 -1.0582 0.837, 2.9528 -1.0816 0.8926, 2.9528 -1.0327 0.8556, 2.9528 -1.0536 0.9094, 2.9528 -1.154 0.7953, 2.9528 -1.1442 0.7958, 2.9528 -1.1342 0.8521, 2.9528 -1.122 0.793, 2.9528 -1.1007 0.7853, 2.9528 -1.0384 0.6591, 2.9528 -0.7286 0.5908, 2.9528 -0.7729 0.6285, 2.9528 -0.7545 0.569, 2.9528 -0.7869 0.617, 2.9528 -0.7834 0.5548, 2.9528 -0.8037 0.6093, 2.9528 -0.815 0.5481, 2.9528 -0.8207 0.606, 2.9528 -0.871 0.5481, 2.9528 -0.8634 0.606, 2.9528 -0.8763 0.549, 2.9528 -1.1245 0.5586, 2.9528 -1.1286 0.5664, 2.9528 -1.1307 0.5751, 2.9528 -0.777 0.7352, 2.9528 -0.7661 0.7229, 2.9528 -0.7094 0.7409, 2.9528 -0.7573 0.7065, 2.9528 -0.6979 0.7119, 2.9528 -0.7528 0.6883, 2.9528 -0.6935 0.681, 2.9528 -0.7523 0.68, 2.9528 -0.6979 0.6471, 2.9528 -0.7546 0.6616, 2.9528 -0.7098 0.617, 2.9528 -0.7612 0.6446, 2.9528 -0.7716 0.6298, 2.9528 -0.8387 0.8802, 2.9528 -0.8758 0.8366, 2.9528 -0.8053 0.8409, 2.9528 -0.8544 0.811, 2.9528 -0.8397 0.7804, 2.9528 -1.2363 0.7239, 2.9528 -1.2986 0.7081, 2.9528 -1.2391 0.7009, 2.9528 -1.2989 0.699, 2.9528 -1.238 0.6863, 2.9528 -1.2943 0.662, 2.9528 -1.2312 0.6631, 2.9528 -1.2807 0.6266, 2.9528 -1.2198 0.6438, 2.9528 -1.259 0.5956, 2.9528 -1.2299 0.5707, 2.9528 -1.0095 0.925, 2.9528 -1.0017 0.8681, 2.9528 -0.9677 0.9296, 2.9528 -0.9668 0.8726, 2.9528 -0.9217 0.9238, 2.9528 -0.9346 0.8687, 2.9528 -0.8747 0.9054, 2.9528 -0.9049 0.8573, 2.9528 -0.8782 0.8388, 2.9528 -1.2175 0.8345, 2.9528 -1.2477 0.8133, 2.9528 -1.215 0.7639, 2.9528 -1.2543 0.8072, 2.9528 -1.2281 0.745, 2.9528 -1.2771 0.7779, 2.9528 -1.2922 0.7438, 2.9528 -1.0574 0.5852, 2.9528 -1.0571 0.576, 2.9528 -1.0041 0.5471, 2.9528 -1.0591 0.5668, 2.9528 -1.0154 0.526, 2.9528 -1.0634 0.5586, 2.9528 -1.03 0.5096, 2.9528 -1.0695 0.5517, 2.9528 -1.0489 0.4965, 2.9528 -1.0768 0.5466, 2.9528 -1.07 0.4883, 2.9528 -1.085 0.5435, 2.9528 -1.093 0.4855, 2.9528 -1.0939 0.5424, 2.9528 -1.0966 0.4856, 2.9528 -1.119 0.4891, 2.9528 -0.8681 0.6069, 2.9528 -0.8909 0.5581, 2.9528 -0.8887 0.5558, 2.9528 -0.8653 0.6063, 2.9528 -0.8826 0.5515, 2.9528 -0.8985 0.5776, 2.9528 -0.8976 0.5705, 2.9528 -0.8951 0.564, 2.9528 -0.8764 0.606, 2.9528 -0.8829 0.6034, 2.9528 -0.8982 0.5813, 2.9528 -0.8888 0.5993, 2.9528 -0.8927 0.595, 2.9528 -0.8963 0.5885, 2.9528 -0.8691 0.607, 2.9488 -0.7226 0.7592, 2.9488 -0.7094 0.7409, 2.9488 -0.7011 0.7201, 2.9488 -0.6979 0.7119, 2.9488 -0.6935 0.681, 2.9488 -0.7288 0.7679, 2.9488 -0.7545 0.7897, 2.9488 -0.7828 0.8037, 2.9488 -0.7875 0.8053, 2.9488 -0.8053 0.8409, 2.9488 -0.8387 0.8802, 2.9488 -0.8597 0.8949, 2.9488 -0.8747 0.9054, 2.9488 -0.9217 0.9238, 2.9488 -0.9677 0.9296, 2.9488 -1.0095 0.925, 2.9488 -1.0536 0.9094, 2.9488 -1.0777 0.8949, 2.9488 -1.0816 0.8926, 2.9488 -1.1039 0.8735, 2.9488 -1.1233 0.8508, 2.9488 -1.1342 0.8521, 2.9488 -1.1452 0.8527, 2.9488 -1.1824 0.8481, 2.9488 -1.2175 0.8345, 2.9488 -1.2477 0.8133, 2.9488 -1.2543 0.8072, 2.9488 -1.2965 0.7201, 2.9488 -1.2922 0.7438, 2.9488 -1.2854 0.7592, 2.9488 -1.2771 0.7779, 2.9488 -1.2986 0.7081, 2.9488 -1.2989 0.699, 2.9488 -1.2943 0.662, 2.9488 -1.2807 0.6266, 2.9488 -1.259 0.5956, 2.9488 -1.2299 0.5707, 2.9488 -1.1957 0.5538, 2.9488 -1.1831 0.55, 2.9488 -1.1819 0.5475, 2.9488 -1.1736 0.5297, 2.9488 -1.1595 0.5123, 2.9488 -1.1409 0.4983, 2.9488 -1.1322 0.4946, 2.9488 -1.119 0.4891, 2.9488 -1.0966 0.4856, 2.9488 -1.093 0.4855, 2.9488 -0.9981 0.5804, 2.9488 -1.07 0.4883, 2.9488 -1.0537 0.4946, 2.9488 -1.0489 0.4965, 2.9488 -1.03 0.5096, 2.9488 -1.0154 0.526, 2.9488 -1.0041 0.5471, 2.9488 -1.0041 0.5475, 2.9488 -0.9986 0.5706, 2.9488 -0.9981 0.5899, 2.9488 -0.8653 0.6601, 2.9488 -0.8947 0.7104, 2.9488 -1.0218 0.644, 2.9488 -1.0384 0.6591, 2.9488 -1.0585 0.6699, 2.9488 -1.0814 0.6755, 2.9488 -1.093 0.6762, 2.9488 -1.1156 0.6734, 2.9488 -1.1366 0.6654, 2.9488 -1.156 0.652, 2.9488 -1.1717 0.634, 2.9488 -1.1822 0.6136, 2.9488 -1.2028 0.6263, 2.9488 -1.2198 0.6438, 2.9488 -1.2312 0.6631, 2.9488 -1.238 0.6863, 2.9488 -1.2391 0.7009, 2.9488 -1.2367 0.7201, 2.9488 -1.2363 0.7239, 2.9488 -1.2281 0.745, 2.9488 -1.2183 0.7592, 2.9488 -1.215 0.7639, 2.9488 -1.1986 0.7785, 2.9488 -1.1775 0.7897, 2.9488 -1.154 0.7953, 2.9488 -1.1442 0.7958, 2.9488 -1.122 0.793, 2.9488 -1.1007 0.7853, 2.9488 -1.0939 0.7815, 2.9488 -1.0794 0.8115, 2.9488 -1.0582 0.837, 2.9488 -1.0327 0.8556, 2.9488 -1.0017 0.8681, 2.9488 -0.9668 0.8726, 2.9488 -0.9346 0.8687, 2.9488 -0.9049 0.8573, 2.9488 -0.8782 0.8388, 2.9488 -0.8758 0.8366, 2.9488 -0.8544 0.811, 2.9488 -0.8397 0.7804, 2.9488 -0.8351 0.7592, 2.9488 -0.8339 0.754, 2.9488 -0.8264 0.754, 2.9488 -0.8083 0.7518, 2.9488 -0.7918 0.7454, 2.9488 -0.777 0.7352, 2.9488 -0.7661 0.7229, 2.9488 -0.7645 0.7201, 2.9488 -0.7573 0.7065, 2.9488 -0.7528 0.6883, 2.9488 -0.7523 0.68, 2.9488 -0.7546 0.6616, 2.9488 -0.7612 0.6446, 2.9488 -0.7716 0.6298, 2.9488 -0.7729 0.6285, 2.9488 -0.7869 0.617, 2.9488 -0.8037 0.6093, 2.9488 -0.8207 0.606, 2.9488 -0.8634 0.606, 2.9488 -0.8653 0.6063, 2.9488 -0.8681 0.6069, 2.9488 -0.8691 0.607, 2.9488 -0.8764 0.606, 2.9488 -0.8829 0.6034, 2.9488 -0.8888 0.5993, 2.9488 -0.8927 0.595, 2.9488 -0.8963 0.5885, 2.9488 -0.8982 0.5813, 2.9488 -0.8985 0.5776, 2.9488 -0.8976 0.5705, 2.9488 -0.8951 0.564, 2.9488 -0.8909 0.5581, 2.9488 -0.8887 0.5558, 2.9488 -0.8826 0.5515, 2.9488 -0.8763 0.549, 2.9488 -0.871 0.5481, 2.9488 -0.815 0.5481, 2.9488 -0.7834 0.5548, 2.9488 -0.7545 0.569, 2.9488 -0.7286 0.5908, 2.9488 -0.7098 0.617, 2.9488 -0.6979 0.6471, 2.9488 -1.0939 0.6165, 2.9488 -1.0873 0.6159, 2.9488 -1.0784 0.613, 2.9488 -1.0705 0.6081, 2.9488 -1.0642 0.6015, 2.9488 -1.0598 0.5938, 2.9488 -1.0574 0.5852, 2.9488 -1.0571 0.576, 2.9488 -1.0591 0.5668, 2.9488 -1.0634 0.5586, 2.9488 -1.0695 0.5517, 2.9488 -1.0768 0.5466, 2.9488 -1.085 0.5435, 2.9488 -1.0939 0.5424, 2.9488 -1.102 0.5433, 2.9488 -1.1108 0.5465, 2.9488 -1.1184 0.5517, 2.9488 -1.1245 0.5586, 2.9488 -1.1286 0.5664, 2.9488 -1.1307 0.5751, 2.9488 -1.1306 0.5844, 2.9488 -1.1282 0.5934, 2.9488 -1.1236 0.6015, 2.9488 -1.1185 0.6071, 2.9488 -1.111 0.6122, 2.9488 -1.1027 0.6154, 2.9488 -1.1027 0.6154
            ]
        }
        coordIndex [
            0,1,2,-1,3,4,5,-1,6,7,8,-1,9,10,11,-1,11,10,12,-1,13,14,2,-1,2,14,15,-1,2,15,0,-1,5,4,16,-1,17,18,19,-1,20,21,10,-1,10,21,22,-1,10,22,12,-1,12,22,23,-1,24,25,26,-1,26,25,27,-1,26,27,28,-1,28,27,29,-1,28,29,30,-1,30,29,31,-1,30,31,32,-1,32,31,2,-1,32,2,33,-1,34,35,24,-1,24,35,36,-1,24,36,25,-1,9,11,19,-1,19,11,37,-1,19,37,17,-1,38,1,39,-1,39,1,40,-1,39,40,41,-1,42,43,44,-1,44,43,45,-1,44,45,46,-1,46,45,47,-1,46,47,48,-1,48,47,49,-1,6,8,50,-1,50,8,51,-1,50,51,52,-1,52,51,53,-1,52,53,54,-1,4,55,16,-1,16,55,56,-1,16,56,57,-1,57,56,58,-1,57,58,6,-1,6,58,59,-1,6,59,7,-1,23,22,24,-1,24,22,60,-1,24,60,34,-1,61,62,63,-1,63,62,64,-1,63,64,65,-1,65,64,66,-1,65,66,67,-1,67,66,68,-1,67,68,69,-1,69,68,70,-1,69,70,71,-1,38,72,1,-1,1,72,73,-1,1,73,2,-1,2,73,74,-1,2,74,33,-1,47,75,49,-1,49,75,76,-1,49,76,77,-1,77,76,78,-1,77,78,79,-1,79,78,80,-1,79,80,81,-1,81,80,82,-1,81,82,83,-1,83,82,84,-1,83,84,85,-1,85,84,86,-1,85,86,61,-1,61,86,87,-1,61,87,62,-1,88,89,90,-1,90,89,91,-1,90,91,44,-1,44,91,92,-1,44,92,42,-1,93,94,95,-1,95,94,96,-1,95,96,97,-1,97,96,98,-1,97,98,99,-1,99,98,100,-1,99,100,101,-1,101,100,102,-1,101,102,13,-1,13,102,103,-1,13,103,14,-1,54,53,104,-1,104,53,105,-1,104,105,106,-1,106,105,107,-1,106,107,108,-1,108,107,109,-1,108,109,110,-1,110,109,111,-1,110,111,88,-1,88,111,112,-1,88,112,89,-1,5,113,3,-1,3,113,114,-1,3,114,115,-1,115,114,116,-1,115,116,117,-1,117,116,118,-1,117,118,93,-1,93,118,119,-1,93,119,94,-1,18,120,19,-1,19,120,121,-1,19,121,122,-1,122,121,123,-1,122,123,124,-1,124,123,125,-1,124,125,126,-1,126,125,127,-1,126,127,128,-1,128,127,129,-1,128,129,130,-1,130,129,131,-1,130,131,132,-1,132,131,133,-1,132,133,134,-1,134,133,41,-1,134,41,135,-1,135,41,40,-1,136,137,138,-1,70,139,71,-1,71,139,136,-1,71,136,140,-1,140,136,138,-1,141,142,136,-1,136,142,143,-1,136,143,137,-1,144,145,146,-1,145,147,146,-1,146,147,148,-1,146,148,149,-1,141,136,146,-1,146,136,150,-1,146,150,144,-1,151,49,152,-1,152,49,77,-1,152,77,153,-1,153,77,79,-1,153,79,154,-1,154,79,81,-1,154,81,155,-1,151,156,49,-1,49,156,157,-1,49,157,48,-1,48,157,158,-1,48,158,46,-1,46,158,159,-1,46,159,44,-1,44,159,160,-1,44,160,90,-1,90,160,161,-1,90,161,88,-1,110,88,162,-1,162,88,161,-1,162,163,110,-1,110,163,164,-1,110,164,108,-1,108,164,165,-1,108,165,106,-1,106,165,166,-1,106,166,104,-1,104,166,167,-1,104,167,54,-1,54,167,52,-1,52,167,168,-1,52,168,169,-1,52,169,170,-1,52,170,50,-1,50,170,171,-1,50,171,6,-1,6,171,172,-1,6,172,57,-1,57,172,173,-1,57,173,16,-1,16,173,174,-1,16,174,5,-1,5,174,175,-1,5,175,113,-1,113,175,176,-1,113,176,114,-1,114,176,177,-1,114,177,116,-1,178,94,179,-1,179,94,119,-1,179,119,180,-1,180,119,118,-1,180,118,181,-1,181,118,116,-1,181,116,177,-1,178,182,94,-1,94,182,183,-1,94,183,96,-1,96,183,184,-1,96,184,98,-1,98,184,185,-1,98,185,100,-1,100,185,186,-1,100,186,102,-1,102,186,187,-1,102,187,103,-1,103,187,188,-1,103,188,14,-1,14,188,189,-1,14,189,15,-1,15,189,190,-1,15,190,0,-1,190,191,0,-1,0,191,192,-1,0,192,1,-1,1,192,193,-1,1,193,40,-1,40,193,194,-1,40,194,135,-1,194,195,135,-1,135,195,196,-1,135,196,134,-1,134,196,197,-1,134,197,132,-1,198,9,19,-1,132,197,199,-1,200,128,199,-1,199,128,130,-1,199,130,132,-1,200,201,128,-1,128,201,202,-1,128,202,126,-1,126,202,203,-1,126,203,124,-1,124,203,204,-1,124,204,122,-1,122,204,205,-1,122,205,19,-1,19,205,206,-1,19,206,198,-1,10,9,207,-1,207,9,198,-1,20,10,208,-1,208,10,207,-1,21,20,209,-1,209,20,208,-1,22,21,210,-1,210,21,209,-1,22,210,211,-1,22,211,60,-1,60,211,212,-1,60,212,34,-1,34,212,213,-1,34,213,35,-1,35,213,214,-1,35,214,36,-1,36,214,215,-1,36,215,25,-1,25,215,216,-1,25,216,27,-1,27,216,217,-1,27,217,29,-1,29,217,218,-1,29,218,31,-1,31,218,219,-1,31,219,2,-1,2,219,220,-1,2,220,13,-1,13,220,221,-1,13,221,101,-1,101,221,222,-1,101,222,99,-1,99,222,223,-1,99,223,97,-1,97,223,224,-1,97,224,95,-1,93,95,224,-1,224,225,93,-1,93,225,226,-1,93,226,227,-1,228,115,227,-1,227,115,117,-1,227,117,93,-1,228,229,115,-1,115,229,230,-1,115,230,3,-1,3,230,231,-1,3,231,4,-1,4,231,232,-1,4,232,55,-1,55,232,233,-1,55,233,56,-1,56,233,234,-1,56,234,58,-1,58,234,235,-1,58,235,59,-1,59,235,236,-1,59,236,7,-1,7,236,237,-1,7,237,8,-1,8,237,238,-1,8,238,51,-1,51,238,239,-1,51,239,53,-1,53,239,240,-1,53,240,105,-1,105,240,241,-1,105,241,107,-1,107,241,242,-1,107,242,109,-1,109,242,243,-1,109,243,111,-1,111,243,244,-1,111,244,112,-1,112,244,245,-1,112,245,89,-1,89,245,246,-1,89,246,91,-1,91,246,247,-1,91,247,92,-1,92,247,42,-1,42,247,248,-1,42,248,249,-1,43,42,250,-1,250,42,249,-1,43,250,251,-1,43,251,45,-1,45,251,252,-1,45,252,47,-1,47,252,253,-1,47,253,75,-1,75,253,254,-1,75,254,76,-1,76,254,255,-1,76,255,78,-1,255,256,78,-1,78,256,257,-1,78,257,80,-1,80,257,258,-1,80,258,82,-1,82,258,259,-1,82,259,84,-1,84,259,260,-1,84,260,86,-1,86,260,261,-1,86,261,87,-1,87,261,262,-1,87,262,62,-1,62,262,263,-1,62,263,64,-1,64,263,264,-1,64,264,66,-1,66,264,265,-1,66,265,68,-1,70,68,266,-1,266,68,265,-1,70,266,267,-1,70,267,139,-1,139,267,268,-1,139,268,136,-1,136,268,269,-1,136,269,150,-1,150,269,270,-1,150,270,144,-1,144,270,271,-1,144,271,145,-1,145,271,272,-1,145,272,147,-1,147,272,273,-1,147,273,148,-1,148,273,274,-1,148,274,149,-1,149,274,275,-1,149,275,146,-1,146,275,276,-1,146,276,141,-1,141,276,277,-1,141,277,142,-1,142,277,278,-1,142,278,143,-1,143,278,279,-1,143,279,137,-1,137,279,280,-1,137,280,138,-1,138,280,281,-1,138,281,140,-1,140,281,282,-1,140,282,71,-1,71,282,283,-1,71,283,69,-1,67,69,284,-1,284,69,283,-1,67,284,285,-1,67,285,65,-1,65,285,286,-1,65,286,63,-1,63,286,287,-1,63,287,61,-1,61,287,288,-1,61,288,85,-1,85,288,289,-1,85,289,83,-1,83,289,155,-1,83,155,81,-1,23,290,291,-1,23,291,12,-1,12,291,292,-1,12,292,11,-1,11,292,293,-1,11,293,37,-1,37,293,294,-1,37,294,17,-1,17,294,295,-1,17,295,18,-1,18,295,296,-1,18,296,120,-1,120,296,297,-1,120,297,121,-1,121,297,298,-1,121,298,123,-1,123,298,299,-1,123,299,125,-1,125,299,300,-1,125,300,127,-1,127,300,301,-1,127,301,129,-1,129,301,302,-1,129,302,131,-1,131,302,303,-1,131,303,133,-1,133,303,304,-1,133,304,41,-1,41,304,305,-1,41,305,39,-1,39,305,306,-1,39,306,38,-1,38,306,307,-1,38,307,72,-1,72,307,308,-1,72,308,73,-1,73,308,309,-1,73,309,74,-1,74,309,310,-1,74,310,33,-1,33,310,311,-1,33,311,32,-1,32,311,312,-1,32,312,30,-1,30,312,313,-1,30,313,28,-1,28,313,314,-1,28,314,26,-1,26,314,315,-1,26,315,24,-1,24,315,290,-1,24,290,23,-1,
        ]
    }
}
Shape{
    appearance Appearance {
        material  Material 	{
            diffuseColor 1.0 1.0 1.0
            specularColor 0.5019607843137255 0.5019607843137255 0.5019607843137255
            ambientIntensity 0.2
            transparency 0
            shininess 0.5
        }
    }
    geometry IndexedFaceSet {
        ccw TRUE
        solid FALSE
        coord DEF co Coordinate {
            point [
                2.9488 -1.085 0.5435, 2.9488 -1.0873 0.6159, 2.9488 -1.0939 0.5424, 2.9488 -1.0939 0.6165, 2.9488 -1.1027 0.6154, 2.9488 -1.111 0.6122, 2.9488 -1.1185 0.6071, 2.9488 -1.1236 0.6015, 2.9488 -1.0695 0.5517, 2.9488 -1.0642 0.6015, 2.9488 -1.0705 0.6081, 2.9488 -1.1286 0.5664, 2.9488 -1.1245 0.5586, 2.9488 -1.1184 0.5517, 2.9488 -1.0768 0.5466, 2.9488 -1.0784 0.613, 2.9488 -1.1108 0.5465, 2.9488 -1.102 0.5433, 2.9488 -1.1282 0.5934, 2.9488 -1.1306 0.5844, 2.9488 -1.1307 0.5751, 2.9488 -1.0591 0.5668, 2.9488 -1.0571 0.576, 2.9488 -1.0634 0.5586, 2.9488 -1.0574 0.5852, 2.9488 -1.0598 0.5938, 2.9488 -1.0598 0.5938
            ]
        }
        coordIndex [
            0,1,2,-1,2,1,3,-1,2,3,4,-1,4,5,2,-1,2,5,6,-1,2,6,7,-1,8,9,10,-1,11,12,7,-1,7,12,13,-1,0,14,1,-1,1,14,8,-1,1,8,15,-1,15,8,10,-1,13,16,7,-1,7,16,17,-1,7,17,2,-1,18,19,7,-1,7,19,20,-1,7,20,11,-1,21,22,23,-1,23,22,24,-1,23,24,8,-1,8,24,25,-1,8,25,9,-1,
        ]
    }
}