#VRML V2.0 utf8
# 3D model generated by easyeda2kicad.py (https://github.com/uPesy/easyeda2kicad.py)

Shape{
    appearance Appearance {
        material  Material 	{
            diffuseColor 0.5372549019607843 0.34901960784313724 0.33725490196078434
            specularColor 0.3764705882352941 0.24313725490196078 0.23529411764705882
            ambientIntensity 0.2
            transparency 0
            shininess 0.5
        }
    }
    geometry IndexedFaceSet {
        ccw TRUE
        solid FALSE
        coord DEF co Coordinate {
            point [
                -0.689 -0.4626 0.0, -0.689 -0.1575 0.0, -0.4921 -0.4626 0.0, -0.4921 -0.1575 0.0, -0.689 -0.1575 0.0984, -0.4921 -0.1575 0.0984, -0.4921 -0.4626 0.0984, -0.689 -0.4626 0.0984, -0.4921 -0.4753 0.1001, -0.689 -0.4753 0.1001, -0.4921 -0.4872 0.105, -0.689 -0.4872 0.105, -0.4921 -0.4974 0.1128, -0.689 -0.4974 0.1128, -0.4921 -0.5052 0.123, -0.689 -0.5052 0.123, -0.4921 -0.5101 0.1349, -0.689 -0.5101 0.1349, -0.4921 -0.5118 0.1476, -0.689 -0.5118 0.1476, -0.2559 -0.1575 0.0984, -0.2559 -0.1575 0.0, -0.2559 -0.4626 0.0984, -0.2559 -0.4626 0.0, -0.2559 -0.4753 0.1001, -0.2559 -0.4955 0.0037, -0.2559 -0.4872 0.105, -0.2559 -0.5267 0.0146, -0.2559 -0.4974 0.1128, -0.2559 -0.5546 0.0322, -0.2559 -0.578 0.0556, -0.2559 -0.5052 0.123, -0.2559 -0.5956 0.0836, -0.2559 -0.5101 0.1349, -0.2559 -0.6065 0.1148, -0.2559 -0.5118 0.1476, -0.2559 -0.6102 0.1476, -0.2559 -0.5118 0.4331, -0.2559 -0.6102 0.4331, -0.4921 -0.6102 0.4331, -0.4921 -0.5118 0.4331, -0.4881 -0.6102 0.4636, -0.4881 -0.5118 0.4636, -0.4763 -0.6102 0.4921, -0.4763 -0.5118 0.4921, -0.4575 -0.6102 0.5166, -0.4575 -0.5118 0.5166, -0.4331 -0.6102 0.5354, -0.4331 -0.5118 0.5354, -0.4046 -0.6102 0.5472, -0.4046 -0.5118 0.5472, -0.374 -0.6102 0.5512, -0.374 -0.5118 0.5512, -0.3434 -0.6102 0.5472, -0.3434 -0.5118 0.5472, -0.315 -0.6102 0.5354, -0.315 -0.5118 0.5354, -0.2905 -0.6102 0.5166, -0.2905 -0.5118 0.5166, -0.2717 -0.6102 0.4921, -0.2717 -0.5118 0.4921, -0.2599 -0.6102 0.4636, -0.2599 -0.5118 0.4636, -0.4921 -0.6102 0.1476, -0.4921 -0.6065 0.1148, -0.4921 -0.5956 0.0836, -0.4921 -0.578 0.0556, -0.4921 -0.5546 0.0322, -0.4921 -0.5267 0.0146, -0.4921 -0.4955 0.0037, -0.689 -0.6102 0.1476, -0.689 -0.6065 0.1148, -0.689 -0.5956 0.0836, -0.689 -0.578 0.0556, -0.689 -0.5546 0.0322, -0.689 -0.5267 0.0146, -0.689 -0.4955 0.0037, -0.689 -0.5267 0.7334, -0.689 -0.5118 0.7396, -0.689 -0.5118 0.6004, -0.689 -0.5546 0.7158, -0.689 -0.6102 0.6004, -0.689 -0.6065 0.6332, -0.689 -0.5956 0.6645, -0.689 -0.578 0.6924, 0.8071 -0.4753 0.6479, 0.8071 -0.4872 0.643, -0.6916 -0.4871 0.6429, -0.6919 -0.4855 0.6439, -0.6947 -0.4753 0.6479, 0.8071 -0.4626 0.6496, -0.697 -0.4689 0.6492, -0.6997 -0.4626 0.6496, 0.8071 -0.4974 0.6352, 0.8071 -0.5052 0.625, -0.6892 -0.5052 0.625, -0.6894 -0.5016 0.6303, -0.6899 -0.4974 0.6352, -0.6906 -0.4926 0.6394, 0.8071 -0.5101 0.6131, 0.8071 -0.5118 0.6004, -0.689 -0.5114 0.6068, -0.689 -0.5101 0.6131, -0.689 -0.5081 0.6192, 0.8071 -0.5118 0.1476, 0.8071 -0.4626 0.0984, 0.8071 -0.4753 0.1001, 0.8071 -0.4872 0.105, 0.8071 -0.4974 0.1128, 0.8071 -0.5052 0.123, 0.8071 -0.5101 0.1349, 0.8071 -0.1575 0.0984, 0.8071 -0.1575 0.0, 0.8071 -0.4626 0.0, 0.8071 -0.6102 0.1476, 0.8071 -0.6065 0.1148, 0.8071 -0.5956 0.0836, 0.8071 -0.578 0.0556, 0.8071 -0.5546 0.0322, 0.8071 -0.5267 0.0146, 0.8071 -0.4955 0.0037, 0.8071 -0.6102 0.6004, 0.8071 -0.5267 0.7334, 0.8071 -0.5546 0.7158, 0.8071 -0.578 0.6924, 0.8071 -0.5956 0.6645, 0.8071 -0.6065 0.6332, 0.8071 -0.4955 0.7443, -0.6997 -0.4626 0.748, -0.6952 -0.4739 0.7476, 0.8071 -0.4626 0.748, -0.6919 -0.4855 0.7462, -0.6901 -0.4955 0.7443, -0.8071 -0.3937 0.748, -0.8071 -0.3937 0.6496, -0.7808 -0.3967 0.748, -0.7808 -0.3967 0.6496, -0.7558 -0.4054 0.748, -0.7558 -0.4054 0.6496, -0.7334 -0.4195 0.748, -0.7334 -0.4195 0.6496, -0.7147 -0.4382 0.748, -0.7147 -0.4382 0.6496, -0.7007 -0.4606 0.748, -0.7007 -0.4606 0.6496, 0.8071 -0.2991 0.6496, 0.8071 -0.2991 0.748, -0.8071 -0.2991 0.6496, -0.8071 -0.2991 0.748, -0.8071 -0.2991 0.748
            ]
        }
        coordIndex [
            0,1,2,-1,2,1,3,-1,1,4,3,-1,3,4,5,-1,5,4,6,-1,6,4,7,-1,6,7,8,-1,8,7,9,-1,8,9,10,-1,10,9,11,-1,10,11,12,-1,12,11,13,-1,12,13,14,-1,14,13,15,-1,14,15,16,-1,16,15,17,-1,16,17,18,-1,18,17,19,-1,20,21,22,-1,22,21,23,-1,22,23,24,-1,24,23,25,-1,24,25,26,-1,26,25,27,-1,26,27,28,-1,27,29,28,-1,28,29,30,-1,28,30,31,-1,31,30,32,-1,31,32,33,-1,33,32,34,-1,33,34,35,-1,35,34,36,-1,35,36,37,-1,37,36,38,-1,39,40,41,-1,41,40,42,-1,41,42,43,-1,43,42,44,-1,43,44,45,-1,45,44,46,-1,45,46,47,-1,47,46,48,-1,47,48,49,-1,49,48,50,-1,49,50,51,-1,51,50,52,-1,51,52,53,-1,53,52,54,-1,53,54,55,-1,55,54,56,-1,55,56,57,-1,57,56,58,-1,57,58,59,-1,59,58,60,-1,59,60,61,-1,61,60,62,-1,61,62,38,-1,38,62,37,-1,40,39,18,-1,18,39,63,-1,18,63,16,-1,16,63,64,-1,16,64,14,-1,64,65,14,-1,14,65,66,-1,14,66,12,-1,12,66,67,-1,12,67,10,-1,10,67,68,-1,10,68,8,-1,8,68,69,-1,8,69,6,-1,6,69,2,-1,6,2,5,-1,5,2,3,-1,63,70,71,-1,63,71,64,-1,64,71,72,-1,64,72,65,-1,65,72,73,-1,65,73,66,-1,66,73,74,-1,66,74,67,-1,67,74,75,-1,67,75,68,-1,68,75,76,-1,68,76,69,-1,69,76,0,-1,69,0,2,-1,4,1,7,-1,7,1,0,-1,7,0,9,-1,9,0,76,-1,9,76,11,-1,11,76,75,-1,11,75,13,-1,77,78,79,-1,77,79,80,-1,75,74,13,-1,13,74,73,-1,13,73,15,-1,15,73,72,-1,15,72,17,-1,17,72,71,-1,17,71,19,-1,19,71,70,-1,19,70,79,-1,79,70,81,-1,79,81,82,-1,82,83,79,-1,79,83,84,-1,79,84,80,-1,85,86,87,-1,87,88,85,-1,85,88,89,-1,85,89,90,-1,90,89,91,-1,90,91,92,-1,93,94,95,-1,95,96,93,-1,93,96,97,-1,93,97,86,-1,86,97,98,-1,86,98,87,-1,99,100,79,-1,79,101,99,-1,99,101,102,-1,99,102,94,-1,94,102,103,-1,94,103,95,-1,104,35,100,-1,100,35,37,-1,100,37,62,-1,62,60,100,-1,100,60,58,-1,100,58,56,-1,44,79,46,-1,46,79,48,-1,56,54,100,-1,100,54,52,-1,100,52,79,-1,79,52,50,-1,79,50,48,-1,18,19,40,-1,40,19,79,-1,40,79,42,-1,42,79,44,-1,105,22,106,-1,106,22,24,-1,106,24,107,-1,107,24,26,-1,107,26,108,-1,108,26,28,-1,108,28,109,-1,109,28,31,-1,109,31,110,-1,110,31,33,-1,110,33,104,-1,104,33,35,-1,22,105,20,-1,20,105,111,-1,111,112,20,-1,20,112,21,-1,112,113,21,-1,21,113,23,-1,114,36,34,-1,114,34,115,-1,115,34,32,-1,115,32,116,-1,116,32,30,-1,116,30,117,-1,117,30,29,-1,117,29,118,-1,118,29,27,-1,118,27,119,-1,119,27,25,-1,119,25,120,-1,120,25,23,-1,120,23,113,-1,41,43,81,-1,81,43,45,-1,81,45,47,-1,59,121,57,-1,57,121,55,-1,70,63,81,-1,81,63,39,-1,81,39,41,-1,36,114,38,-1,38,114,121,-1,38,121,61,-1,61,121,59,-1,47,49,81,-1,81,49,51,-1,81,51,121,-1,121,51,53,-1,121,53,55,-1,122,80,123,-1,123,80,84,-1,123,84,124,-1,124,84,83,-1,124,83,125,-1,125,83,82,-1,125,82,126,-1,126,82,81,-1,126,81,121,-1,127,78,122,-1,122,78,77,-1,122,77,80,-1,128,129,130,-1,130,129,131,-1,130,131,127,-1,127,131,132,-1,127,132,78,-1,131,88,132,-1,132,88,87,-1,132,87,78,-1,78,87,98,-1,78,98,97,-1,97,96,78,-1,78,96,95,-1,78,95,103,-1,103,102,78,-1,78,102,101,-1,78,101,79,-1,133,134,135,-1,135,134,136,-1,135,136,137,-1,137,136,138,-1,137,138,139,-1,139,138,140,-1,139,140,141,-1,141,140,142,-1,141,142,143,-1,143,142,144,-1,143,144,128,-1,128,144,92,-1,128,92,129,-1,129,92,91,-1,129,91,131,-1,131,91,89,-1,131,89,88,-1,145,146,90,-1,90,146,130,-1,90,130,85,-1,85,130,127,-1,85,127,86,-1,109,117,108,-1,108,117,118,-1,108,118,107,-1,107,118,119,-1,107,119,106,-1,106,119,120,-1,106,120,105,-1,105,120,113,-1,105,113,111,-1,111,113,112,-1,127,122,86,-1,86,122,123,-1,86,123,93,-1,93,123,124,-1,93,124,94,-1,94,124,125,-1,94,125,99,-1,99,125,126,-1,99,126,100,-1,100,126,121,-1,100,121,104,-1,104,121,114,-1,104,114,110,-1,110,114,115,-1,110,115,109,-1,109,115,116,-1,109,116,117,-1,147,134,148,-1,148,134,133,-1,136,134,147,-1,90,92,145,-1,145,92,144,-1,144,142,145,-1,145,142,140,-1,145,140,147,-1,147,140,138,-1,147,138,136,-1,128,130,143,-1,143,130,146,-1,143,146,141,-1,133,135,148,-1,148,135,137,-1,148,137,146,-1,146,137,139,-1,146,139,141,-1,145,147,146,-1,146,147,148,-1,
        ]
    }
}
Shape{
    appearance Appearance {
        material  Material 	{
            diffuseColor 0.9686274509803922 0.8784313725490196 0.6
            specularColor 0.6784313725490196 0.615686274509804 0.4196078431372549
            ambientIntensity 0.2
            transparency 0
            shininess 0.5
        }
    }
    geometry IndexedFaceSet {
        ccw TRUE
        solid FALSE
        coord DEF co Coordinate {
            point [
                -0.8071 0.2991 0.6496, -0.8071 0.2046 0.6496, -0.8071 0.2991 0.748, -0.8071 0.2046 0.748, 0.8071 0.2991 0.6496, 0.8071 0.2991 0.748, 0.8071 0.2421 0.6496, 0.8071 0.2421 0.748, 0.7775 0.2382 0.6496, 0.7775 0.2382 0.748, 0.75 0.2268 0.6496, 0.75 0.2268 0.748, 0.7264 0.2087 0.6496, 0.7264 0.2087 0.748, 0.7082 0.185 0.6496, 0.7082 0.185 0.748, 0.6968 0.1575 0.6496, 0.6968 0.1575 0.748, 0.6929 0.128 0.6496, 0.6929 0.128 0.748, 0.6929 -0.128 0.6496, 0.6929 -0.128 0.748, 0.6968 -0.1575 0.6496, 0.6968 -0.1575 0.748, 0.7082 -0.185 0.6496, 0.7082 -0.185 0.748, 0.7264 -0.2087 0.6496, 0.7264 -0.2087 0.748, 0.75 -0.2268 0.6496, 0.75 -0.2268 0.748, 0.7775 -0.2382 0.6496, 0.7775 -0.2382 0.748, 0.8071 -0.2421 0.6496, 0.8071 -0.2421 0.748, 0.8071 -0.2991 0.6496, 0.8071 -0.2991 0.748, -0.8071 -0.2991 0.6496, -0.8071 -0.2991 0.748, -0.8071 -0.2046 0.6496, -0.8071 -0.2046 0.748, -0.8031 -0.174 0.748, -0.8031 -0.174 0.6496, -0.7913 -0.1455 0.748, -0.7913 -0.1455 0.6496, -0.7725 -0.1211 0.748, -0.7725 -0.1211 0.6496, -0.748 -0.1023 0.748, -0.748 -0.1023 0.6496, -0.7236 -0.0835 0.6496, -0.7236 -0.0835 0.748, -0.7048 -0.0591 0.6496, -0.7048 -0.0591 0.748, -0.693 -0.0306 0.6496, -0.693 -0.0306 0.748, -0.689 -0.0 0.6496, -0.689 -0.0 0.748, -0.693 0.0306 0.6496, -0.693 0.0306 0.748, -0.7048 0.0591 0.6496, -0.7048 0.0591 0.748, -0.7236 0.0835 0.6496, -0.7236 0.0835 0.748, -0.748 0.1023 0.6496, -0.748 0.1023 0.748, -0.7725 0.1211 0.748, -0.7725 0.1211 0.6496, -0.7913 0.1455 0.748, -0.7913 0.1455 0.6496, -0.8031 0.174 0.748, -0.8031 0.174 0.6496, -0.8031 0.174 0.6496
            ]
        }
        coordIndex [
            0,1,2,-1,2,1,3,-1,4,0,5,-1,5,0,2,-1,6,4,7,-1,7,4,5,-1,6,7,8,-1,8,7,9,-1,8,9,10,-1,10,9,11,-1,10,11,12,-1,12,11,13,-1,12,13,14,-1,14,13,15,-1,14,15,16,-1,16,15,17,-1,16,17,18,-1,18,17,19,-1,20,18,21,-1,21,18,19,-1,20,21,22,-1,22,21,23,-1,22,23,24,-1,24,23,25,-1,24,25,26,-1,26,25,27,-1,26,27,28,-1,28,27,29,-1,28,29,30,-1,30,29,31,-1,30,31,32,-1,32,31,33,-1,34,32,35,-1,35,32,33,-1,36,34,37,-1,37,34,35,-1,38,36,39,-1,39,36,37,-1,38,39,40,-1,38,40,41,-1,41,40,42,-1,41,42,43,-1,43,42,44,-1,43,44,45,-1,45,44,46,-1,45,46,47,-1,47,46,48,-1,48,46,49,-1,48,49,50,-1,50,49,51,-1,50,51,52,-1,52,51,53,-1,52,53,54,-1,54,53,55,-1,54,55,56,-1,56,55,57,-1,56,57,58,-1,58,57,59,-1,58,59,60,-1,60,59,61,-1,60,61,62,-1,62,61,63,-1,62,63,64,-1,62,64,65,-1,65,64,66,-1,65,66,67,-1,67,66,68,-1,67,68,69,-1,69,68,3,-1,69,3,1,-1,30,32,34,-1,10,12,0,-1,0,12,1,-1,10,0,8,-1,8,0,4,-1,8,4,6,-1,48,50,26,-1,48,26,47,-1,14,56,12,-1,12,56,58,-1,30,34,28,-1,28,34,36,-1,28,36,26,-1,26,36,38,-1,26,38,41,-1,14,16,56,-1,56,16,18,-1,56,18,54,-1,54,18,20,-1,54,20,52,-1,52,20,22,-1,52,22,50,-1,50,22,24,-1,50,24,26,-1,58,60,12,-1,12,60,62,-1,12,62,65,-1,41,43,26,-1,26,43,45,-1,26,45,47,-1,65,67,12,-1,12,67,69,-1,12,69,1,-1,9,7,5,-1,39,37,27,-1,63,61,13,-1,35,33,31,-1,61,59,13,-1,13,59,57,-1,13,57,15,-1,15,57,17,-1,9,5,11,-1,11,5,2,-1,11,2,13,-1,13,2,3,-1,13,3,68,-1,35,31,37,-1,37,31,29,-1,37,29,27,-1,27,25,51,-1,51,25,23,-1,51,23,53,-1,68,66,13,-1,13,66,64,-1,13,64,63,-1,53,23,55,-1,55,23,21,-1,55,21,57,-1,57,21,19,-1,57,19,17,-1,51,49,27,-1,27,49,46,-1,27,46,44,-1,44,42,27,-1,27,42,40,-1,27,40,39,-1,
        ]
    }
}
Shape{
    appearance Appearance {
        material  Material 	{
            diffuseColor 0.5372549019607843 0.34901960784313724 0.33725490196078434
            specularColor 0.3764705882352941 0.24313725490196078 0.23529411764705882
            ambientIntensity 0.2
            transparency 0
            shininess 0.5
        }
    }
    geometry IndexedFaceSet {
        ccw TRUE
        solid FALSE
        coord DEF co Coordinate {
            point [
                0.2006 0.6102 0.3099, 0.205 0.6102 0.3094, 0.1922 0.6102 0.3094, 0.0942 0.6102 0.3093, 0.0942 0.6102 0.3094, 0.0953 0.6102 0.3094, 0.2631 0.6102 0.414, 0.2631 0.6102 0.4138, 0.2466 0.6102 0.4138, 0.2176 0.6102 0.4133, 0.2176 0.6102 0.4138, 0.2193 0.6102 0.4138, 0.4829 0.6102 0.3605, 0.4827 0.6102 0.3617, 0.8071 0.6102 0.3617, 0.3193 0.6102 0.383, 0.3117 0.6102 0.3764, 0.2853 0.6102 0.4138, 0.2853 0.6102 0.3732, 0.3573 0.6102 0.4192, 0.3495 0.6102 0.4138, 0.3446 0.6102 0.4105, 0.3354 0.6102 0.3998, 0.3294 0.6102 0.3879, 0.3278 0.6102 0.3874, 0.3715 0.6102 0.4243, 0.2853 0.6102 0.6004, 0.3832 0.6102 0.4256, 0.8071 0.6102 0.6004, 0.8071 0.6102 0.4138, 0.4186 0.6102 0.4138, 0.4175 0.6102 0.4148, 0.4105 0.6102 0.419, 0.3974 0.6102 0.424, 0.4695 0.6102 0.3895, 0.4669 0.6102 0.3919, 0.4573 0.6102 0.3982, 0.4467 0.6102 0.4019, 0.4366 0.6102 0.4029, 0.4242 0.6102 0.4091, 0.4334 0.6102 0.4027, 0.4301 0.6102 0.4023, 0.8071 0.6102 0.3732, 0.4806 0.6102 0.3717, 0.4799 0.6102 0.3732, 0.4758 0.6102 0.3818, 0.4474 0.6102 0.3094, 0.4487 0.6102 0.3122, 0.8071 0.6102 0.3094, 0.4536 0.6102 0.3138, 0.4637 0.6102 0.3192, 0.4713 0.6102 0.326, 0.4724 0.6102 0.3273, 0.4783 0.6102 0.3365, 0.4821 0.6102 0.3472, 0.4831 0.6102 0.3572, 0.4459 0.6102 0.3061, 0.8071 0.6102 0.3027, 0.4432 0.6102 0.3027, 0.4417 0.6102 0.3008, 0.8071 0.6102 0.2201, 0.4361 0.6102 0.2966, 0.4001 0.6102 0.3027, 0.4028 0.6102 0.2998, 0.2853 0.6102 0.2201, 0.4085 0.6102 0.2959, 0.4149 0.6102 0.2935, 0.4218 0.6102 0.2927, 0.4229 0.6102 0.2927, 0.4296 0.6102 0.2938, 0.3958 0.6102 0.3094, 0.3984 0.6102 0.3047, 0.2853 0.6102 0.3027, 0.4001 0.6102 0.3401, 0.3618 0.6102 0.3597, 0.405 0.6102 0.3446, 0.411 0.6102 0.3479, 0.3015 0.6102 0.3492, 0.303 0.6102 0.3399, 0.2853 0.6102 0.3094, 0.3204 0.6102 0.3168, 0.3291 0.6102 0.3127, 0.3193 0.6102 0.3528, 0.3206 0.6102 0.3582, 0.3224 0.6102 0.3617, 0.4646 0.6102 0.3617, 0.3067 0.6102 0.331, 0.3122 0.6102 0.3235, 0.3564 0.6102 0.3284, 0.3531 0.6102 0.3446, 0.3584 0.6102 0.3277, 0.3602 0.6102 0.3265, 0.4629 0.6102 0.3463, 0.4595 0.6102 0.3404, 0.4451 0.6102 0.3374, 0.4544 0.6102 0.3351, 0.4482 0.6102 0.3313, 0.4345 0.6102 0.3467, 0.4403 0.6102 0.3427, 0.4651 0.6102 0.3576, 0.4648 0.6102 0.3533, 0.3027 0.6102 0.3595, 0.3015 0.6102 0.3505, 0.2853 0.6102 0.3617, 0.3583 0.6102 0.3119, 0.3602 0.6102 0.3132, 0.395 0.6102 0.311, 0.361 0.6102 0.3141, 0.4281 0.6102 0.3491, 0.4214 0.6102 0.3499, 0.4179 0.6102 0.3497, 0.3543 0.6102 0.3286, 0.3541 0.6102 0.3286, 0.3532 0.6102 0.3284, 0.3382 0.6102 0.3109, 0.355 0.6102 0.311, 0.3564 0.6102 0.3112, 0.3632 0.6102 0.3199, 0.3632 0.6102 0.3206, 0.3931 0.6102 0.3238, 0.3627 0.6102 0.3228, 0.3616 0.6102 0.3248, 0.3623 0.6102 0.3159, 0.363 0.6102 0.3178, 0.3933 0.6102 0.318, 0.3931 0.6102 0.3209, 0.325 0.6102 0.3353, 0.3219 0.6102 0.3397, 0.3199 0.6102 0.3448, 0.3192 0.6102 0.3503, 0.3526 0.6102 0.3283, 0.3398 0.6102 0.3282, 0.3347 0.6102 0.3292, 0.3297 0.6102 0.3315, 0.3255 0.6102 0.3349, 0.3435 0.6102 0.3727, 0.4618 0.6102 0.3708, 0.4642 0.6102 0.3645, 0.3412 0.6102 0.3727, 0.3232 0.6102 0.3632, 0.3265 0.6102 0.3669, 0.3309 0.6102 0.37, 0.3358 0.6102 0.372, 0.4601 0.6102 0.3732, 0.4214 0.6102 0.3815, 0.4235 0.6102 0.3826, 0.3487 0.6102 0.3886, 0.3548 0.6102 0.3965, 0.3569 0.6102 0.3985, 0.365 0.6102 0.404, 0.3739 0.6102 0.4074, 0.4299 0.6102 0.385, 0.4365 0.6102 0.3859, 0.4394 0.6102 0.3857, 0.3436 0.6102 0.3732, 0.3447 0.6102 0.3792, 0.3831 0.6102 0.4085, 0.3842 0.6102 0.4085, 0.4173 0.6102 0.39, 0.3937 0.6102 0.4072, 0.411 0.6102 0.3976, 0.4031 0.6102 0.4035, 0.4464 0.6102 0.3841, 0.4528 0.6102 0.3808, 0.4578 0.6102 0.3764, 0.3095 0.6102 0.3732, 0.306 0.6102 0.3682, 0.3035 0.6102 0.3617, 0.1328 0.6102 0.4138, 0.1284 0.6102 0.4131, 0.1229 0.6102 0.413, 0.145 0.6102 0.3732, 0.1439 0.6102 0.3732, 0.1328 0.6102 0.4017, 0.1439 0.6102 0.3731, 0.145 0.6102 0.3617, 0.1382 0.6102 0.3731, 0.1328 0.6102 0.3617, 0.1382 0.6102 0.3732, 0.1328 0.6102 0.3732, 0.1328 0.6102 0.384, 0.1343 0.6102 0.384, 0.1176 0.6102 0.3839, 0.1137 0.6102 0.3732, 0.1136 0.6102 0.3729, 0.1079 0.6102 0.3729, 0.0953 0.6102 0.3617, 0.108 0.6102 0.3732, 0.0953 0.6102 0.3732, 0.0953 0.6102 0.4138, 0.1922 0.6102 0.4138, 0.1869 0.6102 0.4135, 0.1825 0.6102 0.4138, 0.187 0.6102 0.4089, 0.1882 0.6102 0.3961, 0.1922 0.6102 0.3961, 0.2025 0.6102 0.3916, 0.2026 0.6102 0.3781, 0.1922 0.6102 0.3915, 0.1922 0.6102 0.378, 0.1882 0.6102 0.3915, 0.1863 0.6102 0.378, 0.1922 0.6102 0.4089, 0.2024 0.6102 0.409, 0.2025 0.6102 0.3962, 0.2078 0.6102 0.3736, 0.2104 0.6102 0.3732, 0.1922 0.6102 0.3732, 0.1825 0.6102 0.3732, 0.1863 0.6102 0.3734, 0.1922 0.6102 0.3735, 0.2104 0.6102 0.4138, 0.2075 0.6102 0.4136, 0.1922 0.6102 0.4135, 0.2156 0.6102 0.4127, 0.2156 0.6102 0.4073, 0.2243 0.6102 0.3777, 0.2197 0.6102 0.3785, 0.2176 0.6102 0.4082, 0.2176 0.6102 0.3795, 0.216 0.6102 0.4076, 0.2158 0.6102 0.3803, 0.2201 0.6102 0.4091, 0.225 0.6102 0.4098, 0.2403 0.6102 0.3934, 0.2356 0.6102 0.3812, 0.233 0.6102 0.3793, 0.236 0.6102 0.4054, 0.2382 0.6102 0.4024, 0.2332 0.6102 0.4076, 0.2301 0.6102 0.4091, 0.2266 0.6102 0.4097, 0.2395 0.6102 0.3989, 0.2402 0.6102 0.3919, 0.2396 0.6102 0.3879, 0.2302 0.6102 0.3782, 0.2261 0.6102 0.3777, 0.2383 0.6102 0.3847, 0.2364 0.6102 0.3819, 0.2301 0.6102 0.4138, 0.225 0.6102 0.4144, 0.2442 0.6102 0.6004, 0.2176 0.6102 0.6004, 0.225 0.6102 0.4144, 0.2197 0.6102 0.414, 0.2442 0.6102 0.4138, 0.2427 0.6102 0.4049, 0.2398 0.6102 0.4086, 0.2388 0.6102 0.4095, 0.2351 0.6102 0.4122, 0.2309 0.6102 0.4138, 0.2446 0.6102 0.4004, 0.2442 0.6102 0.4015, 0.2442 0.6102 0.3846, 0.2449 0.6102 0.3865, 0.2466 0.6102 0.3732, 0.2457 0.6102 0.3931, 0.2456 0.6102 0.3952, 0.2337 0.6102 0.3741, 0.2374 0.6102 0.3759, 0.2442 0.6102 0.3732, 0.2293 0.6102 0.3732, 0.2406 0.6102 0.3786, 0.2433 0.6102 0.3824, 0.2257 0.6102 0.3732, 0.2269 0.6102 0.3731, 0.2176 0.6102 0.3617, 0.229 0.6102 0.3732, 0.2158 0.6102 0.3753, 0.2165 0.6102 0.375, 0.2176 0.6102 0.3732, 0.2176 0.6102 0.3746, 0.2208 0.6102 0.3736, 0.2634 0.6102 0.3786, 0.2474 0.6102 0.3784, 0.2475 0.6102 0.3739, 0.2686 0.6102 0.374, 0.2683 0.6102 0.4138, 0.2683 0.6102 0.4141, 0.2466 0.6102 0.6004, -0.4921 0.6102 0.1476, -0.689 0.6102 0.1476, -0.689 0.6102 0.2201, -0.4921 0.6102 0.2201, -0.689 0.6102 0.3027, -0.4921 0.6102 0.3027, -0.689 0.6102 0.3094, -0.4921 0.6102 0.3094, -0.689 0.6102 0.3617, -0.4921 0.6102 0.3617, -0.689 0.6102 0.3732, -0.4921 0.6102 0.3732, -0.689 0.6102 0.4138, -0.4921 0.6102 0.4138, -0.689 0.6102 0.6004, -0.4331 0.6102 0.5354, -0.4575 0.6102 0.5166, -0.3154 0.6102 0.5355, -0.3434 0.6102 0.5472, -0.3154 0.6102 0.6004, -0.374 0.6102 0.5512, -0.4046 0.6102 0.5472, -0.4763 0.6102 0.4921, -0.4881 0.6102 0.4636, -0.4921 0.6102 0.4331, -0.2559 0.6102 0.4331, -0.2599 0.6102 0.4636, 0.0953 0.6102 0.6004, -0.2717 0.6102 0.4921, -0.2905 0.6102 0.5166, -0.315 0.6102 0.5354, 0.0787 0.6102 0.3492, 0.0732 0.6102 0.3492, 0.0885 0.6102 0.3094, 0.0885 0.6102 0.3092, 0.0639 0.6102 0.3091, 0.0953 0.6102 0.3027, 0.0582 0.6102 0.309, -0.2559 0.6102 0.3027, 0.0584 0.6102 0.3094, -0.2559 0.6102 0.3094, -0.2559 0.6102 0.3617, -0.2559 0.6102 0.3732, -0.2559 0.6102 0.4138, 0.2119 0.6102 0.3273, 0.2125 0.6102 0.3288, 0.2129 0.6102 0.3163, 0.2104 0.6102 0.3617, 0.2111 0.6102 0.3356, 0.2104 0.6102 0.3149, 0.2104 0.6102 0.3255, 0.2111 0.6102 0.3152, 0.2105 0.6102 0.3256, 0.2113 0.6102 0.3265, 0.2127 0.6102 0.331, 0.2126 0.6102 0.3326, 0.212 0.6102 0.3342, 0.2053 0.6102 0.3094, 0.2094 0.6102 0.3099, 0.2104 0.6102 0.3094, 0.2104 0.6102 0.3102, 0.2176 0.6102 0.3094, 0.2129 0.6102 0.3111, 0.1922 0.6102 0.3027, 0.2104 0.6102 0.3027, 0.2052 0.6102 0.3094, 0.1948 0.6102 0.338, 0.1948 0.6102 0.3331, 0.2104 0.6102 0.3363, 0.2095 0.6102 0.3371, 0.2083 0.6102 0.3378, 0.1938 0.6102 0.3158, 0.1944 0.6102 0.3142, 0.1954 0.6102 0.3128, 0.2056 0.6102 0.3388, 0.2015 0.6102 0.3393, 0.1922 0.6102 0.3617, 0.198 0.6102 0.3389, 0.1952 0.6102 0.3225, 0.1943 0.6102 0.3211, 0.1937 0.6102 0.3196, 0.1935 0.6102 0.3178, 0.1968 0.6102 0.3116, 0.198 0.6102 0.3109, 0.2021 0.6102 0.3352, 0.2035 0.6102 0.3351, 0.2076 0.6102 0.3314, 0.2049 0.6102 0.3348, 0.206 0.6102 0.3342, 0.2075 0.6102 0.3307, 0.2073 0.6102 0.33, 0.207 0.6102 0.3293, 0.2065 0.6102 0.3287, 0.2047 0.6102 0.3276, 0.1986 0.6102 0.3348, 0.2016 0.6102 0.3262, 0.1957 0.6102 0.3336, 0.1997 0.6102 0.3254, 0.1964 0.6102 0.3236, 0.2068 0.6102 0.3335, 0.2072 0.6102 0.3329, 0.2075 0.6102 0.3322, 0.2079 0.6102 0.3139, 0.2052 0.6102 0.3226, 0.2082 0.6102 0.324, 0.2046 0.6102 0.3135, 0.2044 0.6102 0.3135, 0.2019 0.6102 0.3212, 0.2018 0.6102 0.3137, 0.1987 0.6102 0.3173, 0.1987 0.6102 0.3179, 0.2005 0.6102 0.3142, 0.2001 0.6102 0.3145, 0.1995 0.6102 0.315, 0.1991 0.6102 0.3156, 0.1988 0.6102 0.3163, 0.199 0.6102 0.3187, 0.1993 0.6102 0.3194, 0.2 0.6102 0.32, 0.1579 0.6102 0.3498, 0.145 0.6102 0.3497, 0.1779 0.6102 0.317, 0.1773 0.6102 0.3146, 0.1771 0.6102 0.3146, 0.1633 0.6102 0.3384, 0.1825 0.6102 0.3617, 0.1685 0.6102 0.3384, 0.1825 0.6102 0.3306, 0.1765 0.6102 0.3169, 0.1769 0.6102 0.3156, 0.1825 0.6102 0.3094, 0.1825 0.6102 0.317, 0.1908 0.6102 0.3386, 0.1852 0.6102 0.3385, 0.1798 0.6102 0.3099, 0.18 0.6102 0.3094, 0.182 0.6102 0.3048, 0.1832 0.6102 0.3027, 0.1832 0.6102 0.3028, 0.1825 0.6102 0.3039, 0.1901 0.6102 0.2969, 0.19 0.6102 0.3014, 0.189 0.6102 0.301, 0.1872 0.6102 0.3008, 0.1862 0.6102 0.3008, 0.1851 0.6102 0.3012, 0.1842 0.6102 0.3017, 0.1827 0.6102 0.2975, 0.1847 0.6102 0.2967, 0.1825 0.6102 0.2201, 0.1868 0.6102 0.2965, 0.1922 0.6102 0.2201, 0.1879 0.6102 0.2965, 0.178 0.6102 0.3027, 0.1789 0.6102 0.3011, 0.145 0.6102 0.2201, 0.181 0.6102 0.2987, 0.1825 0.6102 0.2976, 0.175 0.6102 0.3094, 0.1766 0.6102 0.3055, 0.145 0.6102 0.3027, 0.1528 0.6102 0.3277, 0.1529 0.6102 0.3143, 0.145 0.6102 0.3277, 0.145 0.6102 0.3142, 0.1385 0.6102 0.3276, 0.1366 0.6102 0.3141, 0.1328 0.6102 0.3094, 0.1366 0.6102 0.3096, 0.145 0.6102 0.3094, 0.145 0.6102 0.3096, 0.1581 0.6102 0.3097, 0.1372 0.6102 0.3496, 0.1373 0.6102 0.345, 0.1385 0.6102 0.3322, 0.145 0.6102 0.3323, 0.145 0.6102 0.3451, 0.1527 0.6102 0.3451, 0.1528 0.6102 0.3323, 0.064 0.6102 0.3094, 0.0679 0.6102 0.32, 0.0846 0.6102 0.3202, 0.269 0.6102 0.3105, 0.2466 0.6102 0.3094, 0.2481 0.6102 0.3504, 0.2481 0.6102 0.3458, 0.2466 0.6102 0.3617, 0.2687 0.6102 0.3505, 0.2637 0.6102 0.3285, 0.2638 0.6102 0.315, 0.2494 0.6102 0.3284, 0.2474 0.6102 0.3149, 0.2494 0.6102 0.333, 0.2636 0.6102 0.3459, 0.2637 0.6102 0.3331, 0.2475 0.6102 0.3104, 0.2442 0.6102 0.3617, 0.2442 0.6102 0.3094, 0.2406 0.6102 0.3239, 0.2397 0.6102 0.332, 0.2416 0.6102 0.3225, 0.2423 0.6102 0.3207, 0.2231 0.6102 0.3376, 0.2217 0.6102 0.3363, 0.2272 0.6102 0.3117, 0.229 0.6102 0.3105, 0.2247 0.6102 0.3102, 0.2311 0.6102 0.3098, 0.2336 0.6102 0.3096, 0.2286 0.6102 0.3352, 0.2303 0.6102 0.3354, 0.2331 0.6102 0.3272, 0.2298 0.6102 0.3395, 0.2269 0.6102 0.3392, 0.2247 0.6102 0.3386, 0.2207 0.6102 0.3347, 0.22 0.6102 0.3324, 0.2196 0.6102 0.3286, 0.2418 0.6102 0.3139, 0.2424 0.6102 0.3156, 0.235 0.6102 0.3389, 0.2387 0.6102 0.3375, 0.2397 0.6102 0.3369, 0.239 0.6102 0.3253, 0.2369 0.6102 0.3263, 0.2362 0.6102 0.3342, 0.2331 0.6102 0.3352, 0.2197 0.6102 0.3102, 0.2247 0.6102 0.3146, 0.2248 0.6102 0.3146, 0.2256 0.6102 0.3134, 0.2385 0.6102 0.3107, 0.2402 0.6102 0.3119, 0.2407 0.6102 0.3124, 0.2246 0.6102 0.3284, 0.2247 0.6102 0.3306, 0.2253 0.6102 0.3324, 0.2258 0.6102 0.3334, 0.2366 0.6102 0.31, 0.2426 0.6102 0.318, 0.2426 0.6102 0.3186, 0.2266 0.6102 0.3342, 0.2275 0.6102 0.3348, 0.2466 0.6102 0.3027, 0.2442 0.6102 0.3027, 0.2176 0.6102 0.3027, 0.2466 0.6102 0.2201, 0.2442 0.6102 0.2201, 0.2176 0.6102 0.2201, 0.2104 0.6102 0.2201, 0.1461 0.6102 0.3911, 0.1471 0.6102 0.3865, 0.1481 0.6102 0.4031, 0.1466 0.6102 0.3992, 0.145 0.6102 0.4138, 0.146 0.6102 0.3937, 0.1491 0.6102 0.3823, 0.1521 0.6102 0.3788, 0.1563 0.6102 0.3759, 0.167 0.6102 0.4133, 0.1609 0.6102 0.4126, 0.1561 0.6102 0.4108, 0.1609 0.6102 0.3741, 0.1677 0.6102 0.3733, 0.1787 0.6102 0.3734, 0.1784 0.6102 0.4134, 0.1519 0.6102 0.4079, 0.1506 0.6102 0.4066, 0.2104 0.6102 0.6004, 0.1922 0.6102 0.6004, 0.1825 0.6102 0.6004, 0.145 0.6102 0.6004, 0.1328 0.6102 0.6004, 0.0974 0.6102 0.3226, 0.0994 0.6102 0.3185, 0.1025 0.6102 0.3149, 0.1066 0.6102 0.312, 0.1112 0.6102 0.3102, 0.118 0.6102 0.3094, 0.129 0.6102 0.3095, 0.1288 0.6102 0.3496, 0.1173 0.6102 0.3495, 0.1112 0.6102 0.3488, 0.1064 0.6102 0.347, 0.1022 0.6102 0.3441, 0.1009 0.6102 0.3427, 0.0984 0.6102 0.3392, 0.0969 0.6102 0.3354, 0.0963 0.6102 0.3298, 0.0964 0.6102 0.3273, 0.1328 0.6102 0.3027, 0.1328 0.6102 0.2201, 0.0953 0.6102 0.2201, -0.2559 0.6102 0.2201, 0.8071 0.6102 0.1476, 0.2853 0.6102 0.1476, 0.2466 0.6102 0.1476, 0.2442 0.6102 0.1476, 0.2176 0.6102 0.1476, 0.2104 0.6102 0.1476, 0.1922 0.6102 0.1476, 0.1825 0.6102 0.1476, 0.145 0.6102 0.1476, 0.1328 0.6102 0.1476, 0.0953 0.6102 0.1476, -0.2559 0.6102 0.1476, -0.7236 0.4283 0.748, -0.748 0.4095 0.748, 0.8071 0.2991 0.748, -0.8071 0.2991 0.748, -0.7765 0.3977 0.748, -0.8071 0.3937 0.748, 0.8071 0.4626 0.748, -0.6997 0.4626 0.748, -0.7048 0.4528 0.748, -0.748 0.4095 0.6496, 0.8071 0.2991 0.6496, -0.7765 0.3977 0.6496, -0.8071 0.2991 0.6496, -0.8071 0.3937 0.6496, -0.6997 0.4626 0.6496, 0.8071 0.4626 0.6496, -0.7048 0.4528 0.6496, -0.7236 0.4283 0.6496, 0.8071 0.4955 0.7443, 0.8071 0.4753 0.6479, 0.8071 0.5267 0.7334, 0.8071 0.4872 0.643, 0.8071 0.5546 0.7158, 0.8071 0.4974 0.6352, 0.8071 0.1575 0.0984, 0.8071 0.1575 0.0, 0.8071 0.4626 0.0984, 0.8071 0.4626 0.0, 0.8071 0.4753 0.1001, 0.8071 0.4955 0.0037, 0.8071 0.4872 0.105, 0.8071 0.5267 0.0146, 0.8071 0.4974 0.1128, 0.8071 0.5546 0.0322, 0.8071 0.578 0.0556, 0.8071 0.5052 0.123, 0.8071 0.5956 0.0836, 0.8071 0.5101 0.1349, 0.8071 0.6065 0.1148, 0.8071 0.5118 0.1476, 0.8071 0.5118 0.6004, 0.8071 0.5101 0.6131, 0.8071 0.6065 0.6332, 0.8071 0.5052 0.625, 0.8071 0.5956 0.6645, 0.8071 0.578 0.6924, -0.2559 0.1575 0.0984, -0.2559 0.4626 0.0984, -0.2559 0.1575 0.0, -0.2559 0.4626 0.0, -0.2559 0.4955 0.0037, -0.2559 0.5267 0.0146, -0.2559 0.5546 0.0322, -0.2559 0.578 0.0556, -0.2559 0.5956 0.0836, -0.2559 0.6065 0.1148, -0.2559 0.5118 0.1476, -0.2559 0.5101 0.1349, -0.2559 0.5052 0.123, -0.2559 0.4974 0.1128, -0.2559 0.4872 0.105, -0.2559 0.4753 0.1001, -0.4921 0.4626 0.0984, -0.689 0.4626 0.0984, -0.4921 0.1575 0.0984, -0.689 0.1575 0.0984, -0.689 0.1575 0.0, -0.4921 0.1575 0.0, -0.689 0.4626 0.0, -0.4921 0.4626 0.0, -0.689 0.4955 0.0037, -0.4921 0.4955 0.0037, -0.689 0.5267 0.0146, -0.4921 0.5267 0.0146, -0.689 0.5546 0.0322, -0.4921 0.5546 0.0322, -0.689 0.578 0.0556, -0.4921 0.578 0.0556, -0.689 0.5956 0.0836, -0.4921 0.5956 0.0836, -0.689 0.6065 0.1148, -0.4921 0.6065 0.1148, -0.689 0.5267 0.7334, -0.689 0.5118 0.7396, -0.6901 0.4955 0.7443, -0.693 0.4812 0.7468, -0.689 0.5546 0.7158, -0.689 0.578 0.6924, -0.689 0.5956 0.6645, -0.689 0.6065 0.6332, -0.6892 0.5052 0.625, -0.689 0.5081 0.6192, -0.689 0.5101 0.6131, -0.689 0.5114 0.6068, -0.689 0.5118 0.6004, -0.6916 0.4872 0.643, -0.6906 0.4925 0.6394, -0.6899 0.4974 0.6352, -0.6894 0.5016 0.6304, -0.697 0.469 0.6492, -0.6947 0.4753 0.6479, -0.693 0.4812 0.6459, -0.4881 0.5118 0.4636, -0.4763 0.5118 0.4921, -0.4575 0.5118 0.5166, -0.4331 0.5118 0.5354, -0.2717 0.5118 0.4921, -0.2905 0.5118 0.5166, -0.315 0.5118 0.5354, -0.689 0.5118 0.1476, -0.4921 0.5118 0.1476, -0.4921 0.5118 0.4331, -0.2559 0.5118 0.4331, -0.2599 0.5118 0.4636, -0.4046 0.5118 0.5472, -0.374 0.5118 0.5512, -0.3434 0.5118 0.5472, -0.4921 0.5101 0.1349, -0.689 0.5101 0.1349, -0.4921 0.5052 0.123, -0.689 0.5052 0.123, -0.4921 0.4974 0.1128, -0.689 0.4974 0.1128, -0.4921 0.4872 0.105, -0.689 0.4872 0.105, -0.4921 0.4753 0.1001, -0.689 0.4753 0.1001, -0.689 0.4753 0.1001
            ]
        }
        coordIndex [
            0,1,2,-1,3,4,5,-1,6,7,8,-1,9,10,11,-1,12,13,14,-1,15,16,17,-1,17,16,18,-1,19,20,17,-1,17,20,21,-1,17,21,22,-1,22,23,17,-1,17,23,24,-1,17,24,15,-1,25,19,26,-1,25,26,27,-1,28,29,30,-1,30,31,28,-1,28,31,32,-1,28,32,26,-1,26,32,33,-1,26,33,27,-1,34,35,29,-1,35,36,29,-1,29,36,37,-1,29,37,30,-1,30,37,38,-1,30,38,39,-1,39,38,40,-1,39,40,41,-1,14,13,42,-1,13,43,42,-1,42,43,44,-1,42,44,29,-1,29,44,45,-1,29,45,34,-1,46,47,48,-1,48,47,49,-1,49,50,48,-1,48,50,51,-1,48,51,52,-1,52,53,48,-1,48,53,54,-1,48,54,14,-1,14,54,55,-1,14,55,12,-1,46,48,56,-1,56,48,57,-1,56,57,58,-1,58,57,59,-1,59,57,60,-1,59,60,61,-1,62,63,64,-1,64,63,65,-1,64,65,66,-1,66,67,64,-1,64,67,68,-1,64,68,60,-1,60,68,69,-1,60,69,61,-1,70,71,72,-1,73,74,75,-1,75,74,76,-1,77,78,79,-1,79,80,81,-1,82,83,74,-1,74,83,84,-1,74,84,85,-1,78,86,79,-1,79,86,87,-1,79,87,80,-1,88,89,90,-1,90,89,91,-1,92,93,94,-1,94,93,95,-1,94,95,96,-1,97,85,98,-1,98,85,99,-1,98,99,94,-1,94,99,100,-1,94,100,92,-1,101,102,103,-1,103,102,77,-1,104,105,106,-1,106,105,107,-1,97,108,85,-1,85,108,109,-1,85,109,74,-1,74,109,110,-1,74,110,76,-1,88,111,89,-1,89,111,112,-1,89,112,113,-1,81,114,79,-1,79,114,115,-1,79,115,106,-1,106,115,116,-1,106,116,104,-1,117,118,119,-1,119,118,120,-1,119,120,89,-1,89,120,121,-1,89,121,91,-1,107,122,106,-1,106,122,123,-1,106,123,124,-1,124,123,117,-1,124,117,125,-1,125,117,119,-1,126,127,89,-1,89,127,128,-1,89,128,74,-1,74,128,129,-1,74,129,82,-1,113,130,89,-1,89,130,131,-1,89,131,132,-1,132,133,89,-1,89,133,134,-1,89,134,126,-1,135,136,137,-1,137,85,135,-1,135,85,84,-1,135,84,138,-1,138,84,139,-1,139,140,138,-1,138,140,141,-1,138,141,142,-1,143,144,145,-1,146,147,144,-1,147,148,144,-1,144,148,149,-1,144,149,150,-1,145,151,143,-1,143,151,152,-1,143,152,153,-1,136,135,143,-1,143,135,154,-1,143,154,144,-1,144,154,155,-1,144,155,146,-1,150,156,144,-1,144,156,157,-1,144,157,158,-1,158,157,159,-1,158,159,160,-1,160,159,161,-1,162,163,153,-1,153,163,164,-1,153,164,143,-1,16,165,18,-1,18,165,166,-1,18,166,103,-1,103,166,167,-1,103,167,101,-1,168,169,170,-1,171,172,173,-1,174,175,176,-1,176,175,177,-1,176,177,178,-1,177,179,178,-1,178,179,180,-1,178,180,181,-1,182,180,183,-1,183,180,179,-1,183,179,184,-1,184,179,177,-1,184,177,185,-1,185,177,186,-1,185,186,187,-1,187,186,188,-1,187,188,170,-1,170,188,189,-1,170,189,168,-1,190,191,192,-1,192,191,193,-1,192,193,194,-1,194,193,195,-1,196,197,198,-1,198,197,199,-1,198,199,200,-1,200,199,201,-1,193,202,195,-1,195,202,203,-1,195,203,204,-1,205,206,207,-1,194,200,192,-1,192,200,201,-1,192,201,208,-1,208,201,209,-1,208,209,207,-1,207,209,210,-1,207,210,205,-1,211,212,190,-1,190,212,213,-1,190,213,191,-1,10,9,211,-1,211,9,214,-1,211,214,215,-1,216,217,218,-1,218,217,219,-1,218,219,220,-1,220,219,221,-1,220,221,215,-1,215,221,206,-1,215,206,211,-1,211,206,205,-1,211,205,212,-1,222,223,224,-1,218,225,226,-1,227,228,229,-1,229,228,230,-1,223,231,224,-1,224,231,230,-1,224,230,232,-1,232,230,228,-1,222,224,218,-1,218,224,233,-1,218,233,234,-1,226,235,218,-1,218,235,236,-1,218,236,216,-1,234,237,218,-1,218,237,238,-1,218,238,225,-1,239,240,241,-1,241,240,242,-1,242,240,243,-1,242,243,244,-1,245,246,247,-1,247,248,245,-1,245,248,249,-1,245,249,250,-1,8,251,245,-1,245,251,252,-1,245,252,246,-1,253,254,255,-1,255,254,256,-1,255,256,8,-1,8,256,257,-1,8,257,251,-1,258,259,260,-1,258,260,261,-1,259,262,260,-1,260,262,263,-1,260,263,253,-1,264,265,266,-1,266,265,267,-1,221,268,206,-1,206,268,269,-1,206,269,270,-1,270,269,271,-1,270,271,272,-1,7,273,8,-1,8,273,274,-1,8,274,255,-1,255,274,275,-1,255,275,276,-1,17,277,278,-1,19,17,26,-1,26,17,278,-1,26,278,279,-1,280,281,282,-1,280,282,283,-1,283,282,284,-1,283,284,285,-1,285,284,286,-1,285,286,287,-1,287,286,288,-1,287,288,289,-1,289,288,290,-1,289,290,291,-1,291,290,292,-1,291,292,293,-1,294,295,296,-1,297,298,299,-1,299,298,300,-1,299,300,294,-1,294,300,301,-1,294,301,295,-1,296,302,294,-1,294,302,303,-1,294,303,292,-1,292,303,304,-1,292,304,293,-1,305,306,307,-1,306,308,307,-1,307,308,309,-1,307,309,299,-1,299,309,310,-1,299,310,297,-1,5,4,186,-1,186,4,311,-1,186,311,312,-1,313,314,315,-1,315,314,316,-1,315,316,317,-1,317,316,318,-1,317,318,319,-1,319,318,320,-1,319,320,312,-1,312,320,321,-1,312,321,186,-1,186,321,322,-1,186,322,188,-1,188,322,323,-1,188,323,189,-1,324,325,326,-1,327,266,328,-1,329,330,331,-1,331,330,332,-1,331,332,326,-1,326,332,333,-1,326,333,324,-1,334,335,266,-1,266,335,336,-1,266,336,328,-1,337,338,339,-1,339,338,340,-1,339,340,341,-1,341,340,342,-1,341,342,326,-1,343,2,344,-1,344,2,1,-1,344,1,345,-1,346,347,2,-1,328,348,327,-1,327,348,349,-1,327,349,350,-1,351,352,2,-1,2,352,353,-1,350,354,327,-1,327,354,355,-1,327,355,356,-1,356,355,357,-1,356,357,346,-1,358,359,347,-1,347,359,360,-1,347,360,2,-1,2,360,361,-1,2,361,351,-1,353,362,2,-1,2,362,363,-1,2,363,0,-1,364,365,366,-1,366,365,367,-1,366,367,368,-1,366,369,364,-1,364,369,370,-1,364,370,371,-1,371,372,364,-1,364,372,373,-1,364,373,374,-1,374,373,375,-1,374,375,376,-1,376,375,377,-1,376,377,347,-1,347,377,378,-1,347,378,358,-1,379,380,368,-1,368,380,381,-1,368,381,366,-1,382,383,329,-1,329,383,384,-1,329,384,330,-1,382,385,383,-1,383,385,386,-1,383,386,387,-1,387,386,388,-1,387,389,390,-1,388,391,387,-1,387,391,392,-1,387,392,393,-1,393,394,387,-1,387,394,395,-1,387,395,389,-1,390,396,387,-1,387,396,397,-1,387,397,398,-1,399,400,175,-1,401,402,403,-1,404,405,406,-1,406,405,407,-1,406,407,408,-1,408,407,401,-1,408,401,409,-1,409,401,403,-1,410,411,2,-1,2,411,412,-1,346,2,356,-1,356,2,412,-1,356,412,405,-1,405,412,413,-1,405,413,407,-1,414,411,415,-1,415,411,410,-1,415,410,416,-1,343,417,2,-1,2,417,418,-1,2,418,410,-1,410,418,419,-1,410,419,416,-1,420,421,343,-1,343,421,417,-1,417,421,422,-1,417,422,423,-1,423,424,417,-1,417,424,425,-1,417,425,426,-1,427,428,429,-1,429,428,430,-1,429,430,431,-1,431,430,432,-1,433,434,435,-1,435,434,436,-1,435,436,429,-1,429,436,437,-1,429,437,427,-1,438,439,440,-1,441,442,443,-1,443,442,444,-1,443,444,445,-1,177,446,447,-1,447,446,448,-1,447,448,449,-1,449,448,450,-1,449,450,451,-1,175,400,177,-1,177,400,452,-1,177,452,453,-1,444,446,445,-1,445,446,177,-1,445,177,454,-1,454,177,453,-1,454,453,455,-1,453,456,455,-1,455,456,457,-1,455,457,458,-1,315,459,313,-1,313,459,460,-1,313,460,461,-1,462,79,463,-1,464,465,466,-1,77,79,103,-1,103,79,462,-1,103,462,467,-1,468,469,470,-1,470,469,471,-1,470,471,472,-1,277,17,276,-1,276,17,18,-1,276,18,255,-1,255,18,103,-1,255,103,466,-1,466,103,467,-1,466,467,464,-1,473,474,465,-1,465,474,472,-1,465,472,466,-1,466,472,471,-1,466,471,463,-1,463,471,475,-1,463,475,462,-1,278,6,279,-1,279,6,8,-1,279,8,241,-1,241,8,245,-1,241,245,239,-1,239,245,250,-1,253,255,260,-1,260,255,466,-1,260,466,476,-1,476,466,463,-1,476,463,477,-1,478,479,480,-1,480,479,481,-1,482,483,266,-1,484,485,486,-1,486,485,487,-1,486,487,488,-1,489,490,491,-1,492,493,266,-1,266,493,494,-1,266,494,482,-1,483,495,266,-1,266,495,496,-1,266,496,497,-1,477,498,499,-1,500,476,501,-1,501,476,502,-1,261,260,267,-1,267,260,476,-1,267,476,266,-1,266,476,500,-1,266,500,492,-1,478,503,479,-1,479,503,504,-1,479,504,505,-1,505,504,491,-1,505,491,506,-1,506,491,490,-1,325,334,326,-1,326,334,266,-1,326,266,341,-1,341,266,497,-1,341,497,507,-1,508,509,486,-1,486,509,510,-1,486,510,484,-1,511,512,477,-1,477,512,513,-1,477,513,498,-1,514,515,491,-1,491,515,516,-1,491,516,517,-1,507,486,341,-1,341,486,488,-1,341,488,477,-1,477,488,518,-1,477,518,511,-1,499,519,477,-1,477,519,520,-1,477,520,476,-1,476,520,481,-1,476,481,502,-1,502,481,479,-1,517,521,491,-1,491,521,522,-1,491,522,489,-1,106,70,79,-1,79,70,72,-1,79,72,463,-1,463,72,523,-1,463,523,477,-1,477,523,524,-1,477,524,341,-1,341,524,525,-1,341,525,339,-1,339,525,344,-1,339,344,337,-1,337,344,345,-1,71,62,72,-1,72,62,64,-1,72,64,523,-1,523,64,526,-1,523,526,524,-1,524,526,527,-1,524,527,525,-1,525,527,528,-1,525,528,344,-1,344,528,529,-1,344,529,343,-1,343,529,431,-1,343,431,420,-1,420,431,432,-1,272,264,270,-1,270,264,266,-1,270,266,206,-1,206,266,327,-1,206,327,207,-1,207,327,356,-1,207,356,208,-1,208,356,405,-1,208,405,171,-1,530,531,171,-1,532,533,534,-1,534,533,535,-1,531,536,171,-1,171,536,537,-1,171,537,538,-1,192,539,534,-1,534,539,540,-1,534,540,541,-1,538,542,171,-1,171,542,543,-1,171,543,208,-1,208,543,544,-1,208,544,192,-1,192,544,545,-1,192,545,539,-1,541,546,534,-1,534,546,547,-1,534,547,532,-1,169,168,173,-1,173,168,534,-1,173,534,171,-1,171,534,535,-1,171,535,530,-1,244,11,242,-1,242,11,10,-1,242,10,548,-1,548,10,211,-1,548,211,549,-1,549,211,190,-1,549,190,550,-1,550,190,192,-1,550,192,551,-1,551,192,534,-1,551,534,552,-1,552,534,168,-1,552,168,307,-1,307,168,189,-1,307,189,305,-1,305,189,323,-1,553,554,5,-1,5,554,555,-1,5,555,556,-1,556,557,5,-1,5,557,558,-1,5,558,447,-1,447,558,559,-1,447,559,177,-1,559,560,177,-1,177,560,561,-1,177,561,186,-1,186,561,562,-1,186,562,563,-1,563,564,186,-1,186,564,565,-1,186,565,566,-1,566,567,186,-1,186,567,568,-1,186,568,5,-1,5,568,569,-1,5,569,553,-1,314,3,316,-1,316,3,5,-1,316,5,570,-1,570,5,447,-1,570,447,440,-1,440,447,449,-1,440,449,438,-1,438,449,451,-1,438,451,404,-1,404,451,399,-1,404,399,405,-1,405,399,175,-1,405,175,171,-1,171,175,174,-1,171,174,172,-1,439,433,440,-1,440,433,435,-1,440,435,570,-1,570,435,571,-1,570,571,316,-1,316,571,572,-1,316,572,318,-1,318,572,573,-1,60,574,64,-1,64,574,575,-1,64,575,526,-1,526,575,576,-1,526,576,527,-1,527,576,577,-1,527,577,528,-1,528,577,578,-1,528,578,529,-1,529,578,579,-1,529,579,431,-1,431,579,580,-1,431,580,429,-1,429,580,581,-1,429,581,435,-1,435,581,582,-1,435,582,571,-1,571,582,583,-1,571,583,572,-1,572,583,584,-1,572,584,573,-1,573,584,585,-1,586,587,588,-1,588,587,589,-1,589,587,590,-1,589,590,591,-1,592,593,588,-1,588,593,594,-1,588,594,586,-1,595,596,597,-1,597,596,598,-1,597,598,599,-1,600,601,602,-1,602,601,596,-1,602,596,603,-1,603,596,595,-1,588,596,592,-1,592,596,601,-1,592,601,604,-1,604,601,605,-1,604,605,606,-1,606,605,607,-1,606,607,608,-1,608,607,609,-1,610,611,612,-1,612,611,613,-1,612,613,614,-1,614,613,615,-1,614,615,616,-1,616,615,617,-1,616,617,618,-1,617,619,618,-1,618,619,620,-1,618,620,621,-1,621,620,622,-1,621,622,623,-1,623,622,624,-1,623,624,625,-1,625,624,574,-1,625,574,626,-1,626,574,28,-1,626,28,627,-1,627,28,628,-1,627,628,629,-1,629,628,630,-1,629,630,609,-1,609,630,631,-1,609,631,608,-1,589,591,598,-1,598,591,599,-1,632,610,633,-1,633,610,612,-1,611,610,634,-1,634,610,632,-1,613,611,635,-1,635,611,634,-1,613,635,636,-1,613,636,615,-1,615,636,637,-1,615,637,617,-1,617,637,638,-1,617,638,619,-1,619,638,639,-1,619,639,620,-1,620,639,640,-1,620,640,622,-1,622,640,641,-1,622,641,624,-1,624,641,585,-1,624,585,574,-1,625,642,623,-1,623,642,643,-1,623,643,621,-1,621,643,644,-1,621,644,618,-1,618,644,645,-1,618,645,616,-1,616,645,646,-1,616,646,614,-1,614,646,647,-1,614,647,612,-1,612,647,633,-1,648,649,650,-1,650,649,651,-1,651,652,650,-1,650,652,653,-1,652,654,653,-1,653,654,655,-1,655,654,656,-1,655,656,657,-1,657,656,658,-1,657,658,659,-1,659,658,660,-1,659,660,661,-1,661,660,662,-1,661,662,663,-1,663,662,664,-1,663,664,665,-1,665,664,666,-1,665,666,667,-1,667,666,281,-1,667,281,280,-1,668,669,604,-1,604,669,670,-1,604,670,592,-1,592,670,671,-1,592,671,593,-1,604,606,668,-1,668,606,608,-1,668,608,672,-1,672,608,631,-1,672,631,673,-1,673,631,630,-1,673,630,674,-1,674,630,628,-1,674,628,675,-1,675,628,28,-1,675,28,294,-1,627,629,676,-1,676,677,627,-1,627,677,678,-1,627,678,626,-1,626,678,679,-1,626,679,680,-1,609,607,681,-1,681,682,609,-1,609,682,683,-1,609,683,629,-1,629,683,684,-1,629,684,676,-1,605,601,600,-1,600,685,605,-1,605,685,686,-1,605,686,607,-1,607,686,687,-1,607,687,681,-1,688,689,680,-1,680,689,690,-1,680,690,691,-1,692,626,693,-1,693,626,694,-1,695,696,680,-1,680,696,697,-1,680,697,688,-1,642,625,698,-1,698,625,626,-1,698,626,699,-1,699,626,692,-1,691,700,680,-1,680,700,701,-1,680,701,626,-1,626,701,702,-1,626,702,694,-1,696,695,703,-1,703,695,704,-1,703,704,705,-1,705,704,706,-1,705,706,707,-1,707,706,708,-1,707,708,709,-1,709,708,710,-1,709,710,711,-1,711,710,712,-1,711,712,648,-1,648,712,649,-1,706,662,708,-1,708,662,660,-1,708,660,710,-1,710,660,658,-1,710,658,712,-1,712,658,656,-1,712,656,649,-1,649,656,654,-1,649,654,651,-1,651,654,652,-1,680,294,695,-1,695,294,281,-1,695,281,704,-1,704,281,666,-1,704,666,706,-1,706,666,664,-1,706,664,662,-1,669,668,680,-1,680,668,672,-1,680,672,673,-1,673,674,680,-1,680,674,675,-1,680,675,294,-1,644,639,645,-1,645,639,638,-1,645,638,646,-1,646,638,637,-1,646,637,647,-1,647,637,636,-1,647,636,633,-1,633,636,635,-1,633,635,632,-1,632,635,634,-1,698,305,642,-1,642,305,585,-1,642,585,643,-1,643,585,641,-1,643,641,644,-1,644,641,640,-1,644,640,639,-1,304,697,280,-1,280,697,696,-1,280,696,667,-1,667,696,703,-1,667,703,665,-1,665,703,705,-1,665,705,663,-1,663,705,707,-1,650,653,648,-1,648,653,655,-1,648,655,711,-1,711,655,657,-1,711,657,709,-1,709,657,659,-1,709,659,707,-1,707,659,661,-1,707,661,663,-1,697,304,688,-1,688,304,303,-1,688,303,689,-1,689,303,302,-1,689,302,690,-1,690,302,296,-1,690,296,691,-1,691,296,295,-1,691,295,700,-1,700,295,301,-1,700,301,701,-1,701,301,300,-1,701,300,702,-1,702,300,298,-1,702,298,694,-1,694,298,310,-1,694,310,693,-1,693,310,309,-1,693,309,692,-1,692,309,308,-1,692,308,699,-1,699,308,306,-1,699,306,698,-1,698,306,305,-1,599,591,597,-1,597,591,590,-1,597,590,595,-1,595,590,587,-1,595,587,603,-1,603,587,586,-1,603,586,602,-1,602,586,594,-1,602,594,600,-1,600,594,593,-1,600,593,685,-1,685,593,671,-1,680,679,669,-1,669,679,678,-1,669,678,677,-1,677,676,669,-1,669,676,684,-1,669,684,683,-1,683,682,669,-1,669,682,681,-1,669,681,670,-1,670,681,687,-1,670,687,671,-1,671,687,686,-1,671,686,685,-1,598,596,589,-1,589,596,588,-1,
        ]
    }
}
Shape{
    appearance Appearance {
        material  Material 	{
            diffuseColor 0.0 0.0 0.0
            specularColor 0.0 0.0 0.0
            ambientIntensity 0.2
            transparency 0
            shininess 0.5
        }
    }
    geometry IndexedFaceSet {
        ccw TRUE
        solid FALSE
        coord DEF co Coordinate {
            point [
                0.2474 0.6106 0.3784, 0.2475 0.6106 0.3739, 0.2474 0.6102 0.3784, 0.2475 0.6102 0.3739, 0.2634 0.6106 0.3786, 0.2634 0.6102 0.3786, 0.2631 0.6102 0.414, 0.2631 0.6106 0.414, 0.2631 0.6102 0.4138, 0.2683 0.6106 0.4141, 0.2683 0.6102 0.4141, 0.2686 0.6102 0.374, 0.2686 0.6106 0.374, 0.2683 0.6102 0.4138, 0.2176 0.6102 0.3746, 0.2165 0.6106 0.375, 0.2208 0.6102 0.3736, 0.2208 0.6106 0.3736, 0.2257 0.6102 0.3732, 0.2269 0.6106 0.3731, 0.2269 0.6102 0.3731, 0.2165 0.6102 0.375, 0.2158 0.6102 0.3753, 0.2158 0.6106 0.3753, 0.2158 0.6106 0.3803, 0.2158 0.6102 0.3803, 0.2176 0.6102 0.3795, 0.2197 0.6106 0.3785, 0.2197 0.6102 0.3785, 0.2243 0.6102 0.3777, 0.2243 0.6106 0.3777, 0.2261 0.6102 0.3777, 0.2261 0.6106 0.3777, 0.2302 0.6102 0.3782, 0.2302 0.6106 0.3782, 0.233 0.6102 0.3793, 0.233 0.6106 0.3793, 0.2356 0.6102 0.3812, 0.2356 0.6106 0.3812, 0.2364 0.6102 0.3819, 0.2364 0.6106 0.3819, 0.2383 0.6102 0.3847, 0.2383 0.6106 0.3847, 0.2396 0.6102 0.3879, 0.2396 0.6106 0.3879, 0.2402 0.6102 0.3919, 0.2402 0.6106 0.3919, 0.2403 0.6102 0.3934, 0.2403 0.6106 0.3934, 0.2395 0.6102 0.3989, 0.2395 0.6106 0.3989, 0.2382 0.6102 0.4024, 0.2382 0.6106 0.4024, 0.236 0.6102 0.4054, 0.236 0.6106 0.4054, 0.2332 0.6102 0.4076, 0.2332 0.6106 0.4076, 0.2301 0.6102 0.4091, 0.2301 0.6106 0.4091, 0.2266 0.6102 0.4097, 0.2266 0.6106 0.4097, 0.225 0.6102 0.4098, 0.225 0.6106 0.4098, 0.2156 0.6102 0.4073, 0.2156 0.6106 0.4073, 0.216 0.6106 0.4076, 0.2201 0.6102 0.4091, 0.2201 0.6106 0.4091, 0.2176 0.6102 0.4082, 0.216 0.6102 0.4076, 0.2156 0.6106 0.4127, 0.2156 0.6102 0.4127, 0.2193 0.6102 0.4138, 0.2197 0.6106 0.414, 0.2176 0.6102 0.4133, 0.2197 0.6102 0.414, 0.225 0.6102 0.4144, 0.225 0.6106 0.4144, 0.225 0.6102 0.4144, 0.225 0.6106 0.4144, 0.2309 0.6106 0.4138, 0.2301 0.6102 0.4138, 0.2309 0.6102 0.4138, 0.2351 0.6102 0.4122, 0.2351 0.6106 0.4122, 0.2388 0.6102 0.4095, 0.2388 0.6106 0.4095, 0.2398 0.6102 0.4086, 0.2398 0.6106 0.4086, 0.2427 0.6102 0.4049, 0.2442 0.6102 0.4015, 0.2446 0.6106 0.4004, 0.2427 0.6106 0.4049, 0.2446 0.6102 0.4004, 0.2456 0.6102 0.3952, 0.2456 0.6106 0.3952, 0.2457 0.6102 0.3931, 0.2457 0.6106 0.3931, 0.2406 0.6102 0.3786, 0.2406 0.6106 0.3786, 0.2433 0.6106 0.3824, 0.2449 0.6102 0.3865, 0.2449 0.6106 0.3865, 0.2442 0.6102 0.3846, 0.2433 0.6102 0.3824, 0.229 0.6102 0.3732, 0.2293 0.6106 0.3732, 0.2293 0.6102 0.3732, 0.2337 0.6106 0.3741, 0.2337 0.6102 0.3741, 0.2374 0.6106 0.3759, 0.2374 0.6102 0.3759, 0.1863 0.6106 0.378, 0.1863 0.6106 0.3734, 0.1863 0.6102 0.378, 0.1863 0.6102 0.3734, 0.2026 0.6102 0.3781, 0.2026 0.6106 0.3781, 0.1922 0.6102 0.378, 0.2025 0.6106 0.3916, 0.2025 0.6102 0.3916, 0.1882 0.6102 0.3915, 0.1882 0.6106 0.3915, 0.1922 0.6102 0.3915, 0.1882 0.6106 0.3961, 0.1882 0.6102 0.3961, 0.2025 0.6102 0.3962, 0.2025 0.6106 0.3962, 0.1922 0.6102 0.3961, 0.2024 0.6106 0.409, 0.2024 0.6102 0.409, 0.187 0.6102 0.4089, 0.187 0.6106 0.4089, 0.1922 0.6102 0.4089, 0.1869 0.6106 0.4135, 0.1869 0.6102 0.4135, 0.2075 0.6102 0.4136, 0.2075 0.6106 0.4136, 0.1922 0.6102 0.4135, 0.2078 0.6106 0.3736, 0.2078 0.6102 0.3736, 0.1922 0.6102 0.3735, 0.1538 0.6106 0.3844, 0.1558 0.6106 0.382, 0.1521 0.6106 0.3788, 0.1565 0.6106 0.3813, 0.1563 0.6106 0.3759, 0.1592 0.6106 0.3796, 0.1609 0.6106 0.3741, 0.1626 0.6106 0.3784, 0.1677 0.6106 0.3733, 0.1677 0.6106 0.3779, 0.1787 0.6106 0.3734, 0.1735 0.6106 0.3779, 0.1784 0.6106 0.4134, 0.1733 0.6106 0.4088, 0.167 0.6106 0.4133, 0.1673 0.6106 0.4087, 0.1609 0.6106 0.4126, 0.1621 0.6106 0.4081, 0.1561 0.6106 0.4108, 0.1587 0.6106 0.4069, 0.1519 0.6106 0.4079, 0.1557 0.6106 0.4049, 0.1506 0.6106 0.4066, 0.1547 0.6106 0.4038, 0.1481 0.6106 0.4031, 0.1531 0.6106 0.4016, 0.1466 0.6106 0.3992, 0.152 0.6106 0.3987, 0.146 0.6106 0.3937, 0.1514 0.6106 0.3936, 0.1461 0.6106 0.3911, 0.1516 0.6106 0.3911, 0.1471 0.6106 0.3865, 0.1524 0.6106 0.3874, 0.1491 0.6106 0.3823, 0.1677 0.6102 0.3733, 0.1787 0.6102 0.3734, 0.1609 0.6102 0.3741, 0.1563 0.6102 0.3759, 0.1521 0.6102 0.3788, 0.1491 0.6102 0.3823, 0.1471 0.6102 0.3865, 0.1461 0.6102 0.3911, 0.146 0.6102 0.3937, 0.1466 0.6102 0.3992, 0.1481 0.6102 0.4031, 0.1506 0.6102 0.4066, 0.1519 0.6102 0.4079, 0.1561 0.6102 0.4108, 0.1609 0.6102 0.4126, 0.167 0.6102 0.4133, 0.1784 0.6102 0.4134, 0.1673 0.6102 0.4087, 0.1733 0.6102 0.4088, 0.1735 0.6102 0.3779, 0.1677 0.6102 0.3779, 0.1558 0.6102 0.382, 0.1565 0.6102 0.3813, 0.1592 0.6102 0.3796, 0.1626 0.6102 0.3784, 0.1514 0.6102 0.3936, 0.1516 0.6102 0.3911, 0.1524 0.6102 0.3874, 0.1538 0.6102 0.3844, 0.1557 0.6102 0.4049, 0.1547 0.6102 0.4038, 0.1531 0.6102 0.4016, 0.152 0.6102 0.3987, 0.1621 0.6102 0.4081, 0.1587 0.6102 0.4069, 0.1587 0.6102 0.4069
            ]
        }
        coordIndex [
            0,1,2,-1,2,1,3,-1,4,0,5,-1,5,0,2,-1,6,7,8,-1,8,7,4,-1,8,4,5,-1,9,7,10,-1,10,7,6,-1,11,12,13,-1,13,12,9,-1,13,9,10,-1,1,12,3,-1,3,12,11,-1,7,9,4,-1,4,9,12,-1,4,12,0,-1,0,12,1,-1,14,15,16,-1,16,15,17,-1,16,17,18,-1,18,17,19,-1,18,19,20,-1,14,21,15,-1,15,21,22,-1,15,22,23,-1,24,23,25,-1,25,23,22,-1,24,25,26,-1,24,26,27,-1,26,28,27,-1,27,28,29,-1,27,29,30,-1,30,29,31,-1,30,31,32,-1,32,31,33,-1,32,33,34,-1,34,33,35,-1,34,35,36,-1,36,35,37,-1,36,37,38,-1,38,37,39,-1,38,39,40,-1,40,39,41,-1,40,41,42,-1,42,41,43,-1,42,43,44,-1,44,43,45,-1,44,45,46,-1,46,45,47,-1,46,47,48,-1,48,47,49,-1,48,49,50,-1,50,49,51,-1,50,51,52,-1,52,51,53,-1,52,53,54,-1,54,53,55,-1,54,55,56,-1,56,55,57,-1,56,57,58,-1,58,57,59,-1,58,59,60,-1,60,59,61,-1,60,61,62,-1,63,64,65,-1,62,61,66,-1,62,66,67,-1,67,66,68,-1,67,68,65,-1,65,68,69,-1,65,69,63,-1,70,64,71,-1,71,64,63,-1,72,73,74,-1,74,73,70,-1,74,70,71,-1,72,75,73,-1,73,75,76,-1,73,76,77,-1,77,76,78,-1,77,78,79,-1,79,78,80,-1,80,78,81,-1,81,82,80,-1,80,82,83,-1,80,83,84,-1,84,83,85,-1,84,85,86,-1,86,85,87,-1,86,87,88,-1,88,87,89,-1,90,91,89,-1,89,91,92,-1,89,92,88,-1,90,93,91,-1,91,93,94,-1,91,94,95,-1,95,94,96,-1,95,96,97,-1,98,99,100,-1,97,96,101,-1,97,101,102,-1,102,101,103,-1,102,103,100,-1,100,103,104,-1,100,104,98,-1,20,19,105,-1,105,19,106,-1,105,106,107,-1,107,106,108,-1,107,108,109,-1,109,108,110,-1,109,110,111,-1,111,110,99,-1,111,99,98,-1,65,64,70,-1,56,86,54,-1,54,86,88,-1,54,88,52,-1,52,88,92,-1,52,92,50,-1,65,70,67,-1,67,70,73,-1,67,73,62,-1,62,73,77,-1,62,77,60,-1,60,77,79,-1,60,79,58,-1,58,79,80,-1,58,80,56,-1,56,80,84,-1,56,84,86,-1,97,48,95,-1,95,48,50,-1,95,50,91,-1,91,50,92,-1,23,24,15,-1,15,24,27,-1,15,27,17,-1,17,27,30,-1,17,30,19,-1,19,30,32,-1,19,32,106,-1,106,32,34,-1,106,34,108,-1,108,34,36,-1,108,36,110,-1,110,36,38,-1,110,38,99,-1,99,38,40,-1,99,40,100,-1,100,40,42,-1,100,42,102,-1,102,42,44,-1,102,44,97,-1,97,44,46,-1,97,46,48,-1,112,113,114,-1,114,113,115,-1,116,117,118,-1,118,117,112,-1,118,112,114,-1,119,117,120,-1,120,117,116,-1,121,122,123,-1,123,122,119,-1,123,119,120,-1,124,122,125,-1,125,122,121,-1,126,127,128,-1,128,127,124,-1,128,124,125,-1,129,127,130,-1,130,127,126,-1,131,132,133,-1,133,132,129,-1,133,129,130,-1,134,132,135,-1,135,132,131,-1,136,137,138,-1,138,137,134,-1,138,134,135,-1,139,137,140,-1,140,137,136,-1,115,113,141,-1,141,113,139,-1,141,139,140,-1,139,113,112,-1,112,117,139,-1,139,117,119,-1,139,119,137,-1,132,134,129,-1,129,134,137,-1,129,137,127,-1,127,137,119,-1,127,119,124,-1,124,119,122,-1,142,143,144,-1,144,143,145,-1,144,145,146,-1,146,145,147,-1,146,147,148,-1,148,147,149,-1,148,149,150,-1,150,149,151,-1,150,151,152,-1,152,151,153,-1,152,153,154,-1,154,153,155,-1,154,155,156,-1,156,155,157,-1,156,157,158,-1,158,157,159,-1,158,159,160,-1,160,159,161,-1,160,161,162,-1,162,161,163,-1,162,163,164,-1,164,163,165,-1,164,165,166,-1,166,165,167,-1,166,167,168,-1,168,167,169,-1,168,169,170,-1,170,169,171,-1,170,171,172,-1,172,171,173,-1,172,173,174,-1,174,173,175,-1,174,175,176,-1,176,175,142,-1,176,142,144,-1,150,152,177,-1,177,152,178,-1,150,177,179,-1,150,179,148,-1,148,179,180,-1,148,180,146,-1,146,180,181,-1,146,181,144,-1,144,181,182,-1,144,182,176,-1,176,182,183,-1,176,183,174,-1,174,183,184,-1,174,184,172,-1,172,184,185,-1,172,185,170,-1,170,185,186,-1,170,186,168,-1,168,186,187,-1,168,187,166,-1,166,187,188,-1,166,188,164,-1,164,188,189,-1,164,189,162,-1,162,189,190,-1,162,190,160,-1,160,190,191,-1,160,191,158,-1,158,191,192,-1,158,192,156,-1,154,156,193,-1,193,156,192,-1,152,154,178,-1,178,154,193,-1,157,155,194,-1,194,155,195,-1,155,153,195,-1,195,153,196,-1,153,151,196,-1,196,151,197,-1,143,198,199,-1,143,199,145,-1,145,199,200,-1,145,200,147,-1,147,200,201,-1,147,201,149,-1,149,201,197,-1,149,197,151,-1,171,202,203,-1,171,203,173,-1,173,203,204,-1,173,204,175,-1,175,204,205,-1,175,205,142,-1,142,205,198,-1,142,198,143,-1,163,206,207,-1,163,207,165,-1,165,207,208,-1,165,208,167,-1,167,208,209,-1,167,209,169,-1,169,209,202,-1,169,202,171,-1,157,194,210,-1,157,210,159,-1,159,210,211,-1,159,211,161,-1,161,211,206,-1,161,206,163,-1,
        ]
    }
}
Shape{
    appearance Appearance {
        material  Material 	{
            diffuseColor 0.5372549019607843 0.34901960784313724 0.33725490196078434
            specularColor 0.3764705882352941 0.24313725490196078 0.23529411764705882
            ambientIntensity 0.2
            transparency 0
            shininess 0.5
        }
    }
    geometry IndexedFaceSet {
        ccw TRUE
        solid FALSE
        coord DEF co Coordinate {
            point [
                0.1733 0.6102 0.4088, 0.1735 0.6102 0.3779, 0.1673 0.6102 0.4087, 0.1677 0.6102 0.3779, 0.1626 0.6102 0.3784, 0.1592 0.6102 0.3796, 0.1565 0.6102 0.3813, 0.1558 0.6102 0.382, 0.1538 0.6102 0.3844, 0.1524 0.6102 0.3874, 0.1516 0.6102 0.3911, 0.1514 0.6102 0.3936, 0.152 0.6102 0.3987, 0.1531 0.6102 0.4016, 0.1547 0.6102 0.4038, 0.1557 0.6102 0.4049, 0.1621 0.6102 0.4081, 0.1587 0.6102 0.4069, 0.1587 0.6102 0.4069
            ]
        }
        coordIndex [
            0,1,2,-1,2,1,3,-1,2,3,4,-1,4,5,2,-1,2,5,6,-1,2,6,7,-1,7,8,2,-1,2,8,9,-1,2,9,10,-1,10,11,2,-1,2,11,12,-1,2,12,13,-1,13,14,2,-1,2,14,15,-1,2,15,16,-1,16,15,17,-1,
        ]
    }
}
Shape{
    appearance Appearance {
        material  Material 	{
            diffuseColor 0.0 0.0 0.0
            specularColor 0.0 0.0 0.0
            ambientIntensity 0.2
            transparency 0
            shininess 0.5
        }
    }
    geometry IndexedFaceSet {
        ccw TRUE
        solid FALSE
        coord DEF co Coordinate {
            point [
                0.1326 0.6106 0.3885, 0.1265 0.6106 0.4051, 0.1284 0.6106 0.4131, 0.1439 0.6106 0.3731, 0.1382 0.6106 0.3731, 0.1343 0.6106 0.384, 0.1262 0.6106 0.4063, 0.1258 0.6106 0.4079, 0.1229 0.6106 0.413, 0.1257 0.6106 0.4079, 0.1254 0.6106 0.4062, 0.1251 0.6106 0.4051, 0.1192 0.6106 0.3884, 0.1079 0.6106 0.3729, 0.1136 0.6106 0.3729, 0.1176 0.6106 0.3839, 0.1229 0.6102 0.413, 0.108 0.6102 0.3732, 0.1079 0.6102 0.3729, 0.1284 0.6102 0.4131, 0.1439 0.6102 0.3732, 0.1439 0.6102 0.3731, 0.1328 0.6102 0.4017, 0.1382 0.6102 0.3731, 0.1343 0.6102 0.384, 0.1382 0.6102 0.3732, 0.1176 0.6102 0.3839, 0.1328 0.6102 0.384, 0.1137 0.6102 0.3732, 0.1136 0.6102 0.3729, 0.1326 0.6102 0.3885, 0.1192 0.6102 0.3884, 0.1251 0.6102 0.4051, 0.1257 0.6102 0.4079, 0.1254 0.6102 0.4062, 0.1258 0.6102 0.4079, 0.1265 0.6102 0.4051, 0.1262 0.6102 0.4063, 0.1262 0.6102 0.4063
            ]
        }
        coordIndex [
            0,1,2,-1,3,4,5,-1,1,6,2,-1,2,6,7,-1,2,7,8,-1,8,7,9,-1,8,9,10,-1,10,11,8,-1,8,11,12,-1,8,12,13,-1,14,13,15,-1,15,13,12,-1,15,12,5,-1,5,12,0,-1,5,0,3,-1,3,0,2,-1,16,8,17,-1,17,8,13,-1,17,13,18,-1,2,8,19,-1,19,8,16,-1,20,21,3,-1,20,3,22,-1,22,3,2,-1,22,2,19,-1,4,3,23,-1,23,3,21,-1,24,5,25,-1,25,5,4,-1,25,4,23,-1,26,15,27,-1,27,15,5,-1,27,5,24,-1,15,26,14,-1,14,26,28,-1,14,28,29,-1,13,14,18,-1,18,14,29,-1,0,12,30,-1,30,12,31,-1,12,11,31,-1,31,11,32,-1,9,33,34,-1,9,34,10,-1,10,34,32,-1,10,32,11,-1,9,7,33,-1,33,7,35,-1,1,36,37,-1,1,37,6,-1,6,37,35,-1,6,35,7,-1,1,0,36,-1,36,0,30,-1,
        ]
    }
}
Shape{
    appearance Appearance {
        material  Material 	{
            diffuseColor 0.5372549019607843 0.34901960784313724 0.33725490196078434
            specularColor 0.3764705882352941 0.24313725490196078 0.23529411764705882
            ambientIntensity 0.2
            transparency 0
            shininess 0.5
        }
    }
    geometry IndexedFaceSet {
        ccw TRUE
        solid FALSE
        coord DEF co Coordinate {
            point [
                0.1257 0.6102 0.4079, 0.1258 0.6102 0.4079, 0.1254 0.6102 0.4062, 0.1262 0.6102 0.4063, 0.1251 0.6102 0.4051, 0.1265 0.6102 0.4051, 0.1192 0.6102 0.3884, 0.1326 0.6102 0.3885, 0.1326 0.6102 0.3885
            ]
        }
        coordIndex [
            0,1,2,-1,2,1,3,-1,2,3,4,-1,4,3,5,-1,4,5,6,-1,6,5,7,-1,
        ]
    }
}
Shape{
    appearance Appearance {
        material  Material 	{
            diffuseColor 0.0 0.0 0.0
            specularColor 0.0 0.0 0.0
            ambientIntensity 0.2
            transparency 0
            shininess 0.5
        }
    }
    geometry IndexedFaceSet {
        ccw TRUE
        solid FALSE
        coord DEF co Coordinate {
            point [
                0.2474 0.6106 0.3149, 0.2475 0.6106 0.3104, 0.2474 0.6102 0.3149, 0.2475 0.6102 0.3104, 0.2638 0.6106 0.315, 0.2638 0.6102 0.315, 0.2637 0.6106 0.3285, 0.2637 0.6102 0.3285, 0.2494 0.6106 0.3284, 0.2494 0.6102 0.3284, 0.2494 0.6106 0.333, 0.2494 0.6102 0.333, 0.2637 0.6106 0.3331, 0.2637 0.6102 0.3331, 0.2636 0.6106 0.3459, 0.2636 0.6102 0.3459, 0.2481 0.6106 0.3458, 0.2481 0.6102 0.3458, 0.2481 0.6106 0.3504, 0.2481 0.6102 0.3504, 0.2687 0.6106 0.3505, 0.2687 0.6102 0.3505, 0.269 0.6106 0.3105, 0.269 0.6102 0.3105, 0.2247 0.6106 0.3102, 0.2197 0.6106 0.3102, 0.2247 0.6106 0.3146, 0.2196 0.6106 0.3286, 0.2246 0.6106 0.3284, 0.2356 0.6106 0.3224, 0.2344 0.6106 0.323, 0.2248 0.6106 0.3146, 0.2275 0.6106 0.3154, 0.2256 0.6106 0.3134, 0.2289 0.6106 0.3144, 0.2313 0.6106 0.3237, 0.2246 0.6106 0.3245, 0.2246 0.6106 0.3218, 0.2246 0.6106 0.3215, 0.225 0.6106 0.3192, 0.2257 0.6106 0.3175, 0.2268 0.6106 0.316, 0.2247 0.6106 0.3306, 0.22 0.6106 0.3324, 0.2253 0.6106 0.3324, 0.2207 0.6106 0.3347, 0.2258 0.6106 0.3334, 0.2217 0.6106 0.3363, 0.2266 0.6106 0.3342, 0.2231 0.6106 0.3376, 0.2275 0.6106 0.3348, 0.2247 0.6106 0.3386, 0.2286 0.6106 0.3352, 0.2269 0.6106 0.3392, 0.2303 0.6106 0.3354, 0.2298 0.6106 0.3395, 0.2331 0.6106 0.3352, 0.235 0.6106 0.3389, 0.2362 0.6106 0.3342, 0.2387 0.6106 0.3375, 0.2397 0.6106 0.332, 0.2397 0.6106 0.3369, 0.2365 0.6106 0.3154, 0.2402 0.6106 0.3119, 0.2361 0.6106 0.315, 0.2385 0.6106 0.3107, 0.2351 0.6106 0.3143, 0.2366 0.6106 0.31, 0.234 0.6106 0.3139, 0.2336 0.6106 0.3096, 0.2323 0.6106 0.3137, 0.2311 0.6106 0.3098, 0.2304 0.6106 0.3139, 0.229 0.6106 0.3105, 0.2272 0.6106 0.3117, 0.2375 0.6106 0.3192, 0.2426 0.6106 0.3186, 0.2375 0.6106 0.3184, 0.2426 0.6106 0.318, 0.2374 0.6106 0.3172, 0.2424 0.6106 0.3156, 0.2371 0.6106 0.3163, 0.2418 0.6106 0.3139, 0.2407 0.6106 0.3124, 0.2331 0.6106 0.3272, 0.2369 0.6106 0.3263, 0.2362 0.6106 0.322, 0.239 0.6106 0.3253, 0.2368 0.6106 0.3212, 0.2406 0.6106 0.3239, 0.2372 0.6106 0.3203, 0.2416 0.6106 0.3225, 0.2423 0.6106 0.3207, 0.2298 0.6102 0.3395, 0.235 0.6102 0.3389, 0.2387 0.6102 0.3375, 0.2397 0.6102 0.3369, 0.2397 0.6102 0.332, 0.2362 0.6102 0.3342, 0.2331 0.6102 0.3352, 0.2303 0.6102 0.3354, 0.2286 0.6102 0.3352, 0.2275 0.6102 0.3348, 0.2266 0.6102 0.3342, 0.2258 0.6102 0.3334, 0.2253 0.6102 0.3324, 0.2247 0.6102 0.3306, 0.2246 0.6102 0.3284, 0.2331 0.6102 0.3272, 0.2369 0.6102 0.3263, 0.239 0.6102 0.3253, 0.2406 0.6102 0.3239, 0.2416 0.6102 0.3225, 0.2423 0.6102 0.3207, 0.2426 0.6102 0.3186, 0.2426 0.6102 0.318, 0.2424 0.6102 0.3156, 0.2418 0.6102 0.3139, 0.2407 0.6102 0.3124, 0.2402 0.6102 0.3119, 0.2385 0.6102 0.3107, 0.2366 0.6102 0.31, 0.2336 0.6102 0.3096, 0.2311 0.6102 0.3098, 0.229 0.6102 0.3105, 0.2272 0.6102 0.3117, 0.2256 0.6102 0.3134, 0.2248 0.6102 0.3146, 0.2247 0.6102 0.3146, 0.2247 0.6102 0.3102, 0.2197 0.6102 0.3102, 0.2196 0.6102 0.3286, 0.22 0.6102 0.3324, 0.2207 0.6102 0.3347, 0.2217 0.6102 0.3363, 0.2231 0.6102 0.3376, 0.2247 0.6102 0.3386, 0.2269 0.6102 0.3392, 0.2362 0.6102 0.322, 0.2356 0.6102 0.3224, 0.2344 0.6102 0.323, 0.2313 0.6102 0.3237, 0.2375 0.6102 0.3184, 0.2375 0.6102 0.3192, 0.2372 0.6102 0.3203, 0.2368 0.6102 0.3212, 0.2361 0.6102 0.315, 0.2365 0.6102 0.3154, 0.2371 0.6102 0.3163, 0.2374 0.6102 0.3172, 0.2323 0.6102 0.3137, 0.234 0.6102 0.3139, 0.2351 0.6102 0.3143, 0.2268 0.6102 0.316, 0.2275 0.6102 0.3154, 0.2289 0.6102 0.3144, 0.2304 0.6102 0.3139, 0.2246 0.6102 0.3218, 0.2246 0.6102 0.3215, 0.225 0.6102 0.3192, 0.2257 0.6102 0.3175, 0.2246 0.6102 0.3245, 0.2246 0.6102 0.3245
            ]
        }
        coordIndex [
            0,1,2,-1,2,1,3,-1,4,0,5,-1,5,0,2,-1,6,4,7,-1,7,4,5,-1,8,6,9,-1,9,6,7,-1,10,8,11,-1,11,8,9,-1,12,10,13,-1,13,10,11,-1,14,12,15,-1,15,12,13,-1,16,14,17,-1,17,14,15,-1,18,16,19,-1,19,16,17,-1,20,18,21,-1,21,18,19,-1,22,20,23,-1,23,20,21,-1,1,22,3,-1,3,22,23,-1,22,1,0,-1,0,4,22,-1,22,4,6,-1,22,6,20,-1,16,18,14,-1,14,18,20,-1,14,20,12,-1,12,20,6,-1,12,6,10,-1,10,6,8,-1,24,25,26,-1,26,25,27,-1,28,29,30,-1,31,32,33,-1,33,32,34,-1,35,36,27,-1,27,36,37,-1,37,38,27,-1,27,38,39,-1,27,39,26,-1,26,39,40,-1,26,40,31,-1,31,40,41,-1,31,41,32,-1,30,35,28,-1,28,35,27,-1,28,27,42,-1,42,27,43,-1,42,43,44,-1,44,43,45,-1,44,45,46,-1,46,45,47,-1,46,47,48,-1,48,47,49,-1,48,49,50,-1,50,49,51,-1,50,51,52,-1,52,51,53,-1,52,53,54,-1,54,53,55,-1,54,55,56,-1,56,55,57,-1,56,57,58,-1,58,57,59,-1,58,59,60,-1,60,59,61,-1,62,63,64,-1,64,63,65,-1,64,65,66,-1,66,65,67,-1,66,67,68,-1,68,67,69,-1,68,69,70,-1,70,69,71,-1,70,71,72,-1,72,71,73,-1,72,73,34,-1,34,73,74,-1,34,74,33,-1,75,76,77,-1,77,76,78,-1,77,78,79,-1,79,78,80,-1,79,80,81,-1,81,80,82,-1,81,82,62,-1,62,82,83,-1,62,83,63,-1,28,84,29,-1,29,84,85,-1,29,85,86,-1,86,85,87,-1,86,87,88,-1,88,87,89,-1,88,89,90,-1,90,89,91,-1,90,91,75,-1,75,91,92,-1,75,92,76,-1,55,93,94,-1,55,94,57,-1,57,94,95,-1,57,95,59,-1,59,95,96,-1,59,96,61,-1,60,61,97,-1,97,61,96,-1,60,97,98,-1,60,98,58,-1,58,98,99,-1,58,99,56,-1,56,99,100,-1,56,100,54,-1,54,100,101,-1,54,101,52,-1,52,101,102,-1,52,102,50,-1,50,102,103,-1,50,103,48,-1,48,103,104,-1,48,104,46,-1,46,104,105,-1,46,105,44,-1,44,105,106,-1,44,106,42,-1,42,106,107,-1,42,107,28,-1,84,28,108,-1,108,28,107,-1,84,108,109,-1,84,109,85,-1,85,109,110,-1,85,110,87,-1,87,110,111,-1,87,111,89,-1,89,111,112,-1,89,112,91,-1,91,112,113,-1,91,113,92,-1,92,113,114,-1,92,114,76,-1,76,114,115,-1,76,115,78,-1,78,115,116,-1,78,116,80,-1,80,116,117,-1,80,117,82,-1,82,117,118,-1,82,118,83,-1,83,118,119,-1,83,119,63,-1,63,119,120,-1,63,120,65,-1,65,120,121,-1,65,121,67,-1,67,121,122,-1,67,122,69,-1,69,122,123,-1,69,123,71,-1,71,123,124,-1,71,124,73,-1,73,124,125,-1,73,125,74,-1,74,125,126,-1,74,126,33,-1,33,126,127,-1,33,127,31,-1,26,31,128,-1,128,31,127,-1,24,26,129,-1,129,26,128,-1,25,24,130,-1,130,24,129,-1,27,25,131,-1,131,25,130,-1,27,131,132,-1,27,132,43,-1,43,132,133,-1,43,133,45,-1,45,133,134,-1,45,134,47,-1,47,134,135,-1,47,135,49,-1,49,135,136,-1,49,136,51,-1,51,136,137,-1,51,137,53,-1,53,137,93,-1,53,93,55,-1,86,138,139,-1,86,139,29,-1,29,139,140,-1,29,140,30,-1,30,140,141,-1,30,141,35,-1,77,142,143,-1,77,143,75,-1,75,143,144,-1,75,144,90,-1,90,144,145,-1,90,145,88,-1,88,145,138,-1,88,138,86,-1,64,146,147,-1,64,147,62,-1,62,147,148,-1,62,148,81,-1,81,148,149,-1,81,149,79,-1,79,149,142,-1,79,142,77,-1,70,150,151,-1,70,151,68,-1,68,151,152,-1,68,152,66,-1,66,152,146,-1,66,146,64,-1,41,153,154,-1,41,154,32,-1,32,154,155,-1,32,155,34,-1,34,155,156,-1,34,156,72,-1,72,156,150,-1,72,150,70,-1,37,157,158,-1,37,158,38,-1,38,158,159,-1,38,159,39,-1,39,159,160,-1,39,160,40,-1,40,160,153,-1,40,153,41,-1,37,36,157,-1,157,36,161,-1,36,35,161,-1,161,35,141,-1,
        ]
    }
}
Shape{
    appearance Appearance {
        material  Material 	{
            diffuseColor 0.5372549019607843 0.34901960784313724 0.33725490196078434
            specularColor 0.3764705882352941 0.24313725490196078 0.23529411764705882
            ambientIntensity 0.2
            transparency 0
            shininess 0.5
        }
    }
    geometry IndexedFaceSet {
        ccw TRUE
        solid FALSE
        coord DEF co Coordinate {
            point [
                0.2246 0.6102 0.3215, 0.2246 0.6102 0.3218, 0.2362 0.6102 0.322, 0.2246 0.6102 0.3245, 0.2313 0.6102 0.3237, 0.2344 0.6102 0.323, 0.2356 0.6102 0.3224, 0.225 0.6102 0.3192, 0.2368 0.6102 0.3212, 0.2257 0.6102 0.3175, 0.2365 0.6102 0.3154, 0.2361 0.6102 0.315, 0.2275 0.6102 0.3154, 0.2371 0.6102 0.3163, 0.2289 0.6102 0.3144, 0.2304 0.6102 0.3139, 0.2323 0.6102 0.3137, 0.2372 0.6102 0.3203, 0.2375 0.6102 0.3192, 0.2268 0.6102 0.316, 0.2375 0.6102 0.3184, 0.2374 0.6102 0.3172, 0.2351 0.6102 0.3143, 0.234 0.6102 0.3139, 0.234 0.6102 0.3139
            ]
        }
        coordIndex [
            0,1,2,-1,1,3,4,-1,4,5,1,-1,1,5,6,-1,1,6,2,-1,0,2,7,-1,7,2,8,-1,7,8,9,-1,10,11,12,-1,10,12,13,-1,14,12,15,-1,15,12,16,-1,8,17,9,-1,9,17,18,-1,9,18,19,-1,19,18,20,-1,19,20,12,-1,12,20,21,-1,12,21,13,-1,11,22,12,-1,12,22,23,-1,12,23,16,-1,
        ]
    }
}
Shape{
    appearance Appearance {
        material  Material 	{
            diffuseColor 0.0 0.0 0.0
            specularColor 0.0 0.0 0.0
            ambientIntensity 0.2
            transparency 0
            shininess 0.5
        }
    }
    geometry IndexedFaceSet {
        ccw TRUE
        solid FALSE
        coord DEF co Coordinate {
            point [
                0.2046 0.6106 0.3135, 0.2046 0.6102 0.3135, 0.2079 0.6102 0.3139, 0.2104 0.6102 0.3149, 0.2111 0.6106 0.3152, 0.2079 0.6106 0.3139, 0.2111 0.6102 0.3152, 0.2129 0.6102 0.3163, 0.2129 0.6106 0.3163, 0.2129 0.6106 0.3111, 0.2129 0.6102 0.3111, 0.2094 0.6106 0.3099, 0.2104 0.6102 0.3102, 0.2052 0.6102 0.3094, 0.2052 0.6106 0.3094, 0.2053 0.6102 0.3094, 0.2094 0.6102 0.3099, 0.205 0.6102 0.3094, 0.2006 0.6106 0.3099, 0.2006 0.6102 0.3099, 0.198 0.6102 0.3109, 0.198 0.6106 0.3109, 0.1968 0.6102 0.3116, 0.1968 0.6106 0.3116, 0.1954 0.6102 0.3128, 0.1954 0.6106 0.3128, 0.1944 0.6102 0.3142, 0.1944 0.6106 0.3142, 0.1938 0.6102 0.3158, 0.1938 0.6106 0.3158, 0.1935 0.6102 0.3178, 0.1935 0.6106 0.3178, 0.1937 0.6102 0.3196, 0.1937 0.6106 0.3196, 0.1943 0.6102 0.3211, 0.1943 0.6106 0.3211, 0.1952 0.6102 0.3225, 0.1952 0.6106 0.3225, 0.1964 0.6102 0.3236, 0.1964 0.6106 0.3236, 0.1997 0.6102 0.3254, 0.1997 0.6106 0.3254, 0.2016 0.6102 0.3262, 0.2016 0.6106 0.3262, 0.2047 0.6102 0.3276, 0.2047 0.6106 0.3276, 0.2065 0.6102 0.3287, 0.2065 0.6106 0.3287, 0.207 0.6102 0.3293, 0.207 0.6106 0.3293, 0.2073 0.6102 0.33, 0.2073 0.6106 0.33, 0.2075 0.6102 0.3307, 0.2075 0.6106 0.3307, 0.2076 0.6102 0.3314, 0.2076 0.6106 0.3314, 0.2075 0.6102 0.3322, 0.2075 0.6106 0.3322, 0.2072 0.6102 0.3329, 0.2072 0.6106 0.3329, 0.2068 0.6102 0.3335, 0.2068 0.6106 0.3335, 0.206 0.6102 0.3342, 0.206 0.6106 0.3342, 0.2049 0.6102 0.3348, 0.2049 0.6106 0.3348, 0.2035 0.6102 0.3351, 0.2035 0.6106 0.3351, 0.2021 0.6102 0.3352, 0.2021 0.6106 0.3352, 0.1986 0.6102 0.3348, 0.1986 0.6106 0.3348, 0.1957 0.6102 0.3336, 0.1957 0.6106 0.3336, 0.1948 0.6102 0.3331, 0.1948 0.6106 0.3331, 0.1948 0.6106 0.338, 0.1948 0.6102 0.338, 0.198 0.6102 0.3389, 0.198 0.6106 0.3389, 0.2015 0.6102 0.3393, 0.2015 0.6106 0.3393, 0.2056 0.6102 0.3388, 0.2056 0.6106 0.3388, 0.2083 0.6102 0.3378, 0.2083 0.6106 0.3378, 0.2095 0.6102 0.3371, 0.2095 0.6106 0.3371, 0.2111 0.6106 0.3356, 0.2104 0.6102 0.3363, 0.2111 0.6102 0.3356, 0.212 0.6102 0.3342, 0.212 0.6106 0.3342, 0.2126 0.6102 0.3326, 0.2126 0.6106 0.3326, 0.2127 0.6102 0.331, 0.2127 0.6106 0.331, 0.2125 0.6102 0.3288, 0.2125 0.6106 0.3288, 0.2119 0.6102 0.3273, 0.2119 0.6106 0.3273, 0.2113 0.6102 0.3265, 0.2113 0.6106 0.3265, 0.2052 0.6102 0.3226, 0.2052 0.6106 0.3226, 0.2082 0.6106 0.324, 0.2105 0.6102 0.3256, 0.2105 0.6106 0.3256, 0.2104 0.6102 0.3255, 0.2082 0.6102 0.324, 0.2019 0.6102 0.3212, 0.2019 0.6106 0.3212, 0.2 0.6102 0.32, 0.2 0.6106 0.32, 0.1993 0.6102 0.3194, 0.1993 0.6106 0.3194, 0.199 0.6102 0.3187, 0.199 0.6106 0.3187, 0.1987 0.6102 0.3179, 0.1987 0.6106 0.3179, 0.1987 0.6102 0.3173, 0.1987 0.6106 0.3173, 0.1988 0.6102 0.3163, 0.1988 0.6106 0.3163, 0.1991 0.6102 0.3156, 0.1991 0.6106 0.3156, 0.1995 0.6102 0.315, 0.1995 0.6106 0.315, 0.2001 0.6102 0.3145, 0.2001 0.6106 0.3145, 0.2005 0.6102 0.3142, 0.2005 0.6106 0.3142, 0.2018 0.6102 0.3137, 0.2018 0.6106 0.3137, 0.2044 0.6102 0.3135, 0.2044 0.6106 0.3135, 0.1685 0.6106 0.3384, 0.1633 0.6106 0.3384, 0.1685 0.6102 0.3384, 0.1633 0.6102 0.3384, 0.1765 0.6106 0.3169, 0.1765 0.6102 0.3169, 0.1769 0.6102 0.3156, 0.1769 0.6106 0.3156, 0.1771 0.6102 0.3146, 0.1771 0.6106 0.3146, 0.1773 0.6106 0.3146, 0.1773 0.6102 0.3146, 0.1779 0.6106 0.317, 0.1779 0.6102 0.317, 0.1852 0.6102 0.3385, 0.1852 0.6106 0.3385, 0.1825 0.6102 0.3306, 0.1908 0.6106 0.3386, 0.1908 0.6102 0.3386, 0.1798 0.6102 0.3099, 0.1798 0.6106 0.3099, 0.1825 0.6102 0.317, 0.182 0.6102 0.3048, 0.182 0.6106 0.3048, 0.18 0.6102 0.3094, 0.1825 0.6102 0.3039, 0.1832 0.6106 0.3028, 0.1832 0.6102 0.3028, 0.1832 0.6102 0.3027, 0.1842 0.6106 0.3017, 0.1842 0.6102 0.3017, 0.1851 0.6102 0.3012, 0.1851 0.6106 0.3012, 0.1862 0.6102 0.3008, 0.1862 0.6106 0.3008, 0.1872 0.6102 0.3008, 0.1872 0.6106 0.3008, 0.189 0.6102 0.301, 0.189 0.6106 0.301, 0.19 0.6102 0.3014, 0.19 0.6106 0.3014, 0.1901 0.6106 0.2969, 0.1901 0.6102 0.2969, 0.1879 0.6102 0.2965, 0.1879 0.6106 0.2965, 0.1868 0.6102 0.2965, 0.1868 0.6106 0.2965, 0.1847 0.6102 0.2967, 0.1847 0.6106 0.2967, 0.1827 0.6102 0.2975, 0.1827 0.6106 0.2975, 0.1825 0.6102 0.2976, 0.181 0.6106 0.2987, 0.1766 0.6102 0.3055, 0.1766 0.6106 0.3055, 0.178 0.6102 0.3027, 0.1789 0.6106 0.3011, 0.1789 0.6102 0.3011, 0.181 0.6102 0.2987, 0.175 0.6102 0.3094, 0.1366 0.6106 0.3141, 0.1366 0.6106 0.3096, 0.1366 0.6102 0.3141, 0.1366 0.6102 0.3096, 0.1529 0.6102 0.3143, 0.1529 0.6106 0.3143, 0.145 0.6102 0.3142, 0.1528 0.6106 0.3277, 0.1528 0.6102 0.3277, 0.1385 0.6102 0.3276, 0.1385 0.6106 0.3276, 0.145 0.6102 0.3277, 0.1385 0.6106 0.3322, 0.1385 0.6102 0.3322, 0.1528 0.6102 0.3323, 0.1528 0.6106 0.3323, 0.145 0.6102 0.3323, 0.1527 0.6106 0.3451, 0.1527 0.6102 0.3451, 0.1373 0.6102 0.345, 0.1373 0.6106 0.345, 0.145 0.6102 0.3451, 0.1372 0.6106 0.3496, 0.1372 0.6102 0.3496, 0.1579 0.6102 0.3498, 0.1579 0.6106 0.3498, 0.145 0.6102 0.3497, 0.1581 0.6106 0.3097, 0.1581 0.6102 0.3097, 0.145 0.6102 0.3096, 0.1041 0.6106 0.3206, 0.1061 0.6106 0.3181, 0.1025 0.6106 0.3149, 0.1068 0.6106 0.3174, 0.1066 0.6106 0.312, 0.1095 0.6106 0.3157, 0.1112 0.6106 0.3102, 0.1129 0.6106 0.3145, 0.118 0.6106 0.3094, 0.118 0.6106 0.314, 0.129 0.6106 0.3095, 0.1238 0.6106 0.314, 0.1288 0.6106 0.3496, 0.1236 0.6106 0.3449, 0.1173 0.6106 0.3495, 0.1176 0.6106 0.3449, 0.1112 0.6106 0.3488, 0.1124 0.6106 0.3443, 0.1064 0.6106 0.347, 0.109 0.6106 0.343, 0.1022 0.6106 0.3441, 0.1061 0.6106 0.341, 0.1009 0.6106 0.3427, 0.105 0.6106 0.34, 0.0984 0.6106 0.3392, 0.1034 0.6106 0.3377, 0.0969 0.6106 0.3354, 0.1023 0.6106 0.3348, 0.0963 0.6106 0.3298, 0.1017 0.6106 0.3297, 0.0964 0.6106 0.3273, 0.1019 0.6106 0.3272, 0.0974 0.6106 0.3226, 0.1027 0.6106 0.3235, 0.0994 0.6106 0.3185, 0.118 0.6102 0.3094, 0.129 0.6102 0.3095, 0.1112 0.6102 0.3102, 0.1066 0.6102 0.312, 0.1025 0.6102 0.3149, 0.0994 0.6102 0.3185, 0.0974 0.6102 0.3226, 0.0964 0.6102 0.3273, 0.0963 0.6102 0.3298, 0.0969 0.6102 0.3354, 0.0984 0.6102 0.3392, 0.1009 0.6102 0.3427, 0.1022 0.6102 0.3441, 0.1064 0.6102 0.347, 0.1112 0.6102 0.3488, 0.1173 0.6102 0.3495, 0.1288 0.6102 0.3496, 0.1176 0.6102 0.3449, 0.1236 0.6102 0.3449, 0.1238 0.6102 0.314, 0.118 0.6102 0.314, 0.1061 0.6102 0.3181, 0.1068 0.6102 0.3174, 0.1095 0.6102 0.3157, 0.1129 0.6102 0.3145, 0.1017 0.6102 0.3297, 0.1019 0.6102 0.3272, 0.1027 0.6102 0.3235, 0.1041 0.6102 0.3206, 0.1061 0.6102 0.341, 0.105 0.6102 0.34, 0.1034 0.6102 0.3377, 0.1023 0.6102 0.3348, 0.1124 0.6102 0.3443, 0.109 0.6102 0.343, 0.109 0.6102 0.343
            ]
        }
        coordIndex [
            0,1,2,-1,3,4,2,-1,2,4,5,-1,2,5,0,-1,3,6,4,-1,4,6,7,-1,4,7,8,-1,9,8,10,-1,10,8,7,-1,9,10,11,-1,11,10,12,-1,13,14,15,-1,15,14,11,-1,15,11,16,-1,16,11,12,-1,14,13,17,-1,14,17,18,-1,17,19,18,-1,18,19,20,-1,18,20,21,-1,21,20,22,-1,21,22,23,-1,23,22,24,-1,23,24,25,-1,25,24,26,-1,25,26,27,-1,27,26,28,-1,27,28,29,-1,29,28,30,-1,29,30,31,-1,31,30,32,-1,31,32,33,-1,33,32,34,-1,33,34,35,-1,35,34,36,-1,35,36,37,-1,37,36,38,-1,37,38,39,-1,39,38,40,-1,39,40,41,-1,41,40,42,-1,41,42,43,-1,43,42,44,-1,43,44,45,-1,45,44,46,-1,45,46,47,-1,47,46,48,-1,47,48,49,-1,49,48,50,-1,49,50,51,-1,51,50,52,-1,51,52,53,-1,53,52,54,-1,53,54,55,-1,55,54,56,-1,55,56,57,-1,57,56,58,-1,57,58,59,-1,59,58,60,-1,59,60,61,-1,61,60,62,-1,61,62,63,-1,63,62,64,-1,63,64,65,-1,65,64,66,-1,65,66,67,-1,67,66,68,-1,67,68,69,-1,69,68,70,-1,69,70,71,-1,71,70,72,-1,71,72,73,-1,73,72,74,-1,73,74,75,-1,76,75,77,-1,77,75,74,-1,76,77,78,-1,76,78,79,-1,79,78,80,-1,79,80,81,-1,81,80,82,-1,81,82,83,-1,83,82,84,-1,83,84,85,-1,85,84,86,-1,85,86,87,-1,87,86,88,-1,88,86,89,-1,89,90,88,-1,88,90,91,-1,88,91,92,-1,92,91,93,-1,92,93,94,-1,94,93,95,-1,94,95,96,-1,96,95,97,-1,96,97,98,-1,98,97,99,-1,98,99,100,-1,100,99,101,-1,100,101,102,-1,103,104,105,-1,102,101,106,-1,102,106,107,-1,107,106,108,-1,107,108,105,-1,105,108,109,-1,105,109,103,-1,104,103,110,-1,104,110,111,-1,111,110,112,-1,111,112,113,-1,113,112,114,-1,113,114,115,-1,115,114,116,-1,115,116,117,-1,117,116,118,-1,117,118,119,-1,119,118,120,-1,119,120,121,-1,121,120,122,-1,121,122,123,-1,123,122,124,-1,123,124,125,-1,125,124,126,-1,125,126,127,-1,127,126,128,-1,127,128,129,-1,129,128,130,-1,129,130,131,-1,131,130,132,-1,131,132,133,-1,133,132,134,-1,133,134,135,-1,135,134,1,-1,135,1,0,-1,59,61,87,-1,87,61,85,-1,85,61,63,-1,85,63,83,-1,125,25,27,-1,111,43,104,-1,104,43,45,-1,96,98,51,-1,51,98,100,-1,51,100,49,-1,49,100,102,-1,49,102,47,-1,47,102,107,-1,47,107,45,-1,45,107,105,-1,45,105,104,-1,125,27,123,-1,123,27,29,-1,123,29,121,-1,121,29,31,-1,121,31,119,-1,119,31,33,-1,119,33,117,-1,117,33,35,-1,117,35,115,-1,115,35,37,-1,115,37,113,-1,113,37,39,-1,113,39,111,-1,111,39,41,-1,111,41,43,-1,25,125,23,-1,23,125,127,-1,23,127,21,-1,14,0,11,-1,11,0,5,-1,11,5,9,-1,9,5,4,-1,9,4,8,-1,63,65,83,-1,83,65,67,-1,83,67,81,-1,81,67,69,-1,81,69,79,-1,79,69,71,-1,79,71,76,-1,76,71,73,-1,76,73,75,-1,127,129,21,-1,21,129,131,-1,21,131,18,-1,18,131,133,-1,18,133,14,-1,14,133,135,-1,14,135,0,-1,87,88,59,-1,59,88,92,-1,59,92,57,-1,57,92,94,-1,57,94,55,-1,55,94,96,-1,55,96,53,-1,53,96,51,-1,136,137,138,-1,138,137,139,-1,140,136,141,-1,141,136,138,-1,140,141,142,-1,140,142,143,-1,143,142,144,-1,143,144,145,-1,146,145,147,-1,147,145,144,-1,148,146,149,-1,149,146,147,-1,150,151,152,-1,152,151,148,-1,152,148,149,-1,153,151,154,-1,154,151,150,-1,155,156,157,-1,157,156,153,-1,157,153,154,-1,158,159,160,-1,160,159,156,-1,160,156,155,-1,159,158,161,-1,159,161,162,-1,161,163,162,-1,162,163,164,-1,162,164,165,-1,164,166,165,-1,165,166,167,-1,165,167,168,-1,168,167,169,-1,168,169,170,-1,170,169,171,-1,170,171,172,-1,172,171,173,-1,172,173,174,-1,174,173,175,-1,174,175,176,-1,177,176,178,-1,178,176,175,-1,177,178,179,-1,177,179,180,-1,180,179,181,-1,180,181,182,-1,182,181,183,-1,182,183,184,-1,184,183,185,-1,184,185,186,-1,186,185,187,-1,186,187,188,-1,189,190,191,-1,191,190,192,-1,191,192,193,-1,193,192,188,-1,193,188,194,-1,194,188,187,-1,139,137,195,-1,195,137,190,-1,195,190,189,-1,143,145,190,-1,137,136,190,-1,190,136,140,-1,190,140,143,-1,151,153,148,-1,148,153,156,-1,148,156,146,-1,145,146,190,-1,190,146,156,-1,190,156,192,-1,156,159,192,-1,192,159,162,-1,192,162,188,-1,188,162,165,-1,188,165,186,-1,186,165,168,-1,186,168,184,-1,184,168,170,-1,184,170,182,-1,182,170,172,-1,182,172,180,-1,180,172,174,-1,180,174,177,-1,177,174,176,-1,196,197,198,-1,198,197,199,-1,200,201,202,-1,202,201,196,-1,202,196,198,-1,203,201,204,-1,204,201,200,-1,205,206,207,-1,207,206,203,-1,207,203,204,-1,208,206,209,-1,209,206,205,-1,210,211,212,-1,212,211,208,-1,212,208,209,-1,213,211,214,-1,214,211,210,-1,215,216,217,-1,217,216,213,-1,217,213,214,-1,218,216,219,-1,219,216,215,-1,220,221,222,-1,222,221,218,-1,222,218,219,-1,223,221,224,-1,224,221,220,-1,199,197,225,-1,225,197,223,-1,225,223,224,-1,223,197,196,-1,196,201,223,-1,223,201,203,-1,223,203,221,-1,216,218,213,-1,213,218,221,-1,213,221,211,-1,211,221,203,-1,211,203,208,-1,208,203,206,-1,226,227,228,-1,228,227,229,-1,228,229,230,-1,230,229,231,-1,230,231,232,-1,232,231,233,-1,232,233,234,-1,234,233,235,-1,234,235,236,-1,236,235,237,-1,236,237,238,-1,238,237,239,-1,238,239,240,-1,240,239,241,-1,240,241,242,-1,242,241,243,-1,242,243,244,-1,244,243,245,-1,244,245,246,-1,246,245,247,-1,246,247,248,-1,248,247,249,-1,248,249,250,-1,250,249,251,-1,250,251,252,-1,252,251,253,-1,252,253,254,-1,254,253,255,-1,254,255,256,-1,256,255,257,-1,256,257,258,-1,258,257,259,-1,258,259,260,-1,260,259,226,-1,260,226,228,-1,234,236,261,-1,261,236,262,-1,234,261,263,-1,234,263,232,-1,232,263,264,-1,232,264,230,-1,230,264,265,-1,230,265,228,-1,228,265,266,-1,228,266,260,-1,260,266,267,-1,260,267,258,-1,258,267,268,-1,258,268,256,-1,256,268,269,-1,256,269,254,-1,254,269,270,-1,254,270,252,-1,252,270,271,-1,252,271,250,-1,250,271,272,-1,250,272,248,-1,248,272,273,-1,248,273,246,-1,246,273,274,-1,246,274,244,-1,244,274,275,-1,244,275,242,-1,242,275,276,-1,242,276,240,-1,238,240,277,-1,277,240,276,-1,236,238,262,-1,262,238,277,-1,241,239,278,-1,278,239,279,-1,239,237,279,-1,279,237,280,-1,237,235,280,-1,280,235,281,-1,227,282,283,-1,227,283,229,-1,229,283,284,-1,229,284,231,-1,231,284,285,-1,231,285,233,-1,233,285,281,-1,233,281,235,-1,255,286,287,-1,255,287,257,-1,257,287,288,-1,257,288,259,-1,259,288,289,-1,259,289,226,-1,226,289,282,-1,226,282,227,-1,247,290,291,-1,247,291,249,-1,249,291,292,-1,249,292,251,-1,251,292,293,-1,251,293,253,-1,253,293,286,-1,253,286,255,-1,241,278,294,-1,241,294,243,-1,243,294,295,-1,243,295,245,-1,245,295,290,-1,245,290,247,-1,
        ]
    }
}
Shape{
    appearance Appearance {
        material  Material 	{
            diffuseColor 0.5372549019607843 0.34901960784313724 0.33725490196078434
            specularColor 0.3764705882352941 0.24313725490196078 0.23529411764705882
            ambientIntensity 0.2
            transparency 0
            shininess 0.5
        }
    }
    geometry IndexedFaceSet {
        ccw TRUE
        solid FALSE
        coord DEF co Coordinate {
            point [
                0.1236 0.6102 0.3449, 0.1238 0.6102 0.314, 0.1176 0.6102 0.3449, 0.118 0.6102 0.314, 0.1129 0.6102 0.3145, 0.1095 0.6102 0.3157, 0.1068 0.6102 0.3174, 0.1061 0.6102 0.3181, 0.1041 0.6102 0.3206, 0.1027 0.6102 0.3235, 0.1019 0.6102 0.3272, 0.1017 0.6102 0.3297, 0.1023 0.6102 0.3348, 0.1034 0.6102 0.3377, 0.105 0.6102 0.34, 0.1061 0.6102 0.341, 0.1124 0.6102 0.3443, 0.109 0.6102 0.343, 0.109 0.6102 0.343
            ]
        }
        coordIndex [
            0,1,2,-1,2,1,3,-1,2,3,4,-1,4,5,2,-1,2,5,6,-1,2,6,7,-1,7,8,2,-1,2,8,9,-1,2,9,10,-1,10,11,2,-1,2,11,12,-1,2,12,13,-1,13,14,2,-1,2,14,15,-1,2,15,16,-1,16,15,17,-1,
        ]
    }
}
Shape{
    appearance Appearance {
        material  Material 	{
            diffuseColor 0.0 0.0 0.0
            specularColor 0.0 0.0 0.0
            ambientIntensity 0.2
            transparency 0
            shininess 0.5
        }
    }
    geometry IndexedFaceSet {
        ccw TRUE
        solid FALSE
        coord DEF co Coordinate {
            point [
                0.0829 0.6106 0.3247, 0.0768 0.6106 0.3413, 0.0787 0.6106 0.3492, 0.0942 0.6106 0.3093, 0.0885 0.6106 0.3092, 0.0846 0.6106 0.3202, 0.0765 0.6106 0.3425, 0.0761 0.6106 0.3441, 0.0732 0.6106 0.3492, 0.076 0.6106 0.3441, 0.0757 0.6106 0.3424, 0.0754 0.6106 0.3413, 0.0695 0.6106 0.3246, 0.0582 0.6106 0.309, 0.0639 0.6106 0.3091, 0.0679 0.6106 0.32, 0.0732 0.6102 0.3492, 0.0584 0.6102 0.3094, 0.0582 0.6102 0.309, 0.0787 0.6102 0.3492, 0.0942 0.6102 0.3093, 0.0942 0.6102 0.3094, 0.0885 0.6102 0.3092, 0.0846 0.6102 0.3202, 0.0885 0.6102 0.3094, 0.0679 0.6102 0.32, 0.064 0.6102 0.3094, 0.0639 0.6102 0.3091, 0.0829 0.6102 0.3247, 0.0695 0.6102 0.3246, 0.0754 0.6102 0.3413, 0.076 0.6102 0.3441, 0.0757 0.6102 0.3424, 0.0761 0.6102 0.3441, 0.0768 0.6102 0.3413, 0.0765 0.6102 0.3425, 0.0765 0.6102 0.3425
            ]
        }
        coordIndex [
            0,1,2,-1,3,4,5,-1,1,6,2,-1,2,6,7,-1,2,7,8,-1,8,7,9,-1,8,9,10,-1,10,11,8,-1,8,11,12,-1,8,12,13,-1,14,13,15,-1,15,13,12,-1,15,12,5,-1,5,12,0,-1,5,0,3,-1,3,0,2,-1,16,8,17,-1,17,8,13,-1,17,13,18,-1,2,8,19,-1,19,8,16,-1,20,3,21,-1,21,3,2,-1,21,2,19,-1,4,3,22,-1,22,3,20,-1,23,5,24,-1,24,5,4,-1,24,4,22,-1,15,5,25,-1,25,5,23,-1,15,25,14,-1,14,25,26,-1,14,26,27,-1,13,14,18,-1,18,14,27,-1,0,12,28,-1,28,12,29,-1,12,11,29,-1,29,11,30,-1,9,31,32,-1,9,32,10,-1,10,32,30,-1,10,30,11,-1,9,7,31,-1,31,7,33,-1,1,34,35,-1,1,35,6,-1,6,35,33,-1,6,33,7,-1,1,0,34,-1,34,0,28,-1,
        ]
    }
}
Shape{
    appearance Appearance {
        material  Material 	{
            diffuseColor 0.5372549019607843 0.34901960784313724 0.33725490196078434
            specularColor 0.3764705882352941 0.24313725490196078 0.23529411764705882
            ambientIntensity 0.2
            transparency 0
            shininess 0.5
        }
    }
    geometry IndexedFaceSet {
        ccw TRUE
        solid FALSE
        coord DEF co Coordinate {
            point [
                0.076 0.6102 0.3441, 0.0761 0.6102 0.3441, 0.0757 0.6102 0.3424, 0.0765 0.6102 0.3425, 0.0754 0.6102 0.3413, 0.0768 0.6102 0.3413, 0.0695 0.6102 0.3246, 0.0829 0.6102 0.3247, 0.0829 0.6102 0.3247
            ]
        }
        coordIndex [
            0,1,2,-1,2,1,3,-1,2,3,4,-1,4,3,5,-1,4,5,6,-1,6,5,7,-1,
        ]
    }
}
Shape{
    appearance Appearance {
        material  Material 	{
            diffuseColor 0.0 0.0 0.0
            specularColor 0.0 0.0 0.0
            ambientIntensity 0.2
            transparency 0
            shininess 0.5
        }
    }
    geometry IndexedFaceSet {
        ccw TRUE
        solid FALSE
        coord DEF co Coordinate {
            point [
                0.4459 0.6106 0.3061, 0.4417 0.6106 0.3008, 0.4482 0.6106 0.3313, 0.3531 0.6106 0.3446, 0.3618 0.6106 0.3597, 0.4001 0.6106 0.3401, 0.4194 0.6106 0.3317, 0.4168 0.6106 0.3307, 0.3192 0.6106 0.3503, 0.3199 0.6106 0.3448, 0.303 0.6106 0.3399, 0.4145 0.6106 0.3292, 0.4127 0.6106 0.3271, 0.3931 0.6106 0.3238, 0.4544 0.6106 0.3351, 0.4536 0.6106 0.3138, 0.4487 0.6106 0.3122, 0.4115 0.6106 0.3248, 0.4108 0.6106 0.3221, 0.3931 0.6106 0.3209, 0.4108 0.6106 0.3195, 0.4293 0.6106 0.3126, 0.427 0.6106 0.311, 0.4361 0.6106 0.2966, 0.4244 0.6106 0.3101, 0.3435 0.6106 0.3727, 0.3412 0.6106 0.3727, 0.3294 0.6106 0.3879, 0.3358 0.6106 0.372, 0.3278 0.6106 0.3874, 0.3309 0.6106 0.37, 0.3193 0.6106 0.383, 0.3117 0.6106 0.3764, 0.4235 0.6106 0.3826, 0.4214 0.6106 0.3815, 0.4301 0.6106 0.4023, 0.4173 0.6106 0.39, 0.4242 0.6106 0.4091, 0.411 0.6106 0.3976, 0.4175 0.6106 0.4148, 0.4031 0.6106 0.4035, 0.4105 0.6106 0.419, 0.4242 0.6106 0.3317, 0.4281 0.6106 0.3491, 0.4267 0.6106 0.3308, 0.4345 0.6106 0.3467, 0.429 0.6106 0.3294, 0.4403 0.6106 0.3427, 0.4308 0.6106 0.3274, 0.4451 0.6106 0.3374, 0.4322 0.6106 0.3249, 0.4329 0.6106 0.3222, 0.3067 0.6106 0.331, 0.3219 0.6106 0.3397, 0.3122 0.6106 0.3235, 0.3974 0.6106 0.424, 0.3937 0.6106 0.4072, 0.3832 0.6106 0.4256, 0.3446 0.6106 0.4105, 0.3548 0.6106 0.3965, 0.3354 0.6106 0.3998, 0.3487 0.6106 0.3886, 0.3447 0.6106 0.3792, 0.4595 0.6106 0.3404, 0.4713 0.6106 0.326, 0.4637 0.6106 0.3192, 0.4642 0.6106 0.3645, 0.4829 0.6106 0.3605, 0.4651 0.6106 0.3576, 0.4831 0.6106 0.3572, 0.4648 0.6106 0.3533, 0.4821 0.6106 0.3472, 0.4629 0.6106 0.3463, 0.4783 0.6106 0.3365, 0.4724 0.6106 0.3273, 0.411 0.6106 0.3479, 0.4179 0.6106 0.3497, 0.4214 0.6106 0.3499, 0.3265 0.6106 0.3669, 0.3232 0.6106 0.3632, 0.306 0.6106 0.3682, 0.3206 0.6106 0.3582, 0.3027 0.6106 0.3595, 0.3193 0.6106 0.3528, 0.3015 0.6106 0.3505, 0.3015 0.6106 0.3492, 0.325 0.6106 0.3353, 0.3255 0.6106 0.3349, 0.3204 0.6106 0.3168, 0.3297 0.6106 0.3315, 0.3291 0.6106 0.3127, 0.3347 0.6106 0.3292, 0.3382 0.6106 0.3109, 0.3398 0.6106 0.3282, 0.355 0.6106 0.311, 0.3526 0.6106 0.3283, 0.3564 0.6106 0.3112, 0.4299 0.6106 0.385, 0.4334 0.6106 0.4027, 0.4365 0.6106 0.3859, 0.4366 0.6106 0.4029, 0.4394 0.6106 0.3857, 0.4467 0.6106 0.4019, 0.4464 0.6106 0.3841, 0.4573 0.6106 0.3982, 0.4528 0.6106 0.3808, 0.4669 0.6106 0.3919, 0.4578 0.6106 0.3764, 0.4695 0.6106 0.3895, 0.4618 0.6106 0.3708, 0.4758 0.6106 0.3818, 0.4806 0.6106 0.3717, 0.3842 0.6106 0.4085, 0.3831 0.6106 0.4085, 0.3715 0.6106 0.4243, 0.3739 0.6106 0.4074, 0.3573 0.6106 0.4192, 0.365 0.6106 0.404, 0.3569 0.6106 0.3985, 0.4311 0.6106 0.3147, 0.4323 0.6106 0.3171, 0.4329 0.6106 0.3197, 0.4218 0.6106 0.332, 0.405 0.6106 0.3446, 0.4296 0.6106 0.2938, 0.4229 0.6106 0.2927, 0.4219 0.6106 0.3098, 0.4218 0.6106 0.2927, 0.4195 0.6106 0.31, 0.4149 0.6106 0.2935, 0.417 0.6106 0.3109, 0.4085 0.6106 0.2959, 0.4148 0.6106 0.3123, 0.4028 0.6106 0.2998, 0.4129 0.6106 0.3143, 0.3984 0.6106 0.3047, 0.4115 0.6106 0.3167, 0.395 0.6106 0.311, 0.3933 0.6106 0.318, 0.3541 0.6106 0.3286, 0.361 0.6106 0.3141, 0.3602 0.6106 0.3132, 0.3564 0.6106 0.3284, 0.3584 0.6106 0.3277, 0.3632 0.6106 0.3206, 0.3632 0.6106 0.3199, 0.363 0.6106 0.3178, 0.3623 0.6106 0.3159, 0.3532 0.6106 0.3284, 0.3583 0.6106 0.3119, 0.3543 0.6106 0.3286, 0.3602 0.6106 0.3265, 0.3616 0.6106 0.3248, 0.3627 0.6106 0.3228, 0.3015 0.6102 0.3505, 0.3027 0.6102 0.3595, 0.3095 0.6102 0.3732, 0.3035 0.6102 0.3617, 0.306 0.6102 0.3682, 0.3117 0.6102 0.3764, 0.3193 0.6102 0.383, 0.3278 0.6102 0.3874, 0.3294 0.6102 0.3879, 0.3354 0.6102 0.3998, 0.3446 0.6102 0.4105, 0.3495 0.6102 0.4138, 0.3573 0.6102 0.4192, 0.3715 0.6102 0.4243, 0.3832 0.6102 0.4256, 0.3974 0.6102 0.424, 0.4105 0.6102 0.419, 0.4175 0.6102 0.4148, 0.4301 0.6102 0.4023, 0.4186 0.6102 0.4138, 0.4242 0.6102 0.4091, 0.4334 0.6102 0.4027, 0.4366 0.6102 0.4029, 0.4467 0.6102 0.4019, 0.4573 0.6102 0.3982, 0.4669 0.6102 0.3919, 0.4695 0.6102 0.3895, 0.4831 0.6102 0.3572, 0.4758 0.6102 0.3818, 0.4799 0.6102 0.3732, 0.4806 0.6102 0.3717, 0.4827 0.6102 0.3617, 0.4829 0.6102 0.3605, 0.4821 0.6102 0.3472, 0.4783 0.6102 0.3365, 0.4724 0.6102 0.3273, 0.4713 0.6102 0.326, 0.4637 0.6102 0.3192, 0.4536 0.6102 0.3138, 0.4487 0.6102 0.3122, 0.4474 0.6102 0.3094, 0.4432 0.6102 0.3027, 0.4459 0.6102 0.3061, 0.4417 0.6102 0.3008, 0.4361 0.6102 0.2966, 0.4296 0.6102 0.2938, 0.4229 0.6102 0.2927, 0.4218 0.6102 0.2927, 0.4149 0.6102 0.2935, 0.3958 0.6102 0.3094, 0.4085 0.6102 0.2959, 0.4028 0.6102 0.2998, 0.4001 0.6102 0.3027, 0.3984 0.6102 0.3047, 0.395 0.6102 0.311, 0.3933 0.6102 0.318, 0.3931 0.6102 0.3209, 0.3931 0.6102 0.3238, 0.3531 0.6102 0.3446, 0.3618 0.6102 0.3597, 0.4001 0.6102 0.3401, 0.405 0.6102 0.3446, 0.411 0.6102 0.3479, 0.4179 0.6102 0.3497, 0.4214 0.6102 0.3499, 0.4281 0.6102 0.3491, 0.4345 0.6102 0.3467, 0.4403 0.6102 0.3427, 0.4451 0.6102 0.3374, 0.4482 0.6102 0.3313, 0.4544 0.6102 0.3351, 0.4595 0.6102 0.3404, 0.4629 0.6102 0.3463, 0.4648 0.6102 0.3533, 0.4651 0.6102 0.3576, 0.4646 0.6102 0.3617, 0.4642 0.6102 0.3645, 0.4618 0.6102 0.3708, 0.4601 0.6102 0.3732, 0.4578 0.6102 0.3764, 0.4528 0.6102 0.3808, 0.4464 0.6102 0.3841, 0.4394 0.6102 0.3857, 0.4365 0.6102 0.3859, 0.4299 0.6102 0.385, 0.4235 0.6102 0.3826, 0.4214 0.6102 0.3815, 0.4173 0.6102 0.39, 0.411 0.6102 0.3976, 0.4031 0.6102 0.4035, 0.3937 0.6102 0.4072, 0.3842 0.6102 0.4085, 0.3831 0.6102 0.4085, 0.3739 0.6102 0.4074, 0.365 0.6102 0.404, 0.3569 0.6102 0.3985, 0.3548 0.6102 0.3965, 0.3487 0.6102 0.3886, 0.3447 0.6102 0.3792, 0.3436 0.6102 0.3732, 0.3435 0.6102 0.3727, 0.3412 0.6102 0.3727, 0.3358 0.6102 0.372, 0.3309 0.6102 0.37, 0.3265 0.6102 0.3669, 0.3232 0.6102 0.3632, 0.3224 0.6102 0.3617, 0.3206 0.6102 0.3582, 0.3193 0.6102 0.3528, 0.3192 0.6102 0.3503, 0.3199 0.6102 0.3448, 0.3219 0.6102 0.3397, 0.325 0.6102 0.3353, 0.3255 0.6102 0.3349, 0.3297 0.6102 0.3315, 0.3347 0.6102 0.3292, 0.3398 0.6102 0.3282, 0.3526 0.6102 0.3283, 0.3532 0.6102 0.3284, 0.3541 0.6102 0.3286, 0.3543 0.6102 0.3286, 0.3564 0.6102 0.3284, 0.3584 0.6102 0.3277, 0.3602 0.6102 0.3265, 0.3616 0.6102 0.3248, 0.3627 0.6102 0.3228, 0.3632 0.6102 0.3206, 0.3632 0.6102 0.3199, 0.363 0.6102 0.3178, 0.3623 0.6102 0.3159, 0.361 0.6102 0.3141, 0.3602 0.6102 0.3132, 0.3583 0.6102 0.3119, 0.3564 0.6102 0.3112, 0.355 0.6102 0.311, 0.3382 0.6102 0.3109, 0.3291 0.6102 0.3127, 0.3204 0.6102 0.3168, 0.3122 0.6102 0.3235, 0.3067 0.6102 0.331, 0.303 0.6102 0.3399, 0.3015 0.6102 0.3492, 0.4218 0.6102 0.332, 0.4194 0.6102 0.3317, 0.4168 0.6102 0.3307, 0.4145 0.6102 0.3292, 0.4127 0.6102 0.3271, 0.4115 0.6102 0.3248, 0.4108 0.6102 0.3221, 0.4108 0.6102 0.3195, 0.4115 0.6102 0.3167, 0.4129 0.6102 0.3143, 0.4148 0.6102 0.3123, 0.417 0.6102 0.3109, 0.4195 0.6102 0.31, 0.4219 0.6102 0.3098, 0.4244 0.6102 0.3101, 0.427 0.6102 0.311, 0.4293 0.6102 0.3126, 0.4311 0.6102 0.3147, 0.4323 0.6102 0.3171, 0.4329 0.6102 0.3197, 0.4329 0.6102 0.3222, 0.4322 0.6102 0.3249, 0.4308 0.6102 0.3274, 0.429 0.6102 0.3294, 0.4267 0.6102 0.3308, 0.4242 0.6102 0.3317, 0.4242 0.6102 0.3317
            ]
        }
        coordIndex [
            0,1,2,-1,3,4,5,-1,6,7,3,-1,8,9,10,-1,7,11,3,-1,3,11,12,-1,3,12,13,-1,14,15,2,-1,2,15,16,-1,2,16,0,-1,12,17,13,-1,13,17,18,-1,13,18,19,-1,19,18,20,-1,21,1,22,-1,22,1,23,-1,22,23,24,-1,25,26,27,-1,27,26,28,-1,27,28,29,-1,29,28,30,-1,29,30,31,-1,31,30,32,-1,33,34,35,-1,35,34,36,-1,35,36,37,-1,37,36,38,-1,37,38,39,-1,39,38,40,-1,39,40,41,-1,42,43,44,-1,44,43,45,-1,44,45,46,-1,46,45,47,-1,46,47,48,-1,48,47,49,-1,48,49,50,-1,50,49,2,-1,50,2,51,-1,10,9,52,-1,52,9,53,-1,52,53,54,-1,41,40,55,-1,55,40,56,-1,55,56,57,-1,58,59,60,-1,60,59,61,-1,60,61,27,-1,27,61,62,-1,27,62,25,-1,63,64,14,-1,14,64,65,-1,14,65,15,-1,66,67,68,-1,68,67,69,-1,68,69,70,-1,70,69,71,-1,70,71,72,-1,72,71,73,-1,72,73,63,-1,63,73,74,-1,63,74,64,-1,75,76,42,-1,42,76,77,-1,42,77,43,-1,30,78,32,-1,32,78,79,-1,32,79,80,-1,80,79,81,-1,80,81,82,-1,82,81,83,-1,82,83,84,-1,84,83,8,-1,84,8,85,-1,85,8,10,-1,53,86,54,-1,54,86,87,-1,54,87,88,-1,88,87,89,-1,88,89,90,-1,90,89,91,-1,90,91,92,-1,92,91,93,-1,92,93,94,-1,94,93,95,-1,94,95,96,-1,33,35,97,-1,97,35,98,-1,97,98,99,-1,99,98,100,-1,99,100,101,-1,101,100,102,-1,101,102,103,-1,103,102,104,-1,103,104,105,-1,105,104,106,-1,105,106,107,-1,107,106,108,-1,107,108,109,-1,109,108,110,-1,109,110,66,-1,66,110,111,-1,66,111,67,-1,56,112,57,-1,57,112,113,-1,57,113,114,-1,114,113,115,-1,114,115,116,-1,116,115,117,-1,116,117,58,-1,58,117,118,-1,58,118,59,-1,21,119,1,-1,1,119,120,-1,1,120,2,-1,2,120,121,-1,2,121,51,-1,6,3,122,-1,122,3,5,-1,122,5,42,-1,42,5,123,-1,42,123,75,-1,23,124,24,-1,24,124,125,-1,24,125,126,-1,126,125,127,-1,126,127,128,-1,128,127,129,-1,128,129,130,-1,130,129,131,-1,130,131,132,-1,132,131,133,-1,132,133,134,-1,134,133,135,-1,134,135,136,-1,136,135,137,-1,136,137,20,-1,20,137,138,-1,20,138,19,-1,139,140,141,-1,142,143,144,-1,145,146,139,-1,139,146,147,-1,139,147,140,-1,95,148,96,-1,96,148,139,-1,96,139,149,-1,149,139,141,-1,145,139,144,-1,144,139,150,-1,144,150,142,-1,143,151,144,-1,144,151,152,-1,144,152,153,-1,84,154,155,-1,156,32,80,-1,84,155,82,-1,82,155,157,-1,82,157,80,-1,80,157,158,-1,80,158,156,-1,156,159,32,-1,32,159,160,-1,32,160,31,-1,31,160,161,-1,31,161,29,-1,29,161,162,-1,29,162,27,-1,27,162,163,-1,27,163,60,-1,60,163,164,-1,60,164,58,-1,58,164,165,-1,58,165,116,-1,165,166,116,-1,116,166,167,-1,116,167,114,-1,114,167,168,-1,114,168,57,-1,57,168,169,-1,57,169,55,-1,55,169,170,-1,55,170,41,-1,41,170,171,-1,41,171,39,-1,172,35,37,-1,39,171,173,-1,39,173,37,-1,37,173,174,-1,37,174,172,-1,35,172,175,-1,35,175,98,-1,98,175,176,-1,98,176,100,-1,100,176,177,-1,100,177,102,-1,102,177,178,-1,102,178,104,-1,104,178,179,-1,104,179,106,-1,106,179,180,-1,106,180,108,-1,181,69,67,-1,108,180,182,-1,108,182,110,-1,110,182,183,-1,110,183,111,-1,183,184,111,-1,111,184,185,-1,111,185,67,-1,67,185,186,-1,67,186,181,-1,69,181,187,-1,69,187,71,-1,71,187,188,-1,71,188,73,-1,73,188,189,-1,73,189,74,-1,74,189,190,-1,74,190,64,-1,64,190,191,-1,64,191,65,-1,65,191,192,-1,65,192,15,-1,15,192,193,-1,15,193,16,-1,16,193,194,-1,195,1,0,-1,16,194,0,-1,0,194,196,-1,0,196,195,-1,195,197,1,-1,1,197,198,-1,1,198,23,-1,23,198,199,-1,23,199,124,-1,124,199,200,-1,124,200,125,-1,125,200,201,-1,125,201,127,-1,127,201,202,-1,203,137,135,-1,127,202,129,-1,129,202,204,-1,129,204,131,-1,131,204,205,-1,131,205,133,-1,133,205,206,-1,133,206,135,-1,135,206,207,-1,135,207,203,-1,203,208,137,-1,137,208,209,-1,137,209,138,-1,138,209,210,-1,138,210,19,-1,13,19,211,-1,211,19,210,-1,3,13,212,-1,212,13,211,-1,4,3,213,-1,213,3,212,-1,5,4,214,-1,214,4,213,-1,5,214,215,-1,5,215,123,-1,123,215,216,-1,123,216,75,-1,75,216,217,-1,75,217,76,-1,76,217,218,-1,76,218,77,-1,77,218,219,-1,77,219,43,-1,43,219,220,-1,43,220,45,-1,45,220,221,-1,45,221,47,-1,47,221,222,-1,47,222,49,-1,49,222,223,-1,49,223,2,-1,2,223,224,-1,2,224,14,-1,14,224,225,-1,14,225,63,-1,63,225,226,-1,63,226,72,-1,72,226,227,-1,72,227,70,-1,70,227,228,-1,70,228,68,-1,66,68,229,-1,229,68,228,-1,229,230,66,-1,66,230,231,-1,66,231,109,-1,109,231,232,-1,109,232,107,-1,232,233,107,-1,107,233,234,-1,107,234,105,-1,105,234,235,-1,105,235,103,-1,103,235,236,-1,103,236,101,-1,101,236,237,-1,101,237,99,-1,99,237,238,-1,99,238,97,-1,97,238,239,-1,97,239,33,-1,33,239,240,-1,33,240,34,-1,34,240,241,-1,34,241,36,-1,36,241,242,-1,36,242,38,-1,38,242,243,-1,38,243,40,-1,40,243,244,-1,40,244,56,-1,56,244,245,-1,56,245,112,-1,112,245,246,-1,112,246,113,-1,113,246,247,-1,113,247,115,-1,115,247,248,-1,115,248,117,-1,117,248,249,-1,117,249,118,-1,118,249,250,-1,118,250,59,-1,59,250,251,-1,59,251,61,-1,61,251,252,-1,61,252,62,-1,62,252,25,-1,25,252,253,-1,25,253,254,-1,26,25,255,-1,255,25,254,-1,26,255,256,-1,26,256,28,-1,28,256,257,-1,28,257,30,-1,30,257,258,-1,30,258,78,-1,78,258,259,-1,78,259,79,-1,79,259,260,-1,79,260,81,-1,260,261,81,-1,81,261,262,-1,81,262,83,-1,83,262,263,-1,83,263,8,-1,8,263,264,-1,8,264,9,-1,9,264,265,-1,9,265,53,-1,53,265,266,-1,53,266,86,-1,86,266,267,-1,86,267,87,-1,87,267,268,-1,87,268,89,-1,89,268,269,-1,89,269,91,-1,91,269,270,-1,91,270,93,-1,95,93,271,-1,271,93,270,-1,95,271,272,-1,95,272,148,-1,148,272,273,-1,148,273,139,-1,139,273,274,-1,139,274,150,-1,150,274,275,-1,150,275,142,-1,142,275,276,-1,142,276,143,-1,143,276,277,-1,143,277,151,-1,151,277,278,-1,151,278,152,-1,152,278,279,-1,152,279,153,-1,153,279,280,-1,153,280,144,-1,144,280,281,-1,144,281,145,-1,145,281,282,-1,145,282,146,-1,146,282,283,-1,146,283,147,-1,147,283,284,-1,147,284,140,-1,140,284,285,-1,140,285,141,-1,141,285,286,-1,141,286,149,-1,149,286,287,-1,149,287,96,-1,96,287,288,-1,96,288,94,-1,92,94,289,-1,289,94,288,-1,92,289,290,-1,92,290,90,-1,90,290,291,-1,90,291,88,-1,88,291,292,-1,88,292,54,-1,54,292,293,-1,54,293,52,-1,52,293,294,-1,52,294,10,-1,10,294,295,-1,10,295,85,-1,85,295,154,-1,85,154,84,-1,122,296,297,-1,122,297,6,-1,6,297,298,-1,6,298,7,-1,7,298,299,-1,7,299,11,-1,11,299,300,-1,11,300,12,-1,12,300,301,-1,12,301,17,-1,17,301,302,-1,17,302,18,-1,18,302,303,-1,18,303,20,-1,20,303,304,-1,20,304,136,-1,136,304,305,-1,136,305,134,-1,134,305,306,-1,134,306,132,-1,132,306,307,-1,132,307,130,-1,130,307,308,-1,130,308,128,-1,128,308,309,-1,128,309,126,-1,126,309,310,-1,126,310,24,-1,24,310,311,-1,24,311,22,-1,22,311,312,-1,22,312,21,-1,21,312,313,-1,21,313,119,-1,119,313,314,-1,119,314,120,-1,120,314,315,-1,120,315,121,-1,121,315,316,-1,121,316,51,-1,51,316,317,-1,51,317,50,-1,50,317,318,-1,50,318,48,-1,48,318,319,-1,48,319,46,-1,46,319,320,-1,46,320,44,-1,44,320,321,-1,44,321,42,-1,42,321,296,-1,42,296,122,-1,
        ]
    }
}
Shape{
    appearance Appearance {
        material  Material 	{
            diffuseColor 0.5372549019607843 0.34901960784313724 0.33725490196078434
            specularColor 0.3764705882352941 0.24313725490196078 0.23529411764705882
            ambientIntensity 0.2
            transparency 0
            shininess 0.5
        }
    }
    geometry IndexedFaceSet {
        ccw TRUE
        solid FALSE
        coord DEF co Coordinate {
            point [
                0.4329 0.6102 0.3197, 0.4242 0.6102 0.3317, 0.4329 0.6102 0.3222, 0.4267 0.6102 0.3308, 0.4115 0.6102 0.3248, 0.4127 0.6102 0.3271, 0.417 0.6102 0.3109, 0.4145 0.6102 0.3292, 0.429 0.6102 0.3294, 0.4308 0.6102 0.3274, 0.4322 0.6102 0.3249, 0.4323 0.6102 0.3171, 0.4311 0.6102 0.3147, 0.4293 0.6102 0.3126, 0.4108 0.6102 0.3221, 0.4148 0.6102 0.3123, 0.4108 0.6102 0.3195, 0.4129 0.6102 0.3143, 0.4115 0.6102 0.3167, 0.4219 0.6102 0.3098, 0.4218 0.6102 0.332, 0.4195 0.6102 0.31, 0.4194 0.6102 0.3317, 0.4168 0.6102 0.3307, 0.427 0.6102 0.311, 0.4244 0.6102 0.3101, 0.4244 0.6102 0.3101
            ]
        }
        coordIndex [
            0,1,2,-1,2,1,3,-1,4,5,6,-1,6,5,7,-1,3,8,2,-1,2,8,9,-1,2,9,10,-1,0,11,1,-1,1,11,12,-1,1,12,13,-1,4,6,14,-1,14,6,15,-1,14,15,16,-1,16,15,17,-1,16,17,18,-1,1,19,20,-1,20,19,21,-1,20,21,22,-1,22,21,6,-1,22,6,23,-1,23,6,7,-1,13,24,1,-1,1,24,25,-1,1,25,19,-1,
        ]
    }
}