#VRML V2.0 utf8
# 3D model generated by easyeda2kicad.py (https://github.com/uPesy/easyeda2kicad.py)

Shape{
    appearance Appearance {
        material  Material 	{
            diffuseColor 1.0 0.6901960784313725 0.2784313725490196
            specularColor 0.5019607843137255 0.34509803921568627 0.1411764705882353
            ambientIntensity 0.2
            transparency 0
            shininess 0.5
        }
    }
    geometry IndexedFaceSet {
        ccw TRUE
        solid FALSE
        coord DEF co Coordinate {
            point [
                1.3583 -0.5906 -0.3898, 1.3583 0.2924 -0.315, 1.3583 -1.2992 -0.315, 1.3583 0.2414 -0.7838, 1.3583 0.1829 -0.7831, 1.3583 0.1224 -0.7831, 1.3583 0.2532 -0.6765, 1.3583 0.2416 -0.6778, 1.3583 0.2788 -0.7652, 1.3583 0.2328 -0.681, 1.3583 0.2244 -0.6866, 1.3583 0.2173 -0.6945, 1.3583 0.2125 -0.7036, 1.3583 0.2094 -0.7164, 1.3583 0.2089 -0.7253, 1.3583 0.21 -0.7381, 1.3583 0.2133 -0.7482, 1.3583 0.2506 -0.7716, 1.3583 0.2237 -0.7622, 1.3583 0.2396 -0.7703, 1.3583 0.2309 -0.7671, 1.3583 0.2182 -0.7564, 1.3583 0.2662 -0.7698, 1.3583 0.1992 -0.6961, 1.3583 0.2062 -0.685, 1.3583 0.1383 -0.665, 1.3583 0.2676 -0.6784, 1.3583 0.2809 -0.764, 1.3583 0.2809 -0.684, 1.3583 0.2809 -0.6682, 1.3583 0.1976 -0.7522, 1.3583 0.1829 -0.7701, 1.3583 0.2038 -0.7635, 1.3583 0.2127 -0.7728, 1.3583 0.2338 -0.783, 1.3583 0.2223 -0.779, 1.3583 0.1383 -0.7701, 1.3583 0.2164 -0.6751, 1.3583 0.2275 -0.6686, 1.3583 0.2404 -0.6646, 1.3583 0.1941 -0.7397, 1.3583 0.193 -0.7262, 1.3583 0.1947 -0.7095, 1.3583 0.2531 -0.6635, 1.3583 0.2672 -0.6645, 1.3583 -1.2992 -0.8622, 1.3583 -0.9449 -0.8622, 1.3583 -1.2992 -0.7838, 1.3583 -0.9449 -0.7838, 1.3583 -0.9449 -0.3898, 1.3583 0.2809 -0.777, 1.3583 0.2683 -0.7821, 1.3583 0.2924 -0.7838, 1.3583 0.2563 -0.7838, 1.3583 0.2924 -0.8622, 1.3583 0.2516 -0.7845, 1.3583 0.2484 -0.7845, 1.3583 0.1224 -0.665, 1.3583 -0.5906 -0.7838, 1.3583 -0.5906 -0.8622, 1.3583 0.494 -0.7831, 1.3583 0.4837 -0.7383, 1.3583 0.4795 -0.7507, 1.3583 0.3644 -0.665, 1.3583 1.2992 -0.315, 1.3583 0.3039 -0.665, 1.3583 0.4225 -0.7831, 1.3583 0.3903 -0.7831, 1.3583 0.3198 -0.6779, 1.3583 0.3198 -0.7168, 1.3583 0.3644 -0.6779, 1.3583 0.3615 -0.7168, 1.3583 0.3615 -0.7298, 1.3583 0.3903 -0.665, 1.3583 0.4727 -0.7613, 1.3583 0.463 -0.7706, 1.3583 0.4507 -0.7777, 1.3583 0.4546 -0.6716, 1.3583 0.5387 -0.665, 1.3583 0.4407 -0.6668, 1.3583 0.4237 -0.665, 1.3583 0.478 -0.6929, 1.3583 0.483 -0.7044, 1.3583 0.4852 -0.7167, 1.3583 0.4854 -0.7225, 1.3583 0.3198 -0.7298, 1.3583 0.3198 -0.7701, 1.3583 0.3673 -0.7701, 1.3583 0.3673 -0.7831, 1.3583 0.3039 -0.7831, 1.3583 0.4663 -0.6793, 1.3583 0.4709 -0.6835, 1.3583 0.5545 -0.665, 1.3583 1.2992 -0.7838, 1.3583 0.6006 -0.7831, 1.3583 0.5833 -0.7831, 1.3583 0.5714 -0.7499, 1.3583 0.5226 -0.7499, 1.3583 0.5113 -0.7831, 1.3583 1.2992 -0.8622, 1.3583 0.4371 -0.7818, 0.2472 -0.1359 0.0039, 0.2523 -0.1347 0.0039, -0.1969 1.2992 0.0039, -0.0553 -0.1359 0.0039, -0.0501 -0.1347 0.0039, 0.2705 -0.1335 0.0039, 0.293 -0.1359 0.0039, 1.0433 1.2992 0.0039, 1.0433 -1.2992 0.0039, 1.0433 -0.1359 0.0039, 0.7082 -0.1383 0.0039, 0.6196 -0.3064 0.0039, 0.6554 -0.3064 0.0039, 0.6554 -0.1383 0.0039, 0.5269 -0.5208 0.0039, 0.5038 -0.5074 0.0039, -0.1969 -1.2992 0.0039, -0.0751 -0.1407 0.0039, -0.1969 -0.1359 0.0039, 0.4249 -0.1383 0.0039, 0.4825 -0.1383 0.0039, 0.6083 -0.3055 0.0039, 0.5464 -0.2491 0.0039, 0.5705 -0.2839 0.0039, 0.7082 -0.532 0.0039, 0.5894 -0.532 0.0039, 0.5542 -0.529 0.0039, 0.5535 -0.3224 0.0039, 0.5535 -0.3211 0.0039, 0.5491 -0.3237 0.0039, 0.5357 -0.3107 0.0039, 0.5173 -0.3374 0.0039, 0.5229 -0.2982 0.0039, 0.306 -0.5295 0.0039, 0.2803 -0.5357 0.0039, 0.2617 -0.5368 0.0039, 0.2331 -0.5338 0.0039, -0.0924 -0.5258 0.0039, -0.1122 -0.5129 0.0039, -0.1284 -0.4956 0.0039, -0.145 -0.4664 0.0039, 0.4985 -0.2631 0.0039, 0.4951 -0.2575 0.0039, 0.5828 -0.2953 0.0039, 0.5951 -0.302 0.0039, 0.3283 -0.5183 0.0039, 0.4771 -0.4737 0.0039, 0.4889 -0.493 0.0039, -0.032 -0.1335 0.0039, -0.0095 -0.1359 0.0039, -0.0041 -0.1365 0.0039, 0.0184 -0.1445 0.0039, 0.0258 -0.5183 0.0039, 0.0035 -0.5295 0.0039, -0.0222 -0.5357 0.0039, -0.1519 -0.2315 0.0039, -0.1351 -0.1931 0.0039, 0.2984 -0.1365 0.0039, 0.3208 -0.1445 0.0039, 0.3404 -0.1572 0.0039, 0.3578 -0.1755 0.0039, 0.3757 -0.2062 0.0039, 0.3901 -0.2547 0.0039, 0.4966 -0.353 0.0039, 0.2101 -0.5258 0.0039, 0.1902 -0.5129 0.0039, 0.1741 -0.4956 0.0039, 0.0458 -0.5011 0.0039, -0.0408 -0.5368 0.0039, -0.0694 -0.5338 0.0039, -0.1626 -0.2826 0.0039, -0.1166 -0.1683 0.0039, -0.097 -0.1517 0.0039, 0.0379 -0.1572 0.0039, 0.0553 -0.1755 0.0039, 0.2274 -0.1407 0.0039, 0.0732 -0.2062 0.0039, 0.2055 -0.1517 0.0039, 0.1859 -0.1683 0.0039, -0.1589 -0.4188 0.0039, -0.1654 -0.3493 0.0039, -0.1656 -0.3368 0.0039, 0.489 -0.3614 0.0039, 0.396 -0.3232 0.0039, 0.4778 -0.3796 0.0039, 0.3961 -0.3275 0.0039, 0.4708 -0.4008 0.0039, 0.3931 -0.3839 0.0039, 0.4681 -0.4277 0.0039, 0.3828 -0.4363 0.0039, 0.4704 -0.4527 0.0039, 0.3662 -0.4762 0.0039, 0.3482 -0.5011 0.0039, 0.0876 -0.2547 0.0039, 0.1506 -0.2315 0.0039, 0.1673 -0.1931 0.0039, 0.0637 -0.4762 0.0039, 0.1575 -0.4664 0.0039, 0.0803 -0.4363 0.0039, 0.1436 -0.4188 0.0039, 0.0906 -0.3839 0.0039, 0.0936 -0.3275 0.0039, 0.137 -0.3493 0.0039, 0.0936 -0.3232 0.0039, 0.1368 -0.3368 0.0039, 0.1399 -0.2826 0.0039, -1.0433 1.2992 0.0039, -1.0433 -0.1359 0.0039, -0.2281 -0.4984 0.0039, -0.3673 -0.5368 0.0039, -1.0433 -1.2992 0.0039, -0.4537 -0.1383 0.0039, -0.2281 -0.1383 0.0039, -0.2281 -0.1815 0.0039, -0.3193 -0.1815 0.0039, -0.3193 -0.4768 0.0039, -0.2281 -0.4504 0.0039, -0.5353 -0.1383 0.0039, -0.5353 -0.532 0.0039, -0.4537 -0.1815 0.0039, -0.737 -0.4888 0.0039, -0.5882 -0.4888 0.0039, -0.5882 -0.3544 0.0039, -0.7274 -0.3544 0.0039, -0.7274 -0.3112 0.0039, -0.737 -0.532 0.0039, -0.3673 -0.1815 0.0039, -0.5882 -0.1383 0.0039, -0.5882 -0.3112 0.0039, -0.374 -0.5906 -1.1772, -0.374 1.2992 -1.1772, -0.374 -0.5906 -1.0472, -0.374 1.2992 -1.0472, -1.0433 -0.5906 -1.1772, -1.0433 1.2992 -1.1772, -1.1134 -0.5906 -1.1693, -1.1134 1.2992 -1.1693, -1.18 -0.5906 -1.146, -1.18 1.2992 -1.146, -1.2397 -0.5906 -1.1085, -1.2397 1.2992 -1.1085, -1.2896 -0.5906 -1.0586, -1.2896 1.2992 -1.0586, -1.3271 -0.5906 -0.9989, -1.3271 1.2992 -0.9989, -1.3504 -0.5906 -0.9323, -1.3504 1.2992 -0.9323, -1.3583 -0.5906 -0.8622, -1.3583 1.2992 -0.8622, 1.3504 -0.5906 -0.9323, 1.3504 1.2992 -0.9323, 1.3271 -0.5906 -0.9989, 1.3271 1.2992 -0.9989, 1.2896 -0.5906 -1.0586, 1.2896 1.2992 -1.0586, 1.2397 -0.5906 -1.1085, 1.2397 1.2992 -1.1085, 1.18 -0.5906 -1.146, 1.18 1.2992 -1.146, 1.1134 -0.5906 -1.1693, 1.1134 1.2992 -1.1693, 1.0433 -0.5906 -1.1772, 1.0433 1.2992 -1.1772, 0.374 -0.5906 -1.1772, 0.374 1.2992 -1.1772, 0.374 -0.5906 -1.0472, 0.374 1.2992 -1.0472, 1.0433 -0.5906 -1.0472, 1.0433 1.2992 -1.0472, 1.0912 1.2992 -1.0409, 1.0912 -0.5906 -1.0409, 1.1358 1.2992 -1.0225, 1.1358 -0.5906 -1.0225, 1.1741 1.2992 -0.993, 1.1741 -0.5906 -0.993, 1.2036 1.2992 -0.9547, 1.2036 -0.5906 -0.9547, 1.222 1.2992 -0.9101, 1.222 -0.5906 -0.9101, 1.2283 1.2992 -0.8622, 1.2283 -0.5906 -0.8622, -1.2283 1.2992 -0.8622, -1.2283 -0.5906 -0.8622, -1.222 1.2992 -0.9101, -1.222 -0.5906 -0.9101, -1.2036 1.2992 -0.9547, -1.2036 -0.5906 -0.9547, -1.1741 1.2992 -0.993, -1.1741 -0.5906 -0.993, -1.1358 1.2992 -1.0225, -1.1358 -0.5906 -1.0225, -1.0912 1.2992 -1.0409, -1.0912 -0.5906 -1.0409, -1.0433 1.2992 -1.0472, -1.0433 -0.5906 -1.0472, -0.374 -0.9449 -1.0472, -0.374 -1.2992 -1.0472, -0.374 -0.9449 -1.1772, -0.374 -1.2992 -1.1772, -1.0433 -0.9449 -1.1772, -1.0433 -1.2992 -1.1772, -1.1134 -1.2992 -1.1693, -1.1134 -0.9449 -1.1693, -1.18 -1.2992 -1.146, -1.18 -0.9449 -1.146, -1.2397 -1.2992 -1.1085, -1.2397 -0.9449 -1.1085, -1.2896 -1.2992 -1.0586, -1.2896 -0.9449 -1.0586, -1.3271 -1.2992 -0.9989, -1.3271 -0.9449 -0.9989, -1.3504 -1.2992 -0.9323, -1.3504 -0.9449 -0.9323, -1.3583 -1.2992 -0.8622, -1.3583 -0.9449 -0.8622, -1.3583 -0.9449 -0.3898, -1.3583 -1.2992 -0.315, -1.3583 -0.5906 -0.3898, -1.3583 1.2992 -0.315, -1.3504 -1.2992 -0.2449, -1.3504 1.2992 -0.2449, -1.3271 -1.2992 -0.1783, -1.3271 1.2992 -0.1783, -1.2896 -1.2992 -0.1186, -1.2896 1.2992 -0.1186, -1.2397 -1.2992 -0.0687, -1.2397 1.2992 -0.0687, -1.18 -1.2992 -0.0312, -1.18 1.2992 -0.0312, -1.1134 -1.2992 -0.0079, -1.1134 1.2992 -0.0079, -1.0433 -1.2992 -0.0, -1.0433 1.2992 -0.0, 1.3504 1.2992 -0.2449, 1.3504 -1.2992 -0.2449, 1.3271 1.2992 -0.1783, 1.3271 -1.2992 -0.1783, 1.2896 1.2992 -0.1186, 1.2896 -1.2992 -0.1186, 1.2397 1.2992 -0.0687, 1.2397 -1.2992 -0.0687, 1.18 1.2992 -0.0312, 1.18 -1.2992 -0.0312, 1.1134 1.2992 -0.0079, 1.1134 -1.2992 -0.0079, 1.0433 1.2992 -0.0, 1.0433 -1.2992 -0.0, 1.3504 -1.2992 -0.9323, 1.3504 -0.9449 -0.9323, 1.3271 -1.2992 -0.9989, 1.3271 -0.9449 -0.9989, 1.2896 -1.2992 -1.0586, 1.2896 -0.9449 -1.0586, 1.2397 -1.2992 -1.1085, 1.2397 -0.9449 -1.1085, 1.18 -1.2992 -1.146, 1.18 -0.9449 -1.146, 1.1134 -1.2992 -1.1693, 1.1134 -0.9449 -1.1693, 1.0433 -1.2992 -1.1772, 1.0433 -0.9449 -1.1772, 0.374 -0.9449 -1.1772, 0.374 -1.2992 -1.1772, 0.374 -0.9449 -1.0472, 0.374 -1.2992 -1.0472, 1.0433 -0.9449 -1.0472, 1.0433 -1.2992 -1.0472, 1.0912 -0.9449 -1.0409, 1.0912 -1.2992 -1.0409, 1.1358 -0.9449 -1.0225, 1.1358 -1.2992 -1.0225, 1.1741 -0.9449 -0.993, 1.1741 -1.2992 -0.993, 1.2036 -0.9449 -0.9547, 1.2036 -1.2992 -0.9547, 1.222 -0.9449 -0.9101, 1.222 -1.2992 -0.9101, 1.2283 -0.9449 -0.8622, 1.2283 -1.2992 -0.8622, 1.2283 -0.9449 -0.3898, 1.2283 -1.2992 -0.315, 1.2283 -0.5906 -0.3898, 1.2283 1.2992 -0.315, 1.222 1.2992 -0.2671, 1.222 -1.2992 -0.2671, 1.2036 1.2992 -0.2224, 1.2036 -1.2992 -0.2224, 1.1741 1.2992 -0.1841, 1.1741 -1.2992 -0.1841, 1.1358 1.2992 -0.1547, 1.1358 -1.2992 -0.1547, 1.0912 1.2992 -0.1362, 1.0912 -1.2992 -0.1362, 1.0433 1.2992 -0.1299, 1.0433 -1.2992 -0.1299, -1.0433 1.2992 -0.1299, -1.0433 -1.2992 -0.1299, -1.0912 1.2992 -0.1362, -1.0912 -1.2992 -0.1362, -1.1358 1.2992 -0.1547, -1.1358 -1.2992 -0.1547, -1.1741 1.2992 -0.1841, -1.1741 -1.2992 -0.1841, -1.2036 1.2992 -0.2224, -1.2036 -1.2992 -0.2224, -1.222 1.2992 -0.2671, -1.222 -1.2992 -0.2671, -1.2283 1.2992 -0.315, -1.2283 -1.2992 -0.315, -1.2283 -0.5906 -0.3898, -1.2283 -1.2992 -0.8622, -1.2283 -0.9449 -0.8622, -1.2283 -0.9449 -0.3898, -1.222 -0.9449 -0.9101, -1.222 -1.2992 -0.9101, -1.2036 -0.9449 -0.9547, -1.2036 -1.2992 -0.9547, -1.1741 -0.9449 -0.993, -1.1741 -1.2992 -0.993, -1.1358 -0.9449 -1.0225, -1.1358 -1.2992 -1.0225, -1.0912 -0.9449 -1.0409, -1.0912 -1.2992 -1.0409, -1.0433 -0.9449 -1.0472, -1.0433 -1.2992 -1.0472, -1.0433 -1.2992 -1.0472
            ]
        }
        coordIndex [
            0,1,2,-1,3,4,5,-1,6,7,8,-1,8,7,9,-1,8,9,10,-1,10,11,8,-1,8,11,12,-1,8,12,13,-1,13,14,8,-1,8,14,15,-1,8,15,16,-1,17,18,19,-1,19,18,20,-1,16,21,8,-1,8,21,18,-1,8,18,22,-1,22,18,17,-1,23,24,25,-1,6,8,26,-1,26,8,27,-1,26,27,28,-1,28,27,1,-1,28,1,29,-1,30,31,32,-1,32,31,4,-1,32,4,33,-1,3,34,4,-1,4,34,35,-1,4,35,33,-1,25,36,31,-1,37,38,1,-1,1,38,39,-1,30,40,31,-1,31,40,41,-1,31,41,25,-1,25,41,42,-1,25,42,23,-1,39,43,1,-1,1,43,44,-1,1,44,29,-1,45,46,47,-1,47,46,48,-1,47,48,2,-1,2,48,49,-1,2,49,0,-1,50,51,52,-1,52,51,53,-1,52,53,54,-1,53,55,54,-1,54,55,56,-1,54,56,3,-1,24,37,25,-1,25,37,1,-1,25,1,57,-1,57,1,0,-1,57,0,5,-1,5,0,58,-1,5,58,3,-1,3,58,59,-1,3,59,54,-1,60,61,62,-1,63,64,65,-1,65,64,1,-1,65,1,52,-1,52,1,27,-1,52,27,50,-1,66,67,52,-1,68,69,70,-1,70,69,71,-1,72,67,71,-1,71,67,73,-1,71,73,70,-1,62,74,60,-1,60,74,75,-1,60,75,76,-1,77,78,79,-1,79,78,80,-1,81,82,78,-1,78,82,83,-1,78,83,60,-1,60,83,84,-1,60,84,61,-1,85,86,72,-1,72,86,87,-1,72,87,67,-1,67,87,88,-1,67,88,52,-1,52,88,89,-1,52,89,65,-1,77,90,78,-1,78,90,91,-1,78,91,81,-1,80,64,73,-1,73,64,63,-1,73,63,70,-1,80,78,64,-1,64,78,92,-1,64,92,93,-1,93,92,94,-1,93,94,95,-1,96,97,95,-1,95,97,98,-1,95,98,93,-1,93,98,60,-1,54,99,52,-1,52,99,93,-1,52,93,66,-1,66,93,60,-1,66,60,100,-1,100,60,76,-1,101,102,103,-1,104,105,103,-1,102,106,103,-1,103,106,107,-1,103,107,108,-1,109,110,111,-1,112,113,114,-1,108,107,110,-1,110,107,114,-1,110,114,111,-1,115,116,117,-1,118,104,119,-1,107,120,121,-1,112,114,122,-1,107,121,114,-1,114,121,123,-1,114,123,124,-1,111,125,109,-1,109,125,126,-1,109,126,117,-1,117,126,127,-1,117,127,115,-1,128,129,130,-1,130,129,131,-1,130,131,132,-1,132,131,133,-1,134,135,117,-1,117,135,136,-1,117,136,137,-1,138,139,117,-1,117,139,140,-1,117,140,141,-1,133,142,132,-1,132,142,143,-1,132,143,120,-1,124,144,114,-1,114,144,145,-1,114,145,122,-1,146,134,147,-1,147,134,117,-1,147,117,148,-1,148,117,116,-1,105,149,103,-1,103,149,150,-1,103,150,101,-1,101,150,151,-1,101,151,152,-1,153,154,117,-1,117,154,155,-1,156,157,119,-1,107,158,120,-1,120,158,159,-1,120,159,160,-1,160,161,120,-1,120,161,162,-1,120,162,132,-1,132,162,163,-1,132,163,164,-1,137,165,117,-1,117,165,166,-1,117,166,153,-1,153,166,167,-1,153,167,168,-1,155,169,117,-1,117,169,170,-1,117,170,138,-1,156,119,171,-1,157,172,119,-1,119,172,173,-1,119,173,118,-1,152,174,101,-1,101,174,175,-1,101,175,176,-1,176,175,177,-1,176,177,178,-1,178,177,179,-1,141,180,117,-1,117,180,181,-1,117,181,119,-1,119,181,182,-1,119,182,171,-1,164,163,183,-1,183,163,184,-1,183,184,185,-1,185,184,186,-1,185,186,187,-1,187,186,188,-1,187,188,189,-1,189,188,190,-1,189,190,191,-1,191,190,192,-1,191,192,147,-1,147,192,193,-1,147,193,146,-1,194,195,177,-1,177,195,196,-1,177,196,179,-1,168,167,197,-1,197,167,198,-1,197,198,199,-1,199,198,200,-1,199,200,201,-1,201,200,202,-1,202,200,203,-1,202,203,204,-1,204,203,205,-1,204,205,194,-1,194,205,206,-1,194,206,195,-1,104,103,119,-1,119,103,207,-1,119,207,208,-1,209,210,211,-1,212,213,119,-1,119,213,214,-1,215,216,214,-1,214,216,217,-1,214,217,119,-1,119,217,209,-1,119,209,117,-1,117,209,211,-1,218,219,220,-1,221,222,223,-1,224,225,208,-1,223,224,221,-1,221,224,208,-1,221,208,226,-1,226,208,211,-1,226,211,219,-1,219,211,210,-1,219,210,220,-1,220,210,227,-1,220,212,218,-1,218,212,119,-1,218,119,228,-1,228,119,208,-1,228,208,229,-1,229,208,225,-1,230,231,232,-1,232,231,233,-1,234,235,230,-1,230,235,231,-1,235,234,236,-1,235,236,237,-1,237,236,238,-1,237,238,239,-1,239,238,240,-1,239,240,241,-1,241,240,242,-1,241,242,243,-1,243,242,244,-1,243,244,245,-1,245,244,246,-1,245,246,247,-1,247,246,248,-1,247,248,249,-1,54,59,250,-1,251,99,54,-1,54,250,251,-1,251,250,252,-1,251,252,253,-1,253,252,254,-1,253,254,255,-1,255,254,256,-1,255,256,257,-1,257,256,258,-1,257,258,259,-1,259,258,260,-1,259,260,261,-1,261,260,262,-1,261,262,263,-1,264,265,262,-1,262,265,263,-1,266,267,264,-1,264,267,265,-1,268,269,266,-1,266,269,267,-1,269,268,270,-1,270,268,271,-1,270,271,272,-1,272,271,273,-1,272,273,274,-1,274,273,275,-1,274,275,276,-1,276,275,277,-1,276,277,278,-1,278,277,279,-1,278,279,280,-1,280,279,281,-1,282,283,284,-1,284,283,285,-1,284,285,286,-1,286,285,287,-1,286,287,288,-1,288,287,289,-1,288,289,290,-1,290,289,291,-1,290,291,292,-1,292,291,293,-1,292,293,294,-1,294,293,295,-1,232,233,295,-1,295,233,294,-1,296,297,298,-1,298,297,299,-1,298,299,300,-1,300,299,301,-1,300,301,302,-1,300,302,303,-1,303,302,304,-1,303,304,305,-1,305,304,306,-1,305,306,307,-1,307,306,308,-1,307,308,309,-1,309,308,310,-1,309,310,311,-1,311,310,312,-1,311,312,313,-1,313,312,314,-1,313,314,315,-1,315,314,316,-1,316,314,317,-1,316,317,318,-1,318,317,319,-1,318,319,248,-1,248,319,249,-1,319,317,320,-1,319,320,321,-1,321,320,322,-1,321,322,323,-1,323,322,324,-1,323,324,325,-1,325,324,326,-1,325,326,327,-1,327,326,328,-1,327,328,329,-1,329,328,330,-1,329,330,331,-1,331,330,332,-1,331,332,333,-1,1,64,334,-1,335,336,337,-1,337,336,338,-1,337,338,339,-1,339,338,340,-1,339,340,341,-1,341,340,342,-1,341,342,343,-1,343,342,344,-1,343,344,345,-1,345,344,346,-1,345,346,347,-1,2,1,335,-1,335,1,334,-1,335,334,336,-1,46,45,348,-1,46,348,349,-1,349,348,350,-1,349,350,351,-1,351,350,352,-1,351,352,353,-1,353,352,354,-1,353,354,355,-1,355,354,356,-1,355,356,357,-1,357,356,358,-1,357,358,359,-1,359,358,360,-1,359,360,361,-1,361,360,362,-1,362,360,363,-1,362,363,364,-1,364,363,365,-1,364,365,366,-1,366,365,367,-1,366,367,368,-1,368,367,369,-1,368,369,370,-1,370,369,371,-1,370,371,372,-1,372,371,373,-1,372,373,374,-1,374,373,375,-1,374,375,376,-1,376,375,377,-1,376,377,378,-1,378,377,379,-1,378,379,380,-1,380,379,381,-1,380,381,382,-1,382,381,383,-1,382,383,281,-1,281,383,280,-1,383,381,384,-1,384,381,385,-1,384,385,386,-1,386,385,387,-1,386,387,388,-1,388,387,389,-1,388,389,390,-1,390,389,391,-1,390,391,392,-1,392,391,393,-1,392,393,394,-1,394,393,395,-1,396,394,397,-1,397,394,395,-1,396,397,398,-1,398,397,399,-1,398,399,400,-1,400,399,401,-1,400,401,402,-1,402,401,403,-1,402,403,404,-1,404,403,405,-1,404,405,406,-1,406,405,407,-1,406,407,408,-1,408,407,409,-1,410,283,282,-1,409,411,412,-1,412,413,409,-1,409,413,410,-1,409,410,408,-1,408,410,282,-1,412,411,414,-1,414,411,415,-1,414,415,416,-1,416,415,417,-1,416,417,418,-1,418,417,419,-1,418,419,420,-1,420,419,421,-1,420,421,422,-1,422,421,423,-1,422,423,424,-1,424,423,425,-1,424,425,296,-1,296,425,297,-1,108,346,103,-1,103,346,333,-1,103,333,207,-1,346,388,390,-1,390,392,346,-1,346,392,394,-1,346,394,333,-1,333,394,396,-1,333,396,331,-1,331,396,398,-1,331,398,329,-1,329,398,400,-1,329,400,327,-1,327,400,402,-1,327,402,325,-1,325,402,404,-1,233,231,294,-1,294,231,235,-1,294,235,292,-1,292,235,237,-1,292,237,290,-1,237,239,290,-1,290,239,241,-1,290,241,288,-1,288,241,243,-1,288,243,286,-1,286,243,245,-1,286,245,284,-1,284,245,247,-1,284,247,282,-1,282,247,249,-1,282,249,408,-1,408,249,319,-1,408,319,406,-1,406,319,321,-1,406,321,404,-1,404,321,323,-1,404,323,325,-1,265,267,263,-1,263,267,269,-1,263,269,261,-1,261,269,270,-1,261,270,259,-1,259,270,272,-1,259,272,257,-1,257,272,274,-1,386,336,384,-1,384,336,334,-1,384,334,383,-1,383,334,64,-1,383,64,280,-1,64,93,280,-1,280,93,99,-1,280,99,278,-1,278,99,251,-1,278,251,276,-1,276,251,253,-1,276,253,274,-1,274,253,255,-1,274,255,257,-1,388,346,386,-1,386,346,344,-1,386,344,342,-1,342,340,386,-1,386,340,338,-1,386,338,336,-1,397,395,332,-1,347,109,117,-1,387,339,389,-1,389,339,341,-1,389,341,391,-1,391,341,343,-1,391,343,393,-1,393,343,345,-1,393,345,395,-1,395,345,347,-1,395,347,332,-1,332,347,117,-1,332,117,211,-1,365,363,367,-1,367,363,360,-1,367,360,369,-1,369,360,358,-1,369,358,371,-1,419,306,421,-1,421,306,304,-1,421,304,423,-1,423,304,302,-1,423,302,425,-1,425,302,301,-1,425,301,297,-1,297,301,299,-1,397,332,399,-1,399,332,330,-1,399,330,401,-1,401,330,328,-1,401,328,403,-1,358,356,371,-1,371,356,354,-1,371,354,373,-1,373,354,352,-1,373,352,375,-1,375,352,350,-1,375,350,377,-1,377,350,348,-1,377,348,379,-1,328,326,403,-1,403,326,324,-1,403,324,405,-1,405,324,322,-1,405,322,407,-1,407,322,320,-1,407,320,409,-1,409,320,317,-1,409,317,411,-1,411,317,314,-1,411,314,415,-1,415,314,312,-1,415,312,417,-1,417,312,310,-1,417,310,419,-1,419,310,308,-1,419,308,306,-1,348,45,379,-1,379,45,47,-1,379,47,381,-1,381,47,2,-1,381,2,385,-1,385,2,335,-1,385,335,387,-1,387,335,337,-1,387,337,339,-1,230,232,234,-1,234,232,295,-1,234,295,236,-1,236,295,293,-1,236,293,238,-1,238,293,291,-1,238,291,240,-1,240,291,289,-1,410,318,283,-1,283,318,248,-1,283,248,285,-1,285,248,246,-1,285,246,287,-1,287,246,244,-1,287,244,289,-1,289,244,242,-1,289,242,240,-1,296,298,424,-1,424,298,300,-1,424,300,422,-1,422,300,303,-1,422,303,420,-1,303,305,420,-1,420,305,307,-1,420,307,418,-1,418,307,309,-1,418,309,416,-1,416,309,311,-1,416,311,414,-1,414,311,313,-1,414,313,412,-1,412,313,315,-1,412,315,413,-1,413,315,316,-1,410,413,318,-1,318,413,316,-1,380,382,49,-1,49,382,0,-1,0,382,58,-1,58,382,281,-1,266,264,268,-1,268,264,262,-1,268,262,271,-1,271,262,260,-1,271,260,273,-1,273,260,258,-1,273,258,275,-1,258,256,275,-1,275,256,254,-1,275,254,277,-1,277,254,252,-1,277,252,279,-1,279,252,250,-1,279,250,281,-1,281,250,59,-1,281,59,58,-1,378,380,49,-1,362,364,361,-1,361,364,366,-1,361,366,359,-1,359,366,368,-1,359,368,357,-1,357,368,370,-1,357,370,355,-1,355,370,372,-1,355,372,353,-1,353,372,374,-1,49,48,378,-1,378,48,46,-1,378,46,376,-1,376,46,349,-1,376,349,374,-1,374,349,351,-1,374,351,353,-1,207,333,208,-1,208,333,332,-1,208,332,211,-1,109,347,110,-1,110,347,346,-1,110,346,108,-1,
        ]
    }
}
Shape{
    appearance Appearance {
        material  Material 	{
            diffuseColor 1.0 1.0 1.0
            specularColor 0.5019607843137255 0.5019607843137255 0.5019607843137255
            ambientIntensity 0.2
            transparency 0
            shininess 0.5
        }
    }
    geometry IndexedFaceSet {
        ccw TRUE
        solid FALSE
        coord DEF co Coordinate {
            point [
                -0.737 -0.532 0.0079, -0.737 -0.4888 0.0079, -0.737 -0.532 0.0039, -0.737 -0.4888 0.0039, -0.5353 -0.532 0.0079, -0.5353 -0.532 0.0039, -0.5353 -0.1383 0.0079, -0.5353 -0.1383 0.0039, -0.5882 -0.1383 0.0079, -0.5882 -0.1383 0.0039, -0.5882 -0.3112 0.0079, -0.5882 -0.3112 0.0039, -0.7274 -0.3112 0.0079, -0.7274 -0.3112 0.0039, -0.7274 -0.3544 0.0079, -0.7274 -0.3544 0.0039, -0.5882 -0.3544 0.0079, -0.5882 -0.3544 0.0039, -0.5882 -0.4888 0.0079, -0.5882 -0.4888 0.0039, -0.4537 -0.1815 0.0079, -0.4537 -0.1383 0.0079, -0.4537 -0.1815 0.0039, -0.4537 -0.1383 0.0039, -0.3673 -0.1815 0.0079, -0.3673 -0.1815 0.0039, -0.3673 -0.5368 0.0079, -0.3673 -0.5368 0.0039, -0.2281 -0.4984 0.0079, -0.2281 -0.4984 0.0039, -0.2281 -0.4504 0.0079, -0.2281 -0.4504 0.0039, -0.3193 -0.4768 0.0079, -0.3193 -0.4768 0.0039, -0.3193 -0.1815 0.0079, -0.3193 -0.1815 0.0039, -0.2281 -0.1815 0.0079, -0.2281 -0.1815 0.0039, -0.2281 -0.1383 0.0079, -0.2281 -0.1383 0.0039, -0.032 -0.1335 0.0079, -0.0501 -0.1347 0.0079, -0.0524 -0.1786 0.0079, -0.0408 -0.5368 0.0079, -0.0222 -0.5357 0.0079, -0.0217 -0.4916 0.0079, -0.0646 -0.1833 0.0079, -0.0751 -0.1407 0.0079, -0.0757 -0.191 0.0079, -0.097 -0.1517 0.0079, -0.0865 -0.2032 0.0079, -0.1166 -0.1683 0.0079, -0.0974 -0.2237 0.0079, -0.1351 -0.1931 0.0079, -0.1079 -0.2636 0.0079, -0.0092 -0.4868 0.0079, 0.0035 -0.5295 0.0079, 0.0022 -0.4788 0.0079, 0.0258 -0.5183 0.0079, 0.0134 -0.466 0.0079, 0.0458 -0.5011 0.0079, 0.0252 -0.4431 0.0079, 0.0637 -0.4762 0.0079, 0.0803 -0.4363 0.0079, 0.0361 -0.4001 0.0079, 0.0906 -0.3839 0.0079, 0.0408 -0.3302 0.0079, 0.0936 -0.3275 0.0079, 0.0408 -0.3299 0.0079, 0.0936 -0.3232 0.0079, 0.0377 -0.2748 0.0079, 0.0876 -0.2547 0.0079, 0.0258 -0.2247 0.0079, 0.0732 -0.2062 0.0079, 0.0161 -0.2059 0.0079, 0.0553 -0.1755 0.0079, 0.0066 -0.1939 0.0079, 0.0379 -0.1572 0.0079, -0.0043 -0.1853 0.0079, 0.0184 -0.1445 0.0079, -0.0178 -0.1793 0.0079, -0.0041 -0.1365 0.0079, -0.0317 -0.1769 0.0079, -0.0366 -0.1767 0.0079, -0.0381 -0.4936 0.0079, -0.0441 -0.4933 0.0079, -0.0694 -0.5338 0.0079, -0.0562 -0.4908 0.0079, -0.0924 -0.5258 0.0079, -0.0687 -0.485 0.0079, -0.1122 -0.5129 0.0079, -0.0786 -0.4767 0.0079, -0.1284 -0.4956 0.0079, -0.0901 -0.4613 0.0079, -0.145 -0.4664 0.0079, -0.0997 -0.4391 0.0079, -0.1589 -0.4188 0.0079, -0.1097 -0.3918 0.0079, -0.1654 -0.3493 0.0079, -0.1128 -0.3325 0.0079, -0.1656 -0.3368 0.0079, -0.1128 -0.3324 0.0079, -0.1626 -0.2826 0.0079, -0.1519 -0.2315 0.0079, -0.032 -0.1335 0.0039, -0.0095 -0.1359 0.0039, -0.0041 -0.1365 0.0039, 0.0184 -0.1445 0.0039, 0.0379 -0.1572 0.0039, 0.0553 -0.1755 0.0039, 0.0732 -0.2062 0.0039, 0.0876 -0.2547 0.0039, 0.0936 -0.3232 0.0039, 0.0936 -0.3275 0.0039, -0.0501 -0.1347 0.0039, -0.0553 -0.1359 0.0039, -0.0751 -0.1407 0.0039, -0.097 -0.1517 0.0039, -0.1166 -0.1683 0.0039, -0.1351 -0.1931 0.0039, -0.1519 -0.2315 0.0039, -0.1626 -0.2826 0.0039, -0.1656 -0.3368 0.0039, -0.1654 -0.3493 0.0039, -0.1589 -0.4188 0.0039, -0.145 -0.4664 0.0039, -0.1284 -0.4956 0.0039, -0.1122 -0.5129 0.0039, -0.0924 -0.5258 0.0039, -0.0694 -0.5338 0.0039, -0.0408 -0.5368 0.0039, -0.0222 -0.5357 0.0039, 0.0035 -0.5295 0.0039, 0.0258 -0.5183 0.0039, 0.0458 -0.5011 0.0039, 0.0637 -0.4762 0.0039, 0.0803 -0.4363 0.0039, 0.0906 -0.3839 0.0039, 0.0408 -0.3299 0.0039, 0.0408 -0.3302 0.0039, 0.0361 -0.4001 0.0039, 0.0252 -0.4431 0.0039, 0.0134 -0.466 0.0039, 0.0022 -0.4788 0.0039, -0.0092 -0.4868 0.0039, -0.0217 -0.4916 0.0039, -0.0381 -0.4936 0.0039, -0.0366 -0.1767 0.0039, -0.0317 -0.1769 0.0039, -0.0178 -0.1793 0.0039, -0.0043 -0.1853 0.0039, 0.0066 -0.1939 0.0039, 0.0161 -0.2059 0.0039, 0.0258 -0.2247 0.0039, 0.0377 -0.2748 0.0039, -0.1128 -0.3325 0.0039, -0.1128 -0.3324 0.0039, -0.1079 -0.2636 0.0039, -0.0974 -0.2237 0.0039, -0.0865 -0.2032 0.0039, -0.0757 -0.191 0.0039, -0.0646 -0.1833 0.0039, -0.0524 -0.1786 0.0039, -0.0441 -0.4933 0.0039, -0.0562 -0.4908 0.0039, -0.0687 -0.485 0.0039, -0.0786 -0.4767 0.0039, -0.0901 -0.4613 0.0039, -0.0997 -0.4391 0.0039, -0.1097 -0.3918 0.0039, -0.1097 -0.3918 0.0039
            ]
        }
        coordIndex [
            0,1,2,-1,2,1,3,-1,4,0,5,-1,5,0,2,-1,6,4,7,-1,7,4,5,-1,8,6,9,-1,9,6,7,-1,10,8,11,-1,11,8,9,-1,12,10,13,-1,13,10,11,-1,14,12,15,-1,15,12,13,-1,16,14,17,-1,17,14,15,-1,18,16,19,-1,19,16,17,-1,1,18,3,-1,3,18,19,-1,4,6,10,-1,10,6,8,-1,1,0,18,-1,18,0,4,-1,18,4,16,-1,16,4,10,-1,16,10,14,-1,14,10,12,-1,20,21,22,-1,22,21,23,-1,24,20,25,-1,25,20,22,-1,26,24,27,-1,27,24,25,-1,28,26,29,-1,29,26,27,-1,30,28,31,-1,31,28,29,-1,32,30,33,-1,33,30,31,-1,34,32,35,-1,35,32,33,-1,36,34,37,-1,37,34,35,-1,38,36,39,-1,39,36,37,-1,21,38,23,-1,23,38,39,-1,34,36,38,-1,21,20,24,-1,28,30,26,-1,26,30,32,-1,26,32,24,-1,24,32,34,-1,24,34,21,-1,21,34,38,-1,40,41,42,-1,43,44,45,-1,42,41,46,-1,46,41,47,-1,46,47,48,-1,48,47,49,-1,48,49,50,-1,50,49,51,-1,50,51,52,-1,52,51,53,-1,52,53,54,-1,45,44,55,-1,55,44,56,-1,55,56,57,-1,57,56,58,-1,57,58,59,-1,59,58,60,-1,59,60,61,-1,60,62,61,-1,61,62,63,-1,61,63,64,-1,64,63,65,-1,64,65,66,-1,66,65,67,-1,66,67,68,-1,68,67,69,-1,68,69,70,-1,70,69,71,-1,70,71,72,-1,72,71,73,-1,72,73,74,-1,74,73,75,-1,74,75,76,-1,76,75,77,-1,76,77,78,-1,78,77,79,-1,78,79,80,-1,80,79,81,-1,80,81,82,-1,82,81,40,-1,82,40,83,-1,83,40,42,-1,45,84,43,-1,43,84,85,-1,43,85,86,-1,86,85,87,-1,86,87,88,-1,88,87,89,-1,88,89,90,-1,90,89,91,-1,90,91,92,-1,92,91,93,-1,92,93,94,-1,94,93,95,-1,94,95,96,-1,96,95,97,-1,96,97,98,-1,98,97,99,-1,98,99,100,-1,100,99,101,-1,100,101,102,-1,102,101,54,-1,102,54,103,-1,103,54,53,-1,104,40,105,-1,105,40,81,-1,105,81,106,-1,106,81,79,-1,106,79,107,-1,107,79,77,-1,107,77,108,-1,108,77,75,-1,108,75,109,-1,109,75,73,-1,109,73,110,-1,110,73,71,-1,110,71,111,-1,111,71,69,-1,111,69,112,-1,112,69,67,-1,112,67,113,-1,40,104,114,-1,40,114,41,-1,41,114,115,-1,41,115,47,-1,115,116,47,-1,47,116,117,-1,47,117,49,-1,49,117,118,-1,49,118,51,-1,51,118,119,-1,51,119,53,-1,53,119,120,-1,53,120,103,-1,103,120,121,-1,103,121,102,-1,102,121,122,-1,102,122,100,-1,100,122,123,-1,100,123,98,-1,98,123,124,-1,98,124,96,-1,96,124,125,-1,96,125,94,-1,94,125,126,-1,94,126,92,-1,92,126,127,-1,92,127,90,-1,90,127,128,-1,90,128,88,-1,88,128,129,-1,88,129,86,-1,86,129,130,-1,86,130,43,-1,43,130,131,-1,43,131,44,-1,44,131,132,-1,44,132,56,-1,56,132,133,-1,56,133,58,-1,58,133,134,-1,58,134,60,-1,60,134,135,-1,60,135,62,-1,62,135,136,-1,62,136,63,-1,63,136,137,-1,63,137,65,-1,65,137,113,-1,65,113,67,-1,68,138,139,-1,68,139,66,-1,66,139,140,-1,66,140,64,-1,64,140,141,-1,64,141,61,-1,61,141,142,-1,61,142,59,-1,59,142,143,-1,59,143,57,-1,57,143,144,-1,57,144,55,-1,55,144,145,-1,55,145,45,-1,45,145,146,-1,45,146,84,-1,83,147,148,-1,83,148,82,-1,82,148,149,-1,82,149,80,-1,80,149,150,-1,80,150,78,-1,78,150,151,-1,78,151,76,-1,76,151,152,-1,76,152,74,-1,74,152,153,-1,74,153,72,-1,72,153,154,-1,72,154,70,-1,70,154,138,-1,70,138,68,-1,99,155,156,-1,99,156,101,-1,101,156,157,-1,101,157,54,-1,54,157,158,-1,54,158,52,-1,52,158,159,-1,52,159,50,-1,50,159,160,-1,50,160,48,-1,48,160,161,-1,48,161,46,-1,46,161,162,-1,46,162,42,-1,42,162,147,-1,42,147,83,-1,84,146,163,-1,84,163,85,-1,85,163,164,-1,85,164,87,-1,87,164,165,-1,87,165,89,-1,89,165,166,-1,89,166,91,-1,91,166,167,-1,91,167,93,-1,93,167,168,-1,93,168,95,-1,95,168,169,-1,95,169,97,-1,97,169,155,-1,97,155,99,-1,
        ]
    }
}
Shape{
    appearance Appearance {
        material  Material 	{
            diffuseColor 1.0 0.6901960784313725 0.2784313725490196
            specularColor 0.5019607843137255 0.34509803921568627 0.1411764705882353
            ambientIntensity 0.2
            transparency 0
            shininess 0.5
        }
    }
    geometry IndexedFaceSet {
        ccw TRUE
        solid FALSE
        coord DEF co Coordinate {
            point [
                -0.1097 -0.3918 0.0039, 0.0361 -0.4001 0.0039, -0.1128 -0.3325 0.0039, 0.0408 -0.3302 0.0039, -0.1128 -0.3324 0.0039, 0.0408 -0.3299 0.0039, 0.0377 -0.2748 0.0039, 0.0252 -0.4431 0.0039, -0.0381 -0.4936 0.0039, -0.0441 -0.4933 0.0039, -0.0974 -0.2237 0.0039, -0.1079 -0.2636 0.0039, -0.0366 -0.1767 0.0039, -0.0317 -0.1769 0.0039, 0.0258 -0.2247 0.0039, 0.0161 -0.2059 0.0039, 0.0066 -0.1939 0.0039, -0.0997 -0.4391 0.0039, -0.0901 -0.4613 0.0039, -0.0786 -0.4767 0.0039, -0.0217 -0.4916 0.0039, -0.0092 -0.4868 0.0039, -0.0043 -0.1853 0.0039, -0.0178 -0.1793 0.0039, -0.0524 -0.1786 0.0039, -0.0646 -0.1833 0.0039, -0.0865 -0.2032 0.0039, -0.0757 -0.191 0.0039, -0.0687 -0.485 0.0039, -0.0562 -0.4908 0.0039, 0.0022 -0.4788 0.0039, 0.0134 -0.466 0.0039, 0.0134 -0.466 0.0039
            ]
        }
        coordIndex [
            0,1,2,-1,2,1,3,-1,2,3,4,-1,4,3,5,-1,4,5,6,-1,7,1,8,-1,8,1,9,-1,10,11,12,-1,12,11,4,-1,12,4,13,-1,6,14,4,-1,4,14,15,-1,4,15,16,-1,0,17,1,-1,1,17,18,-1,1,18,19,-1,8,20,21,-1,16,22,4,-1,4,22,23,-1,4,23,13,-1,12,24,10,-1,10,24,25,-1,10,25,26,-1,26,25,27,-1,19,28,1,-1,1,28,29,-1,1,29,9,-1,21,30,8,-1,8,30,31,-1,8,31,7,-1,
        ]
    }
}
Shape{
    appearance Appearance {
        material  Material 	{
            diffuseColor 1.0 1.0 1.0
            specularColor 0.5019607843137255 0.5019607843137255 0.5019607843137255
            ambientIntensity 0.2
            transparency 0
            shininess 0.5
        }
    }
    geometry IndexedFaceSet {
        ccw TRUE
        solid FALSE
        coord DEF co Coordinate {
            point [
                0.2705 -0.1335 0.0079, 0.2523 -0.1347 0.0079, 0.2501 -0.1786 0.0079, 0.2617 -0.5368 0.0079, 0.2803 -0.5357 0.0079, 0.2808 -0.4916 0.0079, 0.2378 -0.1833 0.0079, 0.2274 -0.1407 0.0079, 0.2268 -0.191 0.0079, 0.2055 -0.1517 0.0079, 0.216 -0.2032 0.0079, 0.1859 -0.1683 0.0079, 0.2051 -0.2237 0.0079, 0.1673 -0.1931 0.0079, 0.1946 -0.2636 0.0079, 0.2933 -0.4868 0.0079, 0.306 -0.5295 0.0079, 0.3047 -0.4788 0.0079, 0.3283 -0.5183 0.0079, 0.3159 -0.466 0.0079, 0.3482 -0.5011 0.0079, 0.3277 -0.4431 0.0079, 0.3662 -0.4762 0.0079, 0.3828 -0.4363 0.0079, 0.3386 -0.4001 0.0079, 0.3931 -0.3839 0.0079, 0.3433 -0.3302 0.0079, 0.3961 -0.3275 0.0079, 0.3433 -0.3299 0.0079, 0.396 -0.3232 0.0079, 0.3402 -0.2748 0.0079, 0.3901 -0.2547 0.0079, 0.3282 -0.2247 0.0079, 0.3757 -0.2062 0.0079, 0.3186 -0.2059 0.0079, 0.3578 -0.1755 0.0079, 0.3091 -0.1939 0.0079, 0.3404 -0.1572 0.0079, 0.2982 -0.1853 0.0079, 0.3208 -0.1445 0.0079, 0.2846 -0.1793 0.0079, 0.2984 -0.1365 0.0079, 0.2707 -0.1769 0.0079, 0.2659 -0.1767 0.0079, 0.2644 -0.4936 0.0079, 0.2584 -0.4933 0.0079, 0.2331 -0.5338 0.0079, 0.2462 -0.4908 0.0079, 0.2101 -0.5258 0.0079, 0.2338 -0.485 0.0079, 0.1902 -0.5129 0.0079, 0.2238 -0.4767 0.0079, 0.1741 -0.4956 0.0079, 0.2124 -0.4613 0.0079, 0.1575 -0.4664 0.0079, 0.2028 -0.4391 0.0079, 0.1436 -0.4188 0.0079, 0.1928 -0.3918 0.0079, 0.137 -0.3493 0.0079, 0.1896 -0.3325 0.0079, 0.1368 -0.3368 0.0079, 0.1896 -0.3324 0.0079, 0.1399 -0.2826 0.0079, 0.1506 -0.2315 0.0079, 0.2705 -0.1335 0.0039, 0.293 -0.1359 0.0039, 0.2984 -0.1365 0.0039, 0.3208 -0.1445 0.0039, 0.3404 -0.1572 0.0039, 0.3578 -0.1755 0.0039, 0.3757 -0.2062 0.0039, 0.3901 -0.2547 0.0039, 0.396 -0.3232 0.0039, 0.3961 -0.3275 0.0039, 0.2523 -0.1347 0.0039, 0.2472 -0.1359 0.0039, 0.2274 -0.1407 0.0039, 0.2055 -0.1517 0.0039, 0.1859 -0.1683 0.0039, 0.1673 -0.1931 0.0039, 0.1506 -0.2315 0.0039, 0.1399 -0.2826 0.0039, 0.1368 -0.3368 0.0039, 0.137 -0.3493 0.0039, 0.1436 -0.4188 0.0039, 0.1575 -0.4664 0.0039, 0.1741 -0.4956 0.0039, 0.1902 -0.5129 0.0039, 0.2101 -0.5258 0.0039, 0.2331 -0.5338 0.0039, 0.2617 -0.5368 0.0039, 0.2803 -0.5357 0.0039, 0.306 -0.5295 0.0039, 0.3283 -0.5183 0.0039, 0.3482 -0.5011 0.0039, 0.3662 -0.4762 0.0039, 0.3828 -0.4363 0.0039, 0.3931 -0.3839 0.0039, 0.3433 -0.3299 0.0039, 0.3433 -0.3302 0.0039, 0.3386 -0.4001 0.0039, 0.3277 -0.4431 0.0039, 0.3159 -0.466 0.0039, 0.3047 -0.4788 0.0039, 0.2933 -0.4868 0.0039, 0.2808 -0.4916 0.0039, 0.2644 -0.4936 0.0039, 0.2659 -0.1767 0.0039, 0.2707 -0.1769 0.0039, 0.2846 -0.1793 0.0039, 0.2982 -0.1853 0.0039, 0.3091 -0.1939 0.0039, 0.3186 -0.2059 0.0039, 0.3282 -0.2247 0.0039, 0.3402 -0.2748 0.0039, 0.1896 -0.3325 0.0039, 0.1896 -0.3324 0.0039, 0.1946 -0.2636 0.0039, 0.2051 -0.2237 0.0039, 0.216 -0.2032 0.0039, 0.2268 -0.191 0.0039, 0.2378 -0.1833 0.0039, 0.2501 -0.1786 0.0039, 0.2584 -0.4933 0.0039, 0.2462 -0.4908 0.0039, 0.2338 -0.485 0.0039, 0.2238 -0.4767 0.0039, 0.2124 -0.4613 0.0039, 0.2028 -0.4391 0.0039, 0.1928 -0.3918 0.0039, 0.1928 -0.3918 0.0039
            ]
        }
        coordIndex [
            0,1,2,-1,3,4,5,-1,2,1,6,-1,6,1,7,-1,6,7,8,-1,8,7,9,-1,8,9,10,-1,10,9,11,-1,10,11,12,-1,12,11,13,-1,12,13,14,-1,5,4,15,-1,15,4,16,-1,15,16,17,-1,17,16,18,-1,17,18,19,-1,19,18,20,-1,19,20,21,-1,20,22,21,-1,21,22,23,-1,21,23,24,-1,24,23,25,-1,24,25,26,-1,26,25,27,-1,26,27,28,-1,28,27,29,-1,28,29,30,-1,30,29,31,-1,30,31,32,-1,32,31,33,-1,32,33,34,-1,34,33,35,-1,34,35,36,-1,36,35,37,-1,36,37,38,-1,38,37,39,-1,38,39,40,-1,40,39,41,-1,40,41,42,-1,42,41,0,-1,42,0,43,-1,43,0,2,-1,5,44,3,-1,3,44,45,-1,3,45,46,-1,46,45,47,-1,46,47,48,-1,48,47,49,-1,48,49,50,-1,50,49,51,-1,50,51,52,-1,52,51,53,-1,52,53,54,-1,54,53,55,-1,54,55,56,-1,56,55,57,-1,56,57,58,-1,58,57,59,-1,58,59,60,-1,60,59,61,-1,60,61,62,-1,62,61,14,-1,62,14,63,-1,63,14,13,-1,64,0,65,-1,65,0,41,-1,65,41,66,-1,66,41,39,-1,66,39,67,-1,67,39,37,-1,67,37,68,-1,68,37,35,-1,68,35,69,-1,69,35,33,-1,69,33,70,-1,70,33,31,-1,70,31,71,-1,71,31,29,-1,71,29,72,-1,72,29,27,-1,72,27,73,-1,0,64,74,-1,0,74,1,-1,1,74,75,-1,1,75,7,-1,75,76,7,-1,7,76,77,-1,7,77,9,-1,9,77,78,-1,9,78,11,-1,11,78,79,-1,11,79,13,-1,13,79,80,-1,13,80,63,-1,63,80,81,-1,63,81,62,-1,62,81,82,-1,62,82,60,-1,60,82,83,-1,60,83,58,-1,58,83,84,-1,58,84,56,-1,56,84,85,-1,56,85,54,-1,54,85,86,-1,54,86,52,-1,52,86,87,-1,52,87,50,-1,50,87,88,-1,50,88,48,-1,48,88,89,-1,48,89,46,-1,46,89,90,-1,46,90,3,-1,3,90,91,-1,3,91,4,-1,4,91,92,-1,4,92,16,-1,16,92,93,-1,16,93,18,-1,18,93,94,-1,18,94,20,-1,20,94,95,-1,20,95,22,-1,22,95,96,-1,22,96,23,-1,23,96,97,-1,23,97,25,-1,25,97,73,-1,25,73,27,-1,28,98,99,-1,28,99,26,-1,26,99,100,-1,26,100,24,-1,24,100,101,-1,24,101,21,-1,21,101,102,-1,21,102,19,-1,19,102,103,-1,19,103,17,-1,17,103,104,-1,17,104,15,-1,15,104,105,-1,15,105,5,-1,5,105,106,-1,5,106,44,-1,43,107,108,-1,43,108,42,-1,42,108,109,-1,42,109,40,-1,40,109,110,-1,40,110,38,-1,38,110,111,-1,38,111,36,-1,36,111,112,-1,36,112,34,-1,34,112,113,-1,34,113,32,-1,32,113,114,-1,32,114,30,-1,30,114,98,-1,30,98,28,-1,59,115,116,-1,59,116,61,-1,61,116,117,-1,61,117,14,-1,14,117,118,-1,14,118,12,-1,12,118,119,-1,12,119,10,-1,10,119,120,-1,10,120,8,-1,8,120,121,-1,8,121,6,-1,6,121,122,-1,6,122,2,-1,2,122,107,-1,2,107,43,-1,44,106,123,-1,44,123,45,-1,45,123,124,-1,45,124,47,-1,47,124,125,-1,47,125,49,-1,49,125,126,-1,49,126,51,-1,51,126,127,-1,51,127,53,-1,53,127,128,-1,53,128,55,-1,55,128,129,-1,55,129,57,-1,57,129,115,-1,57,115,59,-1,
        ]
    }
}
Shape{
    appearance Appearance {
        material  Material 	{
            diffuseColor 1.0 0.6901960784313725 0.2784313725490196
            specularColor 0.5019607843137255 0.34509803921568627 0.1411764705882353
            ambientIntensity 0.2
            transparency 0
            shininess 0.5
        }
    }
    geometry IndexedFaceSet {
        ccw TRUE
        solid FALSE
        coord DEF co Coordinate {
            point [
                0.1928 -0.3918 0.0039, 0.3386 -0.4001 0.0039, 0.1896 -0.3325 0.0039, 0.3433 -0.3302 0.0039, 0.1896 -0.3324 0.0039, 0.3433 -0.3299 0.0039, 0.3402 -0.2748 0.0039, 0.3277 -0.4431 0.0039, 0.2644 -0.4936 0.0039, 0.2584 -0.4933 0.0039, 0.2051 -0.2237 0.0039, 0.1946 -0.2636 0.0039, 0.2659 -0.1767 0.0039, 0.2707 -0.1769 0.0039, 0.3282 -0.2247 0.0039, 0.3186 -0.2059 0.0039, 0.3091 -0.1939 0.0039, 0.2028 -0.4391 0.0039, 0.2124 -0.4613 0.0039, 0.2238 -0.4767 0.0039, 0.2808 -0.4916 0.0039, 0.2933 -0.4868 0.0039, 0.2982 -0.1853 0.0039, 0.2846 -0.1793 0.0039, 0.2501 -0.1786 0.0039, 0.2378 -0.1833 0.0039, 0.216 -0.2032 0.0039, 0.2268 -0.191 0.0039, 0.2338 -0.485 0.0039, 0.2462 -0.4908 0.0039, 0.3047 -0.4788 0.0039, 0.3159 -0.466 0.0039, 0.3159 -0.466 0.0039
            ]
        }
        coordIndex [
            0,1,2,-1,2,1,3,-1,2,3,4,-1,4,3,5,-1,4,5,6,-1,7,1,8,-1,8,1,9,-1,10,11,12,-1,12,11,4,-1,12,4,13,-1,6,14,4,-1,4,14,15,-1,4,15,16,-1,0,17,1,-1,1,17,18,-1,1,18,19,-1,8,20,21,-1,16,22,4,-1,4,22,23,-1,4,23,13,-1,12,24,10,-1,10,24,25,-1,10,25,26,-1,26,25,27,-1,19,28,1,-1,1,28,29,-1,1,29,9,-1,21,30,8,-1,8,30,31,-1,8,31,7,-1,
        ]
    }
}
Shape{
    appearance Appearance {
        material  Material 	{
            diffuseColor 1.0 1.0 1.0
            specularColor 0.5019607843137255 0.5019607843137255 0.5019607843137255
            ambientIntensity 0.2
            transparency 0
            shininess 0.5
        }
    }
    geometry IndexedFaceSet {
        ccw TRUE
        solid FALSE
        coord DEF co Coordinate {
            point [
                0.5971 -0.3496 0.0079, 0.6554 -0.3496 0.0079, 0.6554 -0.3064 0.0079, 0.6196 -0.3064 0.0079, 0.5535 -0.3224 0.0079, 0.6083 -0.3055 0.0079, 0.5535 -0.3211 0.0079, 0.5951 -0.302 0.0079, 0.5828 -0.2953 0.0079, 0.5357 -0.3107 0.0079, 0.5705 -0.2839 0.0079, 0.5229 -0.2982 0.0079, 0.5464 -0.2491 0.0079, 0.4985 -0.2631 0.0079, 0.4951 -0.2575 0.0079, 0.4825 -0.1383 0.0079, 0.4249 -0.1383 0.0079, 0.5356 -0.3771 0.0079, 0.5469 -0.3656 0.0079, 0.5604 -0.3572 0.0079, 0.5767 -0.3517 0.0079, 0.6554 -0.1383 0.0079, 0.7082 -0.1383 0.0079, 0.7082 -0.532 0.0079, 0.6554 -0.4888 0.0079, 0.5894 -0.532 0.0079, 0.5963 -0.4888 0.0079, 0.5542 -0.529 0.0079, 0.5737 -0.4869 0.0079, 0.5269 -0.5208 0.0079, 0.5542 -0.4808 0.0079, 0.5038 -0.5074 0.0079, 0.5427 -0.4737 0.0079, 0.4889 -0.493 0.0079, 0.5338 -0.4647 0.0079, 0.4771 -0.4737 0.0079, 0.5269 -0.4536 0.0079, 0.4704 -0.4527 0.0079, 0.5226 -0.4404 0.0079, 0.4681 -0.4277 0.0079, 0.5209 -0.4234 0.0079, 0.4708 -0.4008 0.0079, 0.5222 -0.4079 0.0079, 0.4778 -0.3796 0.0079, 0.5268 -0.3919 0.0079, 0.5173 -0.3374 0.0079, 0.4966 -0.353 0.0079, 0.489 -0.3614 0.0079, 0.5491 -0.3237 0.0079, 0.4951 -0.2575 0.0039, 0.4249 -0.1383 0.0039, 0.4985 -0.2631 0.0039, 0.5229 -0.2982 0.0039, 0.5357 -0.3107 0.0039, 0.5535 -0.3211 0.0039, 0.5535 -0.3224 0.0039, 0.5491 -0.3237 0.0039, 0.5173 -0.3374 0.0039, 0.4966 -0.353 0.0039, 0.489 -0.3614 0.0039, 0.4778 -0.3796 0.0039, 0.4708 -0.4008 0.0039, 0.4681 -0.4277 0.0039, 0.4704 -0.4527 0.0039, 0.4771 -0.4737 0.0039, 0.4889 -0.493 0.0039, 0.5038 -0.5074 0.0039, 0.5269 -0.5208 0.0039, 0.5542 -0.529 0.0039, 0.5894 -0.532 0.0039, 0.7082 -0.532 0.0039, 0.7082 -0.1383 0.0039, 0.6554 -0.1383 0.0039, 0.6554 -0.3064 0.0039, 0.6196 -0.3064 0.0039, 0.6083 -0.3055 0.0039, 0.5951 -0.302 0.0039, 0.5828 -0.2953 0.0039, 0.5705 -0.2839 0.0039, 0.5464 -0.2491 0.0039, 0.4825 -0.1383 0.0039, 0.5963 -0.4888 0.0039, 0.6554 -0.4888 0.0039, 0.6554 -0.3496 0.0039, 0.5971 -0.3496 0.0039, 0.5209 -0.4234 0.0039, 0.5222 -0.4079 0.0039, 0.5268 -0.3919 0.0039, 0.5356 -0.3771 0.0039, 0.5469 -0.3656 0.0039, 0.5604 -0.3572 0.0039, 0.5767 -0.3517 0.0039, 0.5737 -0.4869 0.0039, 0.5542 -0.4808 0.0039, 0.5427 -0.4737 0.0039, 0.5338 -0.4647 0.0039, 0.5269 -0.4536 0.0039, 0.5226 -0.4404 0.0039, 0.5226 -0.4404 0.0039
            ]
        }
        coordIndex [
            0,1,2,-1,2,3,4,-1,4,3,5,-1,4,5,6,-1,5,7,6,-1,6,7,8,-1,6,8,9,-1,9,8,10,-1,9,10,11,-1,11,10,12,-1,11,12,13,-1,13,12,14,-1,14,12,15,-1,14,15,16,-1,17,18,4,-1,4,18,19,-1,4,19,2,-1,2,19,20,-1,2,20,0,-1,21,2,22,-1,22,2,1,-1,22,1,23,-1,23,1,24,-1,23,24,25,-1,25,24,26,-1,25,26,27,-1,27,26,28,-1,27,28,29,-1,29,28,30,-1,29,30,31,-1,31,30,32,-1,31,32,33,-1,33,32,34,-1,33,34,35,-1,35,34,36,-1,35,36,37,-1,37,36,38,-1,37,38,39,-1,39,38,40,-1,39,40,41,-1,41,40,42,-1,41,42,43,-1,43,42,44,-1,45,46,44,-1,44,46,47,-1,44,47,43,-1,17,4,44,-1,44,4,48,-1,44,48,45,-1,14,16,49,-1,49,16,50,-1,14,49,51,-1,14,51,13,-1,13,51,52,-1,13,52,11,-1,11,52,53,-1,11,53,9,-1,9,53,54,-1,9,54,6,-1,4,6,55,-1,55,6,54,-1,4,55,56,-1,4,56,48,-1,48,56,57,-1,48,57,45,-1,45,57,58,-1,45,58,46,-1,46,58,59,-1,46,59,47,-1,47,59,60,-1,47,60,43,-1,43,60,61,-1,43,61,41,-1,41,61,62,-1,41,62,39,-1,39,62,63,-1,39,63,37,-1,37,63,64,-1,37,64,35,-1,35,64,65,-1,35,65,33,-1,33,65,66,-1,33,66,31,-1,31,66,67,-1,31,67,29,-1,29,67,68,-1,29,68,27,-1,27,68,69,-1,27,69,25,-1,23,25,70,-1,70,25,69,-1,22,23,71,-1,71,23,70,-1,21,22,72,-1,72,22,71,-1,2,21,73,-1,73,21,72,-1,3,2,74,-1,74,2,73,-1,3,74,75,-1,3,75,5,-1,5,75,76,-1,5,76,7,-1,7,76,77,-1,7,77,8,-1,8,77,78,-1,8,78,10,-1,10,78,79,-1,10,79,12,-1,15,12,80,-1,80,12,79,-1,16,15,50,-1,50,15,80,-1,26,24,81,-1,81,24,82,-1,24,1,82,-1,82,1,83,-1,1,0,83,-1,83,0,84,-1,40,85,86,-1,40,86,42,-1,42,86,87,-1,42,87,44,-1,44,87,88,-1,44,88,17,-1,17,88,89,-1,17,89,18,-1,18,89,90,-1,18,90,19,-1,19,90,91,-1,19,91,20,-1,20,91,84,-1,20,84,0,-1,26,81,92,-1,26,92,28,-1,28,92,93,-1,28,93,30,-1,30,93,94,-1,30,94,32,-1,32,94,95,-1,32,95,34,-1,34,95,96,-1,34,96,36,-1,36,96,97,-1,36,97,38,-1,38,97,85,-1,38,85,40,-1,
        ]
    }
}
Shape{
    appearance Appearance {
        material  Material 	{
            diffuseColor 1.0 0.6901960784313725 0.2784313725490196
            specularColor 0.5019607843137255 0.34509803921568627 0.1411764705882353
            ambientIntensity 0.2
            transparency 0
            shininess 0.5
        }
    }
    geometry IndexedFaceSet {
        ccw TRUE
        solid FALSE
        coord DEF co Coordinate {
            point [
                0.6554 -0.4888 0.0039, 0.6554 -0.3496 0.0039, 0.5963 -0.4888 0.0039, 0.5971 -0.3496 0.0039, 0.5767 -0.3517 0.0039, 0.5604 -0.3572 0.0039, 0.5469 -0.3656 0.0039, 0.5356 -0.3771 0.0039, 0.5269 -0.4536 0.0039, 0.5737 -0.4869 0.0039, 0.5226 -0.4404 0.0039, 0.5209 -0.4234 0.0039, 0.5338 -0.4647 0.0039, 0.5427 -0.4737 0.0039, 0.5542 -0.4808 0.0039, 0.5268 -0.3919 0.0039, 0.5222 -0.4079 0.0039, 0.5222 -0.4079 0.0039
            ]
        }
        coordIndex [
            0,1,2,-1,2,1,3,-1,2,3,4,-1,4,5,2,-1,2,5,6,-1,2,6,7,-1,8,9,10,-1,10,9,2,-1,10,2,11,-1,8,12,9,-1,9,12,13,-1,9,13,14,-1,7,15,2,-1,2,15,16,-1,2,16,11,-1,
        ]
    }
}
Shape{
    appearance Appearance {
        material  Material 	{
            diffuseColor 1.0 1.0 1.0
            specularColor 0.5019607843137255 0.5019607843137255 0.5019607843137255
            ambientIntensity 0.2
            transparency 0
            shininess 0.5
        }
    }
    geometry IndexedFaceSet {
        ccw TRUE
        solid FALSE
        coord DEF co Coordinate {
            point [
                1.3622 0.1829 -0.7701, 1.3622 0.1829 -0.7831, 1.3583 0.1829 -0.7701, 1.3583 0.1829 -0.7831, 1.3622 0.1383 -0.7701, 1.3583 0.1383 -0.7701, 1.3622 0.1383 -0.665, 1.3583 0.1383 -0.665, 1.3622 0.1224 -0.665, 1.3583 0.1224 -0.665, 1.3622 0.1224 -0.7831, 1.3583 0.1224 -0.7831, 1.3622 0.2809 -0.764, 1.3622 0.2809 -0.777, 1.3583 0.2809 -0.764, 1.3583 0.2809 -0.777, 1.3583 0.2788 -0.7652, 1.3622 0.2788 -0.7652, 1.3583 0.2662 -0.7698, 1.3622 0.2662 -0.7698, 1.3583 0.2506 -0.7716, 1.3622 0.2506 -0.7716, 1.3583 0.2396 -0.7703, 1.3622 0.2396 -0.7703, 1.3583 0.2309 -0.7671, 1.3622 0.2309 -0.7671, 1.3583 0.2237 -0.7622, 1.3622 0.2237 -0.7622, 1.3583 0.2182 -0.7564, 1.3622 0.2182 -0.7564, 1.3583 0.2133 -0.7482, 1.3622 0.2133 -0.7482, 1.3583 0.21 -0.7381, 1.3622 0.21 -0.7381, 1.3583 0.2089 -0.7253, 1.3622 0.2089 -0.7253, 1.3583 0.2094 -0.7164, 1.3622 0.2094 -0.7164, 1.3583 0.2125 -0.7036, 1.3622 0.2125 -0.7036, 1.3583 0.2173 -0.6945, 1.3622 0.2173 -0.6945, 1.3583 0.2244 -0.6866, 1.3622 0.2244 -0.6866, 1.3583 0.2328 -0.681, 1.3622 0.2328 -0.681, 1.3583 0.2416 -0.6778, 1.3622 0.2416 -0.6778, 1.3583 0.2532 -0.6765, 1.3622 0.2532 -0.6765, 1.3583 0.2676 -0.6784, 1.3622 0.2676 -0.6784, 1.3583 0.2809 -0.684, 1.3622 0.2809 -0.684, 1.3622 0.2809 -0.6682, 1.3583 0.2809 -0.6682, 1.3583 0.2672 -0.6645, 1.3622 0.2672 -0.6645, 1.3583 0.2531 -0.6635, 1.3622 0.2531 -0.6635, 1.3583 0.2404 -0.6646, 1.3622 0.2404 -0.6646, 1.3583 0.2275 -0.6686, 1.3622 0.2275 -0.6686, 1.3583 0.2164 -0.6751, 1.3622 0.2164 -0.6751, 1.3583 0.2062 -0.685, 1.3622 0.2062 -0.685, 1.3583 0.1992 -0.6961, 1.3622 0.1992 -0.6961, 1.3583 0.1947 -0.7095, 1.3622 0.1947 -0.7095, 1.3583 0.193 -0.7262, 1.3622 0.193 -0.7262, 1.3583 0.1941 -0.7397, 1.3622 0.1941 -0.7397, 1.3583 0.1976 -0.7522, 1.3622 0.1976 -0.7522, 1.3583 0.2038 -0.7635, 1.3622 0.2038 -0.7635, 1.3583 0.2127 -0.7728, 1.3622 0.2127 -0.7728, 1.3583 0.2223 -0.779, 1.3622 0.2223 -0.779, 1.3583 0.2338 -0.783, 1.3622 0.2338 -0.783, 1.3622 0.2484 -0.7845, 1.3583 0.2414 -0.7838, 1.3583 0.2484 -0.7845, 1.3622 0.2683 -0.7821, 1.3583 0.2516 -0.7845, 1.3622 0.2516 -0.7845, 1.3583 0.2563 -0.7838, 1.3583 0.2683 -0.7821, 1.3622 0.3673 -0.7701, 1.3622 0.3673 -0.7831, 1.3583 0.3673 -0.7701, 1.3583 0.3673 -0.7831, 1.3622 0.3198 -0.7701, 1.3583 0.3198 -0.7701, 1.3622 0.3198 -0.7298, 1.3583 0.3198 -0.7298, 1.3622 0.3615 -0.7298, 1.3583 0.3615 -0.7298, 1.3622 0.3615 -0.7168, 1.3583 0.3615 -0.7168, 1.3622 0.3198 -0.7168, 1.3583 0.3198 -0.7168, 1.3622 0.3198 -0.6779, 1.3583 0.3198 -0.6779, 1.3622 0.3644 -0.6779, 1.3583 0.3644 -0.6779, 1.3622 0.3644 -0.665, 1.3583 0.3644 -0.665, 1.3622 0.3039 -0.665, 1.3583 0.3039 -0.665, 1.3622 0.3039 -0.7831, 1.3583 0.3039 -0.7831, 1.3622 0.4837 -0.7383, 1.3622 0.4854 -0.7225, 1.3622 0.4696 -0.7229, 1.3622 0.4852 -0.7167, 1.3622 0.4686 -0.7111, 1.3622 0.483 -0.7044, 1.3622 0.4658 -0.7018, 1.3622 0.478 -0.6929, 1.3622 0.4617 -0.6945, 1.3622 0.4709 -0.6835, 1.3622 0.456 -0.6884, 1.3622 0.4663 -0.6793, 1.3622 0.4474 -0.6829, 1.3622 0.4546 -0.6716, 1.3622 0.4377 -0.6794, 1.3622 0.4407 -0.6668, 1.3622 0.4236 -0.6779, 1.3622 0.4237 -0.665, 1.3622 0.4062 -0.6779, 1.3622 0.3903 -0.665, 1.3622 0.4062 -0.7701, 1.3622 0.3903 -0.7831, 1.3622 0.423 -0.7701, 1.3622 0.4225 -0.7831, 1.3622 0.4354 -0.769, 1.3622 0.4371 -0.7818, 1.3622 0.4454 -0.7658, 1.3622 0.4507 -0.7777, 1.3622 0.4533 -0.7611, 1.3622 0.463 -0.7706, 1.3622 0.4599 -0.7546, 1.3622 0.4727 -0.7613, 1.3622 0.465 -0.7465, 1.3622 0.4795 -0.7507, 1.3622 0.4681 -0.7372, 1.3583 0.4225 -0.7831, 1.3583 0.3903 -0.7831, 1.3583 0.4371 -0.7818, 1.3583 0.4507 -0.7777, 1.3583 0.463 -0.7706, 1.3583 0.4727 -0.7613, 1.3583 0.4795 -0.7507, 1.3583 0.4837 -0.7383, 1.3583 0.4854 -0.7225, 1.3583 0.4852 -0.7167, 1.3583 0.483 -0.7044, 1.3583 0.478 -0.6929, 1.3583 0.4709 -0.6835, 1.3583 0.4663 -0.6793, 1.3583 0.4546 -0.6716, 1.3583 0.4407 -0.6668, 1.3583 0.4237 -0.665, 1.3583 0.3903 -0.665, 1.3583 0.4236 -0.6779, 1.3583 0.4062 -0.6779, 1.3583 0.4062 -0.7701, 1.3583 0.423 -0.7701, 1.3583 0.4696 -0.7229, 1.3583 0.4681 -0.7372, 1.3583 0.465 -0.7465, 1.3583 0.4599 -0.7546, 1.3583 0.4533 -0.7611, 1.3583 0.4454 -0.7658, 1.3583 0.4354 -0.769, 1.3583 0.4377 -0.6794, 1.3583 0.4474 -0.6829, 1.3583 0.456 -0.6884, 1.3583 0.4617 -0.6945, 1.3583 0.4658 -0.7018, 1.3583 0.4686 -0.7111, 1.3583 0.4686 -0.7111
            ]
        }
        coordIndex [
            0,1,2,-1,2,1,3,-1,4,0,5,-1,5,0,2,-1,6,4,7,-1,7,4,5,-1,8,6,9,-1,9,6,7,-1,10,8,11,-1,11,8,9,-1,1,10,3,-1,3,10,11,-1,6,8,4,-1,4,8,10,-1,4,10,0,-1,0,10,1,-1,12,13,14,-1,14,13,15,-1,12,14,16,-1,12,16,17,-1,17,16,18,-1,17,18,19,-1,19,18,20,-1,19,20,21,-1,21,20,22,-1,21,22,23,-1,23,22,24,-1,23,24,25,-1,25,24,26,-1,25,26,27,-1,27,26,28,-1,27,28,29,-1,29,28,30,-1,29,30,31,-1,31,30,32,-1,31,32,33,-1,33,32,34,-1,33,34,35,-1,35,34,36,-1,35,36,37,-1,37,36,38,-1,37,38,39,-1,39,38,40,-1,39,40,41,-1,41,40,42,-1,41,42,43,-1,43,42,44,-1,43,44,45,-1,45,44,46,-1,45,46,47,-1,47,46,48,-1,47,48,49,-1,49,48,50,-1,49,50,51,-1,51,50,52,-1,51,52,53,-1,54,53,55,-1,55,53,52,-1,54,55,56,-1,54,56,57,-1,57,56,58,-1,57,58,59,-1,59,58,60,-1,59,60,61,-1,61,60,62,-1,61,62,63,-1,63,62,64,-1,63,64,65,-1,65,64,66,-1,65,66,67,-1,67,66,68,-1,67,68,69,-1,69,68,70,-1,69,70,71,-1,71,70,72,-1,71,72,73,-1,73,72,74,-1,73,74,75,-1,75,74,76,-1,75,76,77,-1,77,76,78,-1,77,78,79,-1,79,78,80,-1,79,80,81,-1,81,80,82,-1,81,82,83,-1,83,82,84,-1,83,84,85,-1,85,84,86,-1,86,84,87,-1,86,87,88,-1,15,13,89,-1,86,88,90,-1,86,90,91,-1,91,90,92,-1,91,92,89,-1,89,92,93,-1,89,93,15,-1,23,86,21,-1,21,86,91,-1,21,91,19,-1,19,91,89,-1,19,89,17,-1,17,89,13,-1,17,13,12,-1,53,54,51,-1,51,54,57,-1,51,57,49,-1,49,57,59,-1,49,59,47,-1,47,59,61,-1,47,61,45,-1,45,61,63,-1,45,63,43,-1,43,63,65,-1,43,65,41,-1,41,65,67,-1,41,67,39,-1,39,67,69,-1,39,69,37,-1,37,69,71,-1,37,71,35,-1,35,71,73,-1,35,73,33,-1,33,73,75,-1,33,75,31,-1,31,75,77,-1,31,77,29,-1,29,77,79,-1,29,79,27,-1,27,79,81,-1,27,81,25,-1,25,81,83,-1,25,83,23,-1,23,83,85,-1,23,85,86,-1,94,95,96,-1,96,95,97,-1,98,94,99,-1,99,94,96,-1,100,98,101,-1,101,98,99,-1,102,100,103,-1,103,100,101,-1,104,102,105,-1,105,102,103,-1,106,104,107,-1,107,104,105,-1,108,106,109,-1,109,106,107,-1,110,108,111,-1,111,108,109,-1,112,110,113,-1,113,110,111,-1,114,112,115,-1,115,112,113,-1,116,114,117,-1,117,114,115,-1,95,116,97,-1,97,116,117,-1,116,95,94,-1,94,98,116,-1,116,98,100,-1,116,100,114,-1,110,112,108,-1,108,112,114,-1,108,114,106,-1,106,114,100,-1,106,100,104,-1,104,100,102,-1,118,119,120,-1,120,119,121,-1,120,121,122,-1,122,121,123,-1,122,123,124,-1,124,123,125,-1,124,125,126,-1,126,125,127,-1,126,127,128,-1,128,127,129,-1,128,129,130,-1,130,129,131,-1,130,131,132,-1,132,131,133,-1,132,133,134,-1,134,133,135,-1,134,135,136,-1,136,135,137,-1,136,137,138,-1,138,137,139,-1,138,139,140,-1,140,139,141,-1,140,141,142,-1,142,141,143,-1,142,143,144,-1,144,143,145,-1,144,145,146,-1,146,145,147,-1,146,147,148,-1,148,147,149,-1,148,149,150,-1,150,149,151,-1,150,151,152,-1,152,151,118,-1,152,118,120,-1,141,139,153,-1,153,139,154,-1,141,153,155,-1,141,155,143,-1,143,155,156,-1,143,156,145,-1,145,156,157,-1,145,157,147,-1,147,157,158,-1,147,158,149,-1,149,158,159,-1,149,159,151,-1,151,159,160,-1,151,160,118,-1,118,160,161,-1,118,161,119,-1,119,161,162,-1,119,162,121,-1,121,162,163,-1,121,163,123,-1,123,163,164,-1,123,164,125,-1,125,164,165,-1,125,165,127,-1,127,165,166,-1,127,166,129,-1,129,166,167,-1,129,167,131,-1,131,167,168,-1,131,168,133,-1,133,168,169,-1,133,169,135,-1,137,135,170,-1,170,135,169,-1,139,137,154,-1,154,137,170,-1,134,136,171,-1,171,136,172,-1,136,138,172,-1,172,138,173,-1,138,140,173,-1,173,140,174,-1,120,175,176,-1,120,176,152,-1,152,176,177,-1,152,177,150,-1,150,177,178,-1,150,178,148,-1,148,178,179,-1,148,179,146,-1,146,179,180,-1,146,180,144,-1,144,180,181,-1,144,181,142,-1,142,181,174,-1,142,174,140,-1,134,171,182,-1,134,182,132,-1,132,182,183,-1,132,183,130,-1,130,183,184,-1,130,184,128,-1,128,184,185,-1,128,185,126,-1,126,185,186,-1,126,186,124,-1,124,186,187,-1,124,187,122,-1,122,187,175,-1,122,175,120,-1,
        ]
    }
}
Shape{
    appearance Appearance {
        material  Material 	{
            diffuseColor 1.0 0.6901960784313725 0.2784313725490196
            specularColor 0.5019607843137255 0.34509803921568627 0.1411764705882353
            ambientIntensity 0.2
            transparency 0
            shininess 0.5
        }
    }
    geometry IndexedFaceSet {
        ccw TRUE
        solid FALSE
        coord DEF co Coordinate {
            point [
                1.3583 0.4236 -0.6779, 1.3583 0.4062 -0.6779, 1.3583 0.4062 -0.7701, 1.3583 0.4681 -0.7372, 1.3583 0.4696 -0.7229, 1.3583 0.465 -0.7465, 1.3583 0.4686 -0.7111, 1.3583 0.4658 -0.7018, 1.3583 0.4377 -0.6794, 1.3583 0.423 -0.7701, 1.3583 0.4354 -0.769, 1.3583 0.4454 -0.7658, 1.3583 0.4617 -0.6945, 1.3583 0.456 -0.6884, 1.3583 0.4474 -0.6829, 1.3583 0.4533 -0.7611, 1.3583 0.4599 -0.7546, 1.3583 0.4599 -0.7546
            ]
        }
        coordIndex [
            0,1,2,-1,3,4,0,-1,3,0,5,-1,4,6,0,-1,0,6,7,-1,0,7,8,-1,2,9,0,-1,0,9,10,-1,0,10,11,-1,12,13,7,-1,7,13,14,-1,7,14,8,-1,11,15,0,-1,0,15,16,-1,0,16,5,-1,
        ]
    }
}
Shape{
    appearance Appearance {
        material  Material 	{
            diffuseColor 1.0 1.0 1.0
            specularColor 0.5019607843137255 0.5019607843137255 0.5019607843137255
            ambientIntensity 0.2
            transparency 0
            shininess 0.5
        }
    }
    geometry IndexedFaceSet {
        ccw TRUE
        solid FALSE
        coord DEF co Coordinate {
            point [
                1.3622 0.5266 -0.737, 1.3622 0.5442 -0.6876, 1.3622 0.5387 -0.665, 1.3622 0.494 -0.7831, 1.3622 0.5113 -0.7831, 1.3622 0.5226 -0.7499, 1.3622 0.5453 -0.6836, 1.3622 0.5461 -0.6794, 1.3622 0.5545 -0.665, 1.3622 0.5465 -0.6794, 1.3622 0.5473 -0.6835, 1.3622 0.5661 -0.737, 1.3622 0.5714 -0.7499, 1.3622 0.5483 -0.6876, 1.3622 0.6006 -0.7831, 1.3622 0.5833 -0.7831, 1.3583 0.5545 -0.665, 1.3583 0.6006 -0.7831, 1.3583 0.5387 -0.665, 1.3583 0.494 -0.7831, 1.3583 0.5113 -0.7831, 1.3583 0.5226 -0.7499, 1.3583 0.5714 -0.7499, 1.3583 0.5833 -0.7831, 1.3583 0.5266 -0.737, 1.3583 0.5661 -0.737, 1.3583 0.5483 -0.6876, 1.3583 0.5465 -0.6794, 1.3583 0.5473 -0.6835, 1.3583 0.5461 -0.6794, 1.3583 0.5442 -0.6876, 1.3583 0.5453 -0.6836, 1.3583 0.5453 -0.6836
            ]
        }
        coordIndex [
            0,1,2,-1,3,4,5,-1,1,6,2,-1,2,6,7,-1,2,7,8,-1,8,7,9,-1,8,9,10,-1,2,3,0,-1,0,3,5,-1,0,5,11,-1,11,5,12,-1,10,13,8,-1,8,13,11,-1,8,11,14,-1,14,11,12,-1,14,12,15,-1,8,14,16,-1,16,14,17,-1,2,8,18,-1,18,8,16,-1,3,2,19,-1,19,2,18,-1,4,3,20,-1,20,3,19,-1,5,4,21,-1,21,4,20,-1,12,5,22,-1,22,5,21,-1,15,12,23,-1,23,12,22,-1,14,15,17,-1,17,15,23,-1,0,11,24,-1,24,11,25,-1,11,13,25,-1,25,13,26,-1,9,27,28,-1,9,28,10,-1,10,28,26,-1,10,26,13,-1,9,7,27,-1,27,7,29,-1,1,30,31,-1,1,31,6,-1,6,31,29,-1,6,29,7,-1,1,0,30,-1,30,0,24,-1,
        ]
    }
}
Shape{
    appearance Appearance {
        material  Material 	{
            diffuseColor 1.0 0.6901960784313725 0.2784313725490196
            specularColor 0.5019607843137255 0.34509803921568627 0.1411764705882353
            ambientIntensity 0.2
            transparency 0
            shininess 0.5
        }
    }
    geometry IndexedFaceSet {
        ccw TRUE
        solid FALSE
        coord DEF co Coordinate {
            point [
                1.3583 0.5266 -0.737, 1.3583 0.5661 -0.737, 1.3583 0.5442 -0.6876, 1.3583 0.5483 -0.6876, 1.3583 0.5453 -0.6836, 1.3583 0.5473 -0.6835, 1.3583 0.5461 -0.6794, 1.3583 0.5465 -0.6794, 1.3583 0.5465 -0.6794
            ]
        }
        coordIndex [
            0,1,2,-1,2,1,3,-1,2,3,4,-1,4,3,5,-1,4,5,6,-1,6,5,7,-1,
        ]
    }
}