#VRML V2.0 utf8
# 3D model generated by easyeda2kicad.py (https://github.com/uPesy/easyeda2kicad.py)

Shape{
    appearance Appearance {
        material  Material 	{
            diffuseColor 0.20392156862745098 0.20392156862745098 0.20392156862745098
            specularColor 0.10196078431372549 0.10196078431372549 0.10196078431372549
            ambientIntensity 0.2
            transparency 0
            shininess 0.5
        }
    }
    geometry IndexedFaceSet {
        ccw TRUE
        solid FALSE
        coord DEF co Coordinate {
            point [
                -0.0154 -0.0015 0.0, -0.0033 0.0217 0.0, 0.0194 0.0031 0.0, -0.0033 0.0964 0.0, 0.006 0.0893 0.0, 0.006 0.0288 0.0, 0.0751 0.1025 0.0, 0.0934 0.0861 0.0, 0.0489 0.109 0.0, 0.101 0.0637 0.0, 0.1012 0.0589 0.0, 0.0951 0.0346 0.0, 0.0788 0.0175 0.0, 0.0556 0.0095 0.0, -0.0154 0.6102 0.0, 0.1042 0.0899 0.0, 0.084 0.1112 0.0, 0.0248 0.0141 0.0, 0.0251 0.1042 0.0, 0.0482 0.0091 0.0, 0.0363 0.1078 0.0, 0.044 0.1088 0.0, 0.1708 0.1181 0.0, 0.1708 0.0121 0.0, 0.1254 0.0121 0.0, 0.1118 0.0597 0.0, 0.0535 0.121 0.0, 0.0482 0.1211 0.0, 0.0194 0.1151 0.0, 0.0073 0.1076 0.0, 0.0004 0.1011 0.0, 0.1814 0.0 0.0, 0.0565 -0.0015 0.0, 0.1254 0.0 0.0, 0.0749 0.0018 0.0, 0.0863 0.0081 0.0, 0.0931 0.0136 0.0, 0.0968 0.0176 0.0, 0.1082 0.0373 0.0, -0.0154 -0.6102 0.0, 0.0481 -0.003 0.0, 0.0328 -0.0015 0.0, 0.0332 -0.0015 0.0, 0.0422 -0.0028 0.0, 0.1814 0.1181 0.0, 0.5906 0.6102 0.0, 0.5906 -0.0015 0.0, 0.5906 -0.6102 0.0, -0.2274 0.0 0.0, -0.1885 0.0083 0.0, -0.1647 0.0007 0.0, -0.0275 0.1181 0.0, -0.5906 0.6077 0.0025, -0.0941 0.1181 0.0, -0.1519 0.0 0.0, -0.1153 0.0 0.0, -0.3394 0.0 0.0, -0.5906 -0.0015 0.0023, -0.2849 0.1181 0.0, -0.2834 0.1181 0.0, -0.3279 0.0 0.0, -0.5906 -0.6083 0.002, -0.239 0.0 0.0, -0.2569 0.0379 0.0, -0.3105 0.0379 0.0, -0.1767 0.1139 0.0, -0.198 0.0995 0.0, -0.0381 0.106 0.0, -0.0381 0.0697 0.0, -0.0941 0.106 0.0, -0.0941 0.0697 0.0, -0.0941 0.0575 0.0, -0.1153 0.1181 0.0, -0.0381 0.0575 0.0, -0.0381 0.0121 0.0, -0.0941 0.0121 0.0, -0.0941 0.0 0.0, -0.0275 0.0 0.0, -0.21 0.0761 0.0, -0.2123 0.0576 0.0, -0.2056 0.0279 0.0, -0.1392 0.1181 0.0, -0.1581 0.1174 0.0, 0.5906 -0.6102 0.2362, 0.5906 -0.6063 0.0039, 0.5906 0.6063 0.0039, 0.5906 0.6063 0.2323, 0.5906 0.6102 0.2362, 0.5906 -0.6063 0.2323, -0.5906 0.6102 0.2362, -0.5906 0.6063 0.2323, -0.5906 -0.6102 0.2362, -0.5906 -0.6063 0.2323, -0.5906 -0.6063 0.2323
            ]
        }
        coordIndex [
            0,1,2,-1,3,4,5,-1,6,7,8,-1,8,7,9,-1,8,9,10,-1,10,11,8,-1,8,11,12,-1,8,12,13,-1,14,15,16,-1,5,4,17,-1,17,4,18,-1,17,18,19,-1,19,18,20,-1,19,20,13,-1,13,20,21,-1,13,21,8,-1,22,23,14,-1,14,23,24,-1,14,24,15,-1,15,24,25,-1,16,26,14,-1,14,26,27,-1,14,27,28,-1,28,29,14,-1,14,29,30,-1,14,30,3,-1,31,32,33,-1,33,32,34,-1,33,34,35,-1,35,36,33,-1,33,36,37,-1,33,37,24,-1,24,37,38,-1,24,38,25,-1,39,40,32,-1,2,41,0,-1,0,41,42,-1,0,42,39,-1,39,42,43,-1,39,43,40,-1,22,14,44,-1,44,14,45,-1,44,45,31,-1,31,45,46,-1,31,46,32,-1,32,46,47,-1,32,47,39,-1,48,49,50,-1,5,1,3,-1,3,1,0,-1,3,0,14,-1,14,0,51,-1,14,51,52,-1,52,51,53,-1,54,55,0,-1,56,57,58,-1,58,57,52,-1,58,52,59,-1,56,60,57,-1,57,60,0,-1,57,0,61,-1,61,0,39,-1,50,54,48,-1,48,54,0,-1,48,0,62,-1,62,0,60,-1,62,60,63,-1,63,60,64,-1,65,66,59,-1,67,68,69,-1,69,68,70,-1,71,55,70,-1,70,55,72,-1,70,72,69,-1,69,72,53,-1,73,74,71,-1,71,74,75,-1,71,75,55,-1,55,75,76,-1,55,76,0,-1,0,76,77,-1,0,77,51,-1,66,78,59,-1,59,78,79,-1,59,79,48,-1,48,79,80,-1,48,80,49,-1,53,72,52,-1,52,72,81,-1,52,81,59,-1,59,81,82,-1,59,82,65,-1,83,47,84,-1,84,47,46,-1,84,46,85,-1,85,46,45,-1,85,45,86,-1,86,45,87,-1,86,87,88,-1,88,87,83,-1,88,83,84,-1,89,52,90,-1,89,90,91,-1,91,90,92,-1,91,92,61,-1,47,83,39,-1,39,83,91,-1,39,91,61,-1,87,45,89,-1,89,45,14,-1,89,14,52,-1,83,87,91,-1,91,87,89,-1,
        ]
    }
}
Shape{
    appearance Appearance {
        material  Material 	{
            diffuseColor 0.6470588235294118 0.6196078431372549 0.5882352941176471
            specularColor 0.45098039215686275 0.43529411764705883 0.4117647058823529
            ambientIntensity 0.2
            transparency 0
            shininess 0.5
        }
    }
    geometry IndexedFaceSet {
        ccw TRUE
        solid FALSE
        coord DEF co Coordinate {
            point [
                -0.5906 -0.6083 0.002, -0.6238 -0.6063 0.0039, -0.5906 -0.0015 0.0023, -0.6238 0.6063 0.0039, -0.5906 0.6077 0.0025, -0.6411 0.6063 -0.0001, -0.6411 -0.6063 -0.0001, -0.6549 0.6063 -0.0114, -0.6549 -0.6063 -0.0114, -0.7204 -0.6063 -0.0962, -0.7204 0.6063 -0.0962, -0.7756 -0.6063 -0.1413, -0.7756 0.6063 -0.1413, -0.8451 -0.6063 -0.1575, -0.8451 0.6063 -0.1575, -1.2402 -0.6063 -0.1575, -1.2402 0.6063 -0.1575, -1.2402 -0.6063 0.0787, -1.2402 0.6063 0.0787, -0.9031 -0.6063 0.0787, -0.9031 0.6063 0.0787, -0.8858 0.6063 0.0828, -0.8858 -0.6063 0.0828, -0.872 0.6063 0.0941, -0.872 -0.6063 0.0941, -0.8125 -0.6063 0.171, -0.8125 0.6063 0.171, -0.7573 -0.6063 0.2161, -0.7573 0.6063 0.2161, -0.6879 -0.6063 0.2323, -0.6879 0.6063 0.2323, -0.5906 -0.6063 0.2323, -0.5906 0.6063 0.2323, 0.6879 0.6063 0.2323, 0.6879 -0.6063 0.2323, 0.7573 -0.6063 0.2161, 0.7573 0.6063 0.2161, 0.8125 -0.6063 0.171, 0.8125 0.6063 0.171, 0.872 -0.6063 0.0941, 0.872 0.6063 0.0941, 0.8858 0.6063 0.0828, 0.8858 -0.6063 0.0828, 0.9031 0.6063 0.0787, 0.9031 -0.6063 0.0787, 1.2402 -0.6063 0.0787, 1.2402 0.6063 0.0787, 1.2402 -0.6063 -0.1575, 1.2402 0.6063 -0.1575, 0.8451 -0.6063 -0.1575, 0.8451 0.6063 -0.1575, 0.7756 -0.6063 -0.1413, 0.7756 0.6063 -0.1413, 0.7204 -0.6063 -0.0962, 0.7204 0.6063 -0.0962, 0.6549 -0.6063 -0.0114, 0.6549 0.6063 -0.0114, 0.6411 0.6063 -0.0001, 0.6411 -0.6063 -0.0001, 0.6238 0.6063 0.0039, 0.6238 -0.6063 0.0039, 0.5906 -0.6063 0.0039, 0.5906 0.6063 0.0039, 0.5906 -0.6063 0.2323, 0.5906 0.6063 0.2323, 0.5906 0.6063 0.2323
            ]
        }
        coordIndex [
            0,1,2,-1,2,1,3,-1,2,3,4,-1,3,1,5,-1,5,1,6,-1,5,6,7,-1,7,6,8,-1,8,9,7,-1,7,9,10,-1,10,9,11,-1,10,11,12,-1,12,11,13,-1,12,13,14,-1,13,15,14,-1,14,15,16,-1,15,17,16,-1,16,17,18,-1,17,19,18,-1,18,19,20,-1,20,19,21,-1,21,19,22,-1,21,22,23,-1,23,22,24,-1,24,25,23,-1,23,25,26,-1,26,25,27,-1,26,27,28,-1,28,27,29,-1,28,29,30,-1,29,31,30,-1,30,31,32,-1,17,15,19,-1,19,15,13,-1,19,13,22,-1,22,13,11,-1,22,11,24,-1,24,11,9,-1,24,9,25,-1,25,9,8,-1,25,8,27,-1,27,8,6,-1,27,6,29,-1,29,6,1,-1,29,1,31,-1,31,1,0,-1,16,18,14,-1,14,18,20,-1,14,20,12,-1,12,20,21,-1,12,21,10,-1,10,21,23,-1,10,23,7,-1,7,23,26,-1,7,26,5,-1,5,26,28,-1,5,28,3,-1,3,28,30,-1,3,30,4,-1,4,30,32,-1,33,34,35,-1,33,35,36,-1,36,35,37,-1,36,37,38,-1,37,39,38,-1,38,39,40,-1,40,39,41,-1,41,39,42,-1,41,42,43,-1,43,42,44,-1,44,45,43,-1,43,45,46,-1,45,47,46,-1,46,47,48,-1,47,49,48,-1,48,49,50,-1,50,49,51,-1,50,51,52,-1,52,51,53,-1,52,53,54,-1,53,55,54,-1,54,55,56,-1,56,55,57,-1,57,55,58,-1,57,58,59,-1,59,58,60,-1,60,61,59,-1,59,61,62,-1,63,34,64,-1,64,34,33,-1,63,61,34,-1,34,61,60,-1,34,60,35,-1,35,60,58,-1,35,58,37,-1,37,58,55,-1,37,55,39,-1,39,55,53,-1,39,53,42,-1,42,53,51,-1,42,51,44,-1,44,51,49,-1,44,49,45,-1,45,49,47,-1,62,64,59,-1,59,64,33,-1,59,33,57,-1,57,33,36,-1,57,36,56,-1,56,36,38,-1,56,38,54,-1,54,38,40,-1,54,40,52,-1,52,40,41,-1,52,41,50,-1,50,41,43,-1,50,43,48,-1,48,43,46,-1,
        ]
    }
}
Shape{
    appearance Appearance {
        material  Material 	{
            diffuseColor 0.7529411764705882 0.7529411764705882 0.7529411764705882
            specularColor 0.3764705882352941 0.3764705882352941 0.3764705882352941
            ambientIntensity 0.2
            transparency 0
            shininess 0.5
        }
    }
    geometry IndexedFaceSet {
        ccw TRUE
        solid FALSE
        coord DEF co Coordinate {
            point [
                -0.2834 0.1181 0.0039, -0.2849 0.1181 0.0039, -0.2834 0.1181 0.0, -0.2849 0.1181 0.0, -0.3394 0.0 0.0039, -0.3394 0.0 0.0, -0.3279 0.0 0.0039, -0.3279 0.0 0.0, -0.3105 0.0379 0.0039, -0.3105 0.0379 0.0, -0.2569 0.0379 0.0039, -0.2569 0.0379 0.0, -0.239 0.0 0.0039, -0.239 0.0 0.0, -0.2274 0.0 0.0039, -0.2274 0.0 0.0, -0.3049 0.05 0.0039, -0.2627 0.05 0.0039, -0.2841 0.0951 0.0039, -0.3049 0.05 0.0, -0.2841 0.0951 0.0, -0.2627 0.05 0.0, -0.1519 0.0 0.0039, -0.1153 0.0 0.0039, -0.1519 0.0 0.0, -0.1153 0.0 0.0, -0.1153 0.1181 0.0039, -0.1153 0.1181 0.0, -0.1392 0.1181 0.0039, -0.1392 0.1181 0.0, -0.1767 0.1139 0.0039, -0.1767 0.1139 0.0, -0.1581 0.1174 0.0, -0.1581 0.1174 0.0039, -0.2123 0.0576 0.0039, -0.2123 0.0576 0.0, -0.21 0.0761 0.0, -0.21 0.0761 0.0039, -0.198 0.0995 0.0, -0.198 0.0995 0.0039, -0.1647 0.0007 0.0, -0.1647 0.0007 0.0039, -0.1885 0.0083 0.0, -0.1885 0.0083 0.0039, -0.2056 0.0279 0.0, -0.2056 0.0279 0.0039, -0.1998 0.0429 0.0039, -0.1901 0.0256 0.0039, -0.1733 0.0151 0.0039, -0.1565 0.0126 0.0039, -0.1395 0.0121 0.0039, -0.1259 0.0121 0.0039, -0.1259 0.106 0.0039, -0.1342 0.106 0.0039, -0.1525 0.1054 0.0039, -0.1705 0.1027 0.0039, -0.1836 0.0964 0.0039, -0.1965 0.0812 0.0039, -0.2017 0.0576 0.0039, -0.1259 0.106 0.0, -0.1259 0.0121 0.0, -0.1342 0.106 0.0, -0.1525 0.1054 0.0, -0.1705 0.1027 0.0, -0.1836 0.0964 0.0, -0.1965 0.0812 0.0, -0.2017 0.0576 0.0, -0.1998 0.0429 0.0, -0.1901 0.0256 0.0, -0.1733 0.0151 0.0, -0.1565 0.0126 0.0, -0.1395 0.0121 0.0, -0.0275 0.0 0.0039, -0.0275 0.1181 0.0039, -0.0275 0.0 0.0, -0.0275 0.1181 0.0, -0.0941 0.1181 0.0039, -0.0941 0.1181 0.0, -0.0941 0.106 0.0039, -0.0941 0.106 0.0, -0.0381 0.106 0.0039, -0.0381 0.106 0.0, -0.0381 0.0697 0.0039, -0.0381 0.0697 0.0, -0.0941 0.0697 0.0039, -0.0941 0.0697 0.0, -0.0941 0.0575 0.0039, -0.0941 0.0575 0.0, -0.0381 0.0575 0.0039, -0.0381 0.0575 0.0, -0.0381 0.0121 0.0039, -0.0381 0.0121 0.0, -0.0941 0.0121 0.0039, -0.0941 0.0121 0.0, -0.0941 0.0 0.0039, -0.0941 0.0 0.0, -0.0033 0.0964 0.0039, -0.0033 0.0964 0.0, 0.0004 0.1011 0.0, 0.0004 0.1011 0.0039, 0.0073 0.1076 0.0, 0.0073 0.1076 0.0039, 0.0194 0.1151 0.0, 0.0194 0.1151 0.0039, 0.0482 0.1211 0.0, 0.0482 0.1211 0.0039, 0.006 0.0893 0.0039, 0.006 0.0893 0.0, 0.0489 0.109 0.0039, 0.0489 0.109 0.0, 0.044 0.1088 0.0, 0.044 0.1088 0.0039, 0.0363 0.1078 0.0, 0.0363 0.1078 0.0039, 0.0251 0.1042 0.0, 0.0251 0.1042 0.0039, 0.1012 0.0589 0.0039, 0.1012 0.0589 0.0, 0.101 0.0637 0.0, 0.101 0.0637 0.0039, 0.0934 0.0861 0.0, 0.0934 0.0861 0.0039, 0.0751 0.1025 0.0, 0.0751 0.1025 0.0039, 0.0482 0.0091 0.0039, 0.0482 0.0091 0.0, 0.0556 0.0095 0.0, 0.0556 0.0095 0.0039, 0.0788 0.0175 0.0, 0.0788 0.0175 0.0039, 0.0951 0.0346 0.0, 0.0951 0.0346 0.0039, 0.006 0.0288 0.0039, 0.006 0.0288 0.0, 0.0248 0.0141 0.0, 0.0248 0.0141 0.0039, -0.0033 0.0217 0.0039, -0.0033 0.0217 0.0, 0.0481 -0.003 0.0039, 0.0481 -0.003 0.0, 0.0422 -0.0028 0.0, 0.0422 -0.0028 0.0039, 0.0332 -0.0015 0.0, 0.0328 -0.0015 0.0039, 0.0328 -0.0015 0.0, 0.0194 0.0031 0.0, 0.0194 0.0031 0.0039, 0.0968 0.0176 0.0039, 0.0968 0.0176 0.0, 0.0931 0.0136 0.0, 0.0931 0.0136 0.0039, 0.0863 0.0081 0.0, 0.0863 0.0081 0.0039, 0.0749 0.0018 0.0, 0.0749 0.0018 0.0039, 0.0565 -0.0015 0.0, 0.1118 0.0597 0.0039, 0.1118 0.0597 0.0, 0.1082 0.0373 0.0, 0.1082 0.0373 0.0039, 0.0535 0.121 0.0, 0.0535 0.121 0.0039, 0.084 0.1112 0.0, 0.084 0.1112 0.0039, 0.1042 0.0899 0.0, 0.1042 0.0899 0.0039, 0.1814 0.0 0.0039, 0.1814 0.1181 0.0039, 0.1814 0.0 0.0, 0.1814 0.1181 0.0, 0.1708 0.1181 0.0039, 0.1708 0.1181 0.0, 0.1708 0.0121 0.0039, 0.1708 0.0121 0.0, 0.1254 0.0121 0.0039, 0.1254 0.0121 0.0, 0.1254 0.0 0.0039, 0.1254 0.0 0.0, 0.1254 0.0 0.0
            ]
        }
        coordIndex [
            0,1,2,-1,2,1,3,-1,1,4,3,-1,3,4,5,-1,4,6,5,-1,5,6,7,-1,6,8,7,-1,7,8,9,-1,8,10,9,-1,9,10,11,-1,10,12,11,-1,11,12,13,-1,12,14,13,-1,13,14,15,-1,14,0,15,-1,15,0,2,-1,16,4,1,-1,0,17,1,-1,1,17,18,-1,1,18,16,-1,14,12,10,-1,6,4,8,-1,8,4,16,-1,8,16,10,-1,10,16,17,-1,10,17,14,-1,14,17,0,-1,16,18,19,-1,19,18,20,-1,17,16,21,-1,21,16,19,-1,18,17,20,-1,20,17,21,-1,22,23,24,-1,24,23,25,-1,23,26,25,-1,25,26,27,-1,26,28,27,-1,27,28,29,-1,30,31,32,-1,30,32,33,-1,33,32,29,-1,33,29,28,-1,34,35,36,-1,34,36,37,-1,37,36,38,-1,37,38,39,-1,39,38,31,-1,39,31,30,-1,22,24,40,-1,22,40,41,-1,41,40,42,-1,41,42,43,-1,43,42,44,-1,43,44,45,-1,45,44,35,-1,45,35,34,-1,46,47,43,-1,43,47,48,-1,43,48,41,-1,41,48,49,-1,41,49,22,-1,22,49,50,-1,22,50,23,-1,23,50,51,-1,23,51,26,-1,26,51,52,-1,26,52,28,-1,28,52,53,-1,28,53,33,-1,33,53,54,-1,33,54,30,-1,30,54,55,-1,30,55,39,-1,39,55,56,-1,39,56,37,-1,37,56,57,-1,37,57,34,-1,34,57,58,-1,34,58,45,-1,45,58,46,-1,45,46,43,-1,52,51,59,-1,59,51,60,-1,53,52,61,-1,61,52,59,-1,53,61,62,-1,53,62,54,-1,54,62,63,-1,54,63,55,-1,55,63,64,-1,55,64,56,-1,56,64,65,-1,56,65,57,-1,57,65,66,-1,57,66,58,-1,58,66,67,-1,58,67,46,-1,46,67,68,-1,46,68,47,-1,47,68,69,-1,47,69,48,-1,48,69,70,-1,48,70,49,-1,49,70,71,-1,49,71,50,-1,51,50,60,-1,60,50,71,-1,72,73,74,-1,74,73,75,-1,73,76,75,-1,75,76,77,-1,76,78,77,-1,77,78,79,-1,78,80,79,-1,79,80,81,-1,80,82,81,-1,81,82,83,-1,82,84,83,-1,83,84,85,-1,84,86,85,-1,85,86,87,-1,86,88,87,-1,87,88,89,-1,88,90,89,-1,89,90,91,-1,90,92,91,-1,91,92,93,-1,92,94,93,-1,93,94,95,-1,94,72,95,-1,95,72,74,-1,72,94,92,-1,92,90,72,-1,72,90,88,-1,72,88,73,-1,78,76,80,-1,80,76,73,-1,80,73,82,-1,82,73,88,-1,82,88,84,-1,84,88,86,-1,96,97,98,-1,96,98,99,-1,99,98,100,-1,99,100,101,-1,101,100,102,-1,101,102,103,-1,103,102,104,-1,103,104,105,-1,96,106,97,-1,97,106,107,-1,108,109,110,-1,108,110,111,-1,111,110,112,-1,111,112,113,-1,113,112,114,-1,113,114,115,-1,115,114,107,-1,115,107,106,-1,116,117,118,-1,116,118,119,-1,119,118,120,-1,119,120,121,-1,121,120,122,-1,121,122,123,-1,123,122,109,-1,123,109,108,-1,124,125,126,-1,124,126,127,-1,127,126,128,-1,127,128,129,-1,129,128,130,-1,129,130,131,-1,131,130,117,-1,131,117,116,-1,132,133,134,-1,132,134,135,-1,135,134,125,-1,135,125,124,-1,132,136,133,-1,133,136,137,-1,138,139,140,-1,138,140,141,-1,141,140,142,-1,141,142,143,-1,142,144,143,-1,143,144,145,-1,143,145,146,-1,146,145,137,-1,146,137,136,-1,147,148,149,-1,147,149,150,-1,150,149,151,-1,150,151,152,-1,152,151,153,-1,152,153,154,-1,154,153,138,-1,138,153,155,-1,138,155,139,-1,156,157,158,-1,156,158,159,-1,159,158,148,-1,159,148,147,-1,105,104,160,-1,105,160,161,-1,161,160,162,-1,161,162,163,-1,163,162,164,-1,163,164,165,-1,165,164,157,-1,165,157,156,-1,136,132,146,-1,146,132,135,-1,156,159,131,-1,131,159,129,-1,129,159,147,-1,129,147,150,-1,106,96,99,-1,106,99,115,-1,115,99,101,-1,115,101,103,-1,150,152,129,-1,129,152,154,-1,129,154,127,-1,127,154,138,-1,127,138,124,-1,124,138,141,-1,124,141,135,-1,135,141,143,-1,135,143,146,-1,131,116,156,-1,156,116,119,-1,156,119,165,-1,165,119,121,-1,165,121,163,-1,163,121,123,-1,163,123,161,-1,161,123,108,-1,161,108,105,-1,105,108,111,-1,105,111,103,-1,103,111,113,-1,103,113,115,-1,166,167,168,-1,168,167,169,-1,167,170,169,-1,169,170,171,-1,170,172,171,-1,171,172,173,-1,172,174,173,-1,173,174,175,-1,174,176,175,-1,175,176,177,-1,176,166,177,-1,177,166,168,-1,170,167,172,-1,172,167,166,-1,172,166,174,-1,174,166,176,-1,
        ]
    }
}
Shape{
    appearance Appearance {
        material  Material 	{
            diffuseColor 0.20392156862745098 0.20392156862745098 0.20392156862745098
            specularColor 0.10196078431372549 0.10196078431372549 0.10196078431372549
            ambientIntensity 0.2
            transparency 0
            shininess 0.5
        }
    }
    geometry IndexedFaceSet {
        ccw TRUE
        solid FALSE
        coord DEF co Coordinate {
            point [
                -0.3049 0.05 0.0, -0.2841 0.0951 0.0, -0.2627 0.05 0.0, -0.1259 0.106 0.0, -0.1259 0.0121 0.0, -0.1342 0.106 0.0, -0.1395 0.0121 0.0, -0.1525 0.1054 0.0, -0.1565 0.0126 0.0, -0.1705 0.1027 0.0, -0.1733 0.0151 0.0, -0.1901 0.0256 0.0, -0.1998 0.0429 0.0, -0.2017 0.0576 0.0, -0.1965 0.0812 0.0, -0.1836 0.0964 0.0, -0.1836 0.0964 0.0
            ]
        }
        coordIndex [
            0,1,2,-1,3,4,5,-1,5,4,6,-1,5,6,7,-1,7,6,8,-1,7,8,9,-1,10,11,8,-1,8,11,12,-1,8,12,13,-1,13,14,8,-1,8,14,15,-1,8,15,9,-1,
        ]
    }
}