#VRML V2.0 utf8
# 3D model generated by easyeda2kicad.py (https://github.com/uPesy/easyeda2kicad.py)

Shape{
    appearance Appearance {
        material  Material 	{
            diffuseColor 0.19607843137254902 0.19607843137254902 0.19607843137254902
            specularColor 0.09803921568627451 0.09803921568627451 0.09803921568627451
            ambientIntensity 0.2
            transparency 0
            shininess 0.5
        }
    }
    geometry IndexedFaceSet {
        ccw TRUE
        solid FALSE
        coord DEF co Coordinate {
            point [
                0.052 -0.0283 0.0, 0.0523 -0.0284 0.0, 0.0118 -0.0274 0.0, 0.4724 -0.1673 0.0, 0.5118 -0.1673 0.0, 0.5118 -0.315 0.0, -0.1961 -0.0274 0.0, -0.1885 -0.0274 0.0, -0.0397 -0.0284 0.0, -0.1214 -0.0274 0.0, -0.0955 -0.0219 0.0, -0.0796 -0.0269 0.0, -0.0711 -0.0274 0.0, -0.0467 -0.0274 0.0, -0.0467 0.0514 0.0, -0.1588 0.0514 0.0, -0.1598 0.0514 0.0, -0.4724 0.1673 0.0, -0.1292 -0.0274 0.0, -0.1411 -0.0021 0.0, -0.1768 -0.0021 0.0, -0.4724 -0.0284 0.0, -0.1018 0.039 0.0, -0.1099 0.0234 0.0, -0.1113 0.011 0.0, -0.1069 -0.0088 0.0, -0.5118 0.1673 0.0, -0.5118 0.315 0.0, -0.0397 0.315 0.0, -0.0876 0.0485 0.0, -0.0626 0.0514 0.0, -0.0752 0.0509 0.0, -0.4724 -0.1673 0.0, -0.0397 -0.315 0.0, -0.5118 -0.1673 0.0, -0.5118 -0.315 0.0, 0.0622 -0.0294 0.0, 0.0678 -0.0284 0.0, 0.0118 0.0514 0.0, -0.0326 0.0514 0.0, -0.0326 0.0433 0.0, 0.5118 0.315 0.0, 0.4724 0.1673 0.0, 0.5118 0.1673 0.0, -0.0326 0.011 0.0, 0.0047 0.011 0.0, 0.0047 -0.0193 0.0, -0.0326 -0.0193 0.0, -0.0326 -0.0274 0.0, 0.1511 -0.0274 0.0, 0.1138 -0.0274 0.0, 0.0801 -0.0262 0.0, 0.0877 -0.022 0.0, -0.0326 0.0191 0.0, 0.0047 0.0191 0.0, 0.0047 0.0433 0.0, 0.4724 -0.0284 0.0, 0.1511 0.0514 0.0, 0.1441 0.0514 0.0, 0.0583 -0.0292 0.0, 0.0802 0.041 0.0, 0.0924 0.03 0.0, 0.0628 0.0453 0.0, 0.0975 0.0151 0.0, 0.0976 0.0119 0.0, 0.0935 -0.0043 0.0, 0.0827 -0.0157 0.0, 0.0672 -0.021 0.0, 0.0922 -0.0183 0.0, 0.0947 -0.0156 0.0, 0.1138 -0.0193 0.0, 0.1023 -0.0025 0.0, 0.1441 -0.0193 0.0, 0.1047 0.0125 0.0, 0.028 -0.0129 0.0, 0.028 0.0369 0.0, 0.0341 -0.0082 0.0, 0.0341 0.0322 0.0, 0.0467 -0.018 0.0, 0.0469 0.0421 0.0, 0.0623 -0.0213 0.0, 0.0543 0.0445 0.0, 0.0595 0.0452 0.0, 0.0623 0.0534 0.0, 0.0431 0.0494 0.0, 0.035 0.0444 0.0, 0.0996 0.0326 0.0, 0.0861 0.0468 0.0, 0.0658 0.0533 0.0, 0.0304 0.04 0.0, 0.0431 -0.0253 0.0, 0.5077 -0.1673 0.0394, 0.5077 0.1673 0.0394, 0.4622 0.2653 0.4724, 0.4622 -0.2653 0.4724, -0.4622 0.2653 0.4724, -0.4626 0.0666 0.4685, -0.4622 0.0664 0.4724, -0.4622 -0.2653 0.4724, -0.4622 -0.0664 0.4724, -0.4626 -0.0666 0.4685, -0.5077 0.1673 0.0394, -0.5077 -0.1673 0.0394, -0.4363 0.0535 0.4724, -0.4174 0.0297 0.4724, -0.4106 -0.0 0.4724, -0.4363 -0.0535 0.4724, -0.4174 -0.0297 0.4724, -0.4174 -0.0297 0.4724
            ]
        }
        coordIndex [
            0,1,2,-1,3,4,5,-1,6,7,8,-1,9,10,11,-1,12,13,8,-1,8,13,14,-1,15,16,17,-1,11,12,9,-1,9,12,8,-1,9,8,18,-1,18,8,7,-1,18,7,19,-1,19,7,20,-1,17,16,21,-1,22,23,15,-1,15,23,24,-1,15,24,9,-1,9,24,25,-1,9,25,10,-1,26,27,17,-1,17,27,28,-1,17,28,15,-1,15,28,29,-1,15,29,22,-1,14,30,28,-1,28,30,31,-1,28,31,29,-1,16,6,21,-1,21,6,8,-1,21,8,32,-1,32,8,33,-1,32,33,34,-1,34,33,35,-1,33,36,37,-1,38,39,28,-1,14,28,8,-1,8,28,39,-1,8,39,40,-1,28,41,42,-1,42,41,43,-1,44,45,46,-1,47,48,8,-1,49,37,50,-1,50,37,51,-1,50,51,52,-1,46,47,44,-1,44,47,8,-1,44,8,53,-1,53,8,40,-1,53,40,54,-1,54,40,55,-1,5,33,3,-1,3,33,37,-1,3,37,56,-1,56,37,49,-1,56,49,42,-1,42,49,57,-1,42,57,28,-1,28,57,58,-1,48,2,8,-1,8,2,1,-1,8,1,33,-1,33,1,59,-1,33,59,36,-1,60,61,62,-1,62,61,63,-1,62,63,64,-1,64,65,62,-1,62,65,66,-1,62,66,67,-1,52,68,50,-1,50,68,69,-1,50,69,70,-1,70,69,71,-1,70,71,72,-1,72,71,73,-1,72,73,58,-1,74,75,76,-1,76,75,77,-1,76,77,78,-1,78,77,79,-1,78,79,80,-1,80,79,81,-1,80,81,67,-1,67,81,82,-1,67,82,62,-1,83,84,28,-1,28,84,85,-1,73,86,58,-1,58,86,87,-1,58,87,28,-1,28,87,88,-1,28,88,83,-1,85,89,28,-1,28,89,75,-1,28,75,38,-1,38,75,74,-1,38,74,2,-1,2,74,90,-1,2,90,0,-1,5,4,91,-1,43,41,92,-1,92,41,93,-1,92,93,91,-1,91,93,94,-1,91,94,5,-1,93,41,95,-1,95,41,28,-1,95,28,27,-1,96,97,95,-1,98,99,35,-1,35,99,100,-1,27,26,101,-1,34,35,102,-1,102,35,100,-1,102,100,101,-1,101,100,96,-1,101,96,27,-1,27,96,95,-1,5,94,33,-1,33,94,98,-1,33,98,35,-1,93,95,97,-1,97,103,93,-1,93,103,104,-1,93,104,94,-1,94,104,105,-1,99,98,106,-1,106,98,94,-1,106,94,107,-1,107,94,105,-1,
        ]
    }
}
Shape{
    appearance Appearance {
        material  Material 	{
            diffuseColor 0.796078431372549 0.8235294117647058 0.9372549019607843
            specularColor 0.396078431372549 0.4117647058823529 0.4666666666666667
            ambientIntensity 0.2
            transparency 0
            shininess 0.5
        }
    }
    geometry IndexedFaceSet {
        ccw TRUE
        solid FALSE
        coord DEF co Coordinate {
            point [
                -0.5077 0.1673 0.0394, -0.7087 0.1673 0.0394, -0.5077 -0.1673 0.0394, -0.7087 -0.1673 0.0394, -0.4724 -0.1673 0.0, -0.4724 -0.1673 -0.0197, -0.4724 -0.0284 0.0, -0.4724 0.1673 -0.0197, -0.4724 0.1673 0.0, -0.5118 0.1673 0.0, -0.7087 0.1673 -0.0197, -0.5118 -0.1673 0.0, -0.7087 -0.1673 -0.0197, 0.5077 -0.1673 0.0394, 0.7087 -0.1673 0.0394, 0.5077 0.1673 0.0394, 0.7087 0.1673 0.0394, 0.4724 0.1673 0.0, 0.4724 0.1673 -0.0197, 0.4724 -0.0284 0.0, 0.4724 -0.1673 -0.0197, 0.4724 -0.1673 0.0, 0.5118 0.1673 0.0, 0.7087 0.1673 -0.0197, 0.5118 -0.1673 0.0, 0.7087 -0.1673 -0.0197, 0.7087 -0.1673 -0.0197
            ]
        }
        coordIndex [
            0,1,2,-1,2,1,3,-1,4,5,6,-1,6,5,7,-1,6,7,8,-1,8,7,9,-1,9,7,10,-1,9,10,0,-1,0,10,1,-1,5,4,11,-1,2,3,11,-1,11,3,12,-1,11,12,5,-1,1,10,3,-1,3,10,12,-1,10,7,12,-1,12,7,5,-1,13,14,15,-1,15,14,16,-1,17,18,19,-1,19,18,20,-1,19,20,21,-1,18,17,22,-1,15,16,22,-1,22,16,23,-1,22,23,18,-1,21,20,24,-1,24,20,25,-1,24,25,13,-1,13,25,14,-1,18,23,20,-1,20,23,25,-1,23,16,25,-1,25,16,14,-1,
        ]
    }
}
Shape{
    appearance Appearance {
        material  Material 	{
            diffuseColor 0.7529411764705882 0.7529411764705882 0.7529411764705882
            specularColor 0.3764705882352941 0.3764705882352941 0.3764705882352941
            ambientIntensity 0.2
            transparency 0
            shininess 0.5
        }
    }
    geometry IndexedFaceSet {
        ccw TRUE
        solid FALSE
        coord DEF co Coordinate {
            point [
                -0.1588 0.0514 0.0039, -0.1598 0.0514 0.0039, -0.1588 0.0514 0.0, -0.1598 0.0514 0.0, -0.1961 -0.0274 0.0039, -0.1961 -0.0274 0.0, -0.1885 -0.0274 0.0039, -0.1885 -0.0274 0.0, -0.1768 -0.0021 0.0039, -0.1768 -0.0021 0.0, -0.1411 -0.0021 0.0039, -0.1411 -0.0021 0.0, -0.1292 -0.0274 0.0039, -0.1292 -0.0274 0.0, -0.1214 -0.0274 0.0039, -0.1214 -0.0274 0.0, -0.1731 0.006 0.0039, -0.145 0.006 0.0039, -0.1592 0.036 0.0039, -0.1731 0.006 0.0, -0.1592 0.036 0.0, -0.145 0.006 0.0, -0.0711 -0.0274 0.0039, -0.0467 -0.0274 0.0039, -0.0711 -0.0274 0.0, -0.0467 -0.0274 0.0, -0.0467 0.0514 0.0039, -0.0467 0.0514 0.0, -0.0626 0.0514 0.0039, -0.0626 0.0514 0.0, -0.0876 0.0485 0.0039, -0.0876 0.0485 0.0, -0.0752 0.0509 0.0, -0.0752 0.0509 0.0039, -0.1113 0.011 0.0039, -0.1113 0.011 0.0, -0.1099 0.0234 0.0, -0.1099 0.0234 0.0039, -0.1018 0.039 0.0, -0.1018 0.039 0.0039, -0.0796 -0.0269 0.0, -0.0796 -0.0269 0.0039, -0.0955 -0.0219 0.0, -0.0955 -0.0219 0.0039, -0.1069 -0.0088 0.0, -0.1069 -0.0088 0.0039, -0.103 0.0012 0.0039, -0.0966 -0.0103 0.0039, -0.0853 -0.0173 0.0039, -0.0742 -0.019 0.0039, -0.0628 -0.0193 0.0039, -0.0538 -0.0193 0.0039, -0.0538 0.0433 0.0039, -0.0593 0.0433 0.0039, -0.0715 0.0429 0.0039, -0.0835 0.0411 0.0039, -0.0922 0.0369 0.0039, -0.1008 0.0268 0.0039, -0.1043 0.011 0.0039, -0.0538 0.0433 0.0, -0.0538 -0.0193 0.0, -0.0593 0.0433 0.0, -0.0715 0.0429 0.0, -0.0835 0.0411 0.0, -0.0922 0.0369 0.0, -0.1008 0.0268 0.0, -0.1043 0.011 0.0, -0.103 0.0012 0.0, -0.0966 -0.0103 0.0, -0.0853 -0.0173 0.0, -0.0742 -0.019 0.0, -0.0628 -0.0193 0.0, 0.0118 -0.0274 0.0039, 0.0118 0.0514 0.0039, 0.0118 -0.0274 0.0, 0.0118 0.0514 0.0, -0.0326 0.0514 0.0039, -0.0326 0.0514 0.0, -0.0326 0.0433 0.0039, -0.0326 0.0433 0.0, 0.0047 0.0433 0.0039, 0.0047 0.0433 0.0, 0.0047 0.0191 0.0039, 0.0047 0.0191 0.0, -0.0326 0.0191 0.0039, -0.0326 0.0191 0.0, -0.0326 0.011 0.0039, -0.0326 0.011 0.0, 0.0047 0.011 0.0039, 0.0047 0.011 0.0, 0.0047 -0.0193 0.0039, 0.0047 -0.0193 0.0, -0.0326 -0.0193 0.0039, -0.0326 -0.0193 0.0, -0.0326 -0.0274 0.0039, -0.0326 -0.0274 0.0, 0.028 0.0369 0.0039, 0.028 0.0369 0.0, 0.0304 0.04 0.0, 0.0304 0.04 0.0039, 0.035 0.0444 0.0, 0.035 0.0444 0.0039, 0.0431 0.0494 0.0, 0.0431 0.0494 0.0039, 0.0623 0.0534 0.0, 0.0623 0.0534 0.0039, 0.0341 0.0322 0.0039, 0.0341 0.0322 0.0, 0.0628 0.0453 0.0039, 0.0628 0.0453 0.0, 0.0595 0.0452 0.0, 0.0595 0.0452 0.0039, 0.0543 0.0445 0.0, 0.0543 0.0445 0.0039, 0.0469 0.0421 0.0, 0.0469 0.0421 0.0039, 0.0976 0.0119 0.0039, 0.0976 0.0119 0.0, 0.0975 0.0151 0.0, 0.0975 0.0151 0.0039, 0.0924 0.03 0.0, 0.0924 0.03 0.0039, 0.0802 0.041 0.0, 0.0802 0.041 0.0039, 0.0623 -0.0213 0.0039, 0.0623 -0.0213 0.0, 0.0672 -0.021 0.0, 0.0672 -0.021 0.0039, 0.0827 -0.0157 0.0, 0.0827 -0.0157 0.0039, 0.0935 -0.0043 0.0, 0.0935 -0.0043 0.0039, 0.0341 -0.0082 0.0039, 0.0341 -0.0082 0.0, 0.0467 -0.018 0.0, 0.0467 -0.018 0.0039, 0.028 -0.0129 0.0039, 0.028 -0.0129 0.0, 0.0622 -0.0294 0.0039, 0.0622 -0.0294 0.0, 0.0583 -0.0292 0.0, 0.0583 -0.0292 0.0039, 0.0523 -0.0284 0.0, 0.052 -0.0283 0.0039, 0.052 -0.0283 0.0, 0.0431 -0.0253 0.0, 0.0431 -0.0253 0.0039, 0.0947 -0.0156 0.0039, 0.0947 -0.0156 0.0, 0.0922 -0.0183 0.0, 0.0922 -0.0183 0.0039, 0.0877 -0.022 0.0, 0.0877 -0.022 0.0039, 0.0801 -0.0262 0.0, 0.0801 -0.0262 0.0039, 0.0678 -0.0284 0.0, 0.1047 0.0125 0.0039, 0.1047 0.0125 0.0, 0.1023 -0.0025 0.0, 0.1023 -0.0025 0.0039, 0.0658 0.0533 0.0, 0.0658 0.0533 0.0039, 0.0861 0.0468 0.0, 0.0861 0.0468 0.0039, 0.0996 0.0326 0.0, 0.0996 0.0326 0.0039, 0.1511 -0.0274 0.0039, 0.1511 0.0514 0.0039, 0.1511 -0.0274 0.0, 0.1511 0.0514 0.0, 0.1441 0.0514 0.0039, 0.1441 0.0514 0.0, 0.1441 -0.0193 0.0039, 0.1441 -0.0193 0.0, 0.1138 -0.0193 0.0039, 0.1138 -0.0193 0.0, 0.1138 -0.0274 0.0039, 0.1138 -0.0274 0.0, 0.1138 -0.0274 0.0
            ]
        }
        coordIndex [
            0,1,2,-1,2,1,3,-1,1,4,3,-1,3,4,5,-1,4,6,5,-1,5,6,7,-1,6,8,7,-1,7,8,9,-1,8,10,9,-1,9,10,11,-1,10,12,11,-1,11,12,13,-1,12,14,13,-1,13,14,15,-1,14,0,15,-1,15,0,2,-1,16,4,1,-1,0,17,1,-1,1,17,18,-1,1,18,16,-1,14,12,10,-1,6,4,8,-1,8,4,16,-1,8,16,10,-1,10,16,17,-1,10,17,14,-1,14,17,0,-1,16,18,19,-1,19,18,20,-1,17,16,21,-1,21,16,19,-1,18,17,20,-1,20,17,21,-1,22,23,24,-1,24,23,25,-1,23,26,25,-1,25,26,27,-1,26,28,27,-1,27,28,29,-1,30,31,32,-1,30,32,33,-1,33,32,29,-1,33,29,28,-1,34,35,36,-1,34,36,37,-1,37,36,38,-1,37,38,39,-1,39,38,31,-1,39,31,30,-1,22,24,40,-1,22,40,41,-1,41,40,42,-1,41,42,43,-1,43,42,44,-1,43,44,45,-1,45,44,35,-1,45,35,34,-1,46,47,43,-1,43,47,48,-1,43,48,41,-1,41,48,49,-1,41,49,22,-1,22,49,50,-1,22,50,23,-1,23,50,51,-1,23,51,26,-1,26,51,52,-1,26,52,28,-1,28,52,53,-1,28,53,33,-1,33,53,54,-1,33,54,30,-1,30,54,55,-1,30,55,39,-1,39,55,56,-1,39,56,37,-1,37,56,57,-1,37,57,34,-1,34,57,58,-1,34,58,45,-1,45,58,46,-1,45,46,43,-1,52,51,59,-1,59,51,60,-1,53,52,61,-1,61,52,59,-1,53,61,62,-1,53,62,54,-1,54,62,63,-1,54,63,55,-1,55,63,64,-1,55,64,56,-1,56,64,65,-1,56,65,57,-1,57,65,66,-1,57,66,58,-1,58,66,67,-1,58,67,46,-1,46,67,68,-1,46,68,47,-1,47,68,69,-1,47,69,48,-1,48,69,70,-1,48,70,49,-1,49,70,71,-1,49,71,50,-1,51,50,60,-1,60,50,71,-1,72,73,74,-1,74,73,75,-1,73,76,75,-1,75,76,77,-1,76,78,77,-1,77,78,79,-1,78,80,79,-1,79,80,81,-1,80,82,81,-1,81,82,83,-1,82,84,83,-1,83,84,85,-1,84,86,85,-1,85,86,87,-1,86,88,87,-1,87,88,89,-1,88,90,89,-1,89,90,91,-1,90,92,91,-1,91,92,93,-1,92,94,93,-1,93,94,95,-1,94,72,95,-1,95,72,74,-1,72,94,92,-1,92,90,72,-1,72,90,88,-1,72,88,73,-1,78,76,80,-1,80,76,73,-1,80,73,82,-1,82,73,88,-1,82,88,84,-1,84,88,86,-1,96,97,98,-1,96,98,99,-1,99,98,100,-1,99,100,101,-1,101,100,102,-1,101,102,103,-1,103,102,104,-1,103,104,105,-1,96,106,97,-1,97,106,107,-1,108,109,110,-1,108,110,111,-1,111,110,112,-1,111,112,113,-1,113,112,114,-1,113,114,115,-1,115,114,107,-1,115,107,106,-1,116,117,118,-1,116,118,119,-1,119,118,120,-1,119,120,121,-1,121,120,122,-1,121,122,123,-1,123,122,109,-1,123,109,108,-1,124,125,126,-1,124,126,127,-1,127,126,128,-1,127,128,129,-1,129,128,130,-1,129,130,131,-1,131,130,117,-1,131,117,116,-1,132,133,134,-1,132,134,135,-1,135,134,125,-1,135,125,124,-1,132,136,133,-1,133,136,137,-1,138,139,140,-1,138,140,141,-1,141,140,142,-1,141,142,143,-1,142,144,143,-1,143,144,145,-1,143,145,146,-1,146,145,137,-1,146,137,136,-1,147,148,149,-1,147,149,150,-1,150,149,151,-1,150,151,152,-1,152,151,153,-1,152,153,154,-1,154,153,138,-1,138,153,155,-1,138,155,139,-1,156,157,158,-1,156,158,159,-1,159,158,148,-1,159,148,147,-1,105,104,160,-1,105,160,161,-1,161,160,162,-1,161,162,163,-1,163,162,164,-1,163,164,165,-1,165,164,157,-1,165,157,156,-1,136,132,146,-1,146,132,135,-1,156,159,131,-1,131,159,129,-1,129,159,147,-1,129,147,150,-1,106,96,99,-1,106,99,115,-1,115,99,101,-1,115,101,103,-1,150,152,129,-1,129,152,154,-1,129,154,127,-1,127,154,138,-1,127,138,124,-1,124,138,141,-1,124,141,135,-1,135,141,143,-1,135,143,146,-1,131,116,156,-1,156,116,119,-1,156,119,165,-1,165,119,121,-1,165,121,163,-1,163,121,123,-1,163,123,161,-1,161,123,108,-1,161,108,105,-1,105,108,111,-1,105,111,103,-1,103,111,113,-1,103,113,115,-1,166,167,168,-1,168,167,169,-1,167,170,169,-1,169,170,171,-1,170,172,171,-1,171,172,173,-1,172,174,173,-1,173,174,175,-1,174,176,175,-1,175,176,177,-1,176,166,177,-1,177,166,168,-1,170,167,172,-1,172,167,166,-1,172,166,174,-1,174,166,176,-1,
        ]
    }
}
Shape{
    appearance Appearance {
        material  Material 	{
            diffuseColor 0.19607843137254902 0.19607843137254902 0.19607843137254902
            specularColor 0.09803921568627451 0.09803921568627451 0.09803921568627451
            ambientIntensity 0.2
            transparency 0
            shininess 0.5
        }
    }
    geometry IndexedFaceSet {
        ccw TRUE
        solid FALSE
        coord DEF co Coordinate {
            point [
                -0.1592 0.036 0.0, -0.145 0.006 0.0, -0.1731 0.006 0.0, -0.0538 0.0433 0.0, -0.0538 -0.0193 0.0, -0.0593 0.0433 0.0, -0.0628 -0.0193 0.0, -0.0715 0.0429 0.0, -0.0742 -0.019 0.0, -0.0835 0.0411 0.0, -0.0853 -0.0173 0.0, -0.0966 -0.0103 0.0, -0.103 0.0012 0.0, -0.1043 0.011 0.0, -0.1008 0.0268 0.0, -0.0922 0.0369 0.0, -0.0922 0.0369 0.0
            ]
        }
        coordIndex [
            0,1,2,-1,3,4,5,-1,5,4,6,-1,5,6,7,-1,7,6,8,-1,7,8,9,-1,10,11,8,-1,8,11,12,-1,8,12,13,-1,13,14,8,-1,8,14,15,-1,8,15,9,-1,
        ]
    }
}
Shape{
    appearance Appearance {
        material  Material 	{
            diffuseColor 0.7529411764705882 0.7529411764705882 0.7529411764705882
            specularColor 0.3764705882352941 0.3764705882352941 0.3764705882352941
            ambientIntensity 0.2
            transparency 0
            shininess 0.5
        }
    }
    geometry IndexedFaceSet {
        ccw TRUE
        solid FALSE
        coord DEF co Coordinate {
            point [
                -0.4626 0.0666 0.4685, -0.4626 -0.0666 0.4685, -0.4363 0.0535 0.4685, -0.4363 -0.0535 0.4685, -0.4174 -0.0297 0.4685, -0.4106 -0.0 0.4685, -0.4174 0.0297 0.4685, -0.4622 -0.0664 0.4724, -0.4363 -0.0535 0.4724, -0.4174 -0.0297 0.4724, -0.4106 -0.0 0.4724, -0.4174 0.0297 0.4724, -0.4363 0.0535 0.4724, -0.4622 0.0664 0.4724, -0.4622 0.0664 0.4724
            ]
        }
        coordIndex [
            0,1,2,-1,2,1,3,-1,3,4,2,-1,2,4,5,-1,2,5,6,-1,1,7,3,-1,3,7,8,-1,3,8,4,-1,4,8,9,-1,4,9,5,-1,5,9,10,-1,5,10,6,-1,6,10,11,-1,6,11,2,-1,2,11,12,-1,2,12,0,-1,0,12,13,-1,
        ]
    }
}